<?plantuml 1.2026.2beta3?><svg xmlns="http://www.w3.org/2000/svg" xmlns:xlink="http://www.w3.org/1999/xlink" contentStyleType="text/css" data-diagram-type="CLASS" height="900px" preserveAspectRatio="none" style="width:1073px;height:900px;background:#FFFFFF;" version="1.1" viewBox="0 0 1073 900" width="1073px" zoomAndPan="magnify"><defs/><g><!--cluster odeon--><g class="cluster" data-qualified-name="odeon" data-source-line="3" id="ent0003"><path d="M8.5,6 L58.2197,6 A3.75,3.75 0 0 1 60.7197,8.5 L67.7197,28.2969 L1063.5,28.2969 A2.5,2.5 0 0 1 1066,30.7969 L1066,890.92 A2.5,2.5 0 0 1 1063.5,893.42 L8.5,893.42 A2.5,2.5 0 0 1 6,890.92 L6,8.5 A2.5,2.5 0 0 1 8.5,6" fill="none" style="stroke:#000000;stroke-width:1.5;"/><line style="stroke:#000000;stroke-width:1.5;" x1="6" x2="67.7197" y1="28.2969" y2="28.2969"/><text fill="#000000" font-family="sans-serif" font-size="14" font-weight="bold" lengthAdjust="spacing" textLength="48.7197" x="10" y="20.9951">odeon</text></g><!--cluster model--><g class="cluster" data-qualified-name="odeon.model" data-source-line="3" id="ent0004"><path d="M32.5,49 L82.0215,49 A3.75,3.75 0 0 1 84.5215,51.5 L91.5215,71.2969 L1039.5,71.2969 A2.5,2.5 0 0 1 1042,73.7969 L1042,866.92 A2.5,2.5 0 0 1 1039.5,869.42 L32.5,869.42 A2.5,2.5 0 0 1 30,866.92 L30,51.5 A2.5,2.5 0 0 1 32.5,49" fill="none" style="stroke:#000000;stroke-width:1.5;"/><line style="stroke:#000000;stroke-width:1.5;" x1="30" x2="91.5215" y1="71.2969" y2="71.2969"/><text fill="#000000" font-family="sans-serif" font-size="14" font-weight="bold" lengthAdjust="spacing" textLength="48.5215" x="34" y="63.9951">model</text></g><!--cluster asset--><g class="cluster" data-qualified-name="odeon.model.asset" data-source-line="3" id="ent0005"><path d="M56.5,215 L99.8008,215 A3.75,3.75 0 0 1 102.3008,217.5 L109.3008,237.2969 L1015.5,237.2969 A2.5,2.5 0 0 1 1018,239.7969 L1018,842.92 A2.5,2.5 0 0 1 1015.5,845.42 L56.5,845.42 A2.5,2.5 0 0 1 54,842.92 L54,217.5 A2.5,2.5 0 0 1 56.5,215" fill="none" style="stroke:#000000;stroke-width:1.5;"/><line style="stroke:#000000;stroke-width:1.5;" x1="54" x2="109.3008" y1="237.2969" y2="237.2969"/><text fill="#000000" font-family="sans-serif" font-size="14" font-weight="bold" lengthAdjust="spacing" textLength="42.3008" x="58" y="229.9951">asset</text></g><!--cluster base--><g class="cluster" data-qualified-name="odeon.model.base" data-source-line="27" id="ent0007"><path d="M448.5,92 L486.7969,92 A3.75,3.75 0 0 1 489.2969,94.5 L496.2969,114.2969 L623.5,114.2969 A2.5,2.5 0 0 1 626,116.7969 L626,188.5 A2.5,2.5 0 0 1 623.5,191 L448.5,191 A2.5,2.5 0 0 1 446,188.5 L446,94.5 A2.5,2.5 0 0 1 448.5,92" fill="none" style="stroke:#000000;stroke-width:1.5;"/><line style="stroke:#000000;stroke-width:1.5;" x1="446" x2="496.2969" y1="114.2969" y2="114.2969"/><text fill="#000000" font-family="sans-serif" font-size="14" font-weight="bold" lengthAdjust="spacing" textLength="37.2969" x="450" y="106.9951">base</text></g><!--class Asset--><g class="entity" data-qualified-name="odeon.model.asset.Asset" data-source-line="3" id="ent0002"><rect fill="#F1F1F1" height="381.9375" rx="2.5" ry="2.5" style="stroke:#181818;stroke-width:0.5;" width="932.7598" x="69.62" y="250"/><ellipse cx="512.6161" cy="266" fill="#ADD1B2" rx="11" ry="11" style="stroke:#181818;stroke-width:1;"/><path d="M515.5848,271.6406 Q515.0067,271.9375 514.3661,272.0781 Q513.7255,272.2344 513.0223,272.2344 Q510.5223,272.2344 509.1942,270.5938 Q507.8817,268.9375 507.8817,265.8125 Q507.8817,262.6875 509.1942,261.0313 Q510.5223,259.375 513.0223,259.375 Q513.7255,259.375 514.3661,259.5313 Q515.0223,259.6875 515.5848,259.9844 L515.5848,262.7031 Q514.9598,262.125 514.3661,261.8594 Q513.7723,261.5781 513.1473,261.5781 Q511.8036,261.5781 511.1161,262.6563 Q510.4286,263.7188 510.4286,265.8125 Q510.4286,267.9063 511.1161,268.9844 Q511.8036,270.0469 513.1473,270.0469 Q513.7723,270.0469 514.3661,269.7813 Q514.9598,269.5 515.5848,268.9219 L515.5848,271.6406 Z " fill="#000000"/><text fill="#000000" font-family="sans-serif" font-size="14" lengthAdjust="spacing" textLength="38.2676" x="533.1161" y="270.8467">Asset</text><line style="stroke:#181818;stroke-width:0.5;" x1="70.62" x2="1001.3798" y1="282" y2="282"/><g data-visibility-modifier="PROTECTED_FIELD"><polygon fill="none" points="80.62,290.6484,84.62,294.6484,80.62,298.6484,76.62,294.6484" style="stroke:#B38D22;stroke-width:1;"/></g><text fill="#000000" font-family="sans-serif" font-size="14" lengthAdjust="spacing" textLength="173.5371" x="89.62" y="298.9951">_expenses: list[Expense]</text><g data-visibility-modifier="PROTECTED_FIELD"><polygon fill="none" points="80.62,306.9453,84.62,310.9453,80.62,314.9453,76.62,310.9453" style="stroke:#B38D22;stroke-width:1;"/></g><text fill="#000000" font-family="sans-serif" font-size="14" lengthAdjust="spacing" textLength="171.7461" x="89.62" y="315.292">_decision: AssetDecision</text><g data-visibility-modifier="PUBLIC_FIELD"><ellipse cx="80.62" cy="328.2422" fill="none" rx="3" ry="3" style="stroke:#038048;stroke-width:1;"/></g><text fill="#000000" font-family="sans-serif" font-size="14" lengthAdjust="spacing" textLength="113.1416" x="89.62" y="331.5889">dimension: float</text><g data-visibility-modifier="PUBLIC_FIELD"><ellipse cx="80.62" cy="344.5391" fill="none" rx="3" ry="3" style="stroke:#038048;stroke-width:1;"/></g><text fill="#000000" font-family="sans-serif" font-size="14" lengthAdjust="spacing" textLength="146.542" x="89.62" y="347.8857">dimension_min: float</text><g data-visibility-modifier="PUBLIC_FIELD"><ellipse cx="80.62" cy="360.8359" fill="none" rx="3" ry="3" style="stroke:#038048;stroke-width:1;"/></g><text fill="#000000" font-family="sans-serif" font-size="14" lengthAdjust="spacing" textLength="150.6436" x="89.62" y="364.1826">dimension_max: float</text><g data-visibility-modifier="PROTECTED_FIELD"><polygon fill="none" points="80.62,372.1328,84.62,376.1328,80.62,380.1328,76.62,376.1328" style="stroke:#B38D22;stroke-width:1;"/></g><text fill="#000000" font-family="sans-serif" font-size="14" lengthAdjust="spacing" textLength="86.9395" x="89.62" y="380.4795">_exists: bool</text><g data-visibility-modifier="PUBLIC_FIELD"><ellipse cx="80.62" cy="393.4297" fill="none" rx="3" ry="3" style="stroke:#038048;stroke-width:1;"/></g><text fill="#000000" font-family="sans-serif" font-size="14" lengthAdjust="spacing" textLength="131.5029" x="89.62" y="396.7764">type: dict[str, Any]</text><g data-visibility-modifier="PUBLIC_FIELD"><ellipse cx="80.62" cy="409.7266" fill="none" rx="3" ry="3" style="stroke:#038048;stroke-width:1;"/></g><text fill="#000000" font-family="sans-serif" font-size="14" lengthAdjust="spacing" textLength="156.8779" x="89.62" y="413.0732">lifetime_nominal: float</text><g data-visibility-modifier="PUBLIC_FIELD"><ellipse cx="80.62" cy="426.0234" fill="none" rx="3" ry="3" style="stroke:#038048;stroke-width:1;"/></g><text fill="#000000" font-family="sans-serif" font-size="14" lengthAdjust="spacing" textLength="171.5684" x="89.62" y="429.3701">lifetime_remaining: float</text><g data-visibility-modifier="PUBLIC_FIELD"><ellipse cx="80.62" cy="442.3203" fill="none" rx="3" ry="3" style="stroke:#038048;stroke-width:1;"/></g><text fill="#000000" font-family="sans-serif" font-size="14" lengthAdjust="spacing" textLength="81.6895" x="89.62" y="445.667">space: float</text><line style="stroke:#181818;stroke-width:1;stroke-dasharray:1,2;" x1="70.62" x2="1001.3798" y1="452.9688" y2="452.9688"/><g data-visibility-modifier="PUBLIC_METHOD"><ellipse cx="80.62" cy="466.6172" fill="#84BE84" rx="3" ry="3" style="stroke:#038048;stroke-width:1;"/></g><text fill="#000000" font-family="sans-serif" font-size="14" lengthAdjust="spacing" textLength="133.3213" x="89.62" y="469.9639">decision (property)</text><g data-visibility-modifier="PUBLIC_METHOD"><ellipse cx="80.62" cy="482.9141" fill="#84BE84" rx="3" ry="3" style="stroke:#038048;stroke-width:1;"/></g><text fill="#000000" font-family="sans-serif" font-size="14" lengthAdjust="spacing" textLength="142.9805" x="89.62" y="486.2607">existence (property)</text><g data-visibility-modifier="PUBLIC_METHOD"><ellipse cx="80.62" cy="499.2109" fill="#84BE84" rx="3" ry="3" style="stroke:#038048;stroke-width:1;"/></g><text fill="#000000" font-family="sans-serif" font-size="14" lengthAdjust="spacing" textLength="116.4775" x="89.62" y="502.5576">exists (property)</text><g data-visibility-modifier="PUBLIC_METHOD"><ellipse cx="80.62" cy="515.5078" fill="#84BE84" rx="3" ry="3" style="stroke:#038048;stroke-width:1;"/></g><text fill="#000000" font-family="sans-serif" font-size="14" lengthAdjust="spacing" textLength="142.085" x="89.62" y="518.8545">expenses (property)</text><line style="stroke:#181818;stroke-width:0.5;" x1="70.62" x2="1001.3798" y1="526.1563" y2="526.1563"/><g data-visibility-modifier="PUBLIC_METHOD"><ellipse cx="80.62" cy="539.8047" fill="#84BE84" rx="3" ry="3" style="stroke:#038048;stroke-width:1;"/></g><text fill="#000000" font-family="sans-serif" font-size="14" lengthAdjust="spacing" textLength="210.8477" x="89.62" y="543.1514">add_expenses(self, expenses)</text><g data-visibility-modifier="PUBLIC_METHOD"><ellipse cx="80.62" cy="556.1016" fill="#84BE84" rx="3" ry="3" style="stroke:#038048;stroke-width:1;"/></g><text fill="#000000" font-family="sans-serif" font-size="14" lengthAdjust="spacing" textLength="904.6611" x="89.62" y="559.4482">calc_annuities(self, expense_types, exclude_expense_types, expense_classes, exclude_expense_classes, name, include_virtuals)</text><g data-visibility-modifier="PUBLIC_METHOD"><ellipse cx="80.62" cy="572.3984" fill="#84BE84" rx="3" ry="3" style="stroke:#038048;stroke-width:1;"/></g><text fill="#000000" font-family="sans-serif" font-size="14" lengthAdjust="spacing" textLength="906.7598" x="89.62" y="575.7451">calc_expenses(self, expense_types, exclude_expense_types, expense_classes, exclude_expense_classes, name, include_virtuals)</text><g data-visibility-modifier="PUBLIC_METHOD"><ellipse cx="80.62" cy="588.6953" fill="#84BE84" rx="3" ry="3" style="stroke:#038048;stroke-width:1;"/></g><text fill="#000000" font-family="sans-serif" font-size="14" lengthAdjust="spacing" textLength="854.8682" x="89.62" y="592.042">get_expense(self, expense_types, exclude_expense_types, expense_classes, exclude_expense_classes, name, not_found)</text><g data-visibility-modifier="PUBLIC_METHOD"><ellipse cx="80.62" cy="604.9922" fill="#84BE84" rx="3" ry="3" style="stroke:#038048;stroke-width:1;"/></g><text fill="#000000" font-family="sans-serif" font-size="14" lengthAdjust="spacing" textLength="783.207" x="89.62" y="608.3389">get_expenses(self, expense_types, exclude_expense_types, expense_classes, exclude_expense_classes, name)</text><g data-visibility-modifier="PUBLIC_METHOD"><ellipse cx="80.62" cy="621.2891" fill="#84BE84" rx="3" ry="3" style="stroke:#038048;stroke-width:1;"/></g><text fill="#000000" font-family="sans-serif" font-size="14" lengthAdjust="spacing" textLength="237.9658" x="89.62" y="624.6357">remove_expenses(self, expenses)</text></g><!--class AssetGroup--><g class="entity" data-qualified-name="odeon.model.asset.AssetGroup" data-source-line="28" id="ent0009"><rect fill="#F1F1F1" height="137.4844" rx="2.5" ry="2.5" style="stroke:#181818;stroke-width:0.5;" width="279.6816" x="396.16" y="691.94"/><ellipse cx="491.1522" cy="707.94" fill="#ADD1B2" rx="11" ry="11" style="stroke:#181818;stroke-width:1;"/><path d="M494.1209,713.5806 Q493.5428,713.8775 492.9022,714.0181 Q492.2616,714.1744 491.5584,714.1744 Q489.0584,714.1744 487.7303,712.5337 Q486.4178,710.8775 486.4178,707.7525 Q486.4178,704.6275 487.7303,702.9712 Q489.0584,701.315 491.5584,701.315 Q492.2616,701.315 492.9022,701.4712 Q493.5584,701.6275 494.1209,701.9244 L494.1209,704.6431 Q493.4959,704.065 492.9022,703.7994 Q492.3084,703.5181 491.6834,703.5181 Q490.3397,703.5181 489.6522,704.5962 Q488.9647,705.6587 488.9647,707.7525 Q488.9647,709.8462 489.6522,710.9244 Q490.3397,711.9869 491.6834,711.9869 Q492.3084,711.9869 492.9022,711.7212 Q493.4959,711.44 494.1209,710.8619 L494.1209,713.5806 Z " fill="#000000"/><text fill="#000000" font-family="sans-serif" font-size="14" lengthAdjust="spacing" textLength="81.1973" x="511.6522" y="712.7867">AssetGroup</text><line style="stroke:#181818;stroke-width:0.5;" x1="397.16" x2="674.8416" y1="723.94" y2="723.94"/><g data-visibility-modifier="PROTECTED_FIELD"><polygon fill="none" points="407.16,732.5884,411.16,736.5884,407.16,740.5884,403.16,736.5884" style="stroke:#B38D22;stroke-width:1;"/></g><text fill="#000000" font-family="sans-serif" font-size="14" lengthAdjust="spacing" textLength="130.4844" x="416.16" y="740.9351">_assets: list[Asset]</text><g data-visibility-modifier="PROTECTED_FIELD"><polygon fill="none" points="407.16,748.8853,411.16,752.8853,407.16,756.8853,403.16,752.8853" style="stroke:#B38D22;stroke-width:1;"/></g><text fill="#000000" font-family="sans-serif" font-size="14" lengthAdjust="spacing" textLength="253.6816" x="416.16" y="757.232">_ALLOWED_ASSET_TYPES: list[Type]</text><line style="stroke:#181818;stroke-width:1;stroke-dasharray:1,2;" x1="397.16" x2="674.8416" y1="764.5337" y2="764.5337"/><g data-visibility-modifier="PUBLIC_METHOD"><ellipse cx="407.16" cy="778.1822" fill="#84BE84" rx="3" ry="3" style="stroke:#038048;stroke-width:1;"/></g><text fill="#000000" font-family="sans-serif" font-size="14" lengthAdjust="spacing" textLength="120.1758" x="416.16" y="781.5289">assets (property)</text><line style="stroke:#181818;stroke-width:0.5;" x1="397.16" x2="674.8416" y1="788.8306" y2="788.8306"/><g data-visibility-modifier="PUBLIC_METHOD"><ellipse cx="407.16" cy="802.4791" fill="#84BE84" rx="3" ry="3" style="stroke:#038048;stroke-width:1;"/></g><text fill="#000000" font-family="sans-serif" font-size="14" lengthAdjust="spacing" textLength="152.4414" x="416.16" y="805.8257">add_asset(self, asset)</text><g data-visibility-modifier="PUBLIC_METHOD"><ellipse cx="407.16" cy="818.7759" fill="#84BE84" rx="3" ry="3" style="stroke:#038048;stroke-width:1;"/></g><text fill="#000000" font-family="sans-serif" font-size="14" lengthAdjust="spacing" textLength="179.5596" x="416.16" y="822.1226">remove_asset(self, asset)</text></g><!--class CombiAsset--><g class="entity" data-qualified-name="odeon.model.asset.CombiAsset" data-source-line="39" id="ent0012"><rect fill="#F1F1F1" height="96.8906" rx="2.5" ry="2.5" style="stroke:#181818;stroke-width:0.5;" width="213.3525" x="711.32" y="712.23"/><ellipse cx="772.235" cy="728.23" fill="#ADD1B2" rx="11" ry="11" style="stroke:#181818;stroke-width:1;"/><path d="M775.2038,733.8706 Q774.6257,734.1675 773.985,734.3081 Q773.3444,734.4644 772.6413,734.4644 Q770.1413,734.4644 768.8132,732.8237 Q767.5007,731.1675 767.5007,728.0425 Q767.5007,724.9175 768.8132,723.2612 Q770.1413,721.605 772.6413,721.605 Q773.3444,721.605 773.985,721.7612 Q774.6413,721.9175 775.2038,722.2144 L775.2038,724.9331 Q774.5788,724.355 773.985,724.0894 Q773.3913,723.8081 772.7663,723.8081 Q771.4225,723.8081 770.735,724.8862 Q770.0475,725.9487 770.0475,728.0425 Q770.0475,730.1362 770.735,731.2144 Q771.4225,732.2769 772.7663,732.2769 Q773.3913,732.2769 773.985,732.0112 Q774.5788,731.73 775.2038,731.1519 L775.2038,733.8706 Z " fill="#000000"/><text fill="#000000" font-family="sans-serif" font-size="14" lengthAdjust="spacing" textLength="83.0225" x="792.735" y="733.0767">CombiAsset</text><line style="stroke:#181818;stroke-width:0.5;" x1="712.32" x2="923.6725" y1="744.23" y2="744.23"/><g data-visibility-modifier="PROTECTED_FIELD"><polygon fill="none" points="722.32,752.8784,726.32,756.8784,722.32,760.8784,718.32,756.8784" style="stroke:#B38D22;stroke-width:1;"/></g><text fill="#000000" font-family="sans-serif" font-size="14" lengthAdjust="spacing" textLength="130.4844" x="731.32" y="761.2251">_assets: list[Asset]</text><g data-visibility-modifier="PROTECTED_FIELD"><polygon fill="none" points="722.32,769.1753,726.32,773.1753,722.32,777.1753,718.32,773.1753" style="stroke:#B38D22;stroke-width:1;"/></g><text fill="#000000" font-family="sans-serif" font-size="14" lengthAdjust="spacing" textLength="177.0166" x="731.32" y="777.522">_ASSET_TYPES: list[Type]</text><line style="stroke:#181818;stroke-width:0.5;" x1="712.32" x2="923.6725" y1="784.8237" y2="784.8237"/><g data-visibility-modifier="PUBLIC_METHOD"><ellipse cx="722.32" cy="798.4722" fill="#84BE84" rx="3" ry="3" style="stroke:#038048;stroke-width:1;"/></g><text fill="#000000" font-family="sans-serif" font-size="14" lengthAdjust="spacing" textLength="187.3525" x="731.32" y="801.8189">get_asset(self, asset_type)</text></g><!--class GeometryObject--><g class="entity" data-qualified-name="odeon.model.base.GeometryObject" data-source-line="27" id="ent0006"><rect fill="#F1F1F1" height="48" rx="2.5" ry="2.5" style="stroke:#181818;stroke-width:0.5;" width="147.4043" x="462.3" y="127"/><ellipse cx="477.3" cy="143" fill="#ADD1B2" rx="11" ry="11" style="stroke:#181818;stroke-width:1;"/><path d="M480.2688,148.6406 Q479.6906,148.9375 479.05,149.0781 Q478.4094,149.2344 477.7063,149.2344 Q475.2063,149.2344 473.8781,147.5938 Q472.5656,145.9375 472.5656,142.8125 Q472.5656,139.6875 473.8781,138.0313 Q475.2063,136.375 477.7063,136.375 Q478.4094,136.375 479.05,136.5313 Q479.7063,136.6875 480.2688,136.9844 L480.2688,139.7031 Q479.6438,139.125 479.05,138.8594 Q478.4563,138.5781 477.8313,138.5781 Q476.4875,138.5781 475.8,139.6563 Q475.1125,140.7188 475.1125,142.8125 Q475.1125,144.9063 475.8,145.9844 Q476.4875,147.0469 477.8313,147.0469 Q478.4563,147.0469 479.05,146.7813 Q479.6438,146.5 480.2688,145.9219 L480.2688,148.6406 Z " fill="#000000"/><text fill="#000000" font-family="sans-serif" font-size="14" lengthAdjust="spacing" textLength="115.4043" x="491.3" y="147.8467">GeometryObject</text><line style="stroke:#181818;stroke-width:0.5;" x1="463.3" x2="608.7043" y1="159" y2="159"/><line style="stroke:#181818;stroke-width:0.5;" x1="463.3" x2="608.7043" y1="167" y2="167"/></g><!--reverse link GeometryObject to Asset--><g class="link" data-entity-1="ent0006" data-entity-2="ent0002" data-link-type="extension" data-source-line="27" id="lnk8"><path codeLine="27" d="M536,193.08 C536,211.03 536,219.83 536,249.59" fill="none" id="GeometryObject-backto-Asset" style="stroke:#181818;stroke-width:1;"/><polygon fill="none" points="536,175.08,530,193.08,542,193.08,536,175.08" style="stroke:#181818;stroke-width:1;"/></g><!--reverse link Asset to AssetGroup--><g class="link" data-entity-1="ent0002" data-entity-2="ent0009" data-link-type="extension" data-source-line="37" id="lnk10"><path codeLine="37" d="M523.7354,650.278 C524.0454,671.298 524.39,673.54 525.31,691.48" fill="none" id="Asset-backto-AssetGroup" style="stroke:#181818;stroke-width:1;"/><polygon fill="none" points="523.47,632.28,517.7361,650.3665,529.7348,650.1896,523.47,632.28" style="stroke:#181818;stroke-width:1;"/></g><!--reverse link AssetGroup to Asset--><g class="link" data-entity-1="ent0009" data-entity-2="ent0002" data-link-type="composition" data-source-line="38" id="lnk11"><path codeLine="38" d="M547.9679,679.4975 C548.9379,661.5575 548.94,653.3 549.26,632.28" fill="none" id="AssetGroup-backto-Asset" style="stroke:#181818;stroke-width:1;"/><polygon fill="#181818" points="547.32,691.48,551.6381,685.7047,547.9679,679.4975,543.6498,685.2728,547.32,691.48" style="stroke:#181818;stroke-width:1;"/></g><!--reverse link Asset to CombiAsset--><g class="link" data-entity-1="ent0002" data-entity-2="ent0012" data-link-type="extension" data-source-line="44" id="lnk13"><path codeLine="44" d="M716.8695,645.7414 C743.0295,675.2114 755.91,689.72 775.59,711.9" fill="none" id="Asset-backto-CombiAsset" style="stroke:#181818;stroke-width:1;"/><polygon fill="none" points="704.92,632.28,712.3823,649.7246,721.3566,641.7583,704.92,632.28" style="stroke:#181818;stroke-width:1;"/></g><?plantuml-src jLJHQi8m57tFLmJsCBTgFq3s8hFu8ZXG64CanEHMCjAaDAbOjltxqjJMggqFWYzjxZatEJatkNd6ceDMOU9-CgJ6W4M8IJUu9i99-SK_w8d08GLbm8on5CQkeohSE8O34qPeDSO-UteCKS15ud8y4qjDRGiXYUX4wQ56IqKdvFIsMaiKs2A5CUQ2sRMnsH1FLB51WHGnM3UTAErMfB9Pio4oIAXGGkqQogIKGHs5eTC_xXWFqaodaDdY1GLU7HI3QzHSG5LXsY0XAA2SDqKR693n4DUXcyMeP8GgbGihBdbIUZLbo6JEWLp1LUZFh2kl8HHDO8Y5gkYzo6nEPQFUlRd7Y-_0rjaFbLRQabZdYfzhFjAlKtBtJU-X_-J_KBlBjjH0E0ETWCsAnVORcCLllwDHNolURjHPflFKTwi7wrxrNDcfa_byyHbDoMIvZ5PazVKHBOyfA-TsuvkXcjbrcJrpzEF79xSTrBdFzcjoovztW6xQUxsZEkywsOhJMzPJdPwg-CjpvT1Va3jidhRo3m00?></g></svg>