<?plantuml 1.2026.2beta3?><svg xmlns="http://www.w3.org/2000/svg" xmlns:xlink="http://www.w3.org/1999/xlink" contentStyleType="text/css" data-diagram-type="CLASS" height="449px" preserveAspectRatio="none" style="width:714px;height:449px;background:#FFFFFF;" version="1.1" viewBox="0 0 714 449" width="714px" zoomAndPan="magnify"><defs/><g><!--cluster odeon--><g class="cluster" data-qualified-name="odeon" data-source-line="3" id="ent0003"><path d="M8.5,6 L58.2197,6 A3.75,3.75 0 0 1 60.7197,8.5 L67.7197,28.2969 L704.5,28.2969 A2.5,2.5 0 0 1 707,30.7969 L707,440.06 A2.5,2.5 0 0 1 704.5,442.56 L8.5,442.56 A2.5,2.5 0 0 1 6,440.06 L6,8.5 A2.5,2.5 0 0 1 8.5,6" fill="none" style="stroke:#000000;stroke-width:1.5;"/><line style="stroke:#000000;stroke-width:1.5;" x1="6" x2="67.7197" y1="28.2969" y2="28.2969"/><text fill="#000000" font-family="sans-serif" font-size="14" font-weight="bold" lengthAdjust="spacing" textLength="48.7197" x="10" y="20.9951">odeon</text></g><!--cluster model--><g class="cluster" data-qualified-name="odeon.model" data-source-line="3" id="ent0004"><path d="M32.5,49 L82.0215,49 A3.75,3.75 0 0 1 84.5215,51.5 L91.5215,71.2969 L680.5,71.2969 A2.5,2.5 0 0 1 683,73.7969 L683,416.06 A2.5,2.5 0 0 1 680.5,418.56 L32.5,418.56 A2.5,2.5 0 0 1 30,416.06 L30,51.5 A2.5,2.5 0 0 1 32.5,49" fill="none" style="stroke:#000000;stroke-width:1.5;"/><line style="stroke:#000000;stroke-width:1.5;" x1="30" x2="91.5215" y1="71.2969" y2="71.2969"/><text fill="#000000" font-family="sans-serif" font-size="14" font-weight="bold" lengthAdjust="spacing" textLength="48.5215" x="34" y="63.9951">model</text></g><!--cluster base_geometry--><g class="cluster" data-qualified-name="odeon.model.base_geometry" data-source-line="3" id="ent0005"><path d="M56.5,92 L177.7373,92 A3.75,3.75 0 0 1 180.2373,94.5 L187.2373,114.2969 L656.5,114.2969 A2.5,2.5 0 0 1 659,116.7969 L659,392.06 A2.5,2.5 0 0 1 656.5,394.56 L56.5,394.56 A2.5,2.5 0 0 1 54,392.06 L54,94.5 A2.5,2.5 0 0 1 56.5,92" fill="none" style="stroke:#000000;stroke-width:1.5;"/><line style="stroke:#000000;stroke-width:1.5;" x1="54" x2="187.2373" y1="114.2969" y2="114.2969"/><text fill="#000000" font-family="sans-serif" font-size="14" font-weight="bold" lengthAdjust="spacing" textLength="120.2373" x="58" y="106.9951">base_geometry</text></g><!--class CardinalOrientation--><g class="entity" data-qualified-name="odeon.model.base_geometry.CardinalOrientation" data-source-line="3" id="ent0002"><rect fill="#F1F1F1" height="210.9688" rx="2.5" ry="2.5" style="stroke:#181818;stroke-width:0.5;" width="244.0459" x="69.98" y="147.29"/><ellipse cx="119.1201" cy="163.29" fill="#EB937F" rx="11" ry="11" style="stroke:#181818;stroke-width:1;"/><path d="M123.2295,169.29 L115.5108,169.29 L115.5108,156.8994 L123.2295,156.8994 L123.2295,159.0556 L117.9639,159.0556 L117.9639,161.7275 L122.7295,161.7275 L122.7295,163.8838 L117.9639,163.8838 L117.9639,167.1338 L123.2295,167.1338 L123.2295,169.29 Z " fill="#000000"/><text fill="#000000" font-family="sans-serif" font-size="14" lengthAdjust="spacing" textLength="137.2656" x="139.6201" y="168.1367">CardinalOrientation</text><line style="stroke:#181818;stroke-width:0.5;" x1="70.98" x2="313.0259" y1="179.29" y2="179.29"/><text fill="#000000" font-family="sans-serif" font-size="14" lengthAdjust="spacing" text-decoration="underline" textLength="106.3672" x="75.98" y="196.2851">NORTH: ('N', 0)</text><text fill="#000000" font-family="sans-serif" font-size="14" lengthAdjust="spacing" text-decoration="underline" textLength="159.9814" x="75.98" y="212.582">NORTHEAST: ('NE', 45)</text><text fill="#000000" font-family="sans-serif" font-size="14" lengthAdjust="spacing" text-decoration="underline" textLength="99.21" x="75.98" y="228.8789">EAST: ('E', 90)</text><text fill="#000000" font-family="sans-serif" font-size="14" lengthAdjust="spacing" text-decoration="underline" textLength="166.2363" x="75.98" y="245.1757">SOUTHEAST: ('SE', 135)</text><text fill="#000000" font-family="sans-serif" font-size="14" lengthAdjust="spacing" text-decoration="underline" textLength="121.5293" x="75.98" y="261.4726">SOUTH: ('S', 180)</text><text fill="#000000" font-family="sans-serif" font-size="14" lengthAdjust="spacing" text-decoration="underline" textLength="175.499" x="75.98" y="277.7695">SOUTHWEST: ('SW', 225)</text><text fill="#000000" font-family="sans-serif" font-size="14" lengthAdjust="spacing" text-decoration="underline" textLength="117.3799" x="75.98" y="294.0664">WEST: ('W', 270)</text><text fill="#000000" font-family="sans-serif" font-size="14" lengthAdjust="spacing" text-decoration="underline" textLength="178.1514" x="75.98" y="310.3632">NORTHWEST: ('NW', 315)</text><line style="stroke:#181818;stroke-width:0.5;" x1="70.98" x2="313.0259" y1="317.665" y2="317.665"/><text fill="#000000" font-family="sans-serif" font-size="14" lengthAdjust="spacing" textLength="138.5781" x="75.98" y="334.6601">by_letter(cls, letter)</text><text fill="#000000" font-family="sans-serif" font-size="14" lengthAdjust="spacing" textLength="232.0459" x="75.98" y="350.957">by_closest_degrees(cls, degrees)</text></g><!--class Projector--><g class="entity" data-qualified-name="odeon.model.base_geometry.Projector" data-source-line="15" id="ent0006"><rect fill="#F1F1F1" height="251.5625" rx="2.5" ry="2.5" style="stroke:#181818;stroke-width:0.5;" width="294.5225" x="348.74" y="127"/><ellipse cx="460.364" cy="143" fill="#ADD1B2" rx="11" ry="11" style="stroke:#181818;stroke-width:1;"/><path d="M463.3328,148.6406 Q462.7546,148.9375 462.114,149.0781 Q461.4734,149.2344 460.7703,149.2344 Q458.2703,149.2344 456.9421,147.5938 Q455.6296,145.9375 455.6296,142.8125 Q455.6296,139.6875 456.9421,138.0313 Q458.2703,136.375 460.7703,136.375 Q461.4734,136.375 462.114,136.5313 Q462.7703,136.6875 463.3328,136.9844 L463.3328,139.7031 Q462.7078,139.125 462.114,138.8594 Q461.5203,138.5781 460.8953,138.5781 Q459.5515,138.5781 458.864,139.6563 Q458.1765,140.7188 458.1765,142.8125 Q458.1765,144.9063 458.864,145.9844 Q459.5515,147.0469 460.8953,147.0469 Q461.5203,147.0469 462.114,146.7813 Q462.7078,146.5 463.3328,145.9219 L463.3328,148.6406 Z " fill="#000000"/><text fill="#000000" font-family="sans-serif" font-size="14" lengthAdjust="spacing" textLength="62.7744" x="480.864" y="147.8467">Projector</text><line style="stroke:#181818;stroke-width:0.5;" x1="349.74" x2="642.2625" y1="159" y2="159"/><g data-visibility-modifier="PROTECTED_FIELD"><polygon fill="none" points="359.74,167.6484,363.74,171.6484,359.74,175.6484,355.74,171.6484" style="stroke:#B38D22;stroke-width:1;"/></g><text fill="#000000" font-family="sans-serif" font-size="14" lengthAdjust="spacing" textLength="91.2871" x="368.74" y="175.9951">_origin: Point</text><g data-visibility-modifier="PROTECTED_FIELD"><polygon fill="none" points="359.74,183.9453,363.74,187.9453,359.74,191.9453,355.74,187.9453" style="stroke:#B38D22;stroke-width:1;"/></g><text fill="#000000" font-family="sans-serif" font-size="14" lengthAdjust="spacing" textLength="153.7266" x="368.74" y="192.292">_transformers_to: dict</text><g data-visibility-modifier="PROTECTED_FIELD"><polygon fill="none" points="359.74,200.2422,363.74,204.2422,359.74,208.2422,355.74,204.2422" style="stroke:#B38D22;stroke-width:1;"/></g><text fill="#000000" font-family="sans-serif" font-size="14" lengthAdjust="spacing" textLength="172.5596" x="368.74" y="208.5889">_transformers_from: dict</text><line style="stroke:#181818;stroke-width:1;stroke-dasharray:1,2;" x1="349.74" x2="642.2625" y1="215.8906" y2="215.8906"/><g data-visibility-modifier="PUBLIC_METHOD"><ellipse cx="359.74" cy="229.5391" fill="#84BE84" rx="3" ry="3" style="stroke:#038048;stroke-width:1;"/></g><text fill="#000000" font-family="sans-serif" font-size="14" lengthAdjust="spacing" textLength="168.7588" x="368.74" y="232.8857">origin_lat_lon (property)</text><g data-visibility-modifier="PUBLIC_METHOD"><ellipse cx="359.74" cy="245.8359" fill="#84BE84" rx="3" ry="3" style="stroke:#038048;stroke-width:1;"/></g><text fill="#000000" font-family="sans-serif" font-size="14" lengthAdjust="spacing" textLength="168.7588" x="368.74" y="249.1826">origin_lon_lat (property)</text><g data-visibility-modifier="PUBLIC_METHOD"><ellipse cx="359.74" cy="262.1328" fill="#84BE84" rx="3" ry="3" style="stroke:#038048;stroke-width:1;"/></g><text fill="#000000" font-family="sans-serif" font-size="14" lengthAdjust="spacing" textLength="128.249" x="368.74" y="265.4795">proj_str (property)</text><line style="stroke:#181818;stroke-width:0.5;" x1="349.74" x2="642.2625" y1="272.7813" y2="272.7813"/><g data-visibility-modifier="PUBLIC_METHOD"><ellipse cx="359.74" cy="286.4297" fill="#84BE84" rx="3" ry="3" style="stroke:#038048;stroke-width:1;"/></g><text fill="#000000" font-family="sans-serif" font-size="14" lengthAdjust="spacing" textLength="268.5225" x="368.74" y="289.7764">from_crs(self, shape, from_srid, order)</text><g data-visibility-modifier="PUBLIC_METHOD"><ellipse cx="359.74" cy="302.7266" fill="#84BE84" rx="3" ry="3" style="stroke:#038048;stroke-width:1;"/></g><text fill="#000000" font-family="sans-serif" font-size="14" lengthAdjust="spacing" textLength="218.6064" x="368.74" y="306.0732">from_wgs84(self, shape, order)</text><g data-visibility-modifier="PUBLIC_METHOD"><ellipse cx="359.74" cy="319.0234" fill="#84BE84" rx="3" ry="3" style="stroke:#038048;stroke-width:1;"/></g><text fill="#000000" font-family="sans-serif" font-size="14" lengthAdjust="spacing" textLength="133.082" x="368.74" y="322.3701">lat_lon(self, shape)</text><g data-visibility-modifier="PUBLIC_METHOD"><ellipse cx="359.74" cy="335.3203" fill="#84BE84" rx="3" ry="3" style="stroke:#038048;stroke-width:1;"/></g><text fill="#000000" font-family="sans-serif" font-size="14" lengthAdjust="spacing" textLength="133.082" x="368.74" y="338.667">lon_lat(self, shape)</text><g data-visibility-modifier="PUBLIC_METHOD"><ellipse cx="359.74" cy="351.6172" fill="#84BE84" rx="3" ry="3" style="stroke:#038048;stroke-width:1;"/></g><text fill="#000000" font-family="sans-serif" font-size="14" lengthAdjust="spacing" textLength="230.8564" x="368.74" y="354.9639">to_crs(self, shape, to_srid, order)</text><g data-visibility-modifier="PUBLIC_METHOD"><ellipse cx="359.74" cy="367.9141" fill="#84BE84" rx="3" ry="3" style="stroke:#038048;stroke-width:1;"/></g><text fill="#000000" font-family="sans-serif" font-size="14" lengthAdjust="spacing" textLength="199.7734" x="368.74" y="371.2607">to_wgs84(self, shape, order)</text></g><?plantuml-src VP5TQy8m58Rl-oi2kx1YAVEBEU_647QbCXrUXjYUTf4qHquoXaZ_-vAsegxhhfgypyDxqgJ7C0NKSU4-AjuB0pm7BC3IAGX0VnNTF7uLb4ejr8eaQ2kiHCtEmJcJeDBoR7oIbClL-_PjpiBUiXUnn_wVUF6osLRAmZcJQKkwS8-VsnsRrSUrO-EbuNZwjrKPNfXrrEmMJStEMQDHk-OYLFofuuSkqj9Ruw5hsP-u0ck1maIPYDNhAauK6Z2Mfv0JWAbvi-a7PP0eOSm_hx0cF41YaTpTFt0acKizPskKshgz9Q5DXbG06MvnpbAPjFACi6X870U3keChORboJneU2Oz0zjI_8gpm7NBB0pUMRaFEWu4lvmcPq83A8cO-nH4YLgM6P1enfDHVHIr-vsOskLSll3dFBVHfVPHVgSNsI9VT3tH1zxZo1m00?></g></svg>