<?plantuml 1.2026.2beta3?><svg xmlns="http://www.w3.org/2000/svg" xmlns:xlink="http://www.w3.org/1999/xlink" contentStyleType="text/css" data-diagram-type="CLASS" height="747px" preserveAspectRatio="none" style="width:1784px;height:747px;background:#FFFFFF;" version="1.1" viewBox="0 0 1784 747" width="1784px" zoomAndPan="magnify"><defs/><g><!--cluster odeon--><g class="cluster" data-qualified-name="odeon" data-source-line="3" id="ent0003"><path d="M8.5,6 L58.2197,6 A3.75,3.75 0 0 1 60.7197,8.5 L67.7197,28.2969 L1774.5,28.2969 A2.5,2.5 0 0 1 1777,30.7969 L1777,738.17 A2.5,2.5 0 0 1 1774.5,740.67 L8.5,740.67 A2.5,2.5 0 0 1 6,738.17 L6,8.5 A2.5,2.5 0 0 1 8.5,6" fill="none" style="stroke:#000000;stroke-width:1.5;"/><line style="stroke:#000000;stroke-width:1.5;" x1="6" x2="67.7197" y1="28.2969" y2="28.2969"/><text fill="#000000" font-family="sans-serif" font-size="14" font-weight="bold" lengthAdjust="spacing" textLength="48.7197" x="10" y="20.9951">odeon</text></g><!--cluster model--><g class="cluster" data-qualified-name="odeon.model" data-source-line="3" id="ent0004"><path d="M32.5,49 L82.0215,49 A3.75,3.75 0 0 1 84.5215,51.5 L91.5215,71.2969 L1750.5,71.2969 A2.5,2.5 0 0 1 1753,73.7969 L1753,714.17 A2.5,2.5 0 0 1 1750.5,716.67 L32.5,716.67 A2.5,2.5 0 0 1 30,714.17 L30,51.5 A2.5,2.5 0 0 1 32.5,49" fill="none" style="stroke:#000000;stroke-width:1.5;"/><line style="stroke:#000000;stroke-width:1.5;" x1="30" x2="91.5215" y1="71.2969" y2="71.2969"/><text fill="#000000" font-family="sans-serif" font-size="14" font-weight="bold" lengthAdjust="spacing" textLength="48.5215" x="34" y="63.9951">model</text></g><!--cluster building_element--><g class="cluster" data-qualified-name="odeon.model.building_element" data-source-line="3" id="ent0005"><path d="M56.5,215 L193.4258,215 A3.75,3.75 0 0 1 195.9258,217.5 L202.9258,237.2969 L1518.5,237.2969 A2.5,2.5 0 0 1 1521,239.7969 L1521,690.17 A2.5,2.5 0 0 1 1518.5,692.67 L56.5,692.67 A2.5,2.5 0 0 1 54,690.17 L54,217.5 A2.5,2.5 0 0 1 56.5,215" fill="none" style="stroke:#000000;stroke-width:1.5;"/><line style="stroke:#000000;stroke-width:1.5;" x1="54" x2="202.9258" y1="237.2969" y2="237.2969"/><text fill="#000000" font-family="sans-serif" font-size="14" font-weight="bold" lengthAdjust="spacing" textLength="135.9258" x="58" y="229.9951">building_element</text></g><!--cluster base--><g class="cluster" data-qualified-name="odeon.model.base" data-source-line="12" id="ent0007"><path d="M711.5,92 L749.7969,92 A3.75,3.75 0 0 1 752.2969,94.5 L759.2969,114.2969 L816.5,114.2969 A2.5,2.5 0 0 1 819,116.7969 L819,188.5 A2.5,2.5 0 0 1 816.5,191 L711.5,191 A2.5,2.5 0 0 1 709,188.5 L709,94.5 A2.5,2.5 0 0 1 711.5,92" fill="none" style="stroke:#000000;stroke-width:1.5;"/><line style="stroke:#000000;stroke-width:1.5;" x1="709" x2="759.2969" y1="114.2969" y2="114.2969"/><text fill="#000000" font-family="sans-serif" font-size="14" font-weight="bold" lengthAdjust="spacing" textLength="37.2969" x="713" y="106.9951">base</text></g><!--cluster device--><g class="cluster" data-qualified-name="odeon.model.device" data-source-line="28" id="ent0015"><path d="M1547.5,440.93 L1599.7354,440.93 A3.75,3.75 0 0 1 1602.2354,443.43 L1609.2354,463.2269 L1726.5,463.2269 A2.5,2.5 0 0 1 1729,465.7269 L1729,537.43 A2.5,2.5 0 0 1 1726.5,539.93 L1547.5,539.93 A2.5,2.5 0 0 1 1545,537.43 L1545,443.43 A2.5,2.5 0 0 1 1547.5,440.93" fill="none" style="stroke:#000000;stroke-width:1.5;"/><line style="stroke:#000000;stroke-width:1.5;" x1="1545" x2="1609.2354" y1="463.2269" y2="463.2269"/><text fill="#000000" font-family="sans-serif" font-size="14" font-weight="bold" lengthAdjust="spacing" textLength="51.2354" x="1549" y="455.9251">device</text></g><!--class BuildingElement--><g class="entity" data-qualified-name="odeon.model.building_element.BuildingElement" data-source-line="3" id="ent0002"><rect fill="#F1F1F1" height="137.4844" rx="2.5" ry="2.5" style="stroke:#181818;stroke-width:0.5;" width="343.5498" x="592.23" y="250"/><ellipse cx="702.3775" cy="266" fill="#ADD1B2" rx="11" ry="11" style="stroke:#181818;stroke-width:1;"/><path d="M705.3462,271.6406 Q704.7681,271.9375 704.1275,272.0781 Q703.4868,272.2344 702.7837,272.2344 Q700.2837,272.2344 698.9556,270.5937 Q697.6431,268.9375 697.6431,265.8125 Q697.6431,262.6875 698.9556,261.0312 Q700.2837,259.375 702.7837,259.375 Q703.4868,259.375 704.1275,259.5312 Q704.7837,259.6875 705.3462,259.9844 L705.3462,262.7031 Q704.7212,262.125 704.1275,261.8594 Q703.5337,261.5781 702.9087,261.5781 Q701.565,261.5781 700.8775,262.6562 Q700.19,263.7187 700.19,265.8125 Q700.19,267.9062 700.8775,268.9844 Q701.565,270.0469 702.9087,270.0469 Q703.5337,270.0469 704.1275,269.7812 Q704.7212,269.5 705.3462,268.9219 L705.3462,271.6406 Z " fill="#000000"/><text fill="#000000" font-family="sans-serif" font-size="14" lengthAdjust="spacing" textLength="114.7549" x="722.8775" y="270.8467">BuildingElement</text><line style="stroke:#181818;stroke-width:0.5;" x1="593.23" x2="934.7798" y1="282" y2="282"/><g data-visibility-modifier="PROTECTED_FIELD"><polygon fill="none" points="603.23,290.6484,607.23,294.6484,603.23,298.6484,599.23,294.6484" style="stroke:#B38D22;stroke-width:1;"/></g><text fill="#000000" font-family="sans-serif" font-size="14" lengthAdjust="spacing" textLength="242.8535" x="612.23" y="298.9951">_element_physics: ElementPhysics</text><g data-visibility-modifier="PROTECTED_FIELD"><polygon fill="none" points="603.23,306.9453,607.23,310.9453,603.23,314.9453,599.23,310.9453" style="stroke:#B38D22;stroke-width:1;"/></g><text fill="#000000" font-family="sans-serif" font-size="14" lengthAdjust="spacing" textLength="218.5518" x="612.23" y="315.292">_element_geometry: Geometry</text><g data-visibility-modifier="PUBLIC_FIELD"><ellipse cx="603.23" cy="328.2422" fill="none" rx="3" ry="3" style="stroke:#038048;stroke-width:1;"/></g><text fill="#000000" font-family="sans-serif" font-size="14" lengthAdjust="spacing" textLength="317.5498" x="612.23" y="331.5889">adjacent_environment: AdjacentEnvironment</text><line style="stroke:#181818;stroke-width:1;stroke-dasharray:1,2;" x1="593.23" x2="934.7798" y1="338.8906" y2="338.8906"/><g data-visibility-modifier="PUBLIC_METHOD"><ellipse cx="603.23" cy="352.5391" fill="#84BE84" rx="3" ry="3" style="stroke:#038048;stroke-width:1;"/></g><text fill="#000000" font-family="sans-serif" font-size="14" lengthAdjust="spacing" textLength="208.1885" x="612.23" y="355.8857">element_geometry (property)</text><g data-visibility-modifier="PUBLIC_METHOD"><ellipse cx="603.23" cy="368.8359" fill="#84BE84" rx="3" ry="3" style="stroke:#038048;stroke-width:1;"/></g><text fill="#000000" font-family="sans-serif" font-size="14" lengthAdjust="spacing" textLength="192.5615" x="612.23" y="372.1826">element_physics (property)</text><line style="stroke:#181818;stroke-width:0.5;" x1="593.23" x2="934.7798" y1="379.4844" y2="379.4844"/></g><!--class Door--><g class="entity" data-qualified-name="odeon.model.building_element.Door" data-source-line="13" id="ent0009"><rect fill="#F1F1F1" height="96.8906" rx="2.5" ry="2.5" style="stroke:#181818;stroke-width:0.5;" width="343.5498" x="782.23" y="451.48"/><ellipse cx="932.9214" cy="467.48" fill="#ADD1B2" rx="11" ry="11" style="stroke:#181818;stroke-width:1;"/><path d="M935.8902,473.1206 Q935.312,473.4175 934.6714,473.5581 Q934.0308,473.7144 933.3277,473.7144 Q930.8277,473.7144 929.4995,472.0737 Q928.187,470.4175 928.187,467.2925 Q928.187,464.1675 929.4995,462.5112 Q930.8277,460.855 933.3277,460.855 Q934.0308,460.855 934.6714,461.0112 Q935.3277,461.1675 935.8902,461.4644 L935.8902,464.1831 Q935.2652,463.605 934.6714,463.3394 Q934.0777,463.0581 933.4527,463.0581 Q932.1089,463.0581 931.4214,464.1362 Q930.7339,465.1987 930.7339,467.2925 Q930.7339,469.3862 931.4214,470.4644 Q932.1089,471.5269 933.4527,471.5269 Q934.0777,471.5269 934.6714,471.2612 Q935.2652,470.98 935.8902,470.4019 L935.8902,473.1206 Z " fill="#000000"/><text fill="#000000" font-family="sans-serif" font-size="14" lengthAdjust="spacing" textLength="33.667" x="953.4214" y="472.3267">Door</text><line style="stroke:#181818;stroke-width:0.5;" x1="783.23" x2="1124.7798" y1="483.48" y2="483.48"/><g data-visibility-modifier="PROTECTED_FIELD"><polygon fill="none" points="793.23,492.1284,797.23,496.1284,793.23,500.1284,789.23,496.1284" style="stroke:#B38D22;stroke-width:1;"/></g><text fill="#000000" font-family="sans-serif" font-size="14" lengthAdjust="spacing" textLength="242.8535" x="802.23" y="500.4751">_element_physics: ElementPhysics</text><g data-visibility-modifier="PROTECTED_FIELD"><polygon fill="none" points="793.23,508.4253,797.23,512.4253,793.23,516.4253,789.23,512.4253" style="stroke:#B38D22;stroke-width:1;"/></g><text fill="#000000" font-family="sans-serif" font-size="14" lengthAdjust="spacing" textLength="218.5518" x="802.23" y="516.772">_element_geometry: Geometry</text><g data-visibility-modifier="PUBLIC_FIELD"><ellipse cx="793.23" cy="529.7222" fill="none" rx="3" ry="3" style="stroke:#038048;stroke-width:1;"/></g><text fill="#000000" font-family="sans-serif" font-size="14" lengthAdjust="spacing" textLength="317.5498" x="802.23" y="533.0689">adjacent_environment: AdjacentEnvironment</text><line style="stroke:#181818;stroke-width:0.5;" x1="783.23" x2="1124.7798" y1="540.3706" y2="540.3706"/></g><!--class Floor--><g class="entity" data-qualified-name="odeon.model.building_element.Floor" data-source-line="19" id="ent0011"><rect fill="#F1F1F1" height="96.8906" rx="2.5" ry="2.5" style="stroke:#181818;stroke-width:0.5;" width="343.5498" x="1161.23" y="451.48"/><ellipse cx="1311.3404" cy="467.48" fill="#ADD1B2" rx="11" ry="11" style="stroke:#181818;stroke-width:1;"/><path d="M1314.3091,473.1206 Q1313.731,473.4175 1313.0904,473.5581 Q1312.4497,473.7144 1311.7466,473.7144 Q1309.2466,473.7144 1307.9185,472.0737 Q1306.606,470.4175 1306.606,467.2925 Q1306.606,464.1675 1307.9185,462.5112 Q1309.2466,460.855 1311.7466,460.855 Q1312.4497,460.855 1313.0904,461.0112 Q1313.7466,461.1675 1314.3091,461.4644 L1314.3091,464.1831 Q1313.6841,463.605 1313.0904,463.3394 Q1312.4966,463.0581 1311.8716,463.0581 Q1310.5279,463.0581 1309.8404,464.1362 Q1309.1529,465.1987 1309.1529,467.2925 Q1309.1529,469.3862 1309.8404,470.4644 Q1310.5279,471.5269 1311.8716,471.5269 Q1312.4966,471.5269 1313.0904,471.2612 Q1313.6841,470.98 1314.3091,470.4019 L1314.3091,473.1206 Z " fill="#000000"/><text fill="#000000" font-family="sans-serif" font-size="14" lengthAdjust="spacing" textLength="34.8291" x="1331.8404" y="472.3267">Floor</text><line style="stroke:#181818;stroke-width:0.5;" x1="1162.23" x2="1503.7798" y1="483.48" y2="483.48"/><g data-visibility-modifier="PROTECTED_FIELD"><polygon fill="none" points="1172.23,492.1284,1176.23,496.1284,1172.23,500.1284,1168.23,496.1284" style="stroke:#B38D22;stroke-width:1;"/></g><text fill="#000000" font-family="sans-serif" font-size="14" lengthAdjust="spacing" textLength="242.8535" x="1181.23" y="500.4751">_element_physics: ElementPhysics</text><g data-visibility-modifier="PROTECTED_FIELD"><polygon fill="none" points="1172.23,508.4253,1176.23,512.4253,1172.23,516.4253,1168.23,512.4253" style="stroke:#B38D22;stroke-width:1;"/></g><text fill="#000000" font-family="sans-serif" font-size="14" lengthAdjust="spacing" textLength="218.5518" x="1181.23" y="516.772">_element_geometry: Geometry</text><g data-visibility-modifier="PUBLIC_FIELD"><ellipse cx="1172.23" cy="529.7222" fill="none" rx="3" ry="3" style="stroke:#038048;stroke-width:1;"/></g><text fill="#000000" font-family="sans-serif" font-size="14" lengthAdjust="spacing" textLength="317.5498" x="1181.23" y="533.0689">adjacent_environment: AdjacentEnvironment</text><line style="stroke:#181818;stroke-width:0.5;" x1="1162.23" x2="1503.7798" y1="540.3706" y2="540.3706"/></g><!--class Roof--><g class="entity" data-qualified-name="odeon.model.building_element.Roof" data-source-line="25" id="ent0013"><rect fill="#F1F1F1" height="64.2969" rx="2.5" ry="2.5" style="stroke:#181818;stroke-width:0.5;" width="224.0029" x="336" y="612.37"/><ellipse cx="427.8579" cy="628.37" fill="#ADD1B2" rx="11" ry="11" style="stroke:#181818;stroke-width:1;"/><path d="M430.8267,634.0106 Q430.2485,634.3075 429.6079,634.4481 Q428.9673,634.6044 428.2642,634.6044 Q425.7642,634.6044 424.436,632.9638 Q423.1235,631.3075 423.1235,628.1825 Q423.1235,625.0575 424.436,623.4013 Q425.7642,621.745 428.2642,621.745 Q428.9673,621.745 429.6079,621.9013 Q430.2642,622.0575 430.8267,622.3544 L430.8267,625.0731 Q430.2017,624.495 429.6079,624.2294 Q429.0142,623.9481 428.3892,623.9481 Q427.0454,623.9481 426.3579,625.0263 Q425.6704,626.0888 425.6704,628.1825 Q425.6704,630.2763 426.3579,631.3544 Q427.0454,632.4169 428.3892,632.4169 Q429.0142,632.4169 429.6079,632.1513 Q430.2017,631.87 430.8267,631.2919 L430.8267,634.0106 Z " fill="#000000"/><text fill="#000000" font-family="sans-serif" font-size="14" lengthAdjust="spacing" textLength="31.7871" x="448.3579" y="633.2167">Roof</text><line style="stroke:#181818;stroke-width:0.5;" x1="337" x2="559.0029" y1="644.37" y2="644.37"/><g data-visibility-modifier="PROTECTED_FIELD"><polygon fill="none" points="347,653.0184,351,657.0184,347,661.0184,343,657.0184" style="stroke:#B38D22;stroke-width:1;"/></g><text fill="#000000" font-family="sans-serif" font-size="14" lengthAdjust="spacing" textLength="198.0029" x="356" y="661.3651">_solar_surface: SolarSurface</text><line style="stroke:#181818;stroke-width:0.5;" x1="337" x2="559.0029" y1="668.6669" y2="668.6669"/></g><!--class SubelementHost--><g class="entity" data-qualified-name="odeon.model.building_element.SubelementHost" data-source-line="29" id="ent0017"><rect fill="#F1F1F1" height="104.8906" rx="2.5" ry="2.5" style="stroke:#181818;stroke-width:0.5;" width="298.0566" x="69.97" y="447.48"/><ellipse cx="156.6223" cy="463.48" fill="#ADD1B2" rx="11" ry="11" style="stroke:#181818;stroke-width:1;"/><path d="M159.5911,469.1206 Q159.013,469.4175 158.3723,469.5581 Q157.7317,469.7144 157.0286,469.7144 Q154.5286,469.7144 153.2005,468.0737 Q151.888,466.4175 151.888,463.2925 Q151.888,460.1675 153.2005,458.5112 Q154.5286,456.855 157.0286,456.855 Q157.7317,456.855 158.3723,457.0112 Q159.0286,457.1675 159.5911,457.4644 L159.5911,460.1831 Q158.9661,459.605 158.3723,459.3394 Q157.7786,459.0581 157.1536,459.0581 Q155.8098,459.0581 155.1223,460.1362 Q154.4348,461.1987 154.4348,463.2925 Q154.4348,465.3862 155.1223,466.4644 Q155.8098,467.5269 157.1536,467.5269 Q157.7786,467.5269 158.3723,467.2612 Q158.9661,466.98 159.5911,466.4019 L159.5911,469.1206 Z " fill="#000000"/><text fill="#000000" font-family="sans-serif" font-size="14" lengthAdjust="spacing" textLength="116.252" x="177.1223" y="468.3267">SubelementHost</text><line style="stroke:#181818;stroke-width:0.5;" x1="70.97" x2="367.0266" y1="479.48" y2="479.48"/><g data-visibility-modifier="PROTECTED_FIELD"><polygon fill="none" points="80.97,488.1284,84.97,492.1284,80.97,496.1284,76.97,492.1284" style="stroke:#B38D22;stroke-width:1;"/></g><text fill="#000000" font-family="sans-serif" font-size="14" lengthAdjust="spacing" textLength="133.8066" x="89.97" y="496.4751">_sub_elements: list</text><line style="stroke:#181818;stroke-width:1;stroke-dasharray:1,2;" x1="70.97" x2="367.0266" y1="503.7769" y2="503.7769"/><g data-visibility-modifier="PUBLIC_METHOD"><ellipse cx="80.97" cy="517.4253" fill="#84BE84" rx="3" ry="3" style="stroke:#038048;stroke-width:1;"/></g><text fill="#000000" font-family="sans-serif" font-size="14" lengthAdjust="spacing" textLength="172.6895" x="89.97" y="520.772">sub_elements (property)</text><line style="stroke:#181818;stroke-width:0.5;" x1="70.97" x2="367.0266" y1="528.0738" y2="528.0738"/><g data-visibility-modifier="PUBLIC_METHOD"><ellipse cx="80.97" cy="541.7222" fill="#84BE84" rx="3" ry="3" style="stroke:#038048;stroke-width:1;"/></g><text fill="#000000" font-family="sans-serif" font-size="14" lengthAdjust="spacing" textLength="272.0566" x="89.97" y="545.0689">add_sub_elements(self, sub_elements)</text></g><!--class Wall--><g class="entity" data-qualified-name="odeon.model.building_element.Wall" data-source-line="38" id="ent0020"><rect fill="#F1F1F1" height="64.2969" rx="2.5" ry="2.5" style="stroke:#181818;stroke-width:0.5;" width="224.0029" x="1052" y="612.37"/><ellipse cx="1144.6509" cy="628.37" fill="#ADD1B2" rx="11" ry="11" style="stroke:#181818;stroke-width:1;"/><path d="M1147.6196,634.0106 Q1147.0415,634.3075 1146.4009,634.4481 Q1145.7603,634.6044 1145.0571,634.6044 Q1142.5571,634.6044 1141.229,632.9638 Q1139.9165,631.3075 1139.9165,628.1825 Q1139.9165,625.0575 1141.229,623.4013 Q1142.5571,621.745 1145.0571,621.745 Q1145.7603,621.745 1146.4009,621.9013 Q1147.0571,622.0575 1147.6196,622.3544 L1147.6196,625.0731 Q1146.9946,624.495 1146.4009,624.2294 Q1145.8071,623.9481 1145.1821,623.9481 Q1143.8384,623.9481 1143.1509,625.0263 Q1142.4634,626.0888 1142.4634,628.1825 Q1142.4634,630.2763 1143.1509,631.3544 Q1143.8384,632.4169 1145.1821,632.4169 Q1145.8071,632.4169 1146.4009,632.1513 Q1146.9946,631.87 1147.6196,631.2919 L1147.6196,634.0106 Z " fill="#000000"/><text fill="#000000" font-family="sans-serif" font-size="14" lengthAdjust="spacing" textLength="30.2012" x="1165.1509" y="633.2167">Wall</text><line style="stroke:#181818;stroke-width:0.5;" x1="1053" x2="1275.0029" y1="644.37" y2="644.37"/><g data-visibility-modifier="PROTECTED_FIELD"><polygon fill="none" points="1063,653.0184,1067,657.0184,1063,661.0184,1059,657.0184" style="stroke:#B38D22;stroke-width:1;"/></g><text fill="#000000" font-family="sans-serif" font-size="14" lengthAdjust="spacing" textLength="198.0029" x="1072" y="661.3651">_solar_surface: SolarSurface</text><line style="stroke:#181818;stroke-width:0.5;" x1="1053" x2="1275.0029" y1="668.6669" y2="668.6669"/></g><!--class Window--><g class="entity" data-qualified-name="odeon.model.building_element.Window" data-source-line="43" id="ent0023"><rect fill="#F1F1F1" height="96.8906" rx="2.5" ry="2.5" style="stroke:#181818;stroke-width:0.5;" width="343.5498" x="403.23" y="451.48"/><ellipse cx="543.001" cy="467.48" fill="#ADD1B2" rx="11" ry="11" style="stroke:#181818;stroke-width:1;"/><path d="M545.9697,473.1206 Q545.3916,473.4175 544.751,473.5581 Q544.1104,473.7144 543.4072,473.7144 Q540.9072,473.7144 539.5791,472.0737 Q538.2666,470.4175 538.2666,467.2925 Q538.2666,464.1675 539.5791,462.5112 Q540.9072,460.855 543.4072,460.855 Q544.1104,460.855 544.751,461.0112 Q545.4072,461.1675 545.9697,461.4644 L545.9697,464.1831 Q545.3447,463.605 544.751,463.3394 Q544.1572,463.0581 543.5322,463.0581 Q542.1885,463.0581 541.501,464.1362 Q540.8135,465.1987 540.8135,467.2925 Q540.8135,469.3862 541.501,470.4644 Q542.1885,471.5269 543.5322,471.5269 Q544.1572,471.5269 544.751,471.2612 Q545.3447,470.98 545.9697,470.4019 L545.9697,473.1206 Z " fill="#000000"/><text fill="#000000" font-family="sans-serif" font-size="14" lengthAdjust="spacing" textLength="55.5078" x="563.501" y="472.3267">Window</text><line style="stroke:#181818;stroke-width:0.5;" x1="404.23" x2="745.7798" y1="483.48" y2="483.48"/><g data-visibility-modifier="PROTECTED_FIELD"><polygon fill="none" points="414.23,492.1284,418.23,496.1284,414.23,500.1284,410.23,496.1284" style="stroke:#B38D22;stroke-width:1;"/></g><text fill="#000000" font-family="sans-serif" font-size="14" lengthAdjust="spacing" textLength="242.8535" x="423.23" y="500.4751">_element_physics: ElementPhysics</text><g data-visibility-modifier="PROTECTED_FIELD"><polygon fill="none" points="414.23,508.4253,418.23,512.4253,414.23,516.4253,410.23,512.4253" style="stroke:#B38D22;stroke-width:1;"/></g><text fill="#000000" font-family="sans-serif" font-size="14" lengthAdjust="spacing" textLength="218.5518" x="423.23" y="516.772">_element_geometry: Geometry</text><g data-visibility-modifier="PUBLIC_FIELD"><ellipse cx="414.23" cy="529.7222" fill="none" rx="3" ry="3" style="stroke:#038048;stroke-width:1;"/></g><text fill="#000000" font-family="sans-serif" font-size="14" lengthAdjust="spacing" textLength="317.5498" x="423.23" y="533.0689">adjacent_environment: AdjacentEnvironment</text><line style="stroke:#181818;stroke-width:0.5;" x1="404.23" x2="745.7798" y1="540.3706" y2="540.3706"/></g><!--class Object--><g class="entity" data-qualified-name="odeon.model.base.Object" data-source-line="12" id="ent0006"><rect fill="#F1F1F1" height="48" rx="2.5" ry="2.5" style="stroke:#181818;stroke-width:0.5;" width="77.5957" x="725.2" y="127"/><ellipse cx="740.2" cy="143" fill="#ADD1B2" rx="11" ry="11" style="stroke:#181818;stroke-width:1;"/><path d="M743.1688,148.6406 Q742.5906,148.9375 741.95,149.0781 Q741.3094,149.2344 740.6063,149.2344 Q738.1063,149.2344 736.7781,147.5938 Q735.4656,145.9375 735.4656,142.8125 Q735.4656,139.6875 736.7781,138.0313 Q738.1063,136.375 740.6063,136.375 Q741.3094,136.375 741.95,136.5313 Q742.6063,136.6875 743.1688,136.9844 L743.1688,139.7031 Q742.5438,139.125 741.95,138.8594 Q741.3563,138.5781 740.7313,138.5781 Q739.3875,138.5781 738.7,139.6563 Q738.0125,140.7188 738.0125,142.8125 Q738.0125,144.9063 738.7,145.9844 Q739.3875,147.0469 740.7313,147.0469 Q741.3563,147.0469 741.95,146.7813 Q742.5438,146.5 743.1688,145.9219 L743.1688,148.6406 Z " fill="#000000"/><text fill="#000000" font-family="sans-serif" font-size="14" lengthAdjust="spacing" textLength="45.5957" x="754.2" y="147.8467">Object</text><line style="stroke:#181818;stroke-width:0.5;" x1="726.2" x2="801.7957" y1="159" y2="159"/><line style="stroke:#181818;stroke-width:0.5;" x1="726.2" x2="801.7957" y1="167" y2="167"/></g><!--class SolarSurfaceHost--><g class="entity" data-qualified-name="odeon.model.device.SolarSurfaceHost" data-source-line="28" id="ent0014"><rect fill="#F1F1F1" height="48" rx="2.5" ry="2.5" style="stroke:#181818;stroke-width:0.5;" width="152.8867" x="1560.56" y="475.93"/><ellipse cx="1575.56" cy="491.93" fill="#ADD1B2" rx="11" ry="11" style="stroke:#181818;stroke-width:1;"/><path d="M1578.5288,497.5706 Q1577.9506,497.8675 1577.31,498.0081 Q1576.6694,498.1644 1575.9663,498.1644 Q1573.4663,498.1644 1572.1381,496.5237 Q1570.8256,494.8675 1570.8256,491.7425 Q1570.8256,488.6175 1572.1381,486.9612 Q1573.4663,485.305 1575.9663,485.305 Q1576.6694,485.305 1577.31,485.4612 Q1577.9663,485.6175 1578.5288,485.9144 L1578.5288,488.6331 Q1577.9038,488.055 1577.31,487.7894 Q1576.7163,487.5081 1576.0913,487.5081 Q1574.7475,487.5081 1574.06,488.5862 Q1573.3725,489.6487 1573.3725,491.7425 Q1573.3725,493.8362 1574.06,494.9144 Q1574.7475,495.9769 1576.0913,495.9769 Q1576.7163,495.9769 1577.31,495.7112 Q1577.9038,495.43 1578.5288,494.8519 L1578.5288,497.5706 Z " fill="#000000"/><text fill="#000000" font-family="sans-serif" font-size="14" lengthAdjust="spacing" textLength="120.8867" x="1589.56" y="496.7767">SolarSurfaceHost</text><line style="stroke:#181818;stroke-width:0.5;" x1="1561.56" x2="1712.4467" y1="507.93" y2="507.93"/><line style="stroke:#181818;stroke-width:0.5;" x1="1561.56" x2="1712.4467" y1="515.93" y2="515.93"/></g><!--reverse link Object to BuildingElement--><g class="link" data-entity-1="ent0006" data-entity-2="ent0002" data-link-type="extension" data-source-line="12" id="lnk8"><path codeLine="12" d="M764,193.39 C764,212.76 764,223.28 764,249.71" fill="none" id="Object-backto-BuildingElement" style="stroke:#181818;stroke-width:1;"/><polygon fill="none" points="764,175.39,758,193.39,770,193.39,764,175.39" style="stroke:#181818;stroke-width:1;"/></g><!--reverse link BuildingElement to Door--><g class="link" data-entity-1="ent0002" data-entity-2="ent0009" data-link-type="extension" data-source-line="18" id="lnk10"><path codeLine="18" d="M849.1944,400.0906 C871.5544,421.1806 882.62,431.61 903.22,451.03" fill="none" id="BuildingElement-backto-Door" style="stroke:#181818;stroke-width:1;"/><polygon fill="none" points="836.1,387.74,845.0775,404.4554,853.3112,395.7258,836.1,387.74" style="stroke:#181818;stroke-width:1;"/></g><!--reverse link BuildingElement to Floor--><g class="link" data-entity-1="ent0002" data-entity-2="ent0011" data-link-type="extension" data-source-line="24" id="lnk12"><path codeLine="24" d="M953.4421,374.5208 C1018.4521,393.7308 1075.69,411.2 1143,432.93 C1160.7,438.64 1179.25,444.83 1197.54,451.06" fill="none" id="BuildingElement-backto-Floor" style="stroke:#181818;stroke-width:1;"/><polygon fill="none" points="936.18,369.42,951.7419,380.2749,955.1424,368.7668,936.18,369.42" style="stroke:#181818;stroke-width:1;"/></g><!--reverse link SolarSurfaceHost to Roof--><g class="link" data-entity-1="ent0014" data-entity-2="ent0013" data-link-type="extension" data-source-line="28" id="lnk16"><path codeLine="28" d="M1577.1673,532.3117 C1555.9373,542.6517 1545.86,546 1521,552.37 C1341.6,598.39 797.2,627.77 560.22,638.71" fill="none" id="SolarSurfaceHost-backto-Roof" style="stroke:#181818;stroke-width:1;"/><polygon fill="none" points="1593.35,524.43,1574.5401,526.9175,1579.7946,537.7059,1593.35,524.43" style="stroke:#181818;stroke-width:1;"/></g><!--reverse link SubelementHost to Roof--><g class="link" data-entity-1="ent0017" data-entity-2="ent0013" data-link-type="extension" data-source-line="29" id="lnk18"><path codeLine="29" d="M317.6004,562.3237 C349.4504,582.1537 369.49,594.64 397.38,612" fill="none" id="SubelementHost-backto-Roof" style="stroke:#181818;stroke-width:1;"/><polygon fill="none" points="302.32,552.81,314.4292,567.4171,320.7716,557.2302,302.32,552.81" style="stroke:#181818;stroke-width:1;"/></g><!--reverse link BuildingElement to SubelementHost--><g class="link" data-entity-1="ent0002" data-entity-2="ent0017" data-link-type="extension" data-source-line="37" id="lnk19"><path codeLine="37" d="M574.4982,373.0079 C509.6082,392.0479 452.67,409.82 386,432.93 C373.33,437.32 360.21,442.1 347.14,447.01" fill="none" id="BuildingElement-backto-SubelementHost" style="stroke:#181818;stroke-width:1;"/><polygon fill="none" points="591.77,367.94,572.8089,367.2506,576.1875,378.7652,591.77,367.94" style="stroke:#181818;stroke-width:1;"/></g><!--reverse link SolarSurfaceHost to Wall--><g class="link" data-entity-1="ent0014" data-entity-2="ent0020" data-link-type="extension" data-source-line="41" id="lnk21"><path codeLine="41" d="M1572.5614,531.9615 C1551.9614,541.4515 1543.79,544.47 1521,552.37 C1440.62,580.24 1347.4,603.75 1276.38,619.92" fill="none" id="SolarSurfaceHost-backto-Wall" style="stroke:#181818;stroke-width:1;"/><polygon fill="none" points="1588.91,524.43,1570.0509,526.5119,1575.0719,537.411,1588.91,524.43" style="stroke:#181818;stroke-width:1;"/></g><!--reverse link SubelementHost to Wall--><g class="link" data-entity-1="ent0017" data-entity-2="ent0020" data-link-type="extension" data-source-line="42" id="lnk22"><path codeLine="42" d="M385.9235,552.5985 C391.8435,554.0185 380.21,551.15 386,552.37 C619.87,601.67 899.31,626.24 1051.52,636.8" fill="none" id="SubelementHost-backto-Wall" style="stroke:#181818;stroke-width:1;"/><polygon fill="none" points="368.42,548.4,384.524,558.433,387.323,546.764,368.42,548.4" style="stroke:#181818;stroke-width:1;"/></g><!--reverse link BuildingElement to Window--><g class="link" data-entity-1="ent0002" data-entity-2="ent0023" data-link-type="extension" data-source-line="48" id="lnk24"><path codeLine="48" d="M679.2161,400.1228 C656.9661,421.2128 646,431.61 625.52,451.03" fill="none" id="BuildingElement-backto-Window" style="stroke:#181818;stroke-width:1;"/><polygon fill="none" points="692.28,387.74,675.0885,395.7682,683.3437,404.4775,692.28,387.74" style="stroke:#181818;stroke-width:1;"/></g><?plantuml-src rPF1JiCm38RlUOf87DWqbWUek80OS0FH0ySgRToHAOshf1sgW7UdQJEjxM7Bf6dIJetzkuw__F8jHG6eMT5-54jhgOJKwmGK5A0hGZB5hJrOmnvzOjN7z8VSxBIa_6gip6n4lVZUnuEADM01bMaY-k9FPC75XcTE1BsL1hKhZEY3pwxsIS8OMKmxqLbfi0HJDVEzw0SPQab2_iY8Z5jWR-a6iehU_owN9s67lDGJehdeyqpuZZbt7DeHX90-gwj7xH12M3yGymxLek8ciRN9s-aY6himxgF9U0AsCWCsh7X56pALk-mmQLod_dXAom3EIUEEk4vtSkkiahRVo65wid6jesBqsyo2ok_eC3K_lvdZsKDeFxbI5tFLNNPcLxkM8PnI2_o-xbNj6Vu1?></g></svg>