<?plantuml 1.2026.2beta3?><svg xmlns="http://www.w3.org/2000/svg" xmlns:xlink="http://www.w3.org/1999/xlink" contentStyleType="text/css" data-diagram-type="CLASS" height="1120px" preserveAspectRatio="none" style="width:1529px;height:1120px;background:#FFFFFF;" version="1.1" viewBox="0 0 1529 1120" width="1529px" zoomAndPan="magnify"><defs/><g><!--cluster odeon--><g class="cluster" data-qualified-name="odeon" data-source-line="3" id="ent0003"><path d="M8.5,6 L58.2197,6 A3.75,3.75 0 0 1 60.7197,8.5 L67.7197,28.2969 L1519.5,28.2969 A2.5,2.5 0 0 1 1522,30.7969 L1522,1111.08 A2.5,2.5 0 0 1 1519.5,1113.58 L8.5,1113.58 A2.5,2.5 0 0 1 6,1111.08 L6,8.5 A2.5,2.5 0 0 1 8.5,6" fill="none" style="stroke:#000000;stroke-width:1.5;"/><line style="stroke:#000000;stroke-width:1.5;" x1="6" x2="67.7197" y1="28.2969" y2="28.2969"/><text fill="#000000" font-family="sans-serif" font-size="14" font-weight="bold" lengthAdjust="spacing" textLength="48.7197" x="10" y="20.9951">odeon</text></g><!--cluster model--><g class="cluster" data-qualified-name="odeon.model" data-source-line="3" id="ent0004"><path d="M32.5,49 L82.0215,49 A3.75,3.75 0 0 1 84.5215,51.5 L91.5215,71.2969 L1495.5,71.2969 A2.5,2.5 0 0 1 1498,73.7969 L1498,1087.08 A2.5,2.5 0 0 1 1495.5,1089.58 L32.5,1089.58 A2.5,2.5 0 0 1 30,1087.08 L30,51.5 A2.5,2.5 0 0 1 32.5,49" fill="none" style="stroke:#000000;stroke-width:1.5;"/><line style="stroke:#000000;stroke-width:1.5;" x1="30" x2="91.5215" y1="71.2969" y2="71.2969"/><text fill="#000000" font-family="sans-serif" font-size="14" font-weight="bold" lengthAdjust="spacing" textLength="48.5215" x="34" y="63.9951">model</text></g><!--cluster building_geometry--><g class="cluster" data-qualified-name="odeon.model.building_geometry" data-source-line="3" id="ent0005"><path d="M56.5,215 L204.835,215 A3.75,3.75 0 0 1 207.335,217.5 L214.335,237.2969 L1087.5,237.2969 A2.5,2.5 0 0 1 1090,239.7969 L1090,1063.08 A2.5,2.5 0 0 1 1087.5,1065.58 L56.5,1065.58 A2.5,2.5 0 0 1 54,1063.08 L54,217.5 A2.5,2.5 0 0 1 56.5,215" fill="none" style="stroke:#000000;stroke-width:1.5;"/><line style="stroke:#000000;stroke-width:1.5;" x1="54" x2="214.335" y1="237.2969" y2="237.2969"/><text fill="#000000" font-family="sans-serif" font-size="14" font-weight="bold" lengthAdjust="spacing" textLength="147.335" x="58" y="229.9951">building_geometry</text></g><!--cluster base--><g class="cluster" data-qualified-name="odeon.model.base" data-source-line="48" id="ent0008"><path d="M740.5,92 L778.7969,92 A3.75,3.75 0 0 1 781.2969,94.5 L788.2969,114.2969 L845.5,114.2969 A2.5,2.5 0 0 1 848,116.7969 L848,188.5 A2.5,2.5 0 0 1 845.5,191 L740.5,191 A2.5,2.5 0 0 1 738,188.5 L738,94.5 A2.5,2.5 0 0 1 740.5,92" fill="none" style="stroke:#000000;stroke-width:1.5;"/><line style="stroke:#000000;stroke-width:1.5;" x1="738" x2="788.2969" y1="114.2969" y2="114.2969"/><text fill="#000000" font-family="sans-serif" font-size="14" font-weight="bold" lengthAdjust="spacing" textLength="37.2969" x="742" y="106.9951">base</text></g><!--cluster geometry--><g class="cluster" data-qualified-name="odeon.model.geometry" data-source-line="49" id="ent0011"><path d="M1116.5,933.99 L1193.4404,933.99 A3.75,3.75 0 0 1 1195.9404,936.49 L1202.9404,956.2869 L1245.5,956.2869 A2.5,2.5 0 0 1 1248,958.7869 L1248,1030.49 A2.5,2.5 0 0 1 1245.5,1032.99 L1116.5,1032.99 A2.5,2.5 0 0 1 1114,1030.49 L1114,936.49 A2.5,2.5 0 0 1 1116.5,933.99" fill="none" style="stroke:#000000;stroke-width:1.5;"/><line style="stroke:#000000;stroke-width:1.5;" x1="1114" x2="1202.9404" y1="956.2869" y2="956.2869"/><text fill="#000000" font-family="sans-serif" font-size="14" font-weight="bold" lengthAdjust="spacing" textLength="75.9404" x="1118" y="948.9851">geometry</text></g><!--cluster base_geometry--><g class="cluster" data-qualified-name="odeon.model.base_geometry" data-source-line="51" id="ent0015"><path d="M1274.5,933.99 L1395.7373,933.99 A3.75,3.75 0 0 1 1398.2373,936.49 L1405.2373,956.2869 L1471.5,956.2869 A2.5,2.5 0 0 1 1474,958.7869 L1474,1030.49 A2.5,2.5 0 0 1 1471.5,1032.99 L1274.5,1032.99 A2.5,2.5 0 0 1 1272,1030.49 L1272,936.49 A2.5,2.5 0 0 1 1274.5,933.99" fill="none" style="stroke:#000000;stroke-width:1.5;"/><line style="stroke:#000000;stroke-width:1.5;" x1="1272" x2="1405.2373" y1="956.2869" y2="956.2869"/><text fill="#000000" font-family="sans-serif" font-size="14" font-weight="bold" lengthAdjust="spacing" textLength="120.2373" x="1276" y="948.9851">base_geometry</text></g><!--class RoofType--><g class="entity" data-qualified-name="odeon.model.building_geometry.RoofType" data-source-line="3" id="ent0002"><rect fill="#F1F1F1" height="113.1875" rx="2.5" ry="2.5" style="stroke:#181818;stroke-width:0.5;" width="107.1357" x="70.43" y="936.39"/><ellipse cx="89.4853" cy="952.39" fill="#EB937F" rx="11" ry="11" style="stroke:#181818;stroke-width:1;"/><path d="M93.5946,958.39 L85.8759,958.39 L85.8759,945.9994 L93.5946,945.9994 L93.5946,948.1556 L88.329,948.1556 L88.329,950.8275 L93.0946,950.8275 L93.0946,952.9837 L88.329,952.9837 L88.329,956.2337 L93.5946,956.2337 L93.5946,958.39 Z " fill="#000000"/><text fill="#000000" font-family="sans-serif" font-size="14" lengthAdjust="spacing" textLength="66.124" x="104.3864" y="957.2367">RoofType</text><line style="stroke:#181818;stroke-width:0.5;" x1="71.43" x2="176.5657" y1="968.39" y2="968.39"/><text fill="#000000" font-family="sans-serif" font-size="14" lengthAdjust="spacing" text-decoration="underline" textLength="94.6982" x="76.43" y="985.3851">GABLE: gable</text><text fill="#000000" font-family="sans-serif" font-size="14" lengthAdjust="spacing" text-decoration="underline" textLength="66.0352" x="76.43" y="1001.682">FLAT: flat</text><text fill="#000000" font-family="sans-serif" font-size="14" lengthAdjust="spacing" text-decoration="underline" textLength="81.874" x="76.43" y="1017.9789">SHED: shed</text><text fill="#000000" font-family="sans-serif" font-size="14" lengthAdjust="spacing" text-decoration="underline" textLength="95.1357" x="76.43" y="1034.2757">OTHER: other</text><line style="stroke:#181818;stroke-width:0.5;" x1="71.43" x2="176.5657" y1="1041.5775" y2="1041.5775"/></g><!--class BuildingGeometry--><g class="entity" data-qualified-name="odeon.model.building_geometry.BuildingGeometry" data-source-line="9" id="ent0006"><rect fill="#F1F1F1" height="626.3906" rx="2.5" ry="2.5" style="stroke:#181818;stroke-width:0.5;" width="562.7783" x="511.61" y="250"/><ellipse cx="725.4484" cy="266" fill="#ADD1B2" rx="11" ry="11" style="stroke:#181818;stroke-width:1;"/><path d="M728.4171,271.6406 Q727.839,271.9375 727.1984,272.0781 Q726.5578,272.2344 725.8546,272.2344 Q723.3546,272.2344 722.0265,270.5937 Q720.714,268.9375 720.714,265.8125 Q720.714,262.6875 722.0265,261.0312 Q723.3546,259.375 725.8546,259.375 Q726.5578,259.375 727.1984,259.5312 Q727.8546,259.6875 728.4171,259.9844 L728.4171,262.7031 Q727.7921,262.125 727.1984,261.8594 Q726.6046,261.5781 725.9796,261.5781 Q724.6359,261.5781 723.9484,262.6562 Q723.2609,263.7187 723.2609,265.8125 Q723.2609,267.9062 723.9484,268.9844 Q724.6359,270.0469 725.9796,270.0469 Q726.6046,270.0469 727.1984,269.7812 Q727.7921,269.5 728.4171,268.9219 L728.4171,271.6406 Z " fill="#000000"/><text fill="#000000" font-family="sans-serif" font-size="14" lengthAdjust="spacing" textLength="126.6016" x="745.9484" y="270.8467">BuildingGeometry</text><line style="stroke:#181818;stroke-width:0.5;" x1="512.61" x2="1073.3883" y1="282" y2="282"/><g data-visibility-modifier="PUBLIC_FIELD"><ellipse cx="522.61" cy="295.6484" fill="none" rx="3" ry="3" style="stroke:#038048;stroke-width:1;"/></g><text fill="#000000" font-family="sans-serif" font-size="14" lengthAdjust="spacing" textLength="228.5254" x="531.61" y="298.9951">floor_geometries: list[Geometry]</text><g data-visibility-modifier="PUBLIC_FIELD"><ellipse cx="522.61" cy="311.9453" fill="none" rx="3" ry="3" style="stroke:#038048;stroke-width:1;"/></g><text fill="#000000" font-family="sans-serif" font-size="14" lengthAdjust="spacing" textLength="224.6289" x="531.61" y="315.292">wall_geometries: list[Geometry]</text><g data-visibility-modifier="PUBLIC_FIELD"><ellipse cx="522.61" cy="328.2422" fill="none" rx="3" ry="3" style="stroke:#038048;stroke-width:1;"/></g><text fill="#000000" font-family="sans-serif" font-size="14" lengthAdjust="spacing" textLength="224.6357" x="531.61" y="331.5889">roof_geometries: list[Geometry]</text><g data-visibility-modifier="PUBLIC_FIELD"><ellipse cx="522.61" cy="344.5391" fill="none" rx="3" ry="3" style="stroke:#038048;stroke-width:1;"/></g><text fill="#000000" font-family="sans-serif" font-size="14" lengthAdjust="spacing" textLength="284.7441" x="531.61" y="347.8857">window_wall_geometries: list[Geometry]</text><g data-visibility-modifier="PUBLIC_FIELD"><ellipse cx="522.61" cy="360.8359" fill="none" rx="3" ry="3" style="stroke:#038048;stroke-width:1;"/></g><text fill="#000000" font-family="sans-serif" font-size="14" lengthAdjust="spacing" textLength="284.751" x="531.61" y="364.1826">window_roof_geometries: list[Geometry]</text><g data-visibility-modifier="PUBLIC_FIELD"><ellipse cx="522.61" cy="377.1328" fill="none" rx="3" ry="3" style="stroke:#038048;stroke-width:1;"/></g><text fill="#000000" font-family="sans-serif" font-size="14" lengthAdjust="spacing" textLength="228.5938" x="531.61" y="380.4795">door_geometries: list[Geometry]</text><g data-visibility-modifier="PUBLIC_FIELD"><ellipse cx="522.61" cy="393.4297" fill="none" rx="3" ry="3" style="stroke:#038048;stroke-width:1;"/></g><text fill="#000000" font-family="sans-serif" font-size="14" lengthAdjust="spacing" textLength="139.4189" x="531.61" y="396.7764">footprint: Geometry</text><g data-visibility-modifier="PUBLIC_FIELD"><ellipse cx="522.61" cy="409.7266" fill="none" rx="3" ry="3" style="stroke:#038048;stroke-width:1;"/></g><text fill="#000000" font-family="sans-serif" font-size="14" lengthAdjust="spacing" textLength="94.3291" x="531.61" y="413.0732">altitude: float</text><g data-visibility-modifier="PROTECTED_FIELD"><polygon fill="none" points="522.61,421.0234,526.61,425.0234,522.61,429.0234,518.61,425.0234" style="stroke:#B38D22;stroke-width:1;"/></g><text fill="#000000" font-family="sans-serif" font-size="14" lengthAdjust="spacing" textLength="146.5898" x="531.61" y="429.3701">_footprint_area: float</text><g data-visibility-modifier="PUBLIC_FIELD"><ellipse cx="522.61" cy="442.3203" fill="none" rx="3" ry="3" style="stroke:#038048;stroke-width:1;"/></g><text fill="#000000" font-family="sans-serif" font-size="14" lengthAdjust="spacing" textLength="124.7354" x="531.61" y="445.667">dimensions: tuple</text><g data-visibility-modifier="PUBLIC_FIELD"><ellipse cx="522.61" cy="458.6172" fill="none" rx="3" ry="3" style="stroke:#038048;stroke-width:1;"/></g><text fill="#000000" font-family="sans-serif" font-size="14" lengthAdjust="spacing" textLength="141.3809" x="531.61" y="461.9639">roof_type: RoofType</text><g data-visibility-modifier="PUBLIC_FIELD"><ellipse cx="522.61" cy="474.9141" fill="none" rx="3" ry="3" style="stroke:#038048;stroke-width:1;"/></g><text fill="#000000" font-family="sans-serif" font-size="14" lengthAdjust="spacing" textLength="148.3193" x="531.61" y="478.2607">building_height: float</text><g data-visibility-modifier="PUBLIC_FIELD"><ellipse cx="522.61" cy="491.2109" fill="none" rx="3" ry="3" style="stroke:#038048;stroke-width:1;"/></g><text fill="#000000" font-family="sans-serif" font-size="14" lengthAdjust="spacing" textLength="133.6289" x="531.61" y="494.5576">eaves_height: float</text><g data-visibility-modifier="PUBLIC_FIELD"><ellipse cx="522.61" cy="507.5078" fill="none" rx="3" ry="3" style="stroke:#038048;stroke-width:1;"/></g><text fill="#000000" font-family="sans-serif" font-size="14" lengthAdjust="spacing" textLength="120.0596" x="531.61" y="510.8545">roof_height: float</text><g data-visibility-modifier="PUBLIC_FIELD"><ellipse cx="522.61" cy="523.8047" fill="none" rx="3" ry="3" style="stroke:#038048;stroke-width:1;"/></g><text fill="#000000" font-family="sans-serif" font-size="14" lengthAdjust="spacing" textLength="150.0352" x="531.61" y="527.1514">roof_height_net: float</text><g data-visibility-modifier="PUBLIC_FIELD"><ellipse cx="522.61" cy="540.1016" fill="none" rx="3" ry="3" style="stroke:#038048;stroke-width:1;"/></g><text fill="#000000" font-family="sans-serif" font-size="14" lengthAdjust="spacing" textLength="94.1924" x="531.61" y="543.4482">roof_tilt: float</text><g data-visibility-modifier="PUBLIC_FIELD"><ellipse cx="522.61" cy="556.3984" fill="none" rx="3" ry="3" style="stroke:#038048;stroke-width:1;"/></g><text fill="#000000" font-family="sans-serif" font-size="14" lengthAdjust="spacing" textLength="120.0596" x="531.61" y="559.7451">roof_length: float</text><g data-visibility-modifier="PUBLIC_FIELD"><ellipse cx="522.61" cy="572.6953" fill="none" rx="3" ry="3" style="stroke:#038048;stroke-width:1;"/></g><text fill="#000000" font-family="sans-serif" font-size="14" lengthAdjust="spacing" textLength="158.6758" x="531.61" y="576.042">overhang_height: float</text><g data-visibility-modifier="PUBLIC_FIELD"><ellipse cx="522.61" cy="588.9922" fill="none" rx="3" ry="3" style="stroke:#038048;stroke-width:1;"/></g><text fill="#000000" font-family="sans-serif" font-size="14" lengthAdjust="spacing" textLength="158.6758" x="531.61" y="592.3389">overhang_length: float</text><g data-visibility-modifier="PUBLIC_FIELD"><ellipse cx="522.61" cy="605.2891" fill="none" rx="3" ry="3" style="stroke:#038048;stroke-width:1;"/></g><text fill="#000000" font-family="sans-serif" font-size="14" lengthAdjust="spacing" textLength="152.6396" x="531.61" y="608.6357">overhang_width: float</text><g data-visibility-modifier="PUBLIC_FIELD"><ellipse cx="522.61" cy="621.5859" fill="none" rx="3" ry="3" style="stroke:#038048;stroke-width:1;"/></g><text fill="#000000" font-family="sans-serif" font-size="14" lengthAdjust="spacing" textLength="152.0176" x="531.61" y="624.9326">roof_orientation: float</text><g data-visibility-modifier="PUBLIC_FIELD"><ellipse cx="522.61" cy="637.8828" fill="none" rx="3" ry="3" style="stroke:#038048;stroke-width:1;"/></g><text fill="#000000" font-family="sans-serif" font-size="14" lengthAdjust="spacing" textLength="160.2344" x="531.61" y="641.2295">ridge_orientation: float</text><g data-visibility-modifier="PUBLIC_FIELD"><ellipse cx="522.61" cy="654.1797" fill="none" rx="3" ry="3" style="stroke:#038048;stroke-width:1;"/></g><text fill="#000000" font-family="sans-serif" font-size="14" lengthAdjust="spacing" textLength="320.9814" x="531.61" y="657.5264">roof_orientation_cardinal: CardinalOrientation</text><g data-visibility-modifier="PUBLIC_FIELD"><ellipse cx="522.61" cy="670.4766" fill="none" rx="3" ry="3" style="stroke:#038048;stroke-width:1;"/></g><text fill="#000000" font-family="sans-serif" font-size="14" lengthAdjust="spacing" textLength="329.1982" x="531.61" y="673.8232">ridge_orientation_cardinal: CardinalOrientation</text><g data-visibility-modifier="PUBLIC_FIELD"><ellipse cx="522.61" cy="686.7734" fill="none" rx="3" ry="3" style="stroke:#038048;stroke-width:1;"/></g><text fill="#000000" font-family="sans-serif" font-size="14" lengthAdjust="spacing" textLength="156.0234" x="531.61" y="690.1201">long_ridged_roof: bool</text><g data-visibility-modifier="PUBLIC_FIELD"><ellipse cx="522.61" cy="703.0703" fill="none" rx="3" ry="3" style="stroke:#038048;stroke-width:1;"/></g><text fill="#000000" font-family="sans-serif" font-size="14" lengthAdjust="spacing" textLength="162.4697" x="531.61" y="706.417">single_roof_width: float</text><g data-visibility-modifier="PUBLIC_FIELD"><ellipse cx="522.61" cy="719.3672" fill="none" rx="3" ry="3" style="stroke:#038048;stroke-width:1;"/></g><text fill="#000000" font-family="sans-serif" font-size="14" lengthAdjust="spacing" textLength="192.4453" x="531.61" y="722.7139">single_roof_width_net: float</text><g data-visibility-modifier="PUBLIC_FIELD"><ellipse cx="522.61" cy="735.6641" fill="none" rx="3" ry="3" style="stroke:#038048;stroke-width:1;"/></g><text fill="#000000" font-family="sans-serif" font-size="14" lengthAdjust="spacing" textLength="536.7783" x="531.61" y="739.0107">window_wall_factor: float | tuple[float, float] | dict[CardinalOrientation, float]</text><g data-visibility-modifier="PUBLIC_FIELD"><ellipse cx="522.61" cy="751.9609" fill="none" rx="3" ry="3" style="stroke:#038048;stroke-width:1;"/></g><text fill="#000000" font-family="sans-serif" font-size="14" lengthAdjust="spacing" textLength="480.6279" x="531.61" y="755.3076">door_factor: float | tuple[float, float] | dict[CardinalOrientation, float]</text><g data-visibility-modifier="PUBLIC_FIELD"><ellipse cx="522.61" cy="768.2578" fill="none" rx="3" ry="3" style="stroke:#038048;stroke-width:1;"/></g><text fill="#000000" font-family="sans-serif" font-size="14" lengthAdjust="spacing" textLength="414.4766" x="531.61" y="771.6045">window_roof_factor: float | tuple[CardinalOrientation, float]</text><g data-visibility-modifier="PUBLIC_FIELD"><ellipse cx="522.61" cy="784.5547" fill="none" rx="3" ry="3" style="stroke:#038048;stroke-width:1;"/></g><text fill="#000000" font-family="sans-serif" font-size="14" lengthAdjust="spacing" textLength="186.2041" x="531.61" y="787.9014">window_roof_vertical: bool</text><line style="stroke:#181818;stroke-width:1;stroke-dasharray:1,2;" x1="512.61" x2="1073.3883" y1="795.2031" y2="795.2031"/><g data-visibility-modifier="PUBLIC_METHOD"><ellipse cx="522.61" cy="808.8516" fill="#84BE84" rx="3" ry="3" style="stroke:#038048;stroke-width:1;"/></g><text fill="#000000" font-family="sans-serif" font-size="14" lengthAdjust="spacing" textLength="174.583" x="531.61" y="812.1982">footprint_area (property)</text><g data-visibility-modifier="PUBLIC_METHOD"><ellipse cx="522.61" cy="825.1484" fill="#84BE84" rx="3" ry="3" style="stroke:#038048;stroke-width:1;"/></g><text fill="#000000" font-family="sans-serif" font-size="14" lengthAdjust="spacing" textLength="154.9707" x="531.61" y="828.4951">geometries (property)</text><g data-visibility-modifier="PUBLIC_METHOD"><ellipse cx="522.61" cy="841.4453" fill="#84BE84" rx="3" ry="3" style="stroke:#038048;stroke-width:1;"/></g><text fill="#000000" font-family="sans-serif" font-size="14" lengthAdjust="spacing" textLength="141.9551" x="531.61" y="844.792">roof_area (property)</text><g data-visibility-modifier="PUBLIC_METHOD"><ellipse cx="522.61" cy="857.7422" fill="#84BE84" rx="3" ry="3" style="stroke:#038048;stroke-width:1;"/></g><text fill="#000000" font-family="sans-serif" font-size="14" lengthAdjust="spacing" textLength="215.0859" x="531.61" y="861.0889">window_geometries (property)</text><line style="stroke:#181818;stroke-width:0.5;" x1="512.61" x2="1073.3883" y1="868.3906" y2="868.3906"/></g><!--class FootprintNominalBuildingGeometry--><g class="entity" data-qualified-name="odeon.model.building_geometry.FootprintNominalBuildingGeometry" data-source-line="53" id="ent0018"><rect fill="#F1F1F1" height="48" rx="2.5" ry="2.5" style="stroke:#181818;stroke-width:0.5;" width="280.0762" x="212.96" y="968.99"/><ellipse cx="227.96" cy="984.99" fill="#ADD1B2" rx="11" ry="11" style="stroke:#181818;stroke-width:1;"/><path d="M230.9288,990.6306 Q230.3506,990.9275 229.71,991.0681 Q229.0694,991.2244 228.3663,991.2244 Q225.8663,991.2244 224.5381,989.5837 Q223.2256,987.9275 223.2256,984.8025 Q223.2256,981.6775 224.5381,980.0212 Q225.8663,978.365 228.3663,978.365 Q229.0694,978.365 229.71,978.5212 Q230.3663,978.6775 230.9288,978.9744 L230.9288,981.6931 Q230.3038,981.115 229.71,980.8494 Q229.1163,980.5681 228.4913,980.5681 Q227.1475,980.5681 226.46,981.6462 Q225.7725,982.7087 225.7725,984.8025 Q225.7725,986.8962 226.46,987.9744 Q227.1475,989.0369 228.4913,989.0369 Q229.1163,989.0369 229.71,988.7712 Q230.3038,988.49 230.9288,987.9119 L230.9288,990.6306 Z " fill="#000000"/><text fill="#000000" font-family="sans-serif" font-size="14" lengthAdjust="spacing" textLength="248.0762" x="241.96" y="989.8367">FootprintNominalBuildingGeometry</text><line style="stroke:#181818;stroke-width:0.5;" x1="213.96" x2="492.0362" y1="1000.99" y2="1000.99"/><line style="stroke:#181818;stroke-width:0.5;" x1="213.96" x2="492.0362" y1="1008.99" y2="1008.99"/></g><!--class RoofedCuboidBuildingGeometry--><g class="entity" data-qualified-name="odeon.model.building_geometry.RoofedCuboidBuildingGeometry" data-source-line="56" id="ent0020"><rect fill="#F1F1F1" height="88.5938" rx="2.5" ry="2.5" style="stroke:#181818;stroke-width:0.5;" width="546.3174" x="527.84" y="948.69"/><ellipse cx="684.3659" cy="964.69" fill="#ADD1B2" rx="11" ry="11" style="stroke:#181818;stroke-width:1;"/><path d="M687.3346,970.3306 Q686.7565,970.6275 686.1159,970.7681 Q685.4753,970.9244 684.7721,970.9244 Q682.2721,970.9244 680.944,969.2837 Q679.6315,967.6275 679.6315,964.5025 Q679.6315,961.3775 680.944,959.7212 Q682.2721,958.065 684.7721,958.065 Q685.4753,958.065 686.1159,958.2212 Q686.7721,958.3775 687.3346,958.6744 L687.3346,961.3931 Q686.7096,960.815 686.1159,960.5494 Q685.5221,960.2681 684.8971,960.2681 Q683.5534,960.2681 682.8659,961.3462 Q682.1784,962.4087 682.1784,964.5025 Q682.1784,966.5962 682.8659,967.6744 Q683.5534,968.7369 684.8971,968.7369 Q685.5221,968.7369 686.1159,968.4712 Q686.7096,968.19 687.3346,967.6119 L687.3346,970.3306 Z " fill="#000000"/><text fill="#000000" font-family="sans-serif" font-size="14" lengthAdjust="spacing" textLength="224.7656" x="704.8659" y="969.5367">RoofedCuboidBuildingGeometry</text><line style="stroke:#181818;stroke-width:0.5;" x1="528.84" x2="1073.1574" y1="980.69" y2="980.69"/><line style="stroke:#181818;stroke-width:1;stroke-dasharray:1,2;" x1="528.84" x2="1073.1574" y1="988.69" y2="988.69"/><g data-visibility-modifier="PUBLIC_METHOD"><ellipse cx="538.84" cy="1002.3384" fill="#84BE84" rx="3" ry="3" style="stroke:#038048;stroke-width:1;"/></g><text fill="#000000" font-family="sans-serif" font-size="14" lengthAdjust="spacing" textLength="136.0557" x="547.84" y="1005.6851">footprint (property)</text><line style="stroke:#181818;stroke-width:0.5;" x1="528.84" x2="1073.1574" y1="1012.9869" y2="1012.9869"/><g data-visibility-modifier="PUBLIC_METHOD"><ellipse cx="538.84" cy="1026.6353" fill="#84BE84" rx="3" ry="3" style="stroke:#038048;stroke-width:1;"/></g><text fill="#000000" font-family="sans-serif" font-size="14" lengthAdjust="spacing" textLength="520.3174" x="547.84" y="1029.982">element_with_orientation(self, element_type, direction, allow_antiparallel)</text></g><!--class Object--><g class="entity" data-qualified-name="odeon.model.base.Object" data-source-line="48" id="ent0007"><rect fill="#F1F1F1" height="48" rx="2.5" ry="2.5" style="stroke:#181818;stroke-width:0.5;" width="77.5957" x="754.2" y="127"/><ellipse cx="769.2" cy="143" fill="#ADD1B2" rx="11" ry="11" style="stroke:#181818;stroke-width:1;"/><path d="M772.1688,148.6406 Q771.5906,148.9375 770.95,149.0781 Q770.3094,149.2344 769.6063,149.2344 Q767.1063,149.2344 765.7781,147.5937 Q764.4656,145.9375 764.4656,142.8125 Q764.4656,139.6875 765.7781,138.0312 Q767.1063,136.375 769.6063,136.375 Q770.3094,136.375 770.95,136.5312 Q771.6063,136.6875 772.1688,136.9844 L772.1688,139.7031 Q771.5438,139.125 770.95,138.8594 Q770.3563,138.5781 769.7313,138.5781 Q768.3875,138.5781 767.7,139.6562 Q767.0125,140.7187 767.0125,142.8125 Q767.0125,144.9062 767.7,145.9844 Q768.3875,147.0469 769.7313,147.0469 Q770.3563,147.0469 770.95,146.7812 Q771.5438,146.5 772.1688,145.9219 L772.1688,148.6406 Z " fill="#000000"/><text fill="#000000" font-family="sans-serif" font-size="14" lengthAdjust="spacing" textLength="45.5957" x="783.2" y="147.8467">Object</text><line style="stroke:#181818;stroke-width:0.5;" x1="755.2" x2="830.7957" y1="159" y2="159"/><line style="stroke:#181818;stroke-width:0.5;" x1="755.2" x2="830.7957" y1="167" y2="167"/></g><!--class Geometry--><g class="entity" data-qualified-name="odeon.model.geometry.Geometry" data-source-line="49" id="ent0010"><rect fill="#F1F1F1" height="48" rx="2.5" ry="2.5" style="stroke:#181818;stroke-width:0.5;" width="101.8086" x="1130.1" y="968.99"/><ellipse cx="1145.1" cy="984.99" fill="#ADD1B2" rx="11" ry="11" style="stroke:#181818;stroke-width:1;"/><path d="M1148.0688,990.6306 Q1147.4906,990.9275 1146.85,991.0681 Q1146.2094,991.2244 1145.5063,991.2244 Q1143.0063,991.2244 1141.6781,989.5837 Q1140.3656,987.9275 1140.3656,984.8025 Q1140.3656,981.6775 1141.6781,980.0212 Q1143.0063,978.365 1145.5063,978.365 Q1146.2094,978.365 1146.85,978.5212 Q1147.5063,978.6775 1148.0688,978.9744 L1148.0688,981.6931 Q1147.4438,981.115 1146.85,980.8494 Q1146.2563,980.5681 1145.6313,980.5681 Q1144.2875,980.5681 1143.6,981.6462 Q1142.9125,982.7087 1142.9125,984.8025 Q1142.9125,986.8962 1143.6,987.9744 Q1144.2875,989.0369 1145.6313,989.0369 Q1146.2563,989.0369 1146.85,988.7712 Q1147.4438,988.49 1148.0688,987.9119 L1148.0688,990.6306 Z " fill="#000000"/><text fill="#000000" font-family="sans-serif" font-size="14" lengthAdjust="spacing" textLength="69.8086" x="1159.1" y="989.8367">Geometry</text><line style="stroke:#181818;stroke-width:0.5;" x1="1131.1" x2="1230.9086" y1="1000.99" y2="1000.99"/><line style="stroke:#181818;stroke-width:0.5;" x1="1131.1" x2="1230.9086" y1="1008.99" y2="1008.99"/></g><!--class CardinalOrientation--><g class="entity" data-qualified-name="odeon.model.base_geometry.CardinalOrientation" data-source-line="51" id="ent0014"><rect fill="#F1F1F1" height="48" rx="2.5" ry="2.5" style="stroke:#181818;stroke-width:0.5;" width="169.2656" x="1288.37" y="968.99"/><ellipse cx="1303.37" cy="984.99" fill="#ADD1B2" rx="11" ry="11" style="stroke:#181818;stroke-width:1;"/><path d="M1306.3388,990.6306 Q1305.7606,990.9275 1305.12,991.0681 Q1304.4794,991.2244 1303.7763,991.2244 Q1301.2763,991.2244 1299.9481,989.5837 Q1298.6356,987.9275 1298.6356,984.8025 Q1298.6356,981.6775 1299.9481,980.0212 Q1301.2763,978.365 1303.7763,978.365 Q1304.4794,978.365 1305.12,978.5212 Q1305.7763,978.6775 1306.3388,978.9744 L1306.3388,981.6931 Q1305.7138,981.115 1305.12,980.8494 Q1304.5263,980.5681 1303.9013,980.5681 Q1302.5575,980.5681 1301.87,981.6462 Q1301.1825,982.7087 1301.1825,984.8025 Q1301.1825,986.8962 1301.87,987.9744 Q1302.5575,989.0369 1303.9013,989.0369 Q1304.5263,989.0369 1305.12,988.7712 Q1305.7138,988.49 1306.3388,987.9119 L1306.3388,990.6306 Z " fill="#000000"/><text fill="#000000" font-family="sans-serif" font-size="14" lengthAdjust="spacing" textLength="137.2656" x="1317.37" y="989.8367">CardinalOrientation</text><line style="stroke:#181818;stroke-width:0.5;" x1="1289.37" x2="1456.6356" y1="1000.99" y2="1000.99"/><line style="stroke:#181818;stroke-width:0.5;" x1="1289.37" x2="1456.6356" y1="1008.99" y2="1008.99"/></g><!--reverse link Object to BuildingGeometry--><g class="link" data-entity-1="ent0007" data-entity-2="ent0006" data-link-type="extension" data-source-line="48" id="lnk9"><path codeLine="48" d="M793,193.23 C793,210.77 793,219.03 793,249.78" fill="none" id="Object-backto-BuildingGeometry" style="stroke:#181818;stroke-width:1;"/><polygon fill="none" points="793,175.23,787,193.23,799,193.23,793,175.23" style="stroke:#181818;stroke-width:1;"/></g><!--reverse link BuildingGeometry to Geometry--><g class="link" data-entity-1="ent0006" data-entity-2="ent0010" data-link-type="composition" data-source-line="49" id="lnk12"><path codeLine="49" d="M1082.7827,883.6978 C1118.3527,922.9078 1140.87,947.75 1159.98,968.81" fill="none" id="BuildingGeometry-backto-Geometry" style="stroke:#181818;stroke-width:1;"/><polygon fill="#181818" points="1074.72,874.81,1075.7888,881.9415,1082.7827,883.6978,1081.7139,876.5663,1074.72,874.81" style="stroke:#181818;stroke-width:1;"/></g><!--reverse link BuildingGeometry to RoofType--><g class="link" data-entity-1="ent0006" data-entity-2="ent0002" data-link-type="composition" data-source-line="50" id="lnk13"><path codeLine="50" d="M501.056,724.5928 C398.446,784.9328 293.79,851.43 195,925.99 C189.36,930.24 183.66,934.88 178.07,939.66" fill="none" id="BuildingGeometry-backto-RoofType" style="stroke:#181818;stroke-width:1;"/><polygon fill="#181818" points="511.4,718.51,504.2004,718.1034,501.056,724.5928,508.2556,724.9994,511.4,718.51" style="stroke:#181818;stroke-width:1;"/></g><!--reverse link BuildingGeometry to CardinalOrientation--><g class="link" data-entity-1="ent0006" data-entity-2="ent0014" data-link-type="composition" data-source-line="51" id="lnk16"><path codeLine="51" d="M1084.1593,788.3402 C1186.5693,863.8302 1280.73,931.68 1334.95,968.51" fill="none" id="BuildingGeometry-backto-CardinalOrientation" style="stroke:#181818;stroke-width:1;"/><polygon fill="#181818" points="1074.5,781.22,1076.9563,787.9999,1084.1593,788.3402,1081.7031,781.5603,1074.5,781.22" style="stroke:#181818;stroke-width:1;"/></g><!--reverse link BuildingGeometry to CardinalOrientation--><g class="link" data-entity-1="ent0006" data-entity-2="ent0014" data-link-type="composition" data-source-line="52" id="lnk17"><path codeLine="52" d="M1084.4882,769.2382 C1195.7482,851.0382 1298.94,928.88 1348.02,968.72" fill="none" id="BuildingGeometry-backto-CardinalOrientation-1" style="stroke:#181818;stroke-width:1;"/><polygon fill="#181818" points="1074.82,762.13,1077.2847,768.9068,1084.4882,769.2382,1082.0235,762.4614,1074.82,762.13" style="stroke:#181818;stroke-width:1;"/></g><!--reverse link BuildingGeometry to FootprintNominalBuildingGeometry--><g class="link" data-entity-1="ent0006" data-entity-2="ent0018" data-link-type="extension" data-source-line="55" id="lnk19"><path codeLine="55" d="M498.3233,850.6966 C442.4133,905.0466 405.2,941.23 377,968.66" fill="none" id="BuildingGeometry-backto-FootprintNominalBuildingGeometry" style="stroke:#181818;stroke-width:1;"/><polygon fill="none" points="511.23,838.15,494.1411,846.3944,502.5055,854.9988,511.23,838.15" style="stroke:#181818;stroke-width:1;"/></g><!--reverse link BuildingGeometry to RoofedCuboidBuildingGeometry--><g class="link" data-entity-1="ent0006" data-entity-2="ent0020" data-link-type="extension" data-source-line="62" id="lnk21"><path codeLine="62" d="M799.1836,894.7769 C799.6936,922.2869 799.82,929.01 800.19,948.44" fill="none" id="BuildingGeometry-backto-RoofedCuboidBuildingGeometry" style="stroke:#181818;stroke-width:1;"/><polygon fill="none" points="798.85,876.78,793.1847,894.8881,805.1826,894.6657,798.85,876.78" style="stroke:#181818;stroke-width:1;"/></g><?plantuml-src jLLDR-8m4BtxLrZQmxORcXyGxQNjqlPG5QdbXgh8n9F4A-E975E4AFzz9o494081RNk2l7dpF9ul_-Ge0Oq_en_jJ-TAIsMIC06SWRDBni3CPwSv_YjYF5vcm5Ti5IlGShtAdN0gMZ_UtZqF0vw8gOQsxU7vTXpmM0lNjhmz3Vy4F4z1jYsZyTFmDU3eKh1ipI8jyhmdkBiAUQm02jABDQAjAGhoW6kLkqbDUMVUGcXzac3fpgSLb96u27k5AbwldkmBEKPqcLN61Rn6cIUqKsukeKWqKgP_X0qj51P4ZNjIpS3a2Wqfktb6vTfSqL5T0rvNc7bDWbDGIUeQVn0VaBV1Kk4u5XfeuKxf5gB192vjCFm0cuh3unly67-Xv0vSIYFbqHHzXMPhK3A1RalB9Oo4fKG87V3xwjzeQ-rGwdFGI66MNhBiXe1F4JNpSigsXas3xD_YmBANqDq6Z4Naq5Oc_hcfyAJy6cp0TqAbYjoa8xQQKZNXLudjTdwtvjdkL6LQ3qLgovpv_iuub7tEhpAB6R6MrypRJj4UN2eTaAjZkdt2aBRGtluHEVYZwL-87F_zUNDpuN9Y5-woNwqJ6kPN2HvVzl-jJ9dQqhicujiFEEVvUAZRw0LdXN_7SxA-DD8p6gFlsBDYBqe5ydu-HIKxujwRabPNUw217WH7UuNMoiuMkyf1nmDUculdOK2pRgdXo-caRKFJ8enJcR3q0VhwMn9qwcx_0000?></g></svg>