<?plantuml 1.2026.2beta3?><svg xmlns="http://www.w3.org/2000/svg" xmlns:xlink="http://www.w3.org/1999/xlink" contentStyleType="text/css" data-diagram-type="CLASS" height="1138px" preserveAspectRatio="none" style="width:2210px;height:1138px;background:#FFFFFF;" version="1.1" viewBox="0 0 2210 1138" width="2210px" zoomAndPan="magnify"><defs/><g><!--cluster odeon--><g class="cluster" data-qualified-name="odeon" data-source-line="3" id="ent0003"><path d="M8.5,6 L58.2197,6 A3.75,3.75 0 0 1 60.7197,8.5 L67.7197,28.2969 L2200.5,28.2969 A2.5,2.5 0 0 1 2203,30.7969 L2203,1129.3 A2.5,2.5 0 0 1 2200.5,1131.8 L8.5,1131.8 A2.5,2.5 0 0 1 6,1129.3 L6,8.5 A2.5,2.5 0 0 1 8.5,6" fill="none" style="stroke:#000000;stroke-width:1.5;"/><line style="stroke:#000000;stroke-width:1.5;" x1="6" x2="67.7197" y1="28.2969" y2="28.2969"/><text fill="#000000" font-family="sans-serif" font-size="14" font-weight="bold" lengthAdjust="spacing" textLength="48.7197" x="10" y="20.9951">odeon</text></g><!--cluster model--><g class="cluster" data-qualified-name="odeon.model" data-source-line="3" id="ent0004"><path d="M32.5,49 L82.0215,49 A3.75,3.75 0 0 1 84.5215,51.5 L91.5215,71.2969 L2176.5,71.2969 A2.5,2.5 0 0 1 2179,73.7969 L2179,1105.3 A2.5,2.5 0 0 1 2176.5,1107.8 L32.5,1107.8 A2.5,2.5 0 0 1 30,1105.3 L30,51.5 A2.5,2.5 0 0 1 32.5,49" fill="none" style="stroke:#000000;stroke-width:1.5;"/><line style="stroke:#000000;stroke-width:1.5;" x1="30" x2="91.5215" y1="71.2969" y2="71.2969"/><text fill="#000000" font-family="sans-serif" font-size="14" font-weight="bold" lengthAdjust="spacing" textLength="48.5215" x="34" y="63.9951">model</text></g><!--cluster building_physics--><g class="cluster" data-qualified-name="odeon.model.building_physics" data-source-line="3" id="ent0005"><path d="M56.5,215 L187.7725,215 A3.75,3.75 0 0 1 190.2725,217.5 L197.2725,237.2969 L2152.5,237.2969 A2.5,2.5 0 0 1 2155,239.7969 L2155,1081.3 A2.5,2.5 0 0 1 2152.5,1083.8 L56.5,1083.8 A2.5,2.5 0 0 1 54,1081.3 L54,217.5 A2.5,2.5 0 0 1 56.5,215" fill="none" style="stroke:#000000;stroke-width:1.5;"/><line style="stroke:#000000;stroke-width:1.5;" x1="54" x2="197.2725" y1="237.2969" y2="237.2969"/><text fill="#000000" font-family="sans-serif" font-size="14" font-weight="bold" lengthAdjust="spacing" textLength="130.2725" x="58" y="229.9951">building_physics</text></g><!--cluster base--><g class="cluster" data-qualified-name="odeon.model.base" data-source-line="47" id="ent0011"><path d="M1408.5,92 L1446.7969,92 A3.75,3.75 0 0 1 1449.2969,94.5 L1456.2969,114.2969 L1513.5,114.2969 A2.5,2.5 0 0 1 1516,116.7969 L1516,188.5 A2.5,2.5 0 0 1 1513.5,191 L1408.5,191 A2.5,2.5 0 0 1 1406,188.5 L1406,94.5 A2.5,2.5 0 0 1 1408.5,92" fill="none" style="stroke:#000000;stroke-width:1.5;"/><line style="stroke:#000000;stroke-width:1.5;" x1="1406" x2="1456.2969" y1="114.2969" y2="114.2969"/><text fill="#000000" font-family="sans-serif" font-size="14" font-weight="bold" lengthAdjust="spacing" textLength="37.2969" x="1410" y="106.9951">base</text></g><!--class AdjacentEnvironment--><g class="entity" data-qualified-name="odeon.model.building_physics.AdjacentEnvironment" data-source-line="3" id="ent0002"><rect fill="#F1F1F1" height="96.8906" rx="2.5" ry="2.5" style="stroke:#181818;stroke-width:0.5;" width="183.3066" x="81.35" y="384.38"/><ellipse cx="96.35" cy="400.38" fill="#EB937F" rx="11" ry="11" style="stroke:#181818;stroke-width:1;"/><path d="M100.4594,406.38 L92.7406,406.38 L92.7406,393.9894 L100.4594,393.9894 L100.4594,396.1456 L95.1938,396.1456 L95.1938,398.8175 L99.9594,398.8175 L99.9594,400.9738 L95.1938,400.9738 L95.1938,404.2238 L100.4594,404.2238 L100.4594,406.38 Z " fill="#000000"/><text fill="#000000" font-family="sans-serif" font-size="14" lengthAdjust="spacing" textLength="151.3066" x="110.35" y="405.2267">AdjacentEnvironment</text><line style="stroke:#181818;stroke-width:0.5;" x1="82.35" x2="263.6566" y1="416.38" y2="416.38"/><text fill="#000000" font-family="sans-serif" font-size="14" lengthAdjust="spacing" text-decoration="underline" textLength="122.1035" x="87.35" y="433.3751">GROUND: ground</text><text fill="#000000" font-family="sans-serif" font-size="14" lengthAdjust="spacing" text-decoration="underline" textLength="50.8252" x="87.35" y="449.672">AIR: air</text><text fill="#000000" font-family="sans-serif" font-size="14" lengthAdjust="spacing" text-decoration="underline" textLength="153.8154" x="87.35" y="465.9689">UNHEATED: unheated</text><line style="stroke:#181818;stroke-width:0.5;" x1="82.35" x2="263.6566" y1="473.2706" y2="473.2706"/></g><!--class MassDistribution--><g class="entity" data-qualified-name="odeon.model.building_physics.MassDistribution" data-source-line="8" id="ent0006"><rect fill="#F1F1F1" height="129.4844" rx="2.5" ry="2.5" style="stroke:#181818;stroke-width:0.5;" width="505.5068" x="299.25" y="368.08"/><ellipse cx="489.2925" cy="384.08" fill="#EB937F" rx="11" ry="11" style="stroke:#181818;stroke-width:1;"/><path d="M493.4019,390.08 L485.6831,390.08 L485.6831,377.6894 L493.4019,377.6894 L493.4019,379.8456 L488.1362,379.8456 L488.1362,382.5175 L492.9019,382.5175 L492.9019,384.6737 L488.1362,384.6737 L488.1362,387.9237 L493.4019,387.9237 L493.4019,390.08 Z " fill="#000000"/><text fill="#000000" font-family="sans-serif" font-size="14" lengthAdjust="spacing" textLength="116.9219" x="509.7925" y="388.9267">MassDistribution</text><line style="stroke:#181818;stroke-width:0.5;" x1="300.25" x2="803.7568" y1="400.08" y2="400.08"/><text fill="#000000" font-family="sans-serif" font-size="14" lengthAdjust="spacing" text-decoration="underline" textLength="411.6191" x="305.25" y="417.0751">MASS_CONCENTRATED_INSIDE: mass_concentrated_inside</text><text fill="#000000" font-family="sans-serif" font-size="14" lengthAdjust="spacing" text-decoration="underline" textLength="437.001" x="305.25" y="433.372">MASS_CONCENTRATED_OUTSIDE: mass_concentrated_outside</text><text fill="#000000" font-family="sans-serif" font-size="14" lengthAdjust="spacing" text-decoration="underline" textLength="493.5068" x="305.25" y="449.6689">MASS_CONCENTRATED_INSIDE_OUTSIDE: mass_splited_inside_outside</text><text fill="#000000" font-family="sans-serif" font-size="14" lengthAdjust="spacing" text-decoration="underline" textLength="467.4209" x="305.25" y="465.9657">MASS_CONCENTRATED_CONSISTENT: mass_distributed_consistent</text><text fill="#000000" font-family="sans-serif" font-size="14" lengthAdjust="spacing" text-decoration="underline" textLength="436.5771" x="305.25" y="482.2626">MASS_CONCENTRATED_CENTRAL: mass_concentrated_central</text><line style="stroke:#181818;stroke-width:0.5;" x1="300.25" x2="803.7568" y1="489.5644" y2="489.5644"/></g><!--class Transparency--><g class="entity" data-qualified-name="odeon.model.building_physics.Transparency" data-source-line="15" id="ent0007"><rect fill="#F1F1F1" height="80.5938" rx="2.5" ry="2.5" style="stroke:#181818;stroke-width:0.5;" width="206.1885" x="69.91" y="748.98"/><ellipse cx="120.8822" cy="764.98" fill="#EB937F" rx="11" ry="11" style="stroke:#181818;stroke-width:1;"/><path d="M124.9915,770.98 L117.2728,770.98 L117.2728,758.5894 L124.9915,758.5894 L124.9915,760.7456 L119.7259,760.7456 L119.7259,763.4175 L124.4915,763.4175 L124.4915,765.5738 L119.7259,765.5738 L119.7259,768.8238 L124.9915,768.8238 L124.9915,770.98 Z " fill="#000000"/><text fill="#000000" font-family="sans-serif" font-size="14" lengthAdjust="spacing" textLength="95.7441" x="141.3822" y="769.8267">Transparency</text><line style="stroke:#181818;stroke-width:0.5;" x1="70.91" x2="275.0985" y1="780.98" y2="780.98"/><text fill="#000000" font-family="sans-serif" font-size="14" lengthAdjust="spacing" text-decoration="underline" textLength="194.1885" x="75.91" y="797.9751">TRANSPARENT: transparent</text><text fill="#000000" font-family="sans-serif" font-size="14" lengthAdjust="spacing" text-decoration="underline" textLength="120.7227" x="75.91" y="814.272">OPAQUE: opaque</text><line style="stroke:#181818;stroke-width:0.5;" x1="70.91" x2="275.0985" y1="821.5738" y2="821.5738"/></g><!--class WindowType--><g class="entity" data-qualified-name="odeon.model.building_physics.WindowType" data-source-line="19" id="ent0008"><rect fill="#F1F1F1" height="96.8906" rx="2.5" ry="2.5" style="stroke:#181818;stroke-width:0.5;" width="829.2363" x="311.38" y="740.83"/><ellipse cx="676.8258" cy="756.83" fill="#EB937F" rx="11" ry="11" style="stroke:#181818;stroke-width:1;"/><path d="M680.9352,762.83 L673.2164,762.83 L673.2164,750.4394 L680.9352,750.4394 L680.9352,752.5956 L675.6696,752.5956 L675.6696,755.2675 L680.4352,755.2675 L680.4352,757.4237 L675.6696,757.4237 L675.6696,760.6737 L680.9352,760.6737 L680.9352,762.83 Z " fill="#000000"/><text fill="#000000" font-family="sans-serif" font-size="14" lengthAdjust="spacing" textLength="89.8447" x="697.3258" y="761.6767">WindowType</text><line style="stroke:#181818;stroke-width:0.5;" x1="312.38" x2="1139.6163" y1="772.83" y2="772.83"/><text fill="#000000" font-family="sans-serif" font-size="14" lengthAdjust="spacing" text-decoration="underline" textLength="817.2363" x="317.38" y="789.8251">TRIPLE_THERMAL_INSULATION_GLAZING_FOR_PASSIVE_HOUSE: triple_thermal_insulation_glazing_for_passive_house</text><text fill="#000000" font-family="sans-serif" font-size="14" lengthAdjust="spacing" text-decoration="underline" textLength="524.2549" x="317.38" y="806.122">TRIPLE_THERMAL_INSULATION_GLAZING: triple_thermal_insulation_glazing</text><text fill="#000000" font-family="sans-serif" font-size="14" lengthAdjust="spacing" text-decoration="underline" textLength="546.2461" x="317.38" y="822.4189">DOUBLE_THERMAL_INSULATION_GLAZING: double_thermal_insulation_glazing</text><line style="stroke:#181818;stroke-width:0.5;" x1="312.38" x2="1139.6163" y1="829.7206" y2="829.7206"/></g><!--class BuildingThermalZone--><g class="entity" data-qualified-name="odeon.model.building_physics.BuildingThermalZone" data-source-line="24" id="ent0009"><rect fill="#F1F1F1" height="365.6406" rx="2.5" ry="2.5" style="stroke:#181818;stroke-width:0.5;" width="388.0654" x="1083.97" y="250"/><ellipse cx="1198.5847" cy="266" fill="#ADD1B2" rx="11" ry="11" style="stroke:#181818;stroke-width:1;"/><path d="M1201.5535,271.6406 Q1200.9754,271.9375 1200.3347,272.0781 Q1199.6941,272.2344 1198.991,272.2344 Q1196.491,272.2344 1195.1629,270.5938 Q1193.8504,268.9375 1193.8504,265.8125 Q1193.8504,262.6875 1195.1629,261.0313 Q1196.491,259.375 1198.991,259.375 Q1199.6941,259.375 1200.3347,259.5313 Q1200.991,259.6875 1201.5535,259.9844 L1201.5535,262.7031 Q1200.9285,262.125 1200.3347,261.8594 Q1199.741,261.5781 1199.116,261.5781 Q1197.7722,261.5781 1197.0847,262.6563 Q1196.3972,263.7188 1196.3972,265.8125 Q1196.3972,267.9063 1197.0847,268.9844 Q1197.7722,270.0469 1199.116,270.0469 Q1199.741,270.0469 1200.3347,269.7813 Q1200.9285,269.5 1201.5535,268.9219 L1201.5535,271.6406 Z " fill="#000000"/><text fill="#000000" font-family="sans-serif" font-size="14" lengthAdjust="spacing" textLength="150.3359" x="1219.0847" y="270.8467">BuildingThermalZone</text><line style="stroke:#181818;stroke-width:0.5;" x1="1084.97" x2="1471.0354" y1="282" y2="282"/><g data-visibility-modifier="PROTECTED_FIELD"><polygon fill="none" points="1094.97,290.6484,1098.97,294.6484,1094.97,298.6484,1090.97,294.6484" style="stroke:#B38D22;stroke-width:1;"/></g><text fill="#000000" font-family="sans-serif" font-size="14" lengthAdjust="spacing" textLength="362.0654" x="1103.97" y="298.9951">_heattranscoef_ventilation_w_per_sqm_k: Temporal</text><g data-visibility-modifier="PROTECTED_FIELD"><polygon fill="none" points="1094.97,306.9453,1098.97,310.9453,1094.97,314.9453,1090.97,310.9453" style="stroke:#B38D22;stroke-width:1;"/></g><text fill="#000000" font-family="sans-serif" font-size="14" lengthAdjust="spacing" textLength="286.5898" x="1103.97" y="315.292">_indoor_temperature_setpoint: Temporal</text><g data-visibility-modifier="PROTECTED_FIELD"><polygon fill="none" points="1094.97,323.2422,1098.97,327.2422,1094.97,331.2422,1090.97,327.2422" style="stroke:#B38D22;stroke-width:1;"/></g><text fill="#000000" font-family="sans-serif" font-size="14" lengthAdjust="spacing" textLength="222.4893" x="1103.97" y="331.5889">_indoor_temperature: Temporal</text><g data-visibility-modifier="PROTECTED_FIELD"><polygon fill="none" points="1094.97,339.5391,1098.97,343.5391,1094.97,347.5391,1090.97,343.5391" style="stroke:#B38D22;stroke-width:1;"/></g><text fill="#000000" font-family="sans-serif" font-size="14" lengthAdjust="spacing" textLength="244.6309" x="1103.97" y="347.8857">_operative_temperature: Temporal</text><g data-visibility-modifier="PROTECTED_FIELD"><polygon fill="none" points="1094.97,355.8359,1098.97,359.8359,1094.97,363.8359,1090.97,359.8359" style="stroke:#B38D22;stroke-width:1;"/></g><text fill="#000000" font-family="sans-serif" font-size="14" lengthAdjust="spacing" textLength="222.2158" x="1103.97" y="364.1826">_internal_solar_gains: Temporal</text><g data-visibility-modifier="PUBLIC_FIELD"><ellipse cx="1094.97" cy="377.1328" fill="none" rx="3" ry="3" style="stroke:#038048;stroke-width:1;"/></g><text fill="#000000" font-family="sans-serif" font-size="14" lengthAdjust="spacing" textLength="128.2012" x="1103.97" y="380.4795">heated_area: float</text><g data-visibility-modifier="PUBLIC_FIELD"><ellipse cx="1094.97" cy="393.4297" fill="none" rx="3" ry="3" style="stroke:#038048;stroke-width:1;"/></g><text fill="#000000" font-family="sans-serif" font-size="14" lengthAdjust="spacing" textLength="202.2275" x="1103.97" y="396.7764">envelope_surface_area: float</text><g data-visibility-modifier="PUBLIC_FIELD"><ellipse cx="1094.97" cy="409.7266" fill="none" rx="3" ry="3" style="stroke:#038048;stroke-width:1;"/></g><text fill="#000000" font-family="sans-serif" font-size="14" lengthAdjust="spacing" textLength="148.5381" x="1103.97" y="413.0732">heated_volume: float</text><g data-visibility-modifier="PUBLIC_FIELD"><ellipse cx="1094.97" cy="426.0234" fill="none" rx="3" ry="3" style="stroke:#038048;stroke-width:1;"/></g><text fill="#000000" font-family="sans-serif" font-size="14" lengthAdjust="spacing" textLength="255.4932" x="1103.97" y="429.3701">internal_heat_capacity_j_per_k: float</text><g data-visibility-modifier="PUBLIC_FIELD"><ellipse cx="1094.97" cy="442.3203" fill="none" rx="3" ry="3" style="stroke:#038048;stroke-width:1;"/></g><text fill="#000000" font-family="sans-serif" font-size="14" lengthAdjust="spacing" textLength="359.6523" x="1103.97" y="445.667">heattranscoef_thermal_bridges_w_per_sqm_k: float</text><g data-visibility-modifier="PUBLIC_FIELD"><ellipse cx="1094.97" cy="458.6172" fill="none" rx="3" ry="3" style="stroke:#038048;stroke-width:1;"/></g><text fill="#000000" font-family="sans-serif" font-size="14" lengthAdjust="spacing" textLength="180.6533" x="1103.97" y="461.9639">heatloss_ventilation: float</text><g data-visibility-modifier="PUBLIC_FIELD"><ellipse cx="1094.97" cy="474.9141" fill="none" rx="3" ry="3" style="stroke:#038048;stroke-width:1;"/></g><text fill="#000000" font-family="sans-serif" font-size="14" lengthAdjust="spacing" textLength="220.2676" x="1103.97" y="478.2607">heatloss_thermal_bridges: float</text><g data-visibility-modifier="PUBLIC_FIELD"><ellipse cx="1094.97" cy="491.2109" fill="none" rx="3" ry="3" style="stroke:#038048;stroke-width:1;"/></g><text fill="#000000" font-family="sans-serif" font-size="14" lengthAdjust="spacing" textLength="177.6592" x="1103.97" y="494.5576">internal_heat_gains: float</text><g data-visibility-modifier="PUBLIC_FIELD"><ellipse cx="1094.97" cy="507.5078" fill="none" rx="3" ry="3" style="stroke:#038048;stroke-width:1;"/></g><text fill="#000000" font-family="sans-serif" font-size="14" lengthAdjust="spacing" textLength="201.4824" x="1103.97" y="510.8545">air_exchange_rate_use: float</text><line style="stroke:#181818;stroke-width:1;stroke-dasharray:1,2;" x1="1084.97" x2="1471.0354" y1="518.1563" y2="518.1563"/><g data-visibility-modifier="PUBLIC_METHOD"><ellipse cx="1094.97" cy="531.8047" fill="#84BE84" rx="3" ry="3" style="stroke:#038048;stroke-width:1;"/></g><text fill="#000000" font-family="sans-serif" font-size="14" lengthAdjust="spacing" textLength="355.0313" x="1103.97" y="535.1514">heattranscoef_ventilation_w_per_sqm_k (property)</text><g data-visibility-modifier="PUBLIC_METHOD"><ellipse cx="1094.97" cy="548.1016" fill="#84BE84" rx="3" ry="3" style="stroke:#038048;stroke-width:1;"/></g><text fill="#000000" font-family="sans-serif" font-size="14" lengthAdjust="spacing" textLength="215.4551" x="1103.97" y="551.4482">indoor_temperature (property)</text><g data-visibility-modifier="PUBLIC_METHOD"><ellipse cx="1094.97" cy="564.3984" fill="#84BE84" rx="3" ry="3" style="stroke:#038048;stroke-width:1;"/></g><text fill="#000000" font-family="sans-serif" font-size="14" lengthAdjust="spacing" textLength="279.5557" x="1103.97" y="567.7451">indoor_temperature_setpoint (property)</text><g data-visibility-modifier="PUBLIC_METHOD"><ellipse cx="1094.97" cy="580.6953" fill="#84BE84" rx="3" ry="3" style="stroke:#038048;stroke-width:1;"/></g><text fill="#000000" font-family="sans-serif" font-size="14" lengthAdjust="spacing" textLength="215.1816" x="1103.97" y="584.042">internal_solar_gains (property)</text><g data-visibility-modifier="PUBLIC_METHOD"><ellipse cx="1094.97" cy="596.9922" fill="#84BE84" rx="3" ry="3" style="stroke:#038048;stroke-width:1;"/></g><text fill="#000000" font-family="sans-serif" font-size="14" lengthAdjust="spacing" textLength="237.5967" x="1103.97" y="600.3389">operative_temperature (property)</text><line style="stroke:#181818;stroke-width:0.5;" x1="1084.97" x2="1471.0354" y1="607.6406" y2="607.6406"/></g><!--class DoorPhysics--><g class="entity" data-qualified-name="odeon.model.building_physics.DoorPhysics" data-source-line="48" id="ent0013"><rect fill="#F1F1F1" height="227.2656" rx="2.5" ry="2.5" style="stroke:#181818;stroke-width:0.5;" width="274.6641" x="1175.67" y="675.64"/><ellipse cx="1266.0308" cy="691.64" fill="#ADD1B2" rx="11" ry="11" style="stroke:#181818;stroke-width:1;"/><path d="M1268.9996,697.2806 Q1268.4215,697.5775 1267.7808,697.7181 Q1267.1402,697.8744 1266.4371,697.8744 Q1263.9371,697.8744 1262.609,696.2337 Q1261.2965,694.5775 1261.2965,691.4525 Q1261.2965,688.3275 1262.609,686.6712 Q1263.9371,685.015 1266.4371,685.015 Q1267.1402,685.015 1267.7808,685.1712 Q1268.4371,685.3275 1268.9996,685.6244 L1268.9996,688.3431 Q1268.3746,687.765 1267.7808,687.4994 Q1267.1871,687.2181 1266.5621,687.2181 Q1265.2183,687.2181 1264.5308,688.2962 Q1263.8433,689.3587 1263.8433,691.4525 Q1263.8433,693.5462 1264.5308,694.6244 Q1265.2183,695.6869 1266.5621,695.6869 Q1267.1871,695.6869 1267.7808,695.4212 Q1268.3746,695.14 1268.9996,694.5619 L1268.9996,697.2806 Z " fill="#000000"/><text fill="#000000" font-family="sans-serif" font-size="14" lengthAdjust="spacing" textLength="85.4424" x="1286.5308" y="696.4867">DoorPhysics</text><line style="stroke:#181818;stroke-width:0.5;" x1="1176.67" x2="1449.3341" y1="707.64" y2="707.64"/><g data-visibility-modifier="PROTECTED_FIELD"><polygon fill="none" points="1186.67,716.2884,1190.67,720.2884,1186.67,724.2884,1182.67,720.2884" style="stroke:#B38D22;stroke-width:1;"/></g><text fill="#000000" font-family="sans-serif" font-size="14" lengthAdjust="spacing" textLength="235.9219" x="1195.67" y="724.6351">_ambient_temperature: Temporal</text><g data-visibility-modifier="PROTECTED_FIELD"><polygon fill="none" points="1186.67,732.5853,1190.67,736.5853,1186.67,740.5853,1182.67,736.5853" style="stroke:#B38D22;stroke-width:1;"/></g><text fill="#000000" font-family="sans-serif" font-size="14" lengthAdjust="spacing" textLength="241.582" x="1195.67" y="740.932">_direct_solar_irradiance: Temporal</text><g data-visibility-modifier="PROTECTED_FIELD"><polygon fill="none" points="1186.67,748.8822,1190.67,752.8822,1186.67,756.8822,1182.67,752.8822" style="stroke:#B38D22;stroke-width:1;"/></g><text fill="#000000" font-family="sans-serif" font-size="14" lengthAdjust="spacing" textLength="248.6641" x="1195.67" y="757.2289">_diffuse_solar_irradiance: Temporal</text><g data-visibility-modifier="PUBLIC_FIELD"><ellipse cx="1186.67" cy="770.1791" fill="none" rx="3" ry="3" style="stroke:#038048;stroke-width:1;"/></g><text fill="#000000" font-family="sans-serif" font-size="14" lengthAdjust="spacing" textLength="86.1396" x="1195.67" y="773.5257">material: str</text><g data-visibility-modifier="PUBLIC_FIELD"><ellipse cx="1186.67" cy="786.4759" fill="none" rx="3" ry="3" style="stroke:#038048;stroke-width:1;"/></g><text fill="#000000" font-family="sans-serif" font-size="14" lengthAdjust="spacing" textLength="195.3643" x="1195.67" y="789.8226">u_value_w_per_sqm_k: float</text><g data-visibility-modifier="PUBLIC_FIELD"><ellipse cx="1186.67" cy="802.7728" fill="none" rx="3" ry="3" style="stroke:#038048;stroke-width:1;"/></g><text fill="#000000" font-family="sans-serif" font-size="14" lengthAdjust="spacing" textLength="98.9707" x="1195.67" y="806.1195">structure: dict</text><g data-visibility-modifier="PUBLIC_FIELD"><ellipse cx="1186.67" cy="819.0697" fill="none" rx="3" ry="3" style="stroke:#038048;stroke-width:1;"/></g><text fill="#000000" font-family="sans-serif" font-size="14" lengthAdjust="spacing" textLength="153.043" x="1195.67" y="822.4164">construction_type: str</text><g data-visibility-modifier="PUBLIC_FIELD"><ellipse cx="1186.67" cy="835.3666" fill="none" rx="3" ry="3" style="stroke:#038048;stroke-width:1;"/></g><text fill="#000000" font-family="sans-serif" font-size="14" lengthAdjust="spacing" textLength="197.5928" x="1195.67" y="838.7132">transparency: Transparency</text><g data-visibility-modifier="PUBLIC_FIELD"><ellipse cx="1186.67" cy="851.6634" fill="none" rx="3" ry="3" style="stroke:#038048;stroke-width:1;"/></g><text fill="#000000" font-family="sans-serif" font-size="14" lengthAdjust="spacing" textLength="143.917" x="1195.67" y="855.0101">shading_factor: float</text><g data-visibility-modifier="PUBLIC_FIELD"><ellipse cx="1186.67" cy="867.9603" fill="none" rx="3" ry="3" style="stroke:#038048;stroke-width:1;"/></g><text fill="#000000" font-family="sans-serif" font-size="14" lengthAdjust="spacing" textLength="120.873" x="1195.67" y="871.307">view_factor: float</text><g data-visibility-modifier="PROTECTED_FIELD"><polygon fill="none" points="1186.67,879.2572,1190.67,883.2572,1186.67,887.2572,1182.67,883.2572" style="stroke:#B38D22;stroke-width:1;"/></g><text fill="#000000" font-family="sans-serif" font-size="14" lengthAdjust="spacing" textLength="244.8496" x="1195.67" y="887.6039">_total_solar_irradiance: DataFrame</text><line style="stroke:#181818;stroke-width:0.5;" x1="1176.67" x2="1449.3341" y1="894.9056" y2="894.9056"/></g><!--class ElementPhysics--><g class="entity" data-qualified-name="odeon.model.building_physics.ElementPhysics" data-source-line="61" id="ent0014"><rect fill="#F1F1F1" height="300.4531" rx="2.5" ry="2.5" style="stroke:#181818;stroke-width:0.5;" width="274.6641" x="1506.67" y="282.6"/><ellipse cx="1584.8834" cy="298.6" fill="#ADD1B2" rx="11" ry="11" style="stroke:#181818;stroke-width:1;"/><path d="M1587.8521,304.2406 Q1587.274,304.5375 1586.6334,304.6781 Q1585.9928,304.8344 1585.2896,304.8344 Q1582.7896,304.8344 1581.4615,303.1937 Q1580.149,301.5375 1580.149,298.4125 Q1580.149,295.2875 1581.4615,293.6312 Q1582.7896,291.975 1585.2896,291.975 Q1585.9928,291.975 1586.6334,292.1312 Q1587.2896,292.2875 1587.8521,292.5844 L1587.8521,295.3031 Q1587.2271,294.725 1586.6334,294.4594 Q1586.0396,294.1781 1585.4146,294.1781 Q1584.0709,294.1781 1583.3834,295.2562 Q1582.6959,296.3187 1582.6959,298.4125 Q1582.6959,300.5062 1583.3834,301.5844 Q1584.0709,302.6469 1585.4146,302.6469 Q1586.0396,302.6469 1586.6334,302.3812 Q1587.2271,302.1 1587.8521,301.5219 L1587.8521,304.2406 Z " fill="#000000"/><text fill="#000000" font-family="sans-serif" font-size="14" lengthAdjust="spacing" textLength="109.7373" x="1605.3834" y="303.4467">ElementPhysics</text><line style="stroke:#181818;stroke-width:0.5;" x1="1507.67" x2="1780.3341" y1="314.6" y2="314.6"/><g data-visibility-modifier="PROTECTED_FIELD"><polygon fill="none" points="1517.67,323.2484,1521.67,327.2484,1517.67,331.2484,1513.67,327.2484" style="stroke:#B38D22;stroke-width:1;"/></g><text fill="#000000" font-family="sans-serif" font-size="14" lengthAdjust="spacing" textLength="235.9219" x="1526.67" y="331.5951">_ambient_temperature: Temporal</text><g data-visibility-modifier="PROTECTED_FIELD"><polygon fill="none" points="1517.67,339.5453,1521.67,343.5453,1517.67,347.5453,1513.67,343.5453" style="stroke:#B38D22;stroke-width:1;"/></g><text fill="#000000" font-family="sans-serif" font-size="14" lengthAdjust="spacing" textLength="241.582" x="1526.67" y="347.892">_direct_solar_irradiance: Temporal</text><g data-visibility-modifier="PROTECTED_FIELD"><polygon fill="none" points="1517.67,355.8422,1521.67,359.8422,1517.67,363.8422,1513.67,359.8422" style="stroke:#B38D22;stroke-width:1;"/></g><text fill="#000000" font-family="sans-serif" font-size="14" lengthAdjust="spacing" textLength="248.6641" x="1526.67" y="364.1889">_diffuse_solar_irradiance: Temporal</text><g data-visibility-modifier="PUBLIC_FIELD"><ellipse cx="1517.67" cy="377.1391" fill="none" rx="3" ry="3" style="stroke:#038048;stroke-width:1;"/></g><text fill="#000000" font-family="sans-serif" font-size="14" lengthAdjust="spacing" textLength="86.1396" x="1526.67" y="380.4857">material: str</text><g data-visibility-modifier="PUBLIC_FIELD"><ellipse cx="1517.67" cy="393.4359" fill="none" rx="3" ry="3" style="stroke:#038048;stroke-width:1;"/></g><text fill="#000000" font-family="sans-serif" font-size="14" lengthAdjust="spacing" textLength="195.3643" x="1526.67" y="396.7826">u_value_w_per_sqm_k: float</text><g data-visibility-modifier="PUBLIC_FIELD"><ellipse cx="1517.67" cy="409.7328" fill="none" rx="3" ry="3" style="stroke:#038048;stroke-width:1;"/></g><text fill="#000000" font-family="sans-serif" font-size="14" lengthAdjust="spacing" textLength="98.9707" x="1526.67" y="413.0795">structure: dict</text><g data-visibility-modifier="PUBLIC_FIELD"><ellipse cx="1517.67" cy="426.0297" fill="none" rx="3" ry="3" style="stroke:#038048;stroke-width:1;"/></g><text fill="#000000" font-family="sans-serif" font-size="14" lengthAdjust="spacing" textLength="153.043" x="1526.67" y="429.3764">construction_type: str</text><g data-visibility-modifier="PUBLIC_FIELD"><ellipse cx="1517.67" cy="442.3266" fill="none" rx="3" ry="3" style="stroke:#038048;stroke-width:1;"/></g><text fill="#000000" font-family="sans-serif" font-size="14" lengthAdjust="spacing" textLength="197.5928" x="1526.67" y="445.6732">transparency: Transparency</text><g data-visibility-modifier="PUBLIC_FIELD"><ellipse cx="1517.67" cy="458.6234" fill="none" rx="3" ry="3" style="stroke:#038048;stroke-width:1;"/></g><text fill="#000000" font-family="sans-serif" font-size="14" lengthAdjust="spacing" textLength="143.917" x="1526.67" y="461.9701">shading_factor: float</text><g data-visibility-modifier="PUBLIC_FIELD"><ellipse cx="1517.67" cy="474.9203" fill="none" rx="3" ry="3" style="stroke:#038048;stroke-width:1;"/></g><text fill="#000000" font-family="sans-serif" font-size="14" lengthAdjust="spacing" textLength="120.873" x="1526.67" y="478.267">view_factor: float</text><g data-visibility-modifier="PROTECTED_FIELD"><polygon fill="none" points="1517.67,486.2172,1521.67,490.2172,1517.67,494.2172,1513.67,490.2172" style="stroke:#B38D22;stroke-width:1;"/></g><text fill="#000000" font-family="sans-serif" font-size="14" lengthAdjust="spacing" textLength="244.8496" x="1526.67" y="494.5639">_total_solar_irradiance: DataFrame</text><line style="stroke:#181818;stroke-width:1;stroke-dasharray:1,2;" x1="1507.67" x2="1780.3341" y1="501.8656" y2="501.8656"/><g data-visibility-modifier="PUBLIC_METHOD"><ellipse cx="1517.67" cy="515.5141" fill="#84BE84" rx="3" ry="3" style="stroke:#038048;stroke-width:1;"/></g><text fill="#000000" font-family="sans-serif" font-size="14" lengthAdjust="spacing" textLength="228.8877" x="1526.67" y="518.8607">ambient_temperature (property)</text><g data-visibility-modifier="PUBLIC_METHOD"><ellipse cx="1517.67" cy="531.8109" fill="#84BE84" rx="3" ry="3" style="stroke:#038048;stroke-width:1;"/></g><text fill="#000000" font-family="sans-serif" font-size="14" lengthAdjust="spacing" textLength="241.6299" x="1526.67" y="535.1576">diffuse_solar_irradiance (property)</text><g data-visibility-modifier="PUBLIC_METHOD"><ellipse cx="1517.67" cy="548.1078" fill="#84BE84" rx="3" ry="3" style="stroke:#038048;stroke-width:1;"/></g><text fill="#000000" font-family="sans-serif" font-size="14" lengthAdjust="spacing" textLength="234.5479" x="1526.67" y="551.4545">direct_solar_irradiance (property)</text><g data-visibility-modifier="PUBLIC_METHOD"><ellipse cx="1517.67" cy="564.4047" fill="#84BE84" rx="3" ry="3" style="stroke:#038048;stroke-width:1;"/></g><text fill="#000000" font-family="sans-serif" font-size="14" lengthAdjust="spacing" textLength="226.2285" x="1526.67" y="567.7514">total_solar_irradiance (property)</text><line style="stroke:#181818;stroke-width:0.5;" x1="1507.67" x2="1780.3341" y1="575.0531" y2="575.0531"/></g><!--class FloorPhysics--><g class="entity" data-qualified-name="odeon.model.building_physics.FloorPhysics" data-source-line="82" id="ent0017"><rect fill="#F1F1F1" height="104.8906" rx="2.5" ry="2.5" style="stroke:#181818;stroke-width:0.5;" width="253.7939" x="1180.1" y="962.91"/><ellipse cx="1259.4447" cy="978.91" fill="#ADD1B2" rx="11" ry="11" style="stroke:#181818;stroke-width:1;"/><path d="M1262.4135,984.5506 Q1261.8354,984.8475 1261.1947,984.9881 Q1260.5541,985.1444 1259.851,985.1444 Q1257.351,985.1444 1256.0229,983.5038 Q1254.7104,981.8475 1254.7104,978.7225 Q1254.7104,975.5975 1256.0229,973.9413 Q1257.351,972.285 1259.851,972.285 Q1260.5541,972.285 1261.1947,972.4413 Q1261.851,972.5975 1262.4135,972.8944 L1262.4135,975.6131 Q1261.7885,975.035 1261.1947,974.7694 Q1260.601,974.4881 1259.976,974.4881 Q1258.6322,974.4881 1257.9447,975.5663 Q1257.2572,976.6288 1257.2572,978.7225 Q1257.2572,980.8163 1257.9447,981.8944 Q1258.6322,982.9569 1259.976,982.9569 Q1260.601,982.9569 1261.1947,982.6913 Q1261.7885,982.41 1262.4135,981.8319 L1262.4135,984.5506 Z " fill="#000000"/><text fill="#000000" font-family="sans-serif" font-size="14" lengthAdjust="spacing" textLength="86.6045" x="1279.9447" y="983.7567">FloorPhysics</text><line style="stroke:#181818;stroke-width:0.5;" x1="1181.1" x2="1432.8939" y1="994.91" y2="994.91"/><g data-visibility-modifier="PROTECTED_FIELD"><polygon fill="none" points="1191.1,1003.5584,1195.1,1007.5584,1191.1,1011.5584,1187.1,1007.5584" style="stroke:#B38D22;stroke-width:1;"/></g><text fill="#000000" font-family="sans-serif" font-size="14" lengthAdjust="spacing" textLength="227.7939" x="1200.1" y="1011.9051">_ground_temperature: Temporal</text><g data-visibility-modifier="PUBLIC_FIELD"><ellipse cx="1191.1" cy="1024.8553" fill="none" rx="3" ry="3" style="stroke:#038048;stroke-width:1;"/></g><text fill="#000000" font-family="sans-serif" font-size="14" lengthAdjust="spacing" textLength="168.916" x="1200.1" y="1028.202">heat_capacity_soil: float</text><line style="stroke:#181818;stroke-width:1;stroke-dasharray:1,2;" x1="1181.1" x2="1432.8939" y1="1035.5037" y2="1035.5037"/><g data-visibility-modifier="PUBLIC_METHOD"><ellipse cx="1191.1" cy="1049.1522" fill="#84BE84" rx="3" ry="3" style="stroke:#038048;stroke-width:1;"/></g><text fill="#000000" font-family="sans-serif" font-size="14" lengthAdjust="spacing" textLength="220.7598" x="1200.1" y="1052.4989">ground_temperature (property)</text><line style="stroke:#181818;stroke-width:0.5;" x1="1181.1" x2="1432.8939" y1="1059.8006" y2="1059.8006"/></g><!--class OpaqueElementPhysics--><g class="entity" data-qualified-name="odeon.model.building_physics.OpaqueElementPhysics" data-source-line="89" id="ent0018"><rect fill="#F1F1F1" height="96.8906" rx="2.5" ry="2.5" style="stroke:#181818;stroke-width:0.5;" width="317.2451" x="1485.38" y="740.83"/><ellipse cx="1557.4547" cy="756.83" fill="#ADD1B2" rx="11" ry="11" style="stroke:#181818;stroke-width:1;"/><path d="M1560.4235,762.4706 Q1559.8453,762.7675 1559.2047,762.9081 Q1558.5641,763.0644 1557.861,763.0644 Q1555.361,763.0644 1554.0328,761.4237 Q1552.7203,759.7675 1552.7203,756.6425 Q1552.7203,753.5175 1554.0328,751.8612 Q1555.361,750.205 1557.861,750.205 Q1558.5641,750.205 1559.2047,750.3612 Q1559.861,750.5175 1560.4235,750.8144 L1560.4235,753.5331 Q1559.7985,752.955 1559.2047,752.6894 Q1558.611,752.4081 1557.986,752.4081 Q1556.6422,752.4081 1555.9547,753.4862 Q1555.2672,754.5487 1555.2672,756.6425 Q1555.2672,758.7362 1555.9547,759.8144 Q1556.6422,760.8769 1557.986,760.8769 Q1558.611,760.8769 1559.2047,760.6112 Q1559.7985,760.33 1560.4235,759.7519 L1560.4235,762.4706 Z " fill="#000000"/><text fill="#000000" font-family="sans-serif" font-size="14" lengthAdjust="spacing" textLength="164.5957" x="1577.9547" y="761.6767">OpaqueElementPhysics</text><line style="stroke:#181818;stroke-width:0.5;" x1="1486.38" x2="1801.6251" y1="772.83" y2="772.83"/><g data-visibility-modifier="PUBLIC_FIELD"><ellipse cx="1496.38" cy="786.4784" fill="none" rx="3" ry="3" style="stroke:#038048;stroke-width:1;"/></g><text fill="#000000" font-family="sans-serif" font-size="14" lengthAdjust="spacing" textLength="291.2451" x="1505.38" y="789.8251">specific_heat_capacity_j_per_sqm_k: float</text><g data-visibility-modifier="PUBLIC_FIELD"><ellipse cx="1496.38" cy="802.7753" fill="none" rx="3" ry="3" style="stroke:#038048;stroke-width:1;"/></g><text fill="#000000" font-family="sans-serif" font-size="14" lengthAdjust="spacing" textLength="249.6758" x="1505.38" y="806.122">mass_distribution: MassDistribution</text><g data-visibility-modifier="PUBLIC_FIELD"><ellipse cx="1496.38" cy="819.0722" fill="none" rx="3" ry="3" style="stroke:#038048;stroke-width:1;"/></g><text fill="#000000" font-family="sans-serif" font-size="14" lengthAdjust="spacing" textLength="181.9658" x="1505.38" y="822.4189">insulation_thickness: float</text><line style="stroke:#181818;stroke-width:0.5;" x1="1486.38" x2="1801.6251" y1="829.7206" y2="829.7206"/></g><!--class RoofPhysics--><g class="entity" data-qualified-name="odeon.model.building_physics.RoofPhysics" data-source-line="96" id="ent0021"><rect fill="#F1F1F1" height="96.8906" rx="2.5" ry="2.5" style="stroke:#181818;stroke-width:0.5;" width="317.2451" x="1469.38" y="966.91"/><ellipse cx="1581.9713" cy="982.91" fill="#ADD1B2" rx="11" ry="11" style="stroke:#181818;stroke-width:1;"/><path d="M1584.9401,988.5506 Q1584.3619,988.8475 1583.7213,988.9881 Q1583.0807,989.1444 1582.3776,989.1444 Q1579.8776,989.1444 1578.5494,987.5038 Q1577.2369,985.8475 1577.2369,982.7225 Q1577.2369,979.5975 1578.5494,977.9413 Q1579.8776,976.285 1582.3776,976.285 Q1583.0807,976.285 1583.7213,976.4413 Q1584.3776,976.5975 1584.9401,976.8944 L1584.9401,979.6131 Q1584.3151,979.035 1583.7213,978.7694 Q1583.1276,978.4881 1582.5026,978.4881 Q1581.1588,978.4881 1580.4713,979.5663 Q1579.7838,980.6288 1579.7838,982.7225 Q1579.7838,984.8163 1580.4713,985.8944 Q1581.1588,986.9569 1582.5026,986.9569 Q1583.1276,986.9569 1583.7213,986.6913 Q1584.3151,986.41 1584.9401,985.8319 L1584.9401,988.5506 Z " fill="#000000"/><text fill="#000000" font-family="sans-serif" font-size="14" lengthAdjust="spacing" textLength="83.5625" x="1602.4713" y="987.7567">RoofPhysics</text><line style="stroke:#181818;stroke-width:0.5;" x1="1470.38" x2="1785.6251" y1="998.91" y2="998.91"/><g data-visibility-modifier="PUBLIC_FIELD"><ellipse cx="1480.38" cy="1012.5584" fill="none" rx="3" ry="3" style="stroke:#038048;stroke-width:1;"/></g><text fill="#000000" font-family="sans-serif" font-size="14" lengthAdjust="spacing" textLength="291.2451" x="1489.38" y="1015.9051">specific_heat_capacity_j_per_sqm_k: float</text><g data-visibility-modifier="PUBLIC_FIELD"><ellipse cx="1480.38" cy="1028.8553" fill="none" rx="3" ry="3" style="stroke:#038048;stroke-width:1;"/></g><text fill="#000000" font-family="sans-serif" font-size="14" lengthAdjust="spacing" textLength="249.6758" x="1489.38" y="1032.202">mass_distribution: MassDistribution</text><g data-visibility-modifier="PUBLIC_FIELD"><ellipse cx="1480.38" cy="1045.1522" fill="none" rx="3" ry="3" style="stroke:#038048;stroke-width:1;"/></g><text fill="#000000" font-family="sans-serif" font-size="14" lengthAdjust="spacing" textLength="181.9658" x="1489.38" y="1048.4989">insulation_thickness: float</text><line style="stroke:#181818;stroke-width:0.5;" x1="1470.38" x2="1785.6251" y1="1055.8006" y2="1055.8006"/></g><!--class WallPhysics--><g class="entity" data-qualified-name="odeon.model.building_physics.WallPhysics" data-source-line="102" id="ent0023"><rect fill="#F1F1F1" height="96.8906" rx="2.5" ry="2.5" style="stroke:#181818;stroke-width:0.5;" width="317.2451" x="1821.38" y="966.91"/><ellipse cx="1934.7643" cy="982.91" fill="#ADD1B2" rx="11" ry="11" style="stroke:#181818;stroke-width:1;"/><path d="M1937.733,988.5506 Q1937.1549,988.8475 1936.5143,988.9881 Q1935.8737,989.1444 1935.1705,989.1444 Q1932.6705,989.1444 1931.3424,987.5038 Q1930.0299,985.8475 1930.0299,982.7225 Q1930.0299,979.5975 1931.3424,977.9413 Q1932.6705,976.285 1935.1705,976.285 Q1935.8737,976.285 1936.5143,976.4413 Q1937.1705,976.5975 1937.733,976.8944 L1937.733,979.6131 Q1937.108,979.035 1936.5143,978.7694 Q1935.9205,978.4881 1935.2955,978.4881 Q1933.9518,978.4881 1933.2643,979.5663 Q1932.5768,980.6288 1932.5768,982.7225 Q1932.5768,984.8163 1933.2643,985.8944 Q1933.9518,986.9569 1935.2955,986.9569 Q1935.9205,986.9569 1936.5143,986.6913 Q1937.108,986.41 1937.733,985.8319 L1937.733,988.5506 Z " fill="#000000"/><text fill="#000000" font-family="sans-serif" font-size="14" lengthAdjust="spacing" textLength="81.9766" x="1955.2643" y="987.7567">WallPhysics</text><line style="stroke:#181818;stroke-width:0.5;" x1="1822.38" x2="2137.6251" y1="998.91" y2="998.91"/><g data-visibility-modifier="PUBLIC_FIELD"><ellipse cx="1832.38" cy="1012.5584" fill="none" rx="3" ry="3" style="stroke:#038048;stroke-width:1;"/></g><text fill="#000000" font-family="sans-serif" font-size="14" lengthAdjust="spacing" textLength="291.2451" x="1841.38" y="1015.9051">specific_heat_capacity_j_per_sqm_k: float</text><g data-visibility-modifier="PUBLIC_FIELD"><ellipse cx="1832.38" cy="1028.8553" fill="none" rx="3" ry="3" style="stroke:#038048;stroke-width:1;"/></g><text fill="#000000" font-family="sans-serif" font-size="14" lengthAdjust="spacing" textLength="249.6758" x="1841.38" y="1032.202">mass_distribution: MassDistribution</text><g data-visibility-modifier="PUBLIC_FIELD"><ellipse cx="1832.38" cy="1045.1522" fill="none" rx="3" ry="3" style="stroke:#038048;stroke-width:1;"/></g><text fill="#000000" font-family="sans-serif" font-size="14" lengthAdjust="spacing" textLength="181.9658" x="1841.38" y="1048.4989">insulation_thickness: float</text><line style="stroke:#181818;stroke-width:0.5;" x1="1822.38" x2="2137.6251" y1="1055.8006" y2="1055.8006"/></g><!--class WindowPhysics--><g class="entity" data-qualified-name="odeon.model.building_physics.WindowPhysics" data-source-line="108" id="ent0025"><rect fill="#F1F1F1" height="96.8906" rx="2.5" ry="2.5" style="stroke:#181818;stroke-width:0.5;" width="301.0029" x="1837.5" y="740.83"/><ellipse cx="1930.1099" cy="756.83" fill="#ADD1B2" rx="11" ry="11" style="stroke:#181818;stroke-width:1;"/><path d="M1933.0786,762.4706 Q1932.5005,762.7675 1931.8599,762.9081 Q1931.2192,763.0644 1930.5161,763.0644 Q1928.0161,763.0644 1926.688,761.4237 Q1925.3755,759.7675 1925.3755,756.6425 Q1925.3755,753.5175 1926.688,751.8612 Q1928.0161,750.205 1930.5161,750.205 Q1931.2192,750.205 1931.8599,750.3612 Q1932.5161,750.5175 1933.0786,750.8144 L1933.0786,753.5331 Q1932.4536,752.955 1931.8599,752.6894 Q1931.2661,752.4081 1930.6411,752.4081 Q1929.2974,752.4081 1928.6099,753.4862 Q1927.9224,754.5487 1927.9224,756.6425 Q1927.9224,758.7362 1928.6099,759.8144 Q1929.2974,760.8769 1930.6411,760.8769 Q1931.2661,760.8769 1931.8599,760.6112 Q1932.4536,760.33 1933.0786,759.7519 L1933.0786,762.4706 Z " fill="#000000"/><text fill="#000000" font-family="sans-serif" font-size="14" lengthAdjust="spacing" textLength="107.2832" x="1950.6099" y="761.6767">WindowPhysics</text><line style="stroke:#181818;stroke-width:0.5;" x1="1838.5" x2="2137.5029" y1="772.83" y2="772.83"/><g data-visibility-modifier="PUBLIC_FIELD"><ellipse cx="1848.5" cy="786.4784" fill="none" rx="3" ry="3" style="stroke:#038048;stroke-width:1;"/></g><text fill="#000000" font-family="sans-serif" font-size="14" lengthAdjust="spacing" textLength="275.0029" x="1857.5" y="789.8251">total_solar_energy_transmittance: float</text><g data-visibility-modifier="PUBLIC_FIELD"><ellipse cx="1848.5" cy="802.7753" fill="none" rx="3" ry="3" style="stroke:#038048;stroke-width:1;"/></g><text fill="#000000" font-family="sans-serif" font-size="14" lengthAdjust="spacing" textLength="139.1592" x="1857.5" y="806.122">frame_portion: float</text><g data-visibility-modifier="PUBLIC_FIELD"><ellipse cx="1848.5" cy="819.0722" fill="none" rx="3" ry="3" style="stroke:#038048;stroke-width:1;"/></g><text fill="#000000" font-family="sans-serif" font-size="14" lengthAdjust="spacing" textLength="190.4014" x="1857.5" y="822.4189">window_type: WindowType</text><line style="stroke:#181818;stroke-width:0.5;" x1="1838.5" x2="2137.5029" y1="829.7206" y2="829.7206"/></g><!--class Object--><g class="entity" data-qualified-name="odeon.model.base.Object" data-source-line="47" id="ent0010"><rect fill="#F1F1F1" height="48" rx="2.5" ry="2.5" style="stroke:#181818;stroke-width:0.5;" width="77.5957" x="1422.2" y="127"/><ellipse cx="1437.2" cy="143" fill="#ADD1B2" rx="11" ry="11" style="stroke:#181818;stroke-width:1;"/><path d="M1440.1688,148.6406 Q1439.5906,148.9375 1438.95,149.0781 Q1438.3094,149.2344 1437.6063,149.2344 Q1435.1063,149.2344 1433.7781,147.5938 Q1432.4656,145.9375 1432.4656,142.8125 Q1432.4656,139.6875 1433.7781,138.0313 Q1435.1063,136.375 1437.6063,136.375 Q1438.3094,136.375 1438.95,136.5313 Q1439.6063,136.6875 1440.1688,136.9844 L1440.1688,139.7031 Q1439.5438,139.125 1438.95,138.8594 Q1438.3563,138.5781 1437.7313,138.5781 Q1436.3875,138.5781 1435.7,139.6563 Q1435.0125,140.7188 1435.0125,142.8125 Q1435.0125,144.9063 1435.7,145.9844 Q1436.3875,147.0469 1437.7313,147.0469 Q1438.3563,147.0469 1438.95,146.7813 Q1439.5438,146.5 1440.1688,145.9219 L1440.1688,148.6406 Z " fill="#000000"/><text fill="#000000" font-family="sans-serif" font-size="14" lengthAdjust="spacing" textLength="45.5957" x="1451.2" y="147.8467">Object</text><line style="stroke:#181818;stroke-width:0.5;" x1="1423.2" x2="1498.7957" y1="159" y2="159"/><line style="stroke:#181818;stroke-width:0.5;" x1="1423.2" x2="1498.7957" y1="167" y2="167"/></g><!--reverse link Object to BuildingThermalZone--><g class="link" data-entity-1="ent0010" data-entity-2="ent0009" data-link-type="extension" data-source-line="47" id="lnk12"><path codeLine="47" d="M1435.8552,190.4426 C1424.0852,208.4326 1416.47,220.1 1397.18,249.6" fill="none" id="Object-backto-BuildingThermalZone" style="stroke:#181818;stroke-width:1;"/><polygon fill="none" points="1445.71,175.38,1430.8343,187.1577,1440.8761,193.7276,1445.71,175.38" style="stroke:#181818;stroke-width:1;"/></g><!--reverse link ElementPhysics to DoorPhysics--><g class="link" data-entity-1="ent0014" data-entity-2="ent0013" data-link-type="extension" data-source-line="61" id="lnk15"><path codeLine="61" d="M1507.5427,596.6434 C1497.6927,607.7434 1499.73,605.2 1490,615.64 C1471.56,635.42 1451.48,655.92 1431.68,675.59" fill="none" id="ElementPhysics-backto-DoorPhysics" style="stroke:#181818;stroke-width:1;"/><polygon fill="none" points="1519.49,583.18,1503.0549,592.661,1512.0305,600.6258,1519.49,583.18" style="stroke:#181818;stroke-width:1;"/></g><!--reverse link Object to ElementPhysics--><g class="link" data-entity-1="ent0010" data-entity-2="ent0014" data-link-type="extension" data-source-line="81" id="lnk16"><path codeLine="81" d="M1486.1408,190.4452 C1502.1608,214.9452 1518.91,240.55 1546.26,282.37" fill="none" id="Object-backto-ElementPhysics" style="stroke:#181818;stroke-width:1;"/><polygon fill="none" points="1476.29,175.38,1481.1191,193.7288,1491.1626,187.1616,1476.29,175.38" style="stroke:#181818;stroke-width:1;"/></g><!--reverse link OpaqueElementPhysics to FloorPhysics--><g class="link" data-entity-1="ent0018" data-entity-2="ent0017" data-link-type="extension" data-source-line="89" id="lnk19"><path codeLine="89" d="M1557.1309,848.0364 C1502.1309,884.6064 1441.39,925 1384.94,962.53" fill="none" id="OpaqueElementPhysics-backto-FloorPhysics" style="stroke:#181818;stroke-width:1;"/><polygon fill="none" points="1572.12,838.07,1553.8088,843.04,1560.4531,853.0327,1572.12,838.07" style="stroke:#181818;stroke-width:1;"/></g><!--reverse link ElementPhysics to OpaqueElementPhysics--><g class="link" data-entity-1="ent0014" data-entity-2="ent0018" data-link-type="extension" data-source-line="95" id="lnk20"><path codeLine="95" d="M1644,601.37 C1644,657.72 1644,699.89 1644,740.34" fill="none" id="ElementPhysics-backto-OpaqueElementPhysics" style="stroke:#181818;stroke-width:1;"/><polygon fill="none" points="1644,583.37,1638,601.37,1650,601.37,1644,583.37" style="stroke:#181818;stroke-width:1;"/></g><!--reverse link OpaqueElementPhysics to RoofPhysics--><g class="link" data-entity-1="ent0018" data-entity-2="ent0021" data-link-type="extension" data-source-line="101" id="lnk22"><path codeLine="101" d="M1639.3069,856.0242 C1636.5969,893.9442 1634.11,928.73 1631.41,966.63" fill="none" id="OpaqueElementPhysics-backto-RoofPhysics" style="stroke:#181818;stroke-width:1;"/><polygon fill="none" points="1640.59,838.07,1633.3221,855.5965,1645.2916,856.4519,1640.59,838.07" style="stroke:#181818;stroke-width:1;"/></g><!--reverse link OpaqueElementPhysics to WallPhysics--><g class="link" data-entity-1="ent0018" data-entity-2="ent0023" data-link-type="extension" data-source-line="107" id="lnk24"><path codeLine="107" d="M1730.6445,848.0583 C1787.4045,885.9183 1851.35,928.56 1908.15,966.44" fill="none" id="OpaqueElementPhysics-backto-WallPhysics" style="stroke:#181818;stroke-width:1;"/><polygon fill="none" points="1715.67,838.07,1727.3151,853.0497,1733.9739,843.0668,1715.67,838.07" style="stroke:#181818;stroke-width:1;"/></g><!--reverse link ElementPhysics to WindowPhysics--><g class="link" data-entity-1="ent0014" data-entity-2="ent0025" data-link-type="extension" data-source-line="113" id="lnk26"><path codeLine="113" d="M1794.2269,588.6161 C1851.0869,647.1961 1900.62,698.24 1941.67,740.54" fill="none" id="ElementPhysics-backto-WindowPhysics" style="stroke:#181818;stroke-width:1;"/><polygon fill="none" points="1781.69,575.7,1789.9215,592.7951,1798.5323,584.4372,1781.69,575.7" style="stroke:#181818;stroke-width:1;"/></g><?plantuml-src xLTHR-8u47xdLqJgmzu9BJy0tKjsILiaIZW8jzA-M2QPW5l7pjeEFQxN_xxZaDB414XNVLYjzWd77dypyttZiVdWoGIa66JummUhWl64YJN9DplDOjthWIYoioO3FxcdCGWJY2rJKcGuz9vwJoa3dZm_QKCDYvzlvk5oEXfwQoKBaRYh_dW-z2XJxlnoUXluKO3x2h41QY3fFNU8w8vgFMBQABOg39FYE9mxVx4WdyFfvs0QpQq7CfukngDWw6MubyHIs8oKzKYOq2o1omZXCZe58GlJ3MCVXGEbSyvU0-aEXX-ByIB2xmeeUU44mJ0-ZPyOOWUWSZHfosm_ufraYHGLEgSAHBmxbWGzJ1SpVrw6QmwcH-65C__l9L8ZS_gjW4wElp2HoCTebqERs_5i4f3eDfZV-HChm7BYH-DmIcuc_jVnz8PSXtCoGqx6_mJaDbmk0XiUopaGim6LKMw5AJYrbKRMdFvdNQTIaHpPObiW6rbeUBFV3bvSp56u_7G1Cv75wZpcSo_c6FXvHZzL4z4UvwiKbjehOWzfgLqi8ILRb8zLy8ya1qNqjumy3Bq8ibpQihaYLXhaok0CO4aL2eW6aqicp0Mxnh8iPotRfomG49J0dBNaL94rnTnh1lrzVo5OStJefLnIq-k3s097QA8BbMAJQwvMExQI5naSPWz-x3A9QKvZPdRalip_eR7vbQaNFLQA9MlGJRPgExZ40rYZzNZHGJeHLfLzjOQTby2_yOQADH1xhWaMxClgOE06Uq9MxuzSMHdCxa_hpfNhml91TSVkMBI6GQlkTGj2iA8RjKmr3CBLFSJ6--l_Zn_VNEXTpiS8ivljn-MveDcA8MidYpDX2kEficHAqOHHxBAEJPgYBkUC-XcAfnZbGmyxVQzVa2tb1RIM4neKyJwGXCKuOM-4SixgQh1PLY2crhRHL-qBGJQqp1iFXv7gWBrbyEZCNH4ZpK78UlGZQkYreXcuGhca1Xpiu-A5rylYrLJe8fg3_rkthhhP5j72LEEWdcB1CMgbis7J7iux7lbc6NGfd6lk7FVzA_T4rVIR5uEMZDTxxV7UyxcvmOJbk-ZDPwMUGvUSMzqyOMNb4BEKnQtNNxEIcs_IyZPpN-xs1ZYyKCo6nGy2zE7YUkz-qPPJ5oxcKgO_9mK_M0orXBha_uLo_albNqkeK_xb_uiQ0_KU1GBKUaVARfmnO_RDiye_jVsJO5zeFEOUIxogbx_-UNdtUc_4_Hq0?></g></svg>