<?plantuml 1.2026.2beta3?><svg xmlns="http://www.w3.org/2000/svg" xmlns:xlink="http://www.w3.org/1999/xlink" contentStyleType="text/css" data-diagram-type="CLASS" height="1784px" preserveAspectRatio="none" style="width:1431px;height:1784px;background:#FFFFFF;" version="1.1" viewBox="0 0 1431 1784" width="1431px" zoomAndPan="magnify"><defs/><g><!--cluster odeon--><g class="cluster" data-qualified-name="odeon" data-source-line="3" id="ent0003"><path d="M8.5,6 L58.2197,6 A3.75,3.75 0 0 1 60.7197,8.5 L67.7197,28.2969 L1421.5,28.2969 A2.5,2.5 0 0 1 1424,30.7969 L1424,1775.09 A2.5,2.5 0 0 1 1421.5,1777.59 L8.5,1777.59 A2.5,2.5 0 0 1 6,1775.09 L6,8.5 A2.5,2.5 0 0 1 8.5,6" fill="none" style="stroke:#000000;stroke-width:1.5;"/><line style="stroke:#000000;stroke-width:1.5;" x1="6" x2="67.7197" y1="28.2969" y2="28.2969"/><text fill="#000000" font-family="sans-serif" font-size="14" font-weight="bold" lengthAdjust="spacing" textLength="48.7197" x="10" y="20.9951">odeon</text></g><!--cluster model--><g class="cluster" data-qualified-name="odeon.model" data-source-line="3" id="ent0004"><path d="M32.5,49 L82.0215,49 A3.75,3.75 0 0 1 84.5215,51.5 L91.5215,71.2969 L1397.5,71.2969 A2.5,2.5 0 0 1 1400,73.7969 L1400,1751.09 A2.5,2.5 0 0 1 1397.5,1753.59 L32.5,1753.59 A2.5,2.5 0 0 1 30,1751.09 L30,51.5 A2.5,2.5 0 0 1 32.5,49" fill="none" style="stroke:#000000;stroke-width:1.5;"/><line style="stroke:#000000;stroke-width:1.5;" x1="30" x2="91.5215" y1="71.2969" y2="71.2969"/><text fill="#000000" font-family="sans-serif" font-size="14" font-weight="bold" lengthAdjust="spacing" textLength="48.5215" x="34" y="63.9951">model</text></g><!--cluster building_unit--><g class="cluster" data-qualified-name="odeon.model.building_unit" data-source-line="3" id="ent0005"><path d="M56.5,215 L160.3193,215 A3.75,3.75 0 0 1 162.8193,217.5 L169.8193,237.2969 L1001.5,237.2969 A2.5,2.5 0 0 1 1004,239.7969 L1004,1727.09 A2.5,2.5 0 0 1 1001.5,1729.59 L56.5,1729.59 A2.5,2.5 0 0 1 54,1727.09 L54,217.5 A2.5,2.5 0 0 1 56.5,215" fill="none" style="stroke:#000000;stroke-width:1.5;"/><line style="stroke:#000000;stroke-width:1.5;" x1="54" x2="169.8193" y1="237.2969" y2="237.2969"/><text fill="#000000" font-family="sans-serif" font-size="14" font-weight="bold" lengthAdjust="spacing" textLength="102.8193" x="58" y="229.9951">building_unit</text></g><!--cluster energy_system--><g class="cluster" data-qualified-name="odeon.model.energy_system" data-source-line="76" id="ent0010"><path d="M737.5,92 L857.0762,92 A3.75,3.75 0 0 1 859.5762,94.5 L866.5762,114.2969 L930.5,114.2969 A2.5,2.5 0 0 1 933,116.7969 L933,188.5 A2.5,2.5 0 0 1 930.5,191 L737.5,191 A2.5,2.5 0 0 1 735,188.5 L735,94.5 A2.5,2.5 0 0 1 737.5,92" fill="none" style="stroke:#000000;stroke-width:1.5;"/><line style="stroke:#000000;stroke-width:1.5;" x1="735" x2="866.5762" y1="114.2969" y2="114.2969"/><text fill="#000000" font-family="sans-serif" font-size="14" font-weight="bold" lengthAdjust="spacing" textLength="118.5762" x="739" y="106.9951">energy_system</text></g><!--cluster building_physics--><g class="cluster" data-qualified-name="odeon.model.building_physics" data-source-line="77" id="ent0013"><path d="M1030.5,530.56 L1161.7725,530.56 A3.75,3.75 0 0 1 1164.2725,533.06 L1171.2725,552.8569 L1239.5,552.8569 A2.5,2.5 0 0 1 1242,555.3569 L1242,627.06 A2.5,2.5 0 0 1 1239.5,629.56 L1030.5,629.56 A2.5,2.5 0 0 1 1028,627.06 L1028,533.06 A2.5,2.5 0 0 1 1030.5,530.56" fill="none" style="stroke:#000000;stroke-width:1.5;"/><line style="stroke:#000000;stroke-width:1.5;" x1="1028" x2="1171.2725" y1="552.8569" y2="552.8569"/><text fill="#000000" font-family="sans-serif" font-size="14" font-weight="bold" lengthAdjust="spacing" textLength="130.2725" x="1032" y="545.5551">building_physics</text></g><!--cluster base--><g class="cluster" data-qualified-name="odeon.model.base" data-source-line="105" id="ent0025"><path d="M1268.5,530.56 L1306.7969,530.56 A3.75,3.75 0 0 1 1309.2969,533.06 L1316.2969,552.8569 L1373.5,552.8569 A2.5,2.5 0 0 1 1376,555.3569 L1376,627.06 A2.5,2.5 0 0 1 1373.5,629.56 L1268.5,629.56 A2.5,2.5 0 0 1 1266,627.06 L1266,533.06 A2.5,2.5 0 0 1 1268.5,530.56" fill="none" style="stroke:#000000;stroke-width:1.5;"/><line style="stroke:#000000;stroke-width:1.5;" x1="1266" x2="1316.2969" y1="552.8569" y2="552.8569"/><text fill="#000000" font-family="sans-serif" font-size="14" font-weight="bold" lengthAdjust="spacing" textLength="37.2969" x="1270" y="545.5551">base</text></g><!--class CommercialType--><g class="entity" data-qualified-name="odeon.model.building_unit.CommercialType" data-source-line="3" id="ent0002"><rect fill="#F1F1F1" height="797.6563" rx="2.5" ry="2.5" style="stroke:#181818;stroke-width:0.5;" width="417.7949" x="70.1" y="726.45"/><ellipse cx="215.5585" cy="742.45" fill="#EB937F" rx="11" ry="11" style="stroke:#181818;stroke-width:1;"/><path d="M219.6679,748.45 L211.9491,748.45 L211.9491,736.0594 L219.6679,736.0594 L219.6679,738.2156 L214.4022,738.2156 L214.4022,740.8875 L219.1679,740.8875 L219.1679,743.0437 L214.4022,743.0437 L214.4022,746.2937 L219.6679,746.2937 L219.6679,748.45 Z " fill="#000000"/><text fill="#000000" font-family="sans-serif" font-size="14" lengthAdjust="spacing" textLength="118.3779" x="236.0585" y="747.2967">CommercialType</text><line style="stroke:#181818;stroke-width:0.5;" x1="71.1" x2="486.8949" y1="758.45" y2="758.45"/><text fill="#000000" font-family="sans-serif" font-size="14" lengthAdjust="spacing" text-decoration="underline" textLength="208.8584" x="76.1" y="775.4451">CONSTRUCTION: construction</text><text fill="#000000" font-family="sans-serif" font-size="14" lengthAdjust="spacing" text-decoration="underline" textLength="97.665" x="76.1" y="791.742">OFFICE: office</text><text fill="#000000" font-family="sans-serif" font-size="14" lengthAdjust="spacing" text-decoration="underline" textLength="82.4482" x="76.1" y="808.0389">BANK: bank</text><text fill="#000000" font-family="sans-serif" font-size="14" lengthAdjust="spacing" text-decoration="underline" textLength="152.3389" x="76.1" y="824.3357">PUBLISHER: publisher</text><text fill="#000000" font-family="sans-serif" font-size="14" lengthAdjust="spacing" text-decoration="underline" textLength="228.252" x="76.1" y="840.6326">OTHERSERVICES: other_services</text><text fill="#000000" font-family="sans-serif" font-size="14" lengthAdjust="spacing" text-decoration="underline" textLength="264.2637" x="76.1" y="856.9295">LOCALAUTHORITIES: local_authorities</text><text fill="#000000" font-family="sans-serif" font-size="14" lengthAdjust="spacing" text-decoration="underline" textLength="106.1484" x="76.1" y="873.2264">POSTAL: postal</text><text fill="#000000" font-family="sans-serif" font-size="14" lengthAdjust="spacing" text-decoration="underline" textLength="301.4102" x="76.1" y="889.5232">TELECOMMUNICATION: telecommunication</text><text fill="#000000" font-family="sans-serif" font-size="14" lengthAdjust="spacing" text-decoration="underline" textLength="122.8008" x="76.1" y="905.8201">RAILWAY: railway</text><text fill="#000000" font-family="sans-serif" font-size="14" lengthAdjust="spacing" text-decoration="underline" textLength="231.9229" x="76.1" y="922.117">INDUSTRYMETAL: metal_industry</text><text fill="#000000" font-family="sans-serif" font-size="14" lengthAdjust="spacing" text-decoration="underline" textLength="239.2715" x="76.1" y="938.4139">INDUSTRYMOTOR: motor_industry</text><text fill="#000000" font-family="sans-serif" font-size="14" lengthAdjust="spacing" text-decoration="underline" textLength="228.9902" x="76.1" y="954.7107">INDUSTRYWOOD: wood_industry</text><text fill="#000000" font-family="sans-serif" font-size="14" lengthAdjust="spacing" text-decoration="underline" textLength="325.5" x="76.1" y="971.0076">INDUSTRYPAPER: paper_and_printing_industry</text><text fill="#000000" font-family="sans-serif" font-size="14" lengthAdjust="spacing" text-decoration="underline" textLength="264.6396" x="76.1" y="987.3045">TRADERETAILFOOD: retail_trade_food</text><text fill="#000000" font-family="sans-serif" font-size="14" lengthAdjust="spacing" text-decoration="underline" textLength="322.916" x="76.1" y="1003.6014">TRADERETAILNONFOOD: retail_trade_nonfood</text><text fill="#000000" font-family="sans-serif" font-size="14" lengthAdjust="spacing" text-decoration="underline" textLength="292.3799" x="76.1" y="1019.8982">TRADEWHOLESALEFOOD: wholesale_food</text><text fill="#000000" font-family="sans-serif" font-size="14" lengthAdjust="spacing" text-decoration="underline" textLength="350.6563" x="76.1" y="1036.1951">TRADEWHOLESALENONFOOD: wholesale_nonfood</text><text fill="#000000" font-family="sans-serif" font-size="14" lengthAdjust="spacing" text-decoration="underline" textLength="223.2891" x="76.1" y="1052.492">TRADEAGENCIES: trade_agency</text><text fill="#000000" font-family="sans-serif" font-size="14" lengthAdjust="spacing" text-decoration="underline" textLength="133.5674" x="76.1" y="1068.7889">HOSPITAL: hospital</text><text fill="#000000" font-family="sans-serif" font-size="14" lengthAdjust="spacing" text-decoration="underline" textLength="113.0801" x="76.1" y="1085.0857">SCHOOL: school</text><text fill="#000000" font-family="sans-serif" font-size="14" lengthAdjust="spacing" text-decoration="underline" textLength="128.3789" x="76.1" y="1101.3826">BATH: public_bath</text><text fill="#000000" font-family="sans-serif" font-size="14" lengthAdjust="spacing" text-decoration="underline" textLength="262.6367" x="76.1" y="1117.6795">LODGINGINDUSTRY: lodging_industry</text><text fill="#000000" font-family="sans-serif" font-size="14" lengthAdjust="spacing" text-decoration="underline" textLength="225.7432" x="76.1" y="1133.9764">CATERINGINDUSTRY: restaurant</text><text fill="#000000" font-family="sans-serif" font-size="14" lengthAdjust="spacing" text-decoration="underline" textLength="324.3926" x="76.1" y="1150.2732">SHELTER: non-profit_organization_and_shelter</text><text fill="#000000" font-family="sans-serif" font-size="14" lengthAdjust="spacing" text-decoration="underline" textLength="112.8818" x="76.1" y="1166.5701">BAKERY: bakery</text><text fill="#000000" font-family="sans-serif" font-size="14" lengthAdjust="spacing" text-decoration="underline" textLength="171.2539" x="76.1" y="1182.867">BUTCHER: butcher_shop</text><text fill="#000000" font-family="sans-serif" font-size="14" lengthAdjust="spacing" text-decoration="underline" textLength="271.3252" x="76.1" y="1199.1639">INDUSTRYFOOD: rest_of_food_industry</text><text fill="#000000" font-family="sans-serif" font-size="14" lengthAdjust="spacing" text-decoration="underline" textLength="281.4834" x="76.1" y="1215.4607">LAUNDRY: laundries_and_(dry)_cleaners</text><text fill="#000000" font-family="sans-serif" font-size="14" lengthAdjust="spacing" text-decoration="underline" textLength="184.9463" x="76.1" y="1231.7576">AGRICULTURE: agriculture</text><text fill="#000000" font-family="sans-serif" font-size="14" lengthAdjust="spacing" text-decoration="underline" textLength="311.6641" x="76.1" y="1248.0545">HORTICULTURE: horticulture_and_gardening</text><text fill="#000000" font-family="sans-serif" font-size="14" lengthAdjust="spacing" text-decoration="underline" textLength="117.2637" x="76.1" y="1264.3514">AIRPORT: airport</text><text fill="#000000" font-family="sans-serif" font-size="14" lengthAdjust="spacing" text-decoration="underline" textLength="229.7285" x="76.1" y="1280.6482">TEXTILE: clothing_leather_textile</text><text fill="#000000" font-family="sans-serif" font-size="14" lengthAdjust="spacing" text-decoration="underline" textLength="301.793" x="76.1" y="1296.9451">SHIPPING: shipping_storage_transportation</text><text fill="#000000" font-family="sans-serif" font-size="14" lengthAdjust="spacing" text-decoration="underline" textLength="238.2051" x="76.1" y="1313.242">MARKETSTALLS: market_stall_etc.</text><text fill="#000000" font-family="sans-serif" font-size="14" lengthAdjust="spacing" text-decoration="underline" textLength="405.7949" x="76.1" y="1329.5389">METALPLASTICRUBBER: non-ferrous_metal_plastic_rubber</text><text fill="#000000" font-family="sans-serif" font-size="14" lengthAdjust="spacing" text-decoration="underline" textLength="167.3301" x="76.1" y="1345.8357">COLDSTORE: cold_store</text><text fill="#000000" font-family="sans-serif" font-size="14" lengthAdjust="spacing" text-decoration="underline" textLength="371.6221" x="76.1" y="1362.1326">WATERSEWAGE: water_supply_and_sewage_disposal</text><text fill="#000000" font-family="sans-serif" font-size="14" lengthAdjust="spacing" text-decoration="underline" textLength="187.4482" x="76.1" y="1378.4295">DATACENTER: data_center</text><text fill="#000000" font-family="sans-serif" font-size="14" lengthAdjust="spacing" text-decoration="underline" textLength="320.332" x="76.1" y="1394.7264">NONGHD: not_considered_of_the_GHD_sector</text><text fill="#000000" font-family="sans-serif" font-size="14" lengthAdjust="spacing" text-decoration="underline" textLength="137.8604" x="76.1" y="1411.0232">INDUSTRY: industry</text><text fill="#000000" font-family="sans-serif" font-size="14" lengthAdjust="spacing" text-decoration="underline" textLength="230.8154" x="76.1" y="1427.3201">STREETLIGHTING: street_lighting</text><text fill="#000000" font-family="sans-serif" font-size="14" lengthAdjust="spacing" text-decoration="underline" textLength="280.7383" x="76.1" y="1443.617">MFHFACILITIES: community_facility_mfh</text><text fill="#000000" font-family="sans-serif" font-size="14" lengthAdjust="spacing" text-decoration="underline" textLength="127.1279" x="76.1" y="1459.9139">MILITARY: military</text><text fill="#000000" font-family="sans-serif" font-size="14" lengthAdjust="spacing" text-decoration="underline" textLength="95.1357" x="76.1" y="1476.2107">OTHER: other</text><text fill="#000000" font-family="sans-serif" font-size="14" lengthAdjust="spacing" text-decoration="underline" textLength="159.749" x="76.1" y="1492.5076">INSURANCE: insurance</text><text fill="#000000" font-family="sans-serif" font-size="14" lengthAdjust="spacing" text-decoration="underline" textLength="156.0439" x="76.1" y="1508.8045">GROCERIES: groceries</text><line style="stroke:#181818;stroke-width:0.5;" x1="71.1" x2="486.8949" y1="1516.1062" y2="1516.1062"/></g><!--class ResidentAgeGroup--><g class="entity" data-qualified-name="odeon.model.building_unit.ResidentAgeGroup" data-source-line="51" id="ent0006"><rect fill="#F1F1F1" height="96.8906" rx="2.5" ry="2.5" style="stroke:#181818;stroke-width:0.5;" width="373.2588" x="325.37" y="1600.4"/><ellipse cx="442.0526" cy="1616.4" fill="#EB937F" rx="11" ry="11" style="stroke:#181818;stroke-width:1;"/><path d="M446.162,1622.4 L438.4432,1622.4 L438.4432,1610.0094 L446.162,1610.0094 L446.162,1612.1656 L440.8964,1612.1656 L440.8964,1614.8375 L445.662,1614.8375 L445.662,1616.9937 L440.8964,1616.9937 L440.8964,1620.2437 L446.162,1620.2437 L446.162,1622.4 Z " fill="#000000"/><text fill="#000000" font-family="sans-serif" font-size="14" lengthAdjust="spacing" textLength="131.3936" x="462.5526" y="1621.2467">ResidentAgeGroup</text><line style="stroke:#181818;stroke-width:0.5;" x1="326.37" x2="697.6288" y1="1632.4" y2="1632.4"/><text fill="#000000" font-family="sans-serif" font-size="14" lengthAdjust="spacing" text-decoration="underline" textLength="172.6348" x="331.37" y="1649.3951">BELOW_18: 18_or_below</text><text fill="#000000" font-family="sans-serif" font-size="14" lengthAdjust="spacing" text-decoration="underline" textLength="361.2588" x="331.37" y="1665.692">BETWEEN_18_AND_65: above_18_and_65_or_below</text><text fill="#000000" font-family="sans-serif" font-size="14" lengthAdjust="spacing" text-decoration="underline" textLength="150.3496" x="331.37" y="1681.9889">ABOVE_65: above_65</text><line style="stroke:#181818;stroke-width:0.5;" x1="326.37" x2="697.6288" y1="1689.2906" y2="1689.2906"/></g><!--class SourceOfIncome--><g class="entity" data-qualified-name="odeon.model.building_unit.SourceOfIncome" data-source-line="56" id="ent0007"><rect fill="#F1F1F1" height="129.4844" rx="2.5" ry="2.5" style="stroke:#181818;stroke-width:0.5;" width="247.6348" x="733.18" y="1584.11"/><ellipse cx="794.8196" cy="1600.11" fill="#EB937F" rx="11" ry="11" style="stroke:#181818;stroke-width:1;"/><path d="M798.929,1606.11 L791.2103,1606.11 L791.2103,1593.7194 L798.929,1593.7194 L798.929,1595.8756 L793.6634,1595.8756 L793.6634,1598.5475 L798.429,1598.5475 L798.429,1600.7038 L793.6634,1600.7038 L793.6634,1603.9538 L798.929,1603.9538 L798.929,1606.11 Z " fill="#000000"/><text fill="#000000" font-family="sans-serif" font-size="14" lengthAdjust="spacing" textLength="115.8555" x="815.3196" y="1604.9567">SourceOfIncome</text><line style="stroke:#181818;stroke-width:0.5;" x1="734.18" x2="979.8148" y1="1616.11" y2="1616.11"/><text fill="#000000" font-family="sans-serif" font-size="14" lengthAdjust="spacing" text-decoration="underline" textLength="145.291" x="739.18" y="1633.1051">OCCUPIED: occupied</text><text fill="#000000" font-family="sans-serif" font-size="14" lengthAdjust="spacing" text-decoration="underline" textLength="234.3564" x="739.18" y="1649.402">PUBLIC_SUPPORT: public_support</text><text fill="#000000" font-family="sans-serif" font-size="14" lengthAdjust="spacing" text-decoration="underline" textLength="116.7783" x="739.18" y="1665.6989">RETIRED: retired</text><text fill="#000000" font-family="sans-serif" font-size="14" lengthAdjust="spacing" text-decoration="underline" textLength="235.6348" x="739.18" y="1681.9957">FAMILY_SUPPORT: family_support</text><text fill="#000000" font-family="sans-serif" font-size="14" lengthAdjust="spacing" text-decoration="underline" textLength="193.4297" x="739.18" y="1698.2926">OWN_WEALTH: own_wealth</text><line style="stroke:#181818;stroke-width:0.5;" x1="734.18" x2="979.8148" y1="1705.5944" y2="1705.5944"/></g><!--class BuildingUnit--><g class="entity" data-qualified-name="odeon.model.building_unit.BuildingUnit" data-source-line="63" id="ent0008"><rect fill="#F1F1F1" height="202.6719" rx="2.5" ry="2.5" style="stroke:#181818;stroke-width:0.5;" width="307.7979" x="680.1" y="250"/><ellipse cx="787.1029" cy="266" fill="#ADD1B2" rx="11" ry="11" style="stroke:#181818;stroke-width:1;"/><path d="M790.0717,271.6406 Q789.4936,271.9375 788.8529,272.0781 Q788.2123,272.2344 787.5092,272.2344 Q785.0092,272.2344 783.6811,270.5938 Q782.3686,268.9375 782.3686,265.8125 Q782.3686,262.6875 783.6811,261.0313 Q785.0092,259.375 787.5092,259.375 Q788.2123,259.375 788.8529,259.5313 Q789.5092,259.6875 790.0717,259.9844 L790.0717,262.7031 Q789.4467,262.125 788.8529,261.8594 Q788.2592,261.5781 787.6342,261.5781 Q786.2904,261.5781 785.6029,262.6563 Q784.9154,263.7188 784.9154,265.8125 Q784.9154,267.9063 785.6029,268.9844 Q786.2904,270.0469 787.6342,270.0469 Q788.2592,270.0469 788.8529,269.7813 Q789.4467,269.5 790.0717,268.9219 L790.0717,271.6406 Z " fill="#000000"/><text fill="#000000" font-family="sans-serif" font-size="14" lengthAdjust="spacing" textLength="85.292" x="807.6029" y="270.8467">BuildingUnit</text><line style="stroke:#181818;stroke-width:0.5;" x1="681.1" x2="986.8979" y1="282" y2="282"/><g data-visibility-modifier="PROTECTED_FIELD"><polygon fill="none" points="691.1,290.6484,695.1,294.6484,691.1,298.6484,687.1,294.6484" style="stroke:#B38D22;stroke-width:1;"/></g><text fill="#000000" font-family="sans-serif" font-size="14" lengthAdjust="spacing" textLength="281.7979" x="700.1" y="298.9951">_building_physics: BuildingThermalZone</text><g data-visibility-modifier="PUBLIC_FIELD"><ellipse cx="691.1" cy="311.9453" fill="none" rx="3" ry="3" style="stroke:#038048;stroke-width:1;"/></g><text fill="#000000" font-family="sans-serif" font-size="14" lengthAdjust="spacing" textLength="112.5195" x="700.1" y="315.292">base_area: float</text><g data-visibility-modifier="PROTECTED_FIELD"><polygon fill="none" points="691.1,323.2422,695.1,327.2422,691.1,331.2422,687.1,327.2422" style="stroke:#B38D22;stroke-width:1;"/></g><text fill="#000000" font-family="sans-serif" font-size="14" lengthAdjust="spacing" textLength="147.8271" x="700.1" y="331.5889">_net_floor_area: float</text><g data-visibility-modifier="PUBLIC_FIELD"><ellipse cx="691.1" cy="344.5391" fill="none" rx="3" ry="3" style="stroke:#038048;stroke-width:1;"/></g><text fill="#000000" font-family="sans-serif" font-size="14" lengthAdjust="spacing" textLength="87.9922" x="700.1" y="347.8857">holidays: list</text><g data-visibility-modifier="PUBLIC_FIELD"><ellipse cx="691.1" cy="360.8359" fill="none" rx="3" ry="3" style="stroke:#038048;stroke-width:1;"/></g><text fill="#000000" font-family="sans-serif" font-size="14" lengthAdjust="spacing" textLength="96.9814" x="700.1" y="364.1826">vacations: list</text><line style="stroke:#181818;stroke-width:1;stroke-dasharray:1,2;" x1="681.1" x2="986.8979" y1="371.4844" y2="371.4844"/><g data-visibility-modifier="PUBLIC_METHOD"><ellipse cx="691.1" cy="385.1328" fill="#84BE84" rx="3" ry="3" style="stroke:#038048;stroke-width:1;"/></g><text fill="#000000" font-family="sans-serif" font-size="14" lengthAdjust="spacing" textLength="190.9072" x="700.1" y="388.4795">building_physics (property)</text><g data-visibility-modifier="PUBLIC_METHOD"><ellipse cx="691.1" cy="401.4297" fill="#84BE84" rx="3" ry="3" style="stroke:#038048;stroke-width:1;"/></g><text fill="#000000" font-family="sans-serif" font-size="14" lengthAdjust="spacing" textLength="196.9775" x="700.1" y="404.7764">delivery_contract (property)</text><g data-visibility-modifier="PUBLIC_METHOD"><ellipse cx="691.1" cy="417.7266" fill="#84BE84" rx="3" ry="3" style="stroke:#038048;stroke-width:1;"/></g><text fill="#000000" font-family="sans-serif" font-size="14" lengthAdjust="spacing" textLength="191.5635" x="700.1" y="421.0732">feed_in_contract (property)</text><g data-visibility-modifier="PUBLIC_METHOD"><ellipse cx="691.1" cy="434.0234" fill="#84BE84" rx="3" ry="3" style="stroke:#038048;stroke-width:1;"/></g><text fill="#000000" font-family="sans-serif" font-size="14" lengthAdjust="spacing" textLength="175.8203" x="700.1" y="437.3701">net_floor_area (property)</text><line style="stroke:#181818;stroke-width:0.5;" x1="681.1" x2="986.8979" y1="444.6719" y2="444.6719"/></g><!--class Commercial--><g class="entity" data-qualified-name="odeon.model.building_unit.Commercial" data-source-line="78" id="ent0015"><rect fill="#F1F1F1" height="121.1875" rx="2.5" ry="2.5" style="stroke:#181818;stroke-width:0.5;" width="287.8779" x="410.06" y="528.96"/><ellipse cx="507.7285" cy="544.96" fill="#ADD1B2" rx="11" ry="11" style="stroke:#181818;stroke-width:1;"/><path d="M510.6972,550.6006 Q510.1191,550.8975 509.4785,551.0381 Q508.8378,551.1944 508.1347,551.1944 Q505.6347,551.1944 504.3066,549.5537 Q502.9941,547.8975 502.9941,544.7725 Q502.9941,541.6475 504.3066,539.9912 Q505.6347,538.335 508.1347,538.335 Q508.8378,538.335 509.4785,538.4912 Q510.1347,538.6475 510.6972,538.9444 L510.6972,541.6631 Q510.0722,541.085 509.4785,540.8194 Q508.8847,540.5381 508.2597,540.5381 Q506.916,540.5381 506.2285,541.6162 Q505.541,542.6787 505.541,544.7725 Q505.541,546.8662 506.2285,547.9444 Q506.916,549.0069 508.2597,549.0069 Q508.8847,549.0069 509.4785,548.7412 Q510.0722,548.46 510.6972,547.8819 L510.6972,550.6006 Z " fill="#000000"/><text fill="#000000" font-family="sans-serif" font-size="14" lengthAdjust="spacing" textLength="84.041" x="528.2285" y="549.8067">Commercial</text><line style="stroke:#181818;stroke-width:0.5;" x1="411.06" x2="696.9379" y1="560.96" y2="560.96"/><g data-visibility-modifier="PROTECTED_FIELD"><polygon fill="none" points="421.06,569.6084,425.06,573.6084,421.06,577.6084,417.06,573.6084" style="stroke:#B38D22;stroke-width:1;"/></g><text fill="#000000" font-family="sans-serif" font-size="14" lengthAdjust="spacing" textLength="261.8779" x="430.06" y="577.9551">_scaling_reference: ScalingReference</text><g data-visibility-modifier="PROTECTED_FIELD"><polygon fill="none" points="421.06,585.9053,425.06,589.9053,421.06,593.9053,417.06,589.9053" style="stroke:#B38D22;stroke-width:1;"/></g><text fill="#000000" font-family="sans-serif" font-size="14" lengthAdjust="spacing" textLength="254.7822" x="430.06" y="594.252">_commercial_type: CommercialType</text><line style="stroke:#181818;stroke-width:1;stroke-dasharray:1,2;" x1="411.06" x2="696.9379" y1="601.5537" y2="601.5537"/><g data-visibility-modifier="PUBLIC_METHOD"><ellipse cx="421.06" cy="615.2022" fill="#84BE84" rx="3" ry="3" style="stroke:#038048;stroke-width:1;"/></g><text fill="#000000" font-family="sans-serif" font-size="14" lengthAdjust="spacing" textLength="195.8496" x="430.06" y="618.5489">commercial_type (property)</text><g data-visibility-modifier="PUBLIC_METHOD"><ellipse cx="421.06" cy="631.4991" fill="#84BE84" rx="3" ry="3" style="stroke:#038048;stroke-width:1;"/></g><text fill="#000000" font-family="sans-serif" font-size="14" lengthAdjust="spacing" textLength="199.1855" x="430.06" y="634.8457">scaling_reference (property)</text><line style="stroke:#181818;stroke-width:0.5;" x1="411.06" x2="696.9379" y1="642.1475" y2="642.1475"/></g><!--class ScalingReference--><g class="entity" data-qualified-name="odeon.model.building_unit.ScalingReference" data-source-line="87" id="ent0017"><rect fill="#F1F1F1" height="64.2969" rx="2.5" ry="2.5" style="stroke:#181818;stroke-width:0.5;" width="154.1377" x="522.93" y="1093.13"/><ellipse cx="537.93" cy="1109.13" fill="#ADD1B2" rx="11" ry="11" style="stroke:#181818;stroke-width:1;"/><path d="M540.8988,1114.7706 Q540.3206,1115.0675 539.68,1115.2081 Q539.0394,1115.3644 538.3363,1115.3644 Q535.8363,1115.3644 534.5081,1113.7237 Q533.1956,1112.0675 533.1956,1108.9425 Q533.1956,1105.8175 534.5081,1104.1612 Q535.8363,1102.505 538.3363,1102.505 Q539.0394,1102.505 539.68,1102.6612 Q540.3363,1102.8175 540.8988,1103.1144 L540.8988,1105.8331 Q540.2738,1105.255 539.68,1104.9894 Q539.0863,1104.7081 538.4613,1104.7081 Q537.1175,1104.7081 536.43,1105.7862 Q535.7425,1106.8487 535.7425,1108.9425 Q535.7425,1111.0362 536.43,1112.1144 Q537.1175,1113.1769 538.4613,1113.1769 Q539.0863,1113.1769 539.68,1112.9112 Q540.2738,1112.63 540.8988,1112.0519 L540.8988,1114.7706 Z " fill="#000000"/><text fill="#000000" font-family="sans-serif" font-size="14" lengthAdjust="spacing" textLength="122.1377" x="551.93" y="1113.9767">ScalingReference</text><line style="stroke:#181818;stroke-width:0.5;" x1="523.93" x2="676.0677" y1="1125.13" y2="1125.13"/><g data-visibility-modifier="PUBLIC_FIELD"><ellipse cx="533.93" cy="1138.7784" fill="none" rx="3" ry="3" style="stroke:#038048;stroke-width:1;"/></g><text fill="#000000" font-family="sans-serif" font-size="14" lengthAdjust="spacing" textLength="94.6367" x="542.93" y="1142.1251">amount: float</text><line style="stroke:#181818;stroke-width:0.5;" x1="523.93" x2="676.0677" y1="1149.4269" y2="1149.4269"/></g><!--class Household--><g class="entity" data-qualified-name="odeon.model.building_unit.Household" data-source-line="89" id="ent0020"><rect fill="#F1F1F1" height="153.7813" rx="2.5" ry="2.5" style="stroke:#181818;stroke-width:0.5;" width="233.3203" x="733.34" y="512.67"/><ellipse cx="808.7062" cy="528.67" fill="#ADD1B2" rx="11" ry="11" style="stroke:#181818;stroke-width:1;"/><path d="M811.675,534.3106 Q811.0968,534.6075 810.4562,534.7481 Q809.8156,534.9044 809.1125,534.9044 Q806.6125,534.9044 805.2843,533.2637 Q803.9718,531.6075 803.9718,528.4825 Q803.9718,525.3575 805.2843,523.7012 Q806.6125,522.045 809.1125,522.045 Q809.8156,522.045 810.4562,522.2012 Q811.1125,522.3575 811.675,522.6544 L811.675,525.3731 Q811.05,524.795 810.4562,524.5294 Q809.8625,524.2481 809.2375,524.2481 Q807.8937,524.2481 807.2062,525.3262 Q806.5187,526.3887 806.5187,528.4825 Q806.5187,530.5762 807.2062,531.6544 Q807.8937,532.7169 809.2375,532.7169 Q809.8625,532.7169 810.4562,532.4512 Q811.05,532.17 811.675,531.5919 L811.675,534.3106 Z " fill="#000000"/><text fill="#000000" font-family="sans-serif" font-size="14" lengthAdjust="spacing" textLength="74.0879" x="829.2062" y="533.5167">Household</text><line style="stroke:#181818;stroke-width:0.5;" x1="734.34" x2="965.6603" y1="544.67" y2="544.67"/><g data-visibility-modifier="PROTECTED_FIELD"><polygon fill="none" points="744.34,553.3184,748.34,557.3184,744.34,561.3184,740.34,557.3184" style="stroke:#B38D22;stroke-width:1;"/></g><text fill="#000000" font-family="sans-serif" font-size="14" lengthAdjust="spacing" textLength="142.2627" x="753.34" y="561.6651">_residents: Resident</text><g data-visibility-modifier="PROTECTED_FIELD"><polygon fill="none" points="744.34,569.6153,748.34,573.6153,744.34,577.6153,740.34,573.6153" style="stroke:#B38D22;stroke-width:1;"/></g><text fill="#000000" font-family="sans-serif" font-size="14" lengthAdjust="spacing" textLength="61.5645" x="753.34" y="577.962">_size: int</text><line style="stroke:#181818;stroke-width:1;stroke-dasharray:1,2;" x1="734.34" x2="965.6603" y1="585.2637" y2="585.2637"/><g data-visibility-modifier="PUBLIC_METHOD"><ellipse cx="744.34" cy="598.9122" fill="#84BE84" rx="3" ry="3" style="stroke:#038048;stroke-width:1;"/></g><text fill="#000000" font-family="sans-serif" font-size="14" lengthAdjust="spacing" textLength="140.3213" x="753.34" y="602.2589">residents (property)</text><g data-visibility-modifier="PUBLIC_METHOD"><ellipse cx="744.34" cy="615.2091" fill="#84BE84" rx="3" ry="3" style="stroke:#038048;stroke-width:1;"/></g><text fill="#000000" font-family="sans-serif" font-size="14" lengthAdjust="spacing" textLength="102.7578" x="753.34" y="618.5557">size (property)</text><line style="stroke:#181818;stroke-width:0.5;" x1="734.34" x2="965.6603" y1="625.8575" y2="625.8575"/><g data-visibility-modifier="PUBLIC_METHOD"><ellipse cx="744.34" cy="639.5059" fill="#84BE84" rx="3" ry="3" style="stroke:#038048;stroke-width:1;"/></g><text fill="#000000" font-family="sans-serif" font-size="14" lengthAdjust="spacing" textLength="207.3203" x="753.34" y="642.8526">add_residents(self, residents)</text><g data-visibility-modifier="PUBLIC_METHOD"><ellipse cx="744.34" cy="655.8028" fill="#84BE84" rx="3" ry="3" style="stroke:#038048;stroke-width:1;"/></g><text fill="#000000" font-family="sans-serif" font-size="14" lengthAdjust="spacing" textLength="160.8291" x="753.34" y="659.1495">remove_residents(self)</text></g><!--class Resident--><g class="entity" data-qualified-name="odeon.model.building_unit.Resident" data-source-line="100" id="ent0022"><rect fill="#F1F1F1" height="80.5938" rx="2.5" ry="2.5" style="stroke:#181818;stroke-width:0.5;" width="276.5918" x="711.7" y="1084.98"/><ellipse cx="815.0525" cy="1100.98" fill="#ADD1B2" rx="11" ry="11" style="stroke:#181818;stroke-width:1;"/><path d="M818.0213,1106.6206 Q817.4432,1106.9175 816.8025,1107.0581 Q816.1619,1107.2144 815.4588,1107.2144 Q812.9588,1107.2144 811.6307,1105.5737 Q810.3182,1103.9175 810.3182,1100.7925 Q810.3182,1097.6675 811.6307,1096.0112 Q812.9588,1094.355 815.4588,1094.355 Q816.1619,1094.355 816.8025,1094.5112 Q817.4588,1094.6675 818.0213,1094.9644 L818.0213,1097.6831 Q817.3963,1097.105 816.8025,1096.8394 Q816.2088,1096.5581 815.5838,1096.5581 Q814.24,1096.5581 813.5525,1097.6362 Q812.865,1098.6987 812.865,1100.7925 Q812.865,1102.8862 813.5525,1103.9644 Q814.24,1105.0269 815.5838,1105.0269 Q816.2088,1105.0269 816.8025,1104.7612 Q817.3963,1104.48 818.0213,1103.9019 L818.0213,1106.6206 Z " fill="#000000"/><text fill="#000000" font-family="sans-serif" font-size="14" lengthAdjust="spacing" textLength="61.3867" x="835.5525" y="1105.8267">Resident</text><line style="stroke:#181818;stroke-width:0.5;" x1="712.7" x2="987.2918" y1="1116.98" y2="1116.98"/><g data-visibility-modifier="PUBLIC_FIELD"><ellipse cx="722.7" cy="1130.6284" fill="none" rx="3" ry="3" style="stroke:#038048;stroke-width:1;"/></g><text fill="#000000" font-family="sans-serif" font-size="14" lengthAdjust="spacing" textLength="166.6396" x="731.7" y="1133.9751">age: ResidentAgeGroup</text><g data-visibility-modifier="PUBLIC_FIELD"><ellipse cx="722.7" cy="1146.9253" fill="none" rx="3" ry="3" style="stroke:#038048;stroke-width:1;"/></g><text fill="#000000" font-family="sans-serif" font-size="14" lengthAdjust="spacing" textLength="250.5918" x="731.7" y="1150.272">source_of_income: SourceOfIncome</text><line style="stroke:#181818;stroke-width:0.5;" x1="712.7" x2="987.2918" y1="1157.5737" y2="1157.5737"/></g><!--class EnergySystemHost--><g class="entity" data-qualified-name="odeon.model.energy_system.EnergySystemHost" data-source-line="76" id="ent0009"><rect fill="#F1F1F1" height="48" rx="2.5" ry="2.5" style="stroke:#181818;stroke-width:0.5;" width="165.3418" x="751.33" y="127"/><ellipse cx="766.33" cy="143" fill="#ADD1B2" rx="11" ry="11" style="stroke:#181818;stroke-width:1;"/><path d="M769.2988,148.6406 Q768.7206,148.9375 768.08,149.0781 Q767.4394,149.2344 766.7363,149.2344 Q764.2363,149.2344 762.9081,147.5938 Q761.5956,145.9375 761.5956,142.8125 Q761.5956,139.6875 762.9081,138.0313 Q764.2363,136.375 766.7363,136.375 Q767.4394,136.375 768.08,136.5313 Q768.7363,136.6875 769.2988,136.9844 L769.2988,139.7031 Q768.6738,139.125 768.08,138.8594 Q767.4863,138.5781 766.8613,138.5781 Q765.5175,138.5781 764.83,139.6563 Q764.1425,140.7188 764.1425,142.8125 Q764.1425,144.9063 764.83,145.9844 Q765.5175,147.0469 766.8613,147.0469 Q767.4863,147.0469 768.08,146.7813 Q768.6738,146.5 769.2988,145.9219 L769.2988,148.6406 Z " fill="#000000"/><text fill="#000000" font-family="sans-serif" font-size="14" lengthAdjust="spacing" textLength="133.3418" x="780.33" y="147.8467">EnergySystemHost</text><line style="stroke:#181818;stroke-width:0.5;" x1="752.33" x2="915.6718" y1="159" y2="159"/><line style="stroke:#181818;stroke-width:0.5;" x1="752.33" x2="915.6718" y1="167" y2="167"/></g><!--class BuildingThermalZone--><g class="entity" data-qualified-name="odeon.model.building_physics.BuildingThermalZone" data-source-line="77" id="ent0012"><rect fill="#F1F1F1" height="48" rx="2.5" ry="2.5" style="stroke:#181818;stroke-width:0.5;" width="182.3359" x="1043.83" y="565.56"/><ellipse cx="1058.83" cy="581.56" fill="#ADD1B2" rx="11" ry="11" style="stroke:#181818;stroke-width:1;"/><path d="M1061.7988,587.2006 Q1061.2206,587.4975 1060.58,587.6381 Q1059.9394,587.7944 1059.2363,587.7944 Q1056.7363,587.7944 1055.4081,586.1538 Q1054.0956,584.4975 1054.0956,581.3725 Q1054.0956,578.2475 1055.4081,576.5913 Q1056.7363,574.935 1059.2363,574.935 Q1059.9394,574.935 1060.58,575.0913 Q1061.2363,575.2475 1061.7988,575.5444 L1061.7988,578.2631 Q1061.1738,577.685 1060.58,577.4194 Q1059.9863,577.1381 1059.3613,577.1381 Q1058.0175,577.1381 1057.33,578.2163 Q1056.6425,579.2788 1056.6425,581.3725 Q1056.6425,583.4663 1057.33,584.5444 Q1058.0175,585.6069 1059.3613,585.6069 Q1059.9863,585.6069 1060.58,585.3413 Q1061.1738,585.06 1061.7988,584.4819 L1061.7988,587.2006 Z " fill="#000000"/><text fill="#000000" font-family="sans-serif" font-size="14" lengthAdjust="spacing" textLength="150.3359" x="1072.83" y="586.4067">BuildingThermalZone</text><line style="stroke:#181818;stroke-width:0.5;" x1="1044.83" x2="1225.1659" y1="597.56" y2="597.56"/><line style="stroke:#181818;stroke-width:0.5;" x1="1044.83" x2="1225.1659" y1="605.56" y2="605.56"/></g><!--class Object--><g class="entity" data-qualified-name="odeon.model.base.Object" data-source-line="105" id="ent0024"><rect fill="#F1F1F1" height="48" rx="2.5" ry="2.5" style="stroke:#181818;stroke-width:0.5;" width="77.5957" x="1282.2" y="565.56"/><ellipse cx="1297.2" cy="581.56" fill="#ADD1B2" rx="11" ry="11" style="stroke:#181818;stroke-width:1;"/><path d="M1300.1688,587.2006 Q1299.5906,587.4975 1298.95,587.6381 Q1298.3094,587.7944 1297.6063,587.7944 Q1295.1063,587.7944 1293.7781,586.1538 Q1292.4656,584.4975 1292.4656,581.3725 Q1292.4656,578.2475 1293.7781,576.5913 Q1295.1063,574.935 1297.6063,574.935 Q1298.3094,574.935 1298.95,575.0913 Q1299.6063,575.2475 1300.1688,575.5444 L1300.1688,578.2631 Q1299.5438,577.685 1298.95,577.4194 Q1298.3563,577.1381 1297.7313,577.1381 Q1296.3875,577.1381 1295.7,578.2163 Q1295.0125,579.2788 1295.0125,581.3725 Q1295.0125,583.4663 1295.7,584.5444 Q1296.3875,585.6069 1297.7313,585.6069 Q1298.3563,585.6069 1298.95,585.3413 Q1299.5438,585.06 1300.1688,584.4819 L1300.1688,587.2006 Z " fill="#000000"/><text fill="#000000" font-family="sans-serif" font-size="14" lengthAdjust="spacing" textLength="45.5957" x="1311.2" y="586.4067">Object</text><line style="stroke:#181818;stroke-width:0.5;" x1="1283.2" x2="1358.7957" y1="597.56" y2="597.56"/><line style="stroke:#181818;stroke-width:0.5;" x1="1283.2" x2="1358.7957" y1="605.56" y2="605.56"/></g><!--reverse link EnergySystemHost to BuildingUnit--><g class="link" data-entity-1="ent0009" data-entity-2="ent0008" data-link-type="extension" data-source-line="76" id="lnk11"><path codeLine="76" d="M834,193.14 C834,211.94 834,221.85 834,249.9" fill="none" id="EnergySystemHost-backto-BuildingUnit" style="stroke:#181818;stroke-width:1;"/><polygon fill="none" points="834,175.14,828,193.14,840,193.14,834,175.14" style="stroke:#181818;stroke-width:1;"/></g><!--reverse link BuildingUnit to BuildingThermalZone--><g class="link" data-entity-1="ent0008" data-entity-2="ent0012" data-link-type="composition" data-source-line="77" id="lnk14"><path codeLine="77" d="M971.5303,460.2682 C1024.4903,501.8282 1071.8,538.96 1105.31,565.26" fill="none" id="BuildingUnit-backto-BuildingThermalZone" style="stroke:#181818;stroke-width:1;"/><polygon fill="#181818" points="962.09,452.86,964.3407,459.7109,971.5303,460.2682,969.2795,453.4173,962.09,452.86" style="stroke:#181818;stroke-width:1;"/></g><!--reverse link BuildingUnit to Commercial--><g class="link" data-entity-1="ent0008" data-entity-2="ent0015" data-link-type="extension" data-source-line="86" id="lnk16"><path codeLine="86" d="M701.0921,464.4669 C670.5821,490.2069 652.47,505.48 625.23,528.47" fill="none" id="BuildingUnit-backto-Commercial" style="stroke:#181818;stroke-width:1;"/><polygon fill="none" points="714.85,452.86,697.2231,459.881,704.9611,469.0529,714.85,452.86" style="stroke:#181818;stroke-width:1;"/></g><!--reverse link Commercial to ScalingReference--><g class="link" data-entity-1="ent0015" data-entity-2="ent0017" data-link-type="composition" data-source-line="87" id="lnk18"><path codeLine="87" d="M560.1999,662.4457 C569.9699,775.8657 589.83,1006.33 597.29,1092.81" fill="none" id="Commercial-backto-ScalingReference" style="stroke:#181818;stroke-width:1;"/><polygon fill="#181818" points="559.17,650.49,555.6997,656.8112,560.1999,662.4457,563.6702,656.1246,559.17,650.49" style="stroke:#181818;stroke-width:1;"/></g><!--reverse link Commercial to CommercialType--><g class="link" data-entity-1="ent0015" data-entity-2="ent0002" data-link-type="composition" data-source-line="88" id="lnk19"><path codeLine="88" d="M517.6237,661.1573 C506.6437,682.4673 498.82,697.66 484.12,726.18" fill="none" id="Commercial-backto-CommercialType" style="stroke:#181818;stroke-width:1;"/><polygon fill="#181818" points="523.12,650.49,516.8161,653.9915,517.6237,661.1573,523.9276,657.6557,523.12,650.49" style="stroke:#181818;stroke-width:1;"/></g><!--reverse link BuildingUnit to Household--><g class="link" data-entity-1="ent0008" data-entity-2="ent0020" data-link-type="extension" data-source-line="99" id="lnk21"><path codeLine="99" d="M842.0247,470.819 C843.3747,490.779 843.56,493.48 844.85,512.46" fill="none" id="BuildingUnit-backto-Household" style="stroke:#181818;stroke-width:1;"/><polygon fill="none" points="840.81,452.86,836.0383,471.2239,848.011,470.4141,840.81,452.86" style="stroke:#181818;stroke-width:1;"/></g><!--reverse link Household to Resident--><g class="link" data-entity-1="ent0020" data-entity-2="ent0022" data-link-type="composition" data-source-line="100" id="lnk23"><path codeLine="100" d="M850,678.74 C850,793.95 850,996.4 850,1084.71" fill="none" id="Household-backto-Resident" style="stroke:#181818;stroke-width:1;"/><polygon fill="#181818" points="850,666.74,846,672.74,850,678.74,854,672.74,850,666.74" style="stroke:#181818;stroke-width:1;"/></g><!--reverse link Object to Resident--><g class="link" data-entity-1="ent0024" data-entity-2="ent0022" data-link-type="extension" data-source-line="105" id="lnk26"><path codeLine="105" d="M1288.5496,627.336 C1215.1596,710.496 977.27,980.05 884.8,1084.84" fill="none" id="Object-backto-Resident" style="stroke:#181818;stroke-width:1;"/><polygon fill="none" points="1300.46,613.84,1284.0509,623.3659,1293.0482,631.3061,1300.46,613.84" style="stroke:#181818;stroke-width:1;"/></g><!--reverse link Resident to ResidentAgeGroup--><g class="link" data-entity-1="ent0022" data-entity-2="ent0006" data-link-type="composition" data-source-line="106" id="lnk27"><path codeLine="106" d="M840.4048,1177.5585 C824.8648,1253.8485 784.5,1412.03 695,1524.11 C670.83,1554.37 637.24,1580.02 605.44,1599.98" fill="none" id="Resident-backto-ResidentAgeGroup" style="stroke:#181818;stroke-width:1;"/><polygon fill="#181818" points="842.8,1165.8,837.6829,1170.8809,840.4048,1177.5585,845.5219,1172.4777,842.8,1165.8" style="stroke:#181818;stroke-width:1;"/></g><!--reverse link Resident to SourceOfIncome--><g class="link" data-entity-1="ent0022" data-entity-2="ent0007" data-link-type="composition" data-source-line="107" id="lnk28"><path codeLine="107" d="M850.6907,1177.9089 C851.8907,1267.5289 854.67,1474.47 856.14,1583.69" fill="none" id="Resident-backto-SourceOfIncome" style="stroke:#181818;stroke-width:1;"/><polygon fill="#181818" points="850.53,1165.91,846.6107,1171.963,850.6907,1177.9089,854.61,1171.8559,850.53,1165.91" style="stroke:#181818;stroke-width:1;"/></g><!--reverse link Object to ScalingReference--><g class="link" data-entity-1="ent0024" data-entity-2="ent0017" data-link-type="extension" data-source-line="111" id="lnk29"><path codeLine="111" d="M1292.3195,627.9776 C1277.9195,645.5976 1267.16,654.69 1242,666.45 C1131.02,718.32 785.78,645.31 694,726.45 C585.93,821.99 590.21,1016.59 596.56,1092.73" fill="none" id="Object-backto-ScalingReference" style="stroke:#181818;stroke-width:1;"/><polygon fill="none" points="1303.71,614.04,1287.6736,624.1807,1296.9653,631.7744,1303.71,614.04" style="stroke:#181818;stroke-width:1;"/></g><?plantuml-src hLPBZzis4BxxLmZeeTbiOo27187HYonpRI5QoT0ZRdeXQ8gosT2aG57hEkd-zmxbrrhoOz7cP8kSvpVVpF1NH-LCoVuAVaH_NdEHSxd0jUIcrsEoNbs-xtjgjMAQSYBIJScS7xqV1MSYV_vH6M8uVVQYC4dZp4lzA1muLCdAw9eQhcHRCdfuy3qqS5HHSChQjqCt_3nmvaH-QzzCis7W9nCK3voodWjUBPdks4xXFa7n5_2GW0i3ChXY-WayLMtX8FBSmCtIIHJxgM_bXQ94O5ARfTBSyAxAD4fIDu0051o8zcsA0kH5ZuzPw7lk5WZ31AC07M18oJaqOjSFPkxNWQC95skoQT_xuIW3OBy-eiRnYe5Vp6LU0xwNXQCq0fXMoYXzKtWMHQE1irOgloawTQSD_AG4M8dCSQcvD9OZbpJJs1sX66BtWuV6ZuO4kC16avpX0fnUqGYZy8oILFAYtcmI1IXn0xJLMo-LO1KHLpmTD0xEZahNFBbZ57eDQRPHaGMJj9F-94gcVbEufQfAVeOpYJU98hYlw58fqUs6TBAZEyLpOfPT3e_6VZZU5yXIE5zSAmWG4yKd6fh1LQs9D9tO9YX8RS41Y7UbLWKtMEa5aVnxm-M60j26mdGxSUX-HjRwd7nZtIY6MUerdJol3MrwTAdAIwpRSw02xqLJoOlPGJk7emO6KijSGmStCRx9zUOEKy68PBhJrEuuzhqiIBCOfX9PQ4vhOMhDkiMCqwCWZ0YpbsoSB8ZEcGJiE_RzU0ggO9lh4hIwO-EFr0_091Kmi6pn8D1cSXdsj-62TUlYJwTGGs3DafUbrQYWqu62jaLaPPsS7JQFRlmPfNQ41K3S5T7VcC5saWdC3ErtnEtCcGPk0cd7sN2ufqB1j5PrXRV3g1Ia0cciw_cyomCl2aO9J2ERdX9v4sWdePabPO9cq5JGVyHOGjHbAJPRXh6rJItda5ZLxQ2HcxeU2XkYviGGJ9ayGqZex_5aP1CmsAuddZFDSiieW1h35VYX4Dmb5WwSIwI3MuJIm1zFqcrHZ6Q0g-2BfJb3XyU7oOFh-S5kv-osWzdWWb0kx9zLqUdpHollsYXMLePqesXMtsxbTND8ijWDxTRbihAztbsyupZoO3BOa1PQKMQRf_TywraGCmkaDEw2ZO4JPVTXC4H1DCFlFmsSzvzWUk0v4shT5Kfd28KWXjrmX3z-W6QPgoTc3om5FdwugEeEeo_eXSR73xUZJbIjAOiANmBwPnupaUTbKny1MnIbTSbPVlOnuk4acsvRUpUYBMlFT3YiCpz6sqN6TTVQWmlr_NgqLX2eykQIjMWMuXbo0xiQr5hYDIC2DiDpZq8dLbVI7kw-ClY0f7_1X-jokQauhGRENYG55gs8-5D9rhkVamf6d6O48XEA6D2KG73u3qLvUNuFgvFdP0E6u7q6tqza--hP7_JxOAtbr7a3gmKU56Pprxk7eFaJB0pReZ3Bg3cvBHYpi__yvMb8Bwym1d1Umi9W3Im0tqrbsAgFcg-a-PZ0myxv_Pztxru9O--LQB-zP747GlySyBVgUNoJDzMiuF5gxpI30Gsl4JPmakrHl3y1ANfGmWPUyWFdz6NVbAWbSm9pnyjLfAz0SWFbOrYzLo7mzggr3X0_mMOBk5lLci3APD0WULCilHkSq1dx6MfBoBypEwEtdNAGEIq0oBGmloTvVhJufcAY-CqvVDzPIoix6qz5xdvQhGwfzLwJ_dLK3sZSmdCl273Um_lWYED-5m5KpPotEvutanuQucJojm60ETUFvd_1E-1MneSeNn7Vw_8zHFs_BRPol8LZkpKQF5UgbcO_rlypIctJ_m80?></g></svg>