<?plantuml 1.2026.2beta3?><svg xmlns="http://www.w3.org/2000/svg" xmlns:xlink="http://www.w3.org/1999/xlink" contentStyleType="text/css" data-diagram-type="CLASS" height="1026px" preserveAspectRatio="none" style="width:918px;height:1026px;background:#FFFFFF;" version="1.1" viewBox="0 0 918 1026" width="918px" zoomAndPan="magnify"><defs/><g><!--cluster odeon--><g class="cluster" data-qualified-name="odeon" data-source-line="3" id="ent0003"><path d="M8.5,6 L58.2197,6 A3.75,3.75 0 0 1 60.7197,8.5 L67.7197,28.2969 L908.5,28.2969 A2.5,2.5 0 0 1 911,30.7969 L911,1017.14 A2.5,2.5 0 0 1 908.5,1019.64 L8.5,1019.64 A2.5,2.5 0 0 1 6,1017.14 L6,8.5 A2.5,2.5 0 0 1 8.5,6" fill="none" style="stroke:#000000;stroke-width:1.5;"/><line style="stroke:#000000;stroke-width:1.5;" x1="6" x2="67.7197" y1="28.2969" y2="28.2969"/><text fill="#000000" font-family="sans-serif" font-size="14" font-weight="bold" lengthAdjust="spacing" textLength="48.7197" x="10" y="20.9951">odeon</text></g><!--cluster model--><g class="cluster" data-qualified-name="odeon.model" data-source-line="3" id="ent0004"><path d="M32.5,49 L82.0215,49 A3.75,3.75 0 0 1 84.5215,51.5 L91.5215,71.2969 L884.5,71.2969 A2.5,2.5 0 0 1 887,73.7969 L887,993.14 A2.5,2.5 0 0 1 884.5,995.64 L32.5,995.64 A2.5,2.5 0 0 1 30,993.14 L30,51.5 A2.5,2.5 0 0 1 32.5,49" fill="none" style="stroke:#000000;stroke-width:1.5;"/><line style="stroke:#000000;stroke-width:1.5;" x1="30" x2="91.5215" y1="71.2969" y2="71.2969"/><text fill="#000000" font-family="sans-serif" font-size="14" font-weight="bold" lengthAdjust="spacing" textLength="48.5215" x="34" y="63.9951">model</text></g><!--cluster clustering--><g class="cluster" data-qualified-name="odeon.model.clustering" data-source-line="3" id="ent0005"><path d="M56.5,215 L136.7764,215 A3.75,3.75 0 0 1 139.2764,217.5 L146.2764,237.2969 L686.5,237.2969 A2.5,2.5 0 0 1 689,239.7969 L689,969.14 A2.5,2.5 0 0 1 686.5,971.64 L56.5,971.64 A2.5,2.5 0 0 1 54,969.14 L54,217.5 A2.5,2.5 0 0 1 56.5,215" fill="none" style="stroke:#000000;stroke-width:1.5;"/><line style="stroke:#000000;stroke-width:1.5;" x1="54" x2="146.2764" y1="237.2969" y2="237.2969"/><text fill="#000000" font-family="sans-serif" font-size="14" font-weight="bold" lengthAdjust="spacing" textLength="79.2764" x="58" y="229.9951">clustering</text></g><!--cluster base--><g class="cluster" data-qualified-name="odeon.model.base" data-source-line="18" id="ent0011"><path d="M527.5,92 L565.7969,92 A3.75,3.75 0 0 1 568.2969,94.5 L575.2969,114.2969 L654.5,114.2969 A2.5,2.5 0 0 1 657,116.7969 L657,188.5 A2.5,2.5 0 0 1 654.5,191 L527.5,191 A2.5,2.5 0 0 1 525,188.5 L525,94.5 A2.5,2.5 0 0 1 527.5,92" fill="none" style="stroke:#000000;stroke-width:1.5;"/><line style="stroke:#000000;stroke-width:1.5;" x1="525" x2="575.2969" y1="114.2969" y2="114.2969"/><text fill="#000000" font-family="sans-serif" font-size="14" font-weight="bold" lengthAdjust="spacing" textLength="37.2969" x="529" y="106.9951">base</text></g><!--cluster region--><g class="cluster" data-qualified-name="odeon.model.region" data-source-line="46" id="ent0020"><path d="M715.5,836.05 L767.3047,836.05 A3.75,3.75 0 0 1 769.8047,838.55 L776.8047,858.3469 L860.5,858.3469 A2.5,2.5 0 0 1 863,860.8469 L863,932.55 A2.5,2.5 0 0 1 860.5,935.05 L715.5,935.05 A2.5,2.5 0 0 1 713,932.55 L713,838.55 A2.5,2.5 0 0 1 715.5,836.05" fill="none" style="stroke:#000000;stroke-width:1.5;"/><line style="stroke:#000000;stroke-width:1.5;" x1="713" x2="776.8047" y1="858.3469" y2="858.3469"/><text fill="#000000" font-family="sans-serif" font-size="14" font-weight="bold" lengthAdjust="spacing" textLength="50.8047" x="717" y="851.0451">region</text></g><!--class BinClustering--><g class="entity" data-qualified-name="odeon.model.clustering.BinClustering" data-source-line="3" id="ent0002"><rect fill="#F1F1F1" height="80.5938" rx="2.5" ry="2.5" style="stroke:#181818;stroke-width:0.5;" width="167.9551" x="86.02" y="484.08"/><ellipse cx="120.0316" cy="500.08" fill="#ADD1B2" rx="11" ry="11" style="stroke:#181818;stroke-width:1;"/><path d="M123.0004,505.7206 Q122.4222,506.0175 121.7816,506.1581 Q121.141,506.3144 120.4379,506.3144 Q117.9379,506.3144 116.6097,504.6738 Q115.2972,503.0175 115.2972,499.8925 Q115.2972,496.7675 116.6097,495.1113 Q117.9379,493.455 120.4379,493.455 Q121.141,493.455 121.7816,493.6113 Q122.4379,493.7675 123.0004,494.0644 L123.0004,496.7831 Q122.3754,496.205 121.7816,495.9394 Q121.1879,495.6581 120.5629,495.6581 Q119.2191,495.6581 118.5316,496.7363 Q117.8441,497.7988 117.8441,499.8925 Q117.8441,501.9863 118.5316,503.0644 Q119.2191,504.1269 120.5629,504.1269 Q121.1879,504.1269 121.7816,503.8613 Q122.3754,503.58 123.0004,503.0019 L123.0004,505.7206 Z " fill="#000000"/><text fill="#000000" font-family="sans-serif" font-size="14" lengthAdjust="spacing" textLength="93.707" x="138.2564" y="504.9267">BinClustering</text><line style="stroke:#181818;stroke-width:0.5;" x1="87.02" x2="252.9751" y1="516.08" y2="516.08"/><g data-visibility-modifier="PROTECTED_FIELD"><polygon fill="none" points="97.02,524.7284,101.02,528.7284,97.02,532.7284,93.02,528.7284" style="stroke:#B38D22;stroke-width:1;"/></g><text fill="#000000" font-family="sans-serif" font-size="14" lengthAdjust="spacing" textLength="84.9912" x="106.02" y="533.0751">_groups: list</text><g data-visibility-modifier="PROTECTED_FIELD"><polygon fill="none" points="97.02,541.0253,101.02,545.0253,97.02,549.0253,93.02,545.0253" style="stroke:#B38D22;stroke-width:1;"/></g><text fill="#000000" font-family="sans-serif" font-size="14" lengthAdjust="spacing" textLength="141.9551" x="106.02" y="549.372">_unclustered: Group</text><line style="stroke:#181818;stroke-width:0.5;" x1="87.02" x2="252.9751" y1="556.6738" y2="556.6738"/></g><!--class Clustering--><g class="entity" data-qualified-name="odeon.model.clustering.Clustering" data-source-line="7" id="ent0006"><rect fill="#F1F1F1" height="137.4844" rx="2.5" ry="2.5" style="stroke:#181818;stroke-width:0.5;" width="224.1602" x="277.92" y="250"/><ellipse cx="350.0802" cy="266" fill="#ADD1B2" rx="11" ry="11" style="stroke:#181818;stroke-width:1;"/><path d="M353.0489,271.6406 Q352.4708,271.9375 351.8302,272.0781 Q351.1895,272.2344 350.4864,272.2344 Q347.9864,272.2344 346.6583,270.5938 Q345.3458,268.9375 345.3458,265.8125 Q345.3458,262.6875 346.6583,261.0313 Q347.9864,259.375 350.4864,259.375 Q351.1895,259.375 351.8302,259.5313 Q352.4864,259.6875 353.0489,259.9844 L353.0489,262.7031 Q352.4239,262.125 351.8302,261.8594 Q351.2364,261.5781 350.6114,261.5781 Q349.2677,261.5781 348.5802,262.6563 Q347.8927,263.7188 347.8927,265.8125 Q347.8927,267.9063 348.5802,268.9844 Q349.2677,270.0469 350.6114,270.0469 Q351.2364,270.0469 351.8302,269.7813 Q352.4239,269.5 353.0489,268.9219 L353.0489,271.6406 Z " fill="#000000"/><text fill="#000000" font-family="sans-serif" font-size="14" lengthAdjust="spacing" textLength="71.3398" x="370.5802" y="270.8467">Clustering</text><line style="stroke:#181818;stroke-width:0.5;" x1="278.92" x2="501.0802" y1="282" y2="282"/><g data-visibility-modifier="PROTECTED_FIELD"><polygon fill="none" points="288.92,290.6484,292.92,294.6484,288.92,298.6484,284.92,294.6484" style="stroke:#B38D22;stroke-width:1;"/></g><text fill="#000000" font-family="sans-serif" font-size="14" lengthAdjust="spacing" textLength="84.9912" x="297.92" y="298.9951">_groups: list</text><g data-visibility-modifier="PROTECTED_FIELD"><polygon fill="none" points="288.92,306.9453,292.92,310.9453,288.92,314.9453,284.92,310.9453" style="stroke:#B38D22;stroke-width:1;"/></g><text fill="#000000" font-family="sans-serif" font-size="14" lengthAdjust="spacing" textLength="141.9551" x="297.92" y="315.292">_unclustered: Group</text><line style="stroke:#181818;stroke-width:1;stroke-dasharray:1,2;" x1="278.92" x2="501.0802" y1="322.5938" y2="322.5938"/><g data-visibility-modifier="PUBLIC_METHOD"><ellipse cx="288.92" cy="336.2422" fill="#84BE84" rx="3" ry="3" style="stroke:#038048;stroke-width:1;"/></g><text fill="#000000" font-family="sans-serif" font-size="14" lengthAdjust="spacing" textLength="198.1602" x="297.92" y="339.5889">clustered_objects (property)</text><g data-visibility-modifier="PUBLIC_METHOD"><ellipse cx="288.92" cy="352.5391" fill="#84BE84" rx="3" ry="3" style="stroke:#038048;stroke-width:1;"/></g><text fill="#000000" font-family="sans-serif" font-size="14" lengthAdjust="spacing" textLength="123.874" x="297.92" y="355.8857">groups (property)</text><g data-visibility-modifier="PUBLIC_METHOD"><ellipse cx="288.92" cy="368.8359" fill="#84BE84" rx="3" ry="3" style="stroke:#038048;stroke-width:1;"/></g><text fill="#000000" font-family="sans-serif" font-size="14" lengthAdjust="spacing" textLength="158.4707" x="297.92" y="372.1826">unclustered (property)</text><line style="stroke:#181818;stroke-width:0.5;" x1="278.92" x2="501.0802" y1="379.4844" y2="379.4844"/></g><!--class Group--><g class="entity" data-qualified-name="odeon.model.clustering.Group" data-source-line="8" id="ent0008"><rect fill="#F1F1F1" height="113.1875" rx="2.5" ry="2.5" style="stroke:#181818;stroke-width:0.5;" width="305.8154" x="70.09" y="661.26"/><ellipse cx="197.2829" cy="677.26" fill="#ADD1B2" rx="11" ry="11" style="stroke:#181818;stroke-width:1;"/><path d="M200.2516,682.9006 Q199.6735,683.1975 199.0329,683.3381 Q198.3922,683.4944 197.6891,683.4944 Q195.1891,683.4944 193.861,681.8538 Q192.5485,680.1975 192.5485,677.0725 Q192.5485,673.9475 193.861,672.2913 Q195.1891,670.635 197.6891,670.635 Q198.3922,670.635 199.0329,670.7913 Q199.6891,670.9475 200.2516,671.2444 L200.2516,673.9631 Q199.6266,673.385 199.0329,673.1194 Q198.4391,672.8381 197.8141,672.8381 Q196.4704,672.8381 195.7829,673.9163 Q195.0954,674.9788 195.0954,677.0725 Q195.0954,679.1663 195.7829,680.2444 Q196.4704,681.3069 197.8141,681.3069 Q198.4391,681.3069 199.0329,681.0413 Q199.6266,680.76 200.2516,680.1819 L200.2516,682.9006 Z " fill="#000000"/><text fill="#000000" font-family="sans-serif" font-size="14" lengthAdjust="spacing" textLength="42.9297" x="217.7829" y="682.1067">Group</text><line style="stroke:#181818;stroke-width:0.5;" x1="71.09" x2="374.9054" y1="693.26" y2="693.26"/><g data-visibility-modifier="PROTECTED_FIELD"><polygon fill="none" points="81.09,701.9084,85.09,705.9084,81.09,709.9084,77.09,705.9084" style="stroke:#B38D22;stroke-width:1;"/></g><text fill="#000000" font-family="sans-serif" font-size="14" lengthAdjust="spacing" textLength="103.168" x="90.09" y="710.2551">_members: list</text><line style="stroke:#181818;stroke-width:0.5;" x1="71.09" x2="374.9054" y1="717.5569" y2="717.5569"/><g data-visibility-modifier="PROTECTED_METHOD"><polygon fill="#FFFF44" points="81.09,726.2053,85.09,730.2053,81.09,734.2053,77.09,730.2053" style="stroke:#B38D22;stroke-width:1;"/></g><text fill="#000000" font-family="sans-serif" font-size="14" lengthAdjust="spacing" textLength="279.8154" x="90.09" y="734.552">_add_assert_type(self, members, type_)</text><g data-visibility-modifier="PUBLIC_METHOD"><ellipse cx="81.09" cy="747.5022" fill="#84BE84" rx="3" ry="3" style="stroke:#038048;stroke-width:1;"/></g><text fill="#000000" font-family="sans-serif" font-size="14" lengthAdjust="spacing" textLength="210.7793" x="90.09" y="750.8489">add_members(self, members)</text><g data-visibility-modifier="PUBLIC_METHOD"><ellipse cx="81.09" cy="763.7991" fill="#84BE84" rx="3" ry="3" style="stroke:#038048;stroke-width:1;"/></g><text fill="#000000" font-family="sans-serif" font-size="14" lengthAdjust="spacing" textLength="237.8975" x="90.09" y="767.1457">remove_members(self, members)</text></g><!--class FactorizedClustering--><g class="entity" data-qualified-name="odeon.model.clustering.FactorizedClustering" data-source-line="20" id="ent0014"><rect fill="#F1F1F1" height="153.7813" rx="2.5" ry="2.5" style="stroke:#181818;stroke-width:0.5;" width="330.3086" x="325.85" y="447.48"/><ellipse cx="414.6454" cy="463.48" fill="#ADD1B2" rx="11" ry="11" style="stroke:#181818;stroke-width:1;"/><path d="M417.6142,469.1206 Q417.036,469.4175 416.3954,469.5581 Q415.7548,469.7144 415.0517,469.7144 Q412.5517,469.7144 411.2235,468.0738 Q409.911,466.4175 409.911,463.2925 Q409.911,460.1675 411.2235,458.5113 Q412.5517,456.855 415.0517,456.855 Q415.7548,456.855 416.3954,457.0113 Q417.0517,457.1675 417.6142,457.4644 L417.6142,460.1831 Q416.9892,459.605 416.3954,459.3394 Q415.8017,459.0581 415.1767,459.0581 Q413.8329,459.0581 413.1454,460.1363 Q412.4579,461.1988 412.4579,463.2925 Q412.4579,465.3863 413.1454,466.4644 Q413.8329,467.5269 415.1767,467.5269 Q415.8017,467.5269 416.3954,467.2613 Q416.9892,466.98 417.6142,466.4019 L417.6142,469.1206 Z " fill="#000000"/><text fill="#000000" font-family="sans-serif" font-size="14" lengthAdjust="spacing" textLength="144.2178" x="435.1454" y="468.3267">FactorizedClustering</text><line style="stroke:#181818;stroke-width:0.5;" x1="326.85" x2="655.1586" y1="479.48" y2="479.48"/><g data-visibility-modifier="PUBLIC_FIELD"><ellipse cx="336.85" cy="493.1284" fill="none" rx="3" ry="3" style="stroke:#038048;stroke-width:1;"/></g><text fill="#000000" font-family="sans-serif" font-size="14" lengthAdjust="spacing" textLength="83.4395" x="345.85" y="496.4751">factors: dict</text><line style="stroke:#181818;stroke-width:1;stroke-dasharray:1,2;" x1="326.85" x2="655.1586" y1="503.7769" y2="503.7769"/><g data-visibility-modifier="PUBLIC_METHOD"><ellipse cx="336.85" cy="517.4253" fill="#84BE84" rx="3" ry="3" style="stroke:#038048;stroke-width:1;"/></g><text fill="#000000" font-family="sans-serif" font-size="14" lengthAdjust="spacing" textLength="196.1982" x="345.85" y="520.772">has_valid_factors (property)</text><g data-visibility-modifier="PUBLIC_METHOD"><ellipse cx="336.85" cy="533.7222" fill="#84BE84" rx="3" ry="3" style="stroke:#038048;stroke-width:1;"/></g><text fill="#000000" font-family="sans-serif" font-size="14" lengthAdjust="spacing" textLength="171.835" x="345.85" y="537.0689">is_normalized (property)</text><g data-visibility-modifier="PUBLIC_METHOD"><ellipse cx="336.85" cy="550.0191" fill="#84BE84" rx="3" ry="3" style="stroke:#038048;stroke-width:1;"/></g><text fill="#000000" font-family="sans-serif" font-size="14" lengthAdjust="spacing" textLength="181.0566" x="345.85" y="553.3657">unique_objects (property)</text><g data-visibility-modifier="PUBLIC_METHOD"><ellipse cx="336.85" cy="566.3159" fill="#84BE84" rx="3" ry="3" style="stroke:#038048;stroke-width:1;"/></g><text fill="#000000" font-family="sans-serif" font-size="14" lengthAdjust="spacing" textLength="304.3086" x="345.85" y="569.6626">unique_objects_summed_factors (property)</text><line style="stroke:#181818;stroke-width:0.5;" x1="326.85" x2="655.1586" y1="576.9644" y2="576.9644"/><g data-visibility-modifier="PUBLIC_METHOD"><ellipse cx="336.85" cy="590.6128" fill="#84BE84" rx="3" ry="3" style="stroke:#038048;stroke-width:1;"/></g><text fill="#000000" font-family="sans-serif" font-size="14" lengthAdjust="spacing" textLength="208.5645" x="345.85" y="593.9595">get_factor(self, group, object)</text></g><!--class SpatialClustering--><g class="entity" data-qualified-name="odeon.model.clustering.SpatialClustering" data-source-line="38" id="ent0017"><rect fill="#F1F1F1" height="104.8906" rx="2.5" ry="2.5" style="stroke:#181818;stroke-width:0.5;" width="261.8467" x="411.08" y="665.41"/><ellipse cx="477.9833" cy="681.41" fill="#ADD1B2" rx="11" ry="11" style="stroke:#181818;stroke-width:1;"/><path d="M480.9521,687.0506 Q480.3739,687.3475 479.7333,687.4881 Q479.0927,687.6444 478.3896,687.6444 Q475.8896,687.6444 474.5614,686.0038 Q473.2489,684.3475 473.2489,681.2225 Q473.2489,678.0975 474.5614,676.4413 Q475.8896,674.785 478.3896,674.785 Q479.0927,674.785 479.7333,674.9413 Q480.3896,675.0975 480.9521,675.3944 L480.9521,678.1131 Q480.3271,677.535 479.7333,677.2694 Q479.1396,676.9881 478.5146,676.9881 Q477.1708,676.9881 476.4833,678.0663 Q475.7958,679.1288 475.7958,681.2225 Q475.7958,683.3163 476.4833,684.3944 Q477.1708,685.4569 478.5146,685.4569 Q479.1396,685.4569 479.7333,685.1913 Q480.3271,684.91 480.9521,684.3319 L480.9521,687.0506 Z " fill="#000000"/><text fill="#000000" font-family="sans-serif" font-size="14" lengthAdjust="spacing" textLength="119.54" x="498.4833" y="686.2567">SpatialClustering</text><line style="stroke:#181818;stroke-width:0.5;" x1="412.08" x2="671.9267" y1="697.41" y2="697.41"/><g data-visibility-modifier="PROTECTED_FIELD"><polygon fill="none" points="422.08,706.0584,426.08,710.0584,422.08,714.0584,418.08,710.0584" style="stroke:#B38D22;stroke-width:1;"/></g><text fill="#000000" font-family="sans-serif" font-size="14" lengthAdjust="spacing" textLength="184.6523" x="431.08" y="714.4051">_segregation: Segregation</text><line style="stroke:#181818;stroke-width:1;stroke-dasharray:1,2;" x1="412.08" x2="671.9267" y1="721.7069" y2="721.7069"/><g data-visibility-modifier="PUBLIC_METHOD"><ellipse cx="422.08" cy="735.3553" fill="#84BE84" rx="3" ry="3" style="stroke:#038048;stroke-width:1;"/></g><text fill="#000000" font-family="sans-serif" font-size="14" lengthAdjust="spacing" textLength="159.0586" x="431.08" y="738.702">segregation (property)</text><line style="stroke:#181818;stroke-width:0.5;" x1="412.08" x2="671.9267" y1="746.0038" y2="746.0038"/><g data-visibility-modifier="PUBLIC_METHOD"><ellipse cx="422.08" cy="759.6522" fill="#84BE84" rx="3" ry="3" style="stroke:#038048;stroke-width:1;"/></g><text fill="#000000" font-family="sans-serif" font-size="14" lengthAdjust="spacing" textLength="235.8467" x="431.08" y="762.9989">get_group_by_region(self, region)</text></g><!--class SubstituteGroup--><g class="entity" data-qualified-name="odeon.model.clustering.SubstituteGroup" data-source-line="47" id="ent0022"><rect fill="#F1F1F1" height="121.1875" rx="2.5" ry="2.5" style="stroke:#181818;stroke-width:0.5;" width="231.8916" x="107.05" y="834.45"/><ellipse cx="161.3889" cy="850.45" fill="#ADD1B2" rx="11" ry="11" style="stroke:#181818;stroke-width:1;"/><path d="M164.3576,856.0906 Q163.7795,856.3875 163.1389,856.5281 Q162.4982,856.6844 161.7951,856.6844 Q159.2951,856.6844 157.967,855.0438 Q156.6545,853.3875 156.6545,850.2625 Q156.6545,847.1375 157.967,845.4813 Q159.2951,843.825 161.7951,843.825 Q162.4982,843.825 163.1389,843.9813 Q163.7951,844.1375 164.3576,844.4344 L164.3576,847.1531 Q163.7326,846.575 163.1389,846.3094 Q162.5451,846.0281 161.9201,846.0281 Q160.5764,846.0281 159.8889,847.1063 Q159.2014,848.1688 159.2014,850.2625 Q159.2014,852.3563 159.8889,853.4344 Q160.5764,854.4969 161.9201,854.4969 Q162.5451,854.4969 163.1389,854.2313 Q163.7326,853.95 164.3576,853.3719 L164.3576,856.0906 Z " fill="#000000"/><text fill="#000000" font-family="sans-serif" font-size="14" lengthAdjust="spacing" textLength="114.7139" x="181.8889" y="855.2967">SubstituteGroup</text><line style="stroke:#181818;stroke-width:0.5;" x1="108.05" x2="337.9416" y1="866.45" y2="866.45"/><g data-visibility-modifier="PROTECTED_FIELD"><polygon fill="none" points="118.05,875.0984,122.05,879.0984,118.05,883.0984,114.05,879.0984" style="stroke:#B38D22;stroke-width:1;"/></g><text fill="#000000" font-family="sans-serif" font-size="14" lengthAdjust="spacing" textLength="87.165" x="127.05" y="883.4451">_objects: list</text><line style="stroke:#181818;stroke-width:1;stroke-dasharray:1,2;" x1="108.05" x2="337.9416" y1="890.7469" y2="890.7469"/><g data-visibility-modifier="PUBLIC_METHOD"><ellipse cx="118.05" cy="904.3953" fill="#84BE84" rx="3" ry="3" style="stroke:#038048;stroke-width:1;"/></g><text fill="#000000" font-family="sans-serif" font-size="14" lengthAdjust="spacing" textLength="126.0479" x="127.05" y="907.742">objects (property)</text><line style="stroke:#181818;stroke-width:0.5;" x1="108.05" x2="337.9416" y1="915.0438" y2="915.0438"/><g data-visibility-modifier="PUBLIC_METHOD"><ellipse cx="118.05" cy="928.6922" fill="#84BE84" rx="3" ry="3" style="stroke:#038048;stroke-width:1;"/></g><text fill="#000000" font-family="sans-serif" font-size="14" lengthAdjust="spacing" textLength="178.7734" x="127.05" y="932.0389">add_objects(self, objects)</text><g data-visibility-modifier="PUBLIC_METHOD"><ellipse cx="118.05" cy="944.9891" fill="#84BE84" rx="3" ry="3" style="stroke:#038048;stroke-width:1;"/></g><text fill="#000000" font-family="sans-serif" font-size="14" lengthAdjust="spacing" textLength="205.8916" x="127.05" y="948.3357">remove_objects(self, objects)</text></g><!--class Organizer--><g class="entity" data-qualified-name="odeon.model.base.Organizer" data-source-line="18" id="ent0010"><rect fill="#F1F1F1" height="48" rx="2.5" ry="2.5" style="stroke:#181818;stroke-width:0.5;" width="100.7217" x="540.64" y="127"/><ellipse cx="555.64" cy="143" fill="#ADD1B2" rx="11" ry="11" style="stroke:#181818;stroke-width:1;"/><path d="M558.6088,148.6406 Q558.0306,148.9375 557.39,149.0781 Q556.7494,149.2344 556.0463,149.2344 Q553.5463,149.2344 552.2181,147.5938 Q550.9056,145.9375 550.9056,142.8125 Q550.9056,139.6875 552.2181,138.0313 Q553.5463,136.375 556.0463,136.375 Q556.7494,136.375 557.39,136.5313 Q558.0463,136.6875 558.6088,136.9844 L558.6088,139.7031 Q557.9838,139.125 557.39,138.8594 Q556.7963,138.5781 556.1713,138.5781 Q554.8275,138.5781 554.14,139.6563 Q553.4525,140.7188 553.4525,142.8125 Q553.4525,144.9063 554.14,145.9844 Q554.8275,147.0469 556.1713,147.0469 Q556.7963,147.0469 557.39,146.7813 Q557.9838,146.5 558.6088,145.9219 L558.6088,148.6406 Z " fill="#000000"/><text fill="#000000" font-family="sans-serif" font-size="14" lengthAdjust="spacing" textLength="68.7217" x="569.64" y="147.8467">Organizer</text><line style="stroke:#181818;stroke-width:0.5;" x1="541.64" x2="640.3617" y1="159" y2="159"/><line style="stroke:#181818;stroke-width:0.5;" x1="541.64" x2="640.3617" y1="167" y2="167"/></g><!--class Segregation--><g class="entity" data-qualified-name="odeon.model.region.Segregation" data-source-line="46" id="ent0019"><rect fill="#F1F1F1" height="48" rx="2.5" ry="2.5" style="stroke:#181818;stroke-width:0.5;" width="117.0391" x="729.48" y="871.05"/><ellipse cx="744.48" cy="887.05" fill="#ADD1B2" rx="11" ry="11" style="stroke:#181818;stroke-width:1;"/><path d="M747.4488,892.6906 Q746.8706,892.9875 746.23,893.1281 Q745.5894,893.2844 744.8863,893.2844 Q742.3863,893.2844 741.0581,891.6438 Q739.7456,889.9875 739.7456,886.8625 Q739.7456,883.7375 741.0581,882.0813 Q742.3863,880.425 744.8863,880.425 Q745.5894,880.425 746.23,880.5813 Q746.8863,880.7375 747.4488,881.0344 L747.4488,883.7531 Q746.8238,883.175 746.23,882.9094 Q745.6363,882.6281 745.0113,882.6281 Q743.6675,882.6281 742.98,883.7063 Q742.2925,884.7688 742.2925,886.8625 Q742.2925,888.9563 742.98,890.0344 Q743.6675,891.0969 745.0113,891.0969 Q745.6363,891.0969 746.23,890.8313 Q746.8238,890.55 747.4488,889.9719 L747.4488,892.6906 Z " fill="#000000"/><text fill="#000000" font-family="sans-serif" font-size="14" lengthAdjust="spacing" textLength="85.0391" x="758.48" y="891.8967">Segregation</text><line style="stroke:#181818;stroke-width:0.5;" x1="730.48" x2="845.5191" y1="903.05" y2="903.05"/><line style="stroke:#181818;stroke-width:0.5;" x1="730.48" x2="845.5191" y1="911.05" y2="911.05"/></g><!--reverse link Clustering to BinClustering--><g class="link" data-entity-1="ent0006" data-entity-2="ent0002" data-link-type="extension" data-source-line="7" id="lnk7"><path codeLine="7" d="M303.2293,400.0561 C268.7493,431.9661 242.1,456.64 212.68,483.87" fill="none" id="Clustering-backto-BinClustering" style="stroke:#181818;stroke-width:1;"/><polygon fill="none" points="316.44,387.83,299.1539,395.6525,307.3046,404.4596,316.44,387.83" style="stroke:#181818;stroke-width:1;"/></g><!--reverse link BinClustering to Group--><g class="link" data-entity-1="ent0002" data-entity-2="ent0008" data-link-type="composition" data-source-line="8" id="lnk9"><path codeLine="8" d="M184.1812,576.6151 C191.8512,604.3251 199,630.16 207.51,660.9" fill="none" id="BinClustering-backto-Group" style="stroke:#181818;stroke-width:1;"/><polygon fill="#181818" points="180.98,565.05,178.7255,571.8996,184.1812,576.6151,186.4356,569.7655,180.98,565.05" style="stroke:#181818;stroke-width:1;"/></g><!--reverse link Organizer to Clustering--><g class="link" data-entity-1="ent0010" data-entity-2="ent0006" data-link-type="extension" data-source-line="18" id="lnk12"><path codeLine="18" d="M548.745,186.8445 C525.265,206.2145 504.56,223.28 472.5,249.71" fill="none" id="Organizer-backto-Clustering" style="stroke:#181818;stroke-width:1;"/><polygon fill="none" points="562.63,175.39,544.9268,182.2162,552.5632,191.4729,562.63,175.39" style="stroke:#181818;stroke-width:1;"/></g><!--reverse link Clustering to Group--><g class="link" data-entity-1="ent0006" data-entity-2="ent0008" data-link-type="composition" data-source-line="19" id="lnk13"><path codeLine="19" d="M333.9958,397.7901 C322.0458,416.4801 316.69,427.12 308,447.48 C280.41,512.14 292.77,534.42 271,601.26 C264.57,621 256.26,642.09 248.37,660.79" fill="none" id="Clustering-backto-Group" style="stroke:#181818;stroke-width:1;"/><polygon fill="#181818" points="340.46,387.68,333.8579,390.5803,333.9958,397.7901,340.5979,394.8898,340.46,387.68" style="stroke:#181818;stroke-width:1;"/></g><!--reverse link Clustering to FactorizedClustering--><g class="link" data-entity-1="ent0006" data-entity-2="ent0014" data-link-type="extension" data-source-line="30" id="lnk15"><path codeLine="30" d="M431.7657,403.9566 C441.2257,423.0366 443.58,427.77 453.26,447.28" fill="none" id="Clustering-backto-FactorizedClustering" style="stroke:#181818;stroke-width:1;"/><polygon fill="none" points="423.77,387.83,426.3902,406.6219,437.1413,401.2914,423.77,387.83" style="stroke:#181818;stroke-width:1;"/></g><!--reverse link Organizer to Group--><g class="link" data-entity-1="ent0010" data-entity-2="ent0008" data-link-type="extension" data-source-line="37" id="lnk16"><path codeLine="37" d="M616.4439,190.5575 C662.8439,262.8375 779.84,470.34 674,601.26 C593.99,700.24 516.9,628.21 394,661.26 C388.12,662.85 382.15,664.51 376.12,666.23" fill="none" id="Organizer-backto-Group" style="stroke:#181818;stroke-width:1;"/><polygon fill="none" points="606.72,175.41,611.3947,193.7988,621.493,187.3162,606.72,175.41" style="stroke:#181818;stroke-width:1;"/></g><!--reverse link FactorizedClustering to SpatialClustering--><g class="link" data-entity-1="ent0014" data-entity-2="ent0017" data-link-type="extension" data-source-line="45" id="lnk18"><path codeLine="45" d="M515.9344,618.9932 C521.6044,640.2732 522.99,645.5 528.19,665.01" fill="none" id="FactorizedClustering-backto-SpatialClustering" style="stroke:#181818;stroke-width:1;"/><polygon fill="none" points="511.3,601.6,510.1366,620.538,521.7321,617.4484,511.3,601.6" style="stroke:#181818;stroke-width:1;"/></g><!--reverse link SpatialClustering to Segregation--><g class="link" data-entity-1="ent0017" data-entity-2="ent0019" data-link-type="composition" data-source-line="46" id="lnk21"><path codeLine="46" d="M624.585,777.6706 C671.195,810.8606 719.64,845.37 755.3,870.76" fill="none" id="SpatialClustering-backto-Segregation" style="stroke:#181818;stroke-width:1;"/><polygon fill="#181818" points="614.81,770.71,617.3773,777.4486,624.585,777.6706,622.0177,770.932,614.81,770.71" style="stroke:#181818;stroke-width:1;"/></g><!--reverse link Group to SubstituteGroup--><g class="link" data-entity-1="ent0008" data-entity-2="ent0022" data-link-type="extension" data-source-line="55" id="lnk23"><path codeLine="55" d="M223,792.77 C223,811.7 223,814.9 223,834.13" fill="none" id="Group-backto-SubstituteGroup" style="stroke:#181818;stroke-width:1;"/><polygon fill="none" points="223,774.77,217,792.77,229,792.77,223,774.77" style="stroke:#181818;stroke-width:1;"/></g><?plantuml-src hPDBJiCm48RtFeKb5hGazG4gLY31aaKFO3dnD1Z5Tl2ZKWlS7IUncgGa8JnMqSm_diny_dsDDGUjY0oVakIbjmwCK0L2UScidL39dL3tvmY_eIjQ6EqhkyMbi2w4NiLgu5lyM6le0qqqwtMwVTzi5lqJBHhiPhfREzFiaZ_Ua12Kd9DKPo-GEujNbT4L67TSewJjCKZr-lJpb5u0ovW5ycGAfiG9p2ofxp7z6wC7bZjjmaHyG2lPD_b0YulSDM2UcQK7LWfEepQW82nLsiYWduOS0X_nwc6Kvb2Yrai9e-q3pAG05wMLXNAVukOkKjoUNl_PdcCavjarU1jhIP0PcCvRZ7CQ3eRXgJjM40UELIckSpJiNvV5vB0aQ0QaFi2K_6jhBR34hc9EiFBYzLWe31H1qMgBTrtGUACdZbrRSrCqEz9G54hYCcqmSt6ZtfnRxilaQF6Abw-e7Oxq5vs7vZFhXFCEEbT4NqTNr9n67a7DgFP1b2AR67K-c90dsRLJpC8QJlm9?></g></svg>