<?plantuml 1.2026.2beta3?><svg xmlns="http://www.w3.org/2000/svg" xmlns:xlink="http://www.w3.org/1999/xlink" contentStyleType="text/css" data-diagram-type="CLASS" height="639px" preserveAspectRatio="none" style="width:630px;height:639px;background:#FFFFFF;" version="1.1" viewBox="0 0 630 639" width="630px" zoomAndPan="magnify"><defs/><g><!--cluster odeon--><g class="cluster" data-qualified-name="odeon" data-source-line="3" id="ent0003"><path d="M8.5,6 L58.2197,6 A3.75,3.75 0 0 1 60.7197,8.5 L67.7197,28.2969 L620.5,28.2969 A2.5,2.5 0 0 1 623,30.7969 L623,630.47 A2.5,2.5 0 0 1 620.5,632.97 L8.5,632.97 A2.5,2.5 0 0 1 6,630.47 L6,8.5 A2.5,2.5 0 0 1 8.5,6" fill="none" style="stroke:#000000;stroke-width:1.5;"/><line style="stroke:#000000;stroke-width:1.5;" x1="6" x2="67.7197" y1="28.2969" y2="28.2969"/><text fill="#000000" font-family="sans-serif" font-size="14" font-weight="bold" lengthAdjust="spacing" textLength="48.7197" x="10" y="20.9951">odeon</text></g><!--cluster model--><g class="cluster" data-qualified-name="odeon.model" data-source-line="3" id="ent0004"><path d="M32.5,49 L82.0215,49 A3.75,3.75 0 0 1 84.5215,51.5 L91.5215,71.2969 L596.5,71.2969 A2.5,2.5 0 0 1 599,73.7969 L599,606.47 A2.5,2.5 0 0 1 596.5,608.97 L32.5,608.97 A2.5,2.5 0 0 1 30,606.47 L30,51.5 A2.5,2.5 0 0 1 32.5,49" fill="none" style="stroke:#000000;stroke-width:1.5;"/><line style="stroke:#000000;stroke-width:1.5;" x1="30" x2="91.5215" y1="71.2969" y2="71.2969"/><text fill="#000000" font-family="sans-serif" font-size="14" font-weight="bold" lengthAdjust="spacing" textLength="48.5215" x="34" y="63.9951">model</text></g><!--cluster contract--><g class="cluster" data-qualified-name="odeon.model.contract" data-source-line="3" id="ent0005"><path d="M56.5,215 L123.4189,215 A3.75,3.75 0 0 1 125.9189,217.5 L132.9189,237.2969 L572.5,237.2969 A2.5,2.5 0 0 1 575,239.7969 L575,582.47 A2.5,2.5 0 0 1 572.5,584.97 L56.5,584.97 A2.5,2.5 0 0 1 54,582.47 L54,217.5 A2.5,2.5 0 0 1 56.5,215" fill="none" style="stroke:#000000;stroke-width:1.5;"/><line style="stroke:#000000;stroke-width:1.5;" x1="54" x2="132.9189" y1="237.2969" y2="237.2969"/><text fill="#000000" font-family="sans-serif" font-size="14" font-weight="bold" lengthAdjust="spacing" textLength="65.9189" x="58" y="229.9951">contract</text></g><!--cluster base--><g class="cluster" data-qualified-name="odeon.model.base" data-source-line="10" id="ent0007"><path d="M275.5,92 L313.7969,92 A3.75,3.75 0 0 1 316.2969,94.5 L323.2969,114.2969 L380.5,114.2969 A2.5,2.5 0 0 1 383,116.7969 L383,188.5 A2.5,2.5 0 0 1 380.5,191 L275.5,191 A2.5,2.5 0 0 1 273,188.5 L273,94.5 A2.5,2.5 0 0 1 275.5,92" fill="none" style="stroke:#000000;stroke-width:1.5;"/><line style="stroke:#000000;stroke-width:1.5;" x1="273" x2="323.2969" y1="114.2969" y2="114.2969"/><text fill="#000000" font-family="sans-serif" font-size="14" font-weight="bold" lengthAdjust="spacing" textLength="37.2969" x="277" y="106.9951">base</text></g><!--class Contract--><g class="entity" data-qualified-name="odeon.model.contract.Contract" data-source-line="3" id="ent0002"><rect fill="#F1F1F1" height="129.4844" rx="2.5" ry="2.5" style="stroke:#181818;stroke-width:0.5;" width="199.6807" x="228.16" y="250"/><ellipse cx="293.638" cy="266" fill="#ADD1B2" rx="11" ry="11" style="stroke:#181818;stroke-width:1;"/><path d="M296.6068,271.6406 Q296.0287,271.9375 295.388,272.0781 Q294.7474,272.2344 294.0443,272.2344 Q291.5443,272.2344 290.2162,270.5938 Q288.9037,268.9375 288.9037,265.8125 Q288.9037,262.6875 290.2162,261.0313 Q291.5443,259.375 294.0443,259.375 Q294.7474,259.375 295.388,259.5313 Q296.0443,259.6875 296.6068,259.9844 L296.6068,262.7031 Q295.9818,262.125 295.388,261.8594 Q294.7943,261.5781 294.1693,261.5781 Q292.8255,261.5781 292.138,262.6563 Q291.4505,263.7188 291.4505,265.8125 Q291.4505,267.9063 292.138,268.9844 Q292.8255,270.0469 294.1693,270.0469 Q294.7943,270.0469 295.388,269.7813 Q295.9818,269.5 296.6068,268.9219 L296.6068,271.6406 Z " fill="#000000"/><text fill="#000000" font-family="sans-serif" font-size="14" lengthAdjust="spacing" textLength="60.2246" x="314.138" y="270.8467">Contract</text><line style="stroke:#181818;stroke-width:0.5;" x1="229.16" x2="426.8407" y1="282" y2="282"/><g data-visibility-modifier="PUBLIC_FIELD"><ellipse cx="239.16" cy="295.6484" fill="none" rx="3" ry="3" style="stroke:#038048;stroke-width:1;"/></g><text fill="#000000" font-family="sans-serif" font-size="14" lengthAdjust="spacing" textLength="143.0898" x="248.16" y="298.9951">energy_price: Series</text><g data-visibility-modifier="PUBLIC_FIELD"><ellipse cx="239.16" cy="311.9453" fill="none" rx="3" ry="3" style="stroke:#038048;stroke-width:1;"/></g><text fill="#000000" font-family="sans-serif" font-size="14" lengthAdjust="spacing" textLength="121.6865" x="248.16" y="315.292">limit_power: float</text><g data-visibility-modifier="PUBLIC_FIELD"><ellipse cx="239.16" cy="328.2422" fill="none" rx="3" ry="3" style="stroke:#038048;stroke-width:1;"/></g><text fill="#000000" font-family="sans-serif" font-size="14" lengthAdjust="spacing" textLength="173.6807" x="248.16" y="331.5889">delivered_energy: Series</text><g data-visibility-modifier="PUBLIC_FIELD"><ellipse cx="239.16" cy="344.5391" fill="none" rx="3" ry="3" style="stroke:#038048;stroke-width:1;"/></g><text fill="#000000" font-family="sans-serif" font-size="14" lengthAdjust="spacing" textLength="137.293" x="248.16" y="347.8857">energy_cost: Series</text><g data-visibility-modifier="PUBLIC_FIELD"><ellipse cx="239.16" cy="360.8359" fill="none" rx="3" ry="3" style="stroke:#038048;stroke-width:1;"/></g><text fill="#000000" font-family="sans-serif" font-size="14" lengthAdjust="spacing" textLength="124.127" x="248.16" y="364.1826">contract_type: str</text><line style="stroke:#181818;stroke-width:0.5;" x1="229.16" x2="426.8407" y1="371.4844" y2="371.4844"/></g><!--class DeliveryContract--><g class="entity" data-qualified-name="odeon.model.contract.DeliveryContract" data-source-line="11" id="ent0009"><rect fill="#F1F1F1" height="80.5938" rx="2.5" ry="2.5" style="stroke:#181818;stroke-width:0.5;" width="254.1084" x="69.95" y="463.93"/><ellipse cx="133.5857" cy="479.93" fill="#ADD1B2" rx="11" ry="11" style="stroke:#181818;stroke-width:1;"/><path d="M136.5545,485.5706 Q135.9764,485.8675 135.3357,486.0081 Q134.6951,486.1644 133.992,486.1644 Q131.492,486.1644 130.1639,484.5238 Q128.8514,482.8675 128.8514,479.7425 Q128.8514,476.6175 130.1639,474.9613 Q131.492,473.305 133.992,473.305 Q134.6951,473.305 135.3357,473.4613 Q135.992,473.6175 136.5545,473.9144 L136.5545,476.6331 Q135.9295,476.055 135.3357,475.7894 Q134.742,475.5081 134.117,475.5081 Q132.7732,475.5081 132.0857,476.5863 Q131.3982,477.6488 131.3982,479.7425 Q131.3982,481.8363 132.0857,482.9144 Q132.7732,483.9769 134.117,483.9769 Q134.742,483.9769 135.3357,483.7113 Q135.9295,483.43 136.5545,482.8519 L136.5545,485.5706 Z " fill="#000000"/><text fill="#000000" font-family="sans-serif" font-size="14" lengthAdjust="spacing" textLength="118.3369" x="154.0857" y="484.7767">DeliveryContract</text><line style="stroke:#181818;stroke-width:0.5;" x1="70.95" x2="323.0584" y1="495.93" y2="495.93"/><g data-visibility-modifier="PUBLIC_FIELD"><ellipse cx="80.95" cy="509.5784" fill="none" rx="3" ry="3" style="stroke:#038048;stroke-width:1;"/></g><text fill="#000000" font-family="sans-serif" font-size="14" lengthAdjust="spacing" textLength="147.4717" x="89.95" y="512.9251">shutoff_time_hp: dict</text><g data-visibility-modifier="PUBLIC_FIELD"><ellipse cx="80.95" cy="525.8753" fill="none" rx="3" ry="3" style="stroke:#038048;stroke-width:1;"/></g><text fill="#000000" font-family="sans-serif" font-size="14" lengthAdjust="spacing" textLength="228.1084" x="89.95" y="529.222">shutoff_time_charging_pole: dict</text><line style="stroke:#181818;stroke-width:0.5;" x1="70.95" x2="323.0584" y1="536.5238" y2="536.5238"/></g><!--class FeedInContract--><g class="entity" data-qualified-name="odeon.model.contract.FeedInContract" data-source-line="16" id="ent0011"><rect fill="#F1F1F1" height="129.4844" rx="2.5" ry="2.5" style="stroke:#181818;stroke-width:0.5;" width="199.6807" x="359.16" y="439.49"/><ellipse cx="401.2896" cy="455.49" fill="#ADD1B2" rx="11" ry="11" style="stroke:#181818;stroke-width:1;"/><path d="M404.2584,461.1306 Q403.6803,461.4275 403.0396,461.5681 Q402.399,461.7244 401.6959,461.7244 Q399.1959,461.7244 397.8678,460.0838 Q396.5553,458.4275 396.5553,455.3025 Q396.5553,452.1775 397.8678,450.5213 Q399.1959,448.865 401.6959,448.865 Q402.399,448.865 403.0396,449.0213 Q403.6959,449.1775 404.2584,449.4744 L404.2584,452.1931 Q403.6334,451.615 403.0396,451.3494 Q402.4459,451.0681 401.8209,451.0681 Q400.4771,451.0681 399.7896,452.1463 Q399.1021,453.2088 399.1021,455.3025 Q399.1021,457.3963 399.7896,458.4744 Q400.4771,459.5369 401.8209,459.5369 Q402.4459,459.5369 403.0396,459.2713 Q403.6334,458.99 404.2584,458.4119 L404.2584,461.1306 Z " fill="#000000"/><text fill="#000000" font-family="sans-serif" font-size="14" lengthAdjust="spacing" textLength="107.3926" x="421.3184" y="460.3367">FeedInContract</text><line style="stroke:#181818;stroke-width:0.5;" x1="360.16" x2="557.8407" y1="471.49" y2="471.49"/><g data-visibility-modifier="PUBLIC_FIELD"><ellipse cx="370.16" cy="485.1384" fill="none" rx="3" ry="3" style="stroke:#038048;stroke-width:1;"/></g><text fill="#000000" font-family="sans-serif" font-size="14" lengthAdjust="spacing" textLength="143.0898" x="379.16" y="488.4851">energy_price: Series</text><g data-visibility-modifier="PUBLIC_FIELD"><ellipse cx="370.16" cy="501.4353" fill="none" rx="3" ry="3" style="stroke:#038048;stroke-width:1;"/></g><text fill="#000000" font-family="sans-serif" font-size="14" lengthAdjust="spacing" textLength="121.6865" x="379.16" y="504.782">limit_power: float</text><g data-visibility-modifier="PUBLIC_FIELD"><ellipse cx="370.16" cy="517.7322" fill="none" rx="3" ry="3" style="stroke:#038048;stroke-width:1;"/></g><text fill="#000000" font-family="sans-serif" font-size="14" lengthAdjust="spacing" textLength="173.6807" x="379.16" y="521.0789">delivered_energy: Series</text><g data-visibility-modifier="PUBLIC_FIELD"><ellipse cx="370.16" cy="534.0291" fill="none" rx="3" ry="3" style="stroke:#038048;stroke-width:1;"/></g><text fill="#000000" font-family="sans-serif" font-size="14" lengthAdjust="spacing" textLength="137.293" x="379.16" y="537.3757">energy_cost: Series</text><g data-visibility-modifier="PUBLIC_FIELD"><ellipse cx="370.16" cy="550.3259" fill="none" rx="3" ry="3" style="stroke:#038048;stroke-width:1;"/></g><text fill="#000000" font-family="sans-serif" font-size="14" lengthAdjust="spacing" textLength="124.127" x="379.16" y="553.6726">contract_type: str</text><line style="stroke:#181818;stroke-width:0.5;" x1="360.16" x2="557.8407" y1="560.9744" y2="560.9744"/></g><!--class Object--><g class="entity" data-qualified-name="odeon.model.base.Object" data-source-line="10" id="ent0006"><rect fill="#F1F1F1" height="48" rx="2.5" ry="2.5" style="stroke:#181818;stroke-width:0.5;" width="77.5957" x="289.2" y="127"/><ellipse cx="304.2" cy="143" fill="#ADD1B2" rx="11" ry="11" style="stroke:#181818;stroke-width:1;"/><path d="M307.1688,148.6406 Q306.5906,148.9375 305.95,149.0781 Q305.3094,149.2344 304.6063,149.2344 Q302.1063,149.2344 300.7781,147.5938 Q299.4656,145.9375 299.4656,142.8125 Q299.4656,139.6875 300.7781,138.0313 Q302.1063,136.375 304.6063,136.375 Q305.3094,136.375 305.95,136.5313 Q306.6063,136.6875 307.1688,136.9844 L307.1688,139.7031 Q306.5438,139.125 305.95,138.8594 Q305.3563,138.5781 304.7313,138.5781 Q303.3875,138.5781 302.7,139.6563 Q302.0125,140.7188 302.0125,142.8125 Q302.0125,144.9063 302.7,145.9844 Q303.3875,147.0469 304.7313,147.0469 Q305.3563,147.0469 305.95,146.7813 Q306.5438,146.5 307.1688,145.9219 L307.1688,148.6406 Z " fill="#000000"/><text fill="#000000" font-family="sans-serif" font-size="14" lengthAdjust="spacing" textLength="45.5957" x="318.2" y="147.8467">Object</text><line style="stroke:#181818;stroke-width:0.5;" x1="290.2" x2="365.7957" y1="159" y2="159"/><line style="stroke:#181818;stroke-width:0.5;" x1="290.2" x2="365.7957" y1="167" y2="167"/></g><!--reverse link Object to Contract--><g class="link" data-entity-1="ent0006" data-entity-2="ent0002" data-link-type="extension" data-source-line="10" id="lnk8"><path codeLine="10" d="M328,193.17 C328,212.65 328,223.45 328,249.76" fill="none" id="Object-backto-Contract" style="stroke:#181818;stroke-width:1;"/><polygon fill="none" points="328,175.17,322,193.17,334,193.17,328,175.17" style="stroke:#181818;stroke-width:1;"/></g><!--reverse link Contract to DeliveryContract--><g class="link" data-entity-1="ent0002" data-entity-2="ent0009" data-link-type="extension" data-source-line="15" id="lnk10"><path codeLine="15" d="M272.9694,394.4944 C253.5494,422.2844 241.73,439.22 224.74,463.53" fill="none" id="Contract-backto-DeliveryContract" style="stroke:#181818;stroke-width:1;"/><polygon fill="none" points="283.28,379.74,268.0513,391.0575,277.8876,397.9313,283.28,379.74" style="stroke:#181818;stroke-width:1;"/></g><!--reverse link Contract to FeedInContract--><g class="link" data-entity-1="ent0002" data-entity-2="ent0011" data-link-type="extension" data-source-line="23" id="lnk12"><path codeLine="23" d="M383.0268,394.497 C396.4368,413.697 400.85,420 414.26,439.2" fill="none" id="Contract-backto-FeedInContract" style="stroke:#181818;stroke-width:1;"/><polygon fill="none" points="372.72,379.74,378.1078,397.9326,387.9458,391.0614,372.72,379.74" style="stroke:#181818;stroke-width:1;"/></g><?plantuml-src pP5D3i8W48Ntd8ATYwOSe76dCN7bmWCG2jCMGu70g6dKkqlIcbf_chXpDMHuy-PxiA1EWREiJSKmwIm68P4GQKIC7-_OQZZG2yd0GgWxxeEMKD0z10sHP4Qt6hbtPmW5hOmJIB9aeKyGGF5-PbGF7j9579kFRHmxdvmZ1d8ZppYbYC1svG4IoFAQv_EiStdMFLdtd2isHtHLnL6tm1jVKAMJoRGj6n5gRUiKrC2Wc3A-FzbtqbUAEU8DWDhQ__Y7Np9EkUy0?></g></svg>