<?plantuml 1.2026.2beta3?><svg xmlns="http://www.w3.org/2000/svg" xmlns:xlink="http://www.w3.org/1999/xlink" contentStyleType="text/css" data-diagram-type="CLASS" height="672px" preserveAspectRatio="none" style="width:1167px;height:672px;background:#FFFFFF;" version="1.1" viewBox="0 0 1167 672" width="1167px" zoomAndPan="magnify"><defs/><g><!--cluster odeon--><g class="cluster" data-qualified-name="odeon" data-source-line="3" id="ent0003"><path d="M8.5,6 L58.2197,6 A3.75,3.75 0 0 1 60.7197,8.5 L67.7197,28.2969 L1157.5,28.2969 A2.5,2.5 0 0 1 1160,30.7969 L1160,663.06 A2.5,2.5 0 0 1 1157.5,665.56 L8.5,665.56 A2.5,2.5 0 0 1 6,663.06 L6,8.5 A2.5,2.5 0 0 1 8.5,6" fill="none" style="stroke:#000000;stroke-width:1.5;"/><line style="stroke:#000000;stroke-width:1.5;" x1="6" x2="67.7197" y1="28.2969" y2="28.2969"/><text fill="#000000" font-family="sans-serif" font-size="14" font-weight="bold" lengthAdjust="spacing" textLength="48.7197" x="10" y="20.9951">odeon</text></g><!--cluster model--><g class="cluster" data-qualified-name="odeon.model" data-source-line="3" id="ent0004"><path d="M32.5,49 L82.0215,49 A3.75,3.75 0 0 1 84.5215,51.5 L91.5215,71.2969 L1133.5,71.2969 A2.5,2.5 0 0 1 1136,73.7969 L1136,639.06 A2.5,2.5 0 0 1 1133.5,641.56 L32.5,641.56 A2.5,2.5 0 0 1 30,639.06 L30,51.5 A2.5,2.5 0 0 1 32.5,49" fill="none" style="stroke:#000000;stroke-width:1.5;"/><line style="stroke:#000000;stroke-width:1.5;" x1="30" x2="91.5215" y1="71.2969" y2="71.2969"/><text fill="#000000" font-family="sans-serif" font-size="14" font-weight="bold" lengthAdjust="spacing" textLength="48.5215" x="34" y="63.9951">model</text></g><!--cluster decision--><g class="cluster" data-qualified-name="odeon.model.decision" data-source-line="3" id="ent0005"><path d="M56.5,215 L122.8311,215 A3.75,3.75 0 0 1 125.3311,217.5 L132.3311,237.2969 L1109.5,237.2969 A2.5,2.5 0 0 1 1112,239.7969 L1112,615.06 A2.5,2.5 0 0 1 1109.5,617.56 L56.5,617.56 A2.5,2.5 0 0 1 54,615.06 L54,217.5 A2.5,2.5 0 0 1 56.5,215" fill="none" style="stroke:#000000;stroke-width:1.5;"/><line style="stroke:#000000;stroke-width:1.5;" x1="54" x2="132.3311" y1="237.2969" y2="237.2969"/><text fill="#000000" font-family="sans-serif" font-size="14" font-weight="bold" lengthAdjust="spacing" textLength="65.3311" x="58" y="229.9951">decision</text></g><!--cluster base--><g class="cluster" data-qualified-name="odeon.model.base" data-source-line="44" id="ent0013"><path d="M725.5,92 L763.7969,92 A3.75,3.75 0 0 1 766.2969,94.5 L773.2969,114.2969 L830.5,114.2969 A2.5,2.5 0 0 1 833,116.7969 L833,188.5 A2.5,2.5 0 0 1 830.5,191 L725.5,191 A2.5,2.5 0 0 1 723,188.5 L723,94.5 A2.5,2.5 0 0 1 725.5,92" fill="none" style="stroke:#000000;stroke-width:1.5;"/><line style="stroke:#000000;stroke-width:1.5;" x1="723" x2="773.2969" y1="114.2969" y2="114.2969"/><text fill="#000000" font-family="sans-serif" font-size="14" font-weight="bold" lengthAdjust="spacing" textLength="37.2969" x="727" y="106.9951">base</text></g><!--class DecisionState--><g class="entity" data-qualified-name="odeon.model.decision.DecisionState" data-source-line="3" id="ent0002"><rect fill="#F1F1F1" height="178.375" rx="2.5" ry="2.5" style="stroke:#181818;stroke-width:0.5;" width="313.7178" x="189.14" y="250"/><ellipse cx="293.4188" cy="266" fill="#EB937F" rx="11" ry="11" style="stroke:#181818;stroke-width:1;"/><path d="M297.5282,272 L289.8094,272 L289.8094,259.6094 L297.5282,259.6094 L297.5282,261.7656 L292.2626,261.7656 L292.2626,264.4375 L297.0282,264.4375 L297.0282,266.5937 L292.2626,266.5937 L292.2626,269.8437 L297.5282,269.8437 L297.5282,272 Z " fill="#000000"/><text fill="#000000" font-family="sans-serif" font-size="14" lengthAdjust="spacing" textLength="96.6602" x="313.9188" y="270.8467">DecisionState</text><line style="stroke:#181818;stroke-width:0.5;" x1="190.14" x2="501.8578" y1="282" y2="282"/><text fill="#000000" font-family="sans-serif" font-size="14" lengthAdjust="spacing" text-decoration="underline" textLength="85.1689" x="195.14" y="298.9951">FIXED: fixed</text><text fill="#000000" font-family="sans-serif" font-size="14" lengthAdjust="spacing" text-decoration="underline" textLength="301.7178" x="195.14" y="315.292">UNDECIDED_EXISTING: undecided_existing</text><text fill="#000000" font-family="sans-serif" font-size="14" lengthAdjust="spacing" text-decoration="underline" textLength="278.9473" x="195.14" y="331.5889">UNDECIDED_OPTION: undecided_option</text><text fill="#000000" font-family="sans-serif" font-size="14" lengthAdjust="spacing" text-decoration="underline" textLength="291.6416" x="195.14" y="347.8857">UNDECIDED_SCALING: undecided_scaling</text><text fill="#000000" font-family="sans-serif" font-size="14" lengthAdjust="spacing" text-decoration="underline" textLength="190.627" x="195.14" y="364.1826">DECIDED_FOR: decided_for</text><text fill="#000000" font-family="sans-serif" font-size="14" lengthAdjust="spacing" text-decoration="underline" textLength="256.2109" x="195.14" y="380.4795">DECIDED_AGAINST: decided_against</text><text fill="#000000" font-family="sans-serif" font-size="14" lengthAdjust="spacing" text-decoration="underline" textLength="253.1758" x="195.14" y="396.7764">DECIDED_SCALING: decided_scaling</text><text fill="#000000" font-family="sans-serif" font-size="14" lengthAdjust="spacing" text-decoration="underline" textLength="148.4902" x="195.14" y="413.0732">UNKNOWN: unknown</text><line style="stroke:#181818;stroke-width:0.5;" x1="190.14" x2="501.8578" y1="420.375" y2="420.375"/></g><!--class DecisionType--><g class="entity" data-qualified-name="odeon.model.decision.DecisionType" data-source-line="13" id="ent0006"><rect fill="#F1F1F1" height="113.1875" rx="2.5" ry="2.5" style="stroke:#181818;stroke-width:0.5;" width="334.9023" x="69.55" y="488.37"/><ellipse cx="185.7814" cy="504.37" fill="#EB937F" rx="11" ry="11" style="stroke:#181818;stroke-width:1;"/><path d="M189.8908,510.37 L182.1721,510.37 L182.1721,497.9794 L189.8908,497.9794 L189.8908,500.1356 L184.6252,500.1356 L184.6252,502.8075 L189.3908,502.8075 L189.3908,504.9637 L184.6252,504.9637 L184.6252,508.2137 L189.8908,508.2137 L189.8908,510.37 Z " fill="#000000"/><text fill="#000000" font-family="sans-serif" font-size="14" lengthAdjust="spacing" textLength="93.9395" x="206.2814" y="509.2167">DecisionType</text><line style="stroke:#181818;stroke-width:0.5;" x1="70.55" x2="403.4523" y1="520.37" y2="520.37"/><text fill="#000000" font-family="sans-serif" font-size="14" lengthAdjust="spacing" text-decoration="underline" textLength="198.3037" x="75.55" y="537.3651">INDEPENDENT: independent</text><text fill="#000000" font-family="sans-serif" font-size="14" lengthAdjust="spacing" text-decoration="underline" textLength="322.9023" x="75.55" y="553.662">INDEPENDENT_SCALING: independent_scaling</text><text fill="#000000" font-family="sans-serif" font-size="14" lengthAdjust="spacing" text-decoration="underline" textLength="147.0137" x="75.55" y="569.9589">ONLY_ONE: only_one</text><text fill="#000000" font-family="sans-serif" font-size="14" lengthAdjust="spacing" text-decoration="underline" textLength="293.9316" x="75.55" y="586.2557">LINEAR_COMPETITION: linear_competition</text><line style="stroke:#181818;stroke-width:0.5;" x1="70.55" x2="403.4523" y1="593.5575" y2="593.5575"/></g><!--class AssetDecision--><g class="entity" data-qualified-name="odeon.model.decision.AssetDecision" data-source-line="19" id="ent0007"><rect fill="#F1F1F1" height="88.5938" rx="2.5" ry="2.5" style="stroke:#181818;stroke-width:0.5;" width="195.873" x="439.06" y="500.67"/><ellipse cx="483.8115" cy="516.67" fill="#ADD1B2" rx="11" ry="11" style="stroke:#181818;stroke-width:1;"/><path d="M486.7802,522.3106 Q486.2021,522.6075 485.5615,522.7481 Q484.9208,522.9044 484.2177,522.9044 Q481.7177,522.9044 480.3896,521.2638 Q479.0771,519.6075 479.0771,516.4825 Q479.0771,513.3575 480.3896,511.7012 Q481.7177,510.045 484.2177,510.045 Q484.9208,510.045 485.5615,510.2012 Q486.2177,510.3575 486.7802,510.6544 L486.7802,513.3731 Q486.1552,512.795 485.5615,512.5294 Q484.9677,512.2481 484.3427,512.2481 Q482.999,512.2481 482.3115,513.3263 Q481.624,514.3888 481.624,516.4825 Q481.624,518.5763 482.3115,519.6544 Q482.999,520.7169 484.3427,520.7169 Q484.9677,520.7169 485.5615,520.4513 Q486.1552,520.17 486.7802,519.5919 L486.7802,522.3106 Z " fill="#000000"/><text fill="#000000" font-family="sans-serif" font-size="14" lengthAdjust="spacing" textLength="97.8701" x="504.3115" y="521.5167">AssetDecision</text><line style="stroke:#181818;stroke-width:0.5;" x1="440.06" x2="633.933" y1="532.67" y2="532.67"/><line style="stroke:#181818;stroke-width:1;stroke-dasharray:1,2;" x1="440.06" x2="633.933" y1="540.67" y2="540.67"/><g data-visibility-modifier="PUBLIC_METHOD"><ellipse cx="450.06" cy="554.3184" fill="#84BE84" rx="3" ry="3" style="stroke:#038048;stroke-width:1;"/></g><text fill="#000000" font-family="sans-serif" font-size="14" lengthAdjust="spacing" textLength="128.8916" x="459.06" y="557.6651">devices (property)</text><line style="stroke:#181818;stroke-width:0.5;" x1="440.06" x2="633.933" y1="564.9669" y2="564.9669"/><g data-visibility-modifier="PUBLIC_METHOD"><ellipse cx="450.06" cy="578.6153" fill="#84BE84" rx="3" ry="3" style="stroke:#038048;stroke-width:1;"/></g><text fill="#000000" font-family="sans-serif" font-size="14" lengthAdjust="spacing" textLength="169.873" x="459.06" y="581.962">add_device(self, device)</text></g><!--class Decision--><g class="entity" data-qualified-name="odeon.model.decision.Decision" data-source-line="25" id="ent0008"><rect fill="#F1F1F1" height="170.0781" rx="2.5" ry="2.5" style="stroke:#181818;stroke-width:0.5;" width="244.4492" x="655.78" y="254.15"/><ellipse cx="743.9533" cy="270.15" fill="#ADD1B2" rx="11" ry="11" style="stroke:#181818;stroke-width:1;"/><path d="M746.9221,275.7906 Q746.344,276.0875 745.7033,276.2281 Q745.0627,276.3844 744.3596,276.3844 Q741.8596,276.3844 740.5315,274.7437 Q739.219,273.0875 739.219,269.9625 Q739.219,266.8375 740.5315,265.1812 Q741.8596,263.525 744.3596,263.525 Q745.0627,263.525 745.7033,263.6812 Q746.3596,263.8375 746.9221,264.1344 L746.9221,266.8531 Q746.2971,266.275 745.7033,266.0094 Q745.1096,265.7281 744.4846,265.7281 Q743.1408,265.7281 742.4533,266.8062 Q741.7658,267.8687 741.7658,269.9625 Q741.7658,272.0562 742.4533,273.1344 Q743.1408,274.1969 744.4846,274.1969 Q745.1096,274.1969 745.7033,273.9312 Q746.2971,273.65 746.9221,273.0719 L746.9221,275.7906 Z " fill="#000000"/><text fill="#000000" font-family="sans-serif" font-size="14" lengthAdjust="spacing" textLength="59.6025" x="764.4533" y="274.9967">Decision</text><line style="stroke:#181818;stroke-width:0.5;" x1="656.78" x2="899.2292" y1="286.15" y2="286.15"/><g data-visibility-modifier="PROTECTED_FIELD"><polygon fill="none" points="666.78,294.7984,670.78,298.7984,666.78,302.7984,662.78,298.7984" style="stroke:#B38D22;stroke-width:1;"/></g><text fill="#000000" font-family="sans-serif" font-size="14" lengthAdjust="spacing" textLength="143.6846" x="675.78" y="303.1451">_objects: list[Object]</text><g data-visibility-modifier="PROTECTED_FIELD"><polygon fill="none" points="666.78,311.0953,670.78,315.0953,666.78,319.0953,662.78,315.0953" style="stroke:#B38D22;stroke-width:1;"/></g><text fill="#000000" font-family="sans-serif" font-size="14" lengthAdjust="spacing" textLength="141.3809" x="675.78" y="319.442">_type: DecisionType</text><g data-visibility-modifier="PUBLIC_FIELD"><ellipse cx="666.78" cy="332.3922" fill="none" rx="3" ry="3" style="stroke:#038048;stroke-width:1;"/></g><text fill="#000000" font-family="sans-serif" font-size="14" lengthAdjust="spacing" textLength="94.5479" x="675.78" y="335.7389">decided: bool</text><line style="stroke:#181818;stroke-width:1;stroke-dasharray:1,2;" x1="656.78" x2="899.2292" y1="343.0406" y2="343.0406"/><g data-visibility-modifier="PUBLIC_METHOD"><ellipse cx="666.78" cy="356.6891" fill="#84BE84" rx="3" ry="3" style="stroke:#038048;stroke-width:1;"/></g><text fill="#000000" font-family="sans-serif" font-size="14" lengthAdjust="spacing" textLength="130.833" x="675.78" y="360.0357">existing (property)</text><g data-visibility-modifier="PUBLIC_METHOD"><ellipse cx="666.78" cy="372.9859" fill="#84BE84" rx="3" ry="3" style="stroke:#038048;stroke-width:1;"/></g><text fill="#000000" font-family="sans-serif" font-size="14" lengthAdjust="spacing" textLength="113.8867" x="675.78" y="376.3326">type_ (property)</text><line style="stroke:#181818;stroke-width:0.5;" x1="656.78" x2="899.2292" y1="383.6344" y2="383.6344"/><g data-visibility-modifier="PROTECTED_METHOD"><polygon fill="#FFFF44" points="666.78,392.2828,670.78,396.2828,666.78,400.2828,662.78,396.2828" style="stroke:#B38D22;stroke-width:1;"/></g><text fill="#000000" font-family="sans-serif" font-size="14" lengthAdjust="spacing" textLength="171.1855" x="675.78" y="400.6295">_add_object(self, object)</text><g data-visibility-modifier="PUBLIC_METHOD"><ellipse cx="666.78" cy="413.5797" fill="#84BE84" rx="3" ry="3" style="stroke:#038048;stroke-width:1;"/></g><text fill="#000000" font-family="sans-serif" font-size="14" lengthAdjust="spacing" textLength="218.4492" x="675.78" y="416.9264">set_existing(self, object, value)</text></g><!--class BuildingDecision--><g class="entity" data-qualified-name="odeon.model.decision.BuildingDecision" data-source-line="26" id="ent0010"><rect fill="#F1F1F1" height="88.5938" rx="2.5" ry="2.5" style="stroke:#181818;stroke-width:0.5;" width="216.0527" x="669.97" y="500.67"/><ellipse cx="715.5486" cy="516.67" fill="#ADD1B2" rx="11" ry="11" style="stroke:#181818;stroke-width:1;"/><path d="M718.5174,522.3106 Q717.9392,522.6075 717.2986,522.7481 Q716.658,522.9044 715.9549,522.9044 Q713.4549,522.9044 712.1267,521.2638 Q710.8142,519.6075 710.8142,516.4825 Q710.8142,513.3575 712.1267,511.7012 Q713.4549,510.045 715.9549,510.045 Q716.658,510.045 717.2986,510.2012 Q717.9549,510.3575 718.5174,510.6544 L718.5174,513.3731 Q717.8924,512.795 717.2986,512.5294 Q716.7049,512.2481 716.0799,512.2481 Q714.7361,512.2481 714.0486,513.3263 Q713.3611,514.3888 713.3611,516.4825 Q713.3611,518.5763 714.0486,519.6544 Q714.7361,520.7169 716.0799,520.7169 Q716.7049,520.7169 717.2986,520.4513 Q717.8924,520.17 718.5174,519.5919 L718.5174,522.3106 Z " fill="#000000"/><text fill="#000000" font-family="sans-serif" font-size="14" lengthAdjust="spacing" textLength="116.3955" x="736.0486" y="521.5167">BuildingDecision</text><line style="stroke:#181818;stroke-width:0.5;" x1="670.97" x2="885.0227" y1="532.67" y2="532.67"/><line style="stroke:#181818;stroke-width:1;stroke-dasharray:1,2;" x1="670.97" x2="885.0227" y1="540.67" y2="540.67"/><g data-visibility-modifier="PUBLIC_METHOD"><ellipse cx="680.97" cy="554.3184" fill="#84BE84" rx="3" ry="3" style="stroke:#038048;stroke-width:1;"/></g><text fill="#000000" font-family="sans-serif" font-size="14" lengthAdjust="spacing" textLength="138.9814" x="689.97" y="557.6651">buildings (property)</text><line style="stroke:#181818;stroke-width:0.5;" x1="670.97" x2="885.0227" y1="564.9669" y2="564.9669"/><g data-visibility-modifier="PUBLIC_METHOD"><ellipse cx="680.97" cy="578.6153" fill="#84BE84" rx="3" ry="3" style="stroke:#038048;stroke-width:1;"/></g><text fill="#000000" font-family="sans-serif" font-size="14" lengthAdjust="spacing" textLength="190.0527" x="689.97" y="581.962">add_building(self, building)</text></g><!--class Object--><g class="entity" data-qualified-name="odeon.model.decision.Object" data-source-line="45" id="ent0015"><rect fill="#F1F1F1" height="48" rx="2.5" ry="2.5" style="stroke:#181818;stroke-width:0.5;" width="77.5957" x="921.2" y="520.97"/><ellipse cx="936.2" cy="536.97" fill="#ADD1B2" rx="11" ry="11" style="stroke:#181818;stroke-width:1;"/><path d="M939.1688,542.6106 Q938.5906,542.9075 937.95,543.0481 Q937.3094,543.2044 936.6063,543.2044 Q934.1063,543.2044 932.7781,541.5637 Q931.4656,539.9075 931.4656,536.7825 Q931.4656,533.6575 932.7781,532.0012 Q934.1063,530.345 936.6063,530.345 Q937.3094,530.345 937.95,530.5012 Q938.6063,530.6575 939.1688,530.9544 L939.1688,533.6731 Q938.5438,533.095 937.95,532.8294 Q937.3563,532.5481 936.7313,532.5481 Q935.3875,532.5481 934.7,533.6262 Q934.0125,534.6887 934.0125,536.7825 Q934.0125,538.8762 934.7,539.9544 Q935.3875,541.0169 936.7313,541.0169 Q937.3563,541.0169 937.95,540.7512 Q938.5438,540.47 939.1688,539.8919 L939.1688,542.6106 Z " fill="#000000"/><text fill="#000000" font-family="sans-serif" font-size="14" lengthAdjust="spacing" textLength="45.5957" x="950.2" y="541.8167">Object</text><line style="stroke:#181818;stroke-width:0.5;" x1="922.2" x2="997.7957" y1="552.97" y2="552.97"/><line style="stroke:#181818;stroke-width:0.5;" x1="922.2" x2="997.7957" y1="560.97" y2="560.97"/></g><!--class bool--><g class="entity" data-qualified-name="odeon.model.decision.bool" data-source-line="47" id="ent0018"><rect fill="#F1F1F1" height="48" rx="2.5" ry="2.5" style="stroke:#181818;stroke-width:0.5;" width="61.9072" x="1034.05" y="520.97"/><ellipse cx="1049.05" cy="536.97" fill="#ADD1B2" rx="11" ry="11" style="stroke:#181818;stroke-width:1;"/><path d="M1052.0188,542.6106 Q1051.4406,542.9075 1050.8,543.0481 Q1050.1594,543.2044 1049.4563,543.2044 Q1046.9563,543.2044 1045.6281,541.5637 Q1044.3156,539.9075 1044.3156,536.7825 Q1044.3156,533.6575 1045.6281,532.0012 Q1046.9563,530.345 1049.4563,530.345 Q1050.1594,530.345 1050.8,530.5012 Q1051.4563,530.6575 1052.0188,530.9544 L1052.0188,533.6731 Q1051.3938,533.095 1050.8,532.8294 Q1050.2063,532.5481 1049.5813,532.5481 Q1048.2375,532.5481 1047.55,533.6262 Q1046.8625,534.6887 1046.8625,536.7825 Q1046.8625,538.8762 1047.55,539.9544 Q1048.2375,541.0169 1049.5813,541.0169 Q1050.2063,541.0169 1050.8,540.7512 Q1051.3938,540.47 1052.0188,539.8919 L1052.0188,542.6106 Z " fill="#000000"/><text fill="#000000" font-family="sans-serif" font-size="14" lengthAdjust="spacing" textLength="29.9072" x="1063.05" y="541.8167">bool</text><line style="stroke:#181818;stroke-width:0.5;" x1="1035.05" x2="1094.9572" y1="552.97" y2="552.97"/><line style="stroke:#181818;stroke-width:0.5;" x1="1035.05" x2="1094.9572" y1="560.97" y2="560.97"/></g><!--class Object--><g class="entity" data-qualified-name="odeon.model.base.Object" data-source-line="44" id="ent0012"><rect fill="#F1F1F1" height="48" rx="2.5" ry="2.5" style="stroke:#181818;stroke-width:0.5;" width="77.5957" x="739.2" y="127"/><ellipse cx="754.2" cy="143" fill="#ADD1B2" rx="11" ry="11" style="stroke:#181818;stroke-width:1;"/><path d="M757.1688,148.6406 Q756.5906,148.9375 755.95,149.0781 Q755.3094,149.2344 754.6063,149.2344 Q752.1063,149.2344 750.7781,147.5938 Q749.4656,145.9375 749.4656,142.8125 Q749.4656,139.6875 750.7781,138.0313 Q752.1063,136.375 754.6063,136.375 Q755.3094,136.375 755.95,136.5313 Q756.6063,136.6875 757.1688,136.9844 L757.1688,139.7031 Q756.5438,139.125 755.95,138.8594 Q755.3563,138.5781 754.7313,138.5781 Q753.3875,138.5781 752.7,139.6563 Q752.0125,140.7188 752.0125,142.8125 Q752.0125,144.9063 752.7,145.9844 Q753.3875,147.0469 754.7313,147.0469 Q755.3563,147.0469 755.95,146.7813 Q756.5438,146.5 757.1688,145.9219 L757.1688,148.6406 Z " fill="#000000"/><text fill="#000000" font-family="sans-serif" font-size="14" lengthAdjust="spacing" textLength="45.5957" x="768.2" y="147.8467">Object</text><line style="stroke:#181818;stroke-width:0.5;" x1="740.2" x2="815.7957" y1="159" y2="159"/><line style="stroke:#181818;stroke-width:0.5;" x1="740.2" x2="815.7957" y1="167" y2="167"/></g><!--reverse link Decision to AssetDecision--><g class="link" data-entity-1="ent0008" data-entity-2="ent0007" data-link-type="extension" data-source-line="25" id="lnk9"><path codeLine="25" d="M664.495,436.1622 C633.675,462.2222 614.73,478.24 588.57,500.36" fill="none" id="Decision-backto-AssetDecision" style="stroke:#181818;stroke-width:1;"/><polygon fill="none" points="678.24,424.54,660.6209,431.5805,668.369,440.7438,678.24,424.54" style="stroke:#181818;stroke-width:1;"/></g><!--reverse link Decision to BuildingDecision--><g class="link" data-entity-1="ent0008" data-entity-2="ent0010" data-link-type="extension" data-source-line="32" id="lnk11"><path codeLine="32" d="M778,442.54 C778,468.6 778,478.24 778,500.36" fill="none" id="Decision-backto-BuildingDecision" style="stroke:#181818;stroke-width:1;"/><polygon fill="none" points="778,424.54,772,442.54,784,442.54,778,424.54" style="stroke:#181818;stroke-width:1;"/></g><!--reverse link Object to Decision--><g class="link" data-entity-1="ent0012" data-entity-2="ent0008" data-link-type="extension" data-source-line="44" id="lnk14"><path codeLine="44" d="M778,193.2 C778,213.09 778,225 778,253.79" fill="none" id="Object-backto-Decision" style="stroke:#181818;stroke-width:1;"/><polygon fill="none" points="778,175.2,772,193.2,784,193.2,778,175.2" style="stroke:#181818;stroke-width:1;"/></g><!--reverse link Decision to Object--><g class="link" data-entity-1="ent0008" data-entity-2="ent0015" data-link-type="composition" data-source-line="45" id="lnk16"><path codeLine="45" d="M861.3337,433.4899 C892.4337,468.3099 918.05,497 939.06,520.52" fill="none" id="Decision-backto-Object" style="stroke:#181818;stroke-width:1;"/><polygon fill="#181818" points="853.34,424.54,854.3536,431.6795,861.3337,433.4899,860.3202,426.3504,853.34,424.54" style="stroke:#181818;stroke-width:1;"/></g><!--reverse link Decision to DecisionType--><g class="link" data-entity-1="ent0008" data-entity-2="ent0006" data-link-type="composition" data-source-line="46" id="lnk17"><path codeLine="46" d="M644.35,390.5293 C564.24,420.6993 470.32,456.08 385.45,488.05" fill="none" id="Decision-backto-DecisionType" style="stroke:#181818;stroke-width:1;"/><polygon fill="#181818" points="655.58,386.3,648.5552,384.6713,644.35,390.5293,651.3748,392.158,655.58,386.3" style="stroke:#181818;stroke-width:1;"/></g><!--reverse link Decision to bool--><g class="link" data-entity-1="ent0008" data-entity-2="ent0018" data-link-type="composition" data-source-line="47" id="lnk19"><path codeLine="47" d="M910.682,413.2667 C949.312,436.7667 980.8,458.57 1016,488.37 C1027.29,497.93 1038.33,510.12 1047.06,520.65" fill="none" id="Decision-backto-bool" style="stroke:#181818;stroke-width:1;"/><polygon fill="#181818" points="900.43,407.03,903.4771,413.5657,910.682,413.2667,907.6349,406.731,900.43,407.03" style="stroke:#181818;stroke-width:1;"/></g><?plantuml-src fLHTJuCm57tdLpJnmOyfFu3uWWCDKSlYC6gCQJfwPwfTIzPENUR-kmN6H0Gq-bAulUVsddDkOHSf1agwC_iGBeEKQwwauu1Sp5fJRh1v6Hjg0AsSrPI3OEkLjZ5FrwVHRHXuQChVW3LprpW8Xr4G1YIyZSP9XCyyj93voGmOWJUk3PUFtLNnA8bYNAzHcSdfTbQCX_v5eurEgMZfKbMSnbSUgh1JDU_2-MT-XCV99vO-KYwrwS9lcVp0ungVu_Yc4FairQjqrh-OHRBCMaOHMHj6eLsmfScj0HdOHPeUt2VD6hwBQemlxaYCGmyfAPP4IMWYx56XVqM6yUKeJA9oUFOae7EIgba6XXVZMpkfe5gtQ_Ir1bC9jI9TrnamUE4fQBINpLK6SxFSTmXn1fGnKgRsD8Zf8Ig3VTkWrpvq_7vqz8lkVJHF5bmmQrA3wMIptSgrIcxOLk5_-3Pfz56kKTqXQl84gT7vVBIvZulemUuRUxKyLBzekVt55VRGH2bHoAo-tRhAGLvA6hftI2wyRBQHNGOMRvtU_WI-v0xH2nMBRtESK0rkoRJ7aQqJ_HuSTDMN3VvQ_SMuFvwHk_m1?></g></svg>