<?plantuml 1.2026.2beta3?><svg xmlns="http://www.w3.org/2000/svg" xmlns:xlink="http://www.w3.org/1999/xlink" contentStyleType="text/css" data-diagram-type="CLASS" height="958px" preserveAspectRatio="none" style="width:1030px;height:958px;background:#FFFFFF;" version="1.1" viewBox="0 0 1030 958" width="1030px" zoomAndPan="magnify"><defs/><g><!--cluster odeon--><g class="cluster" data-qualified-name="odeon" data-source-line="3" id="ent0003"><path d="M8.5,6 L58.2197,6 A3.75,3.75 0 0 1 60.7197,8.5 L67.7197,28.2969 L1020.5,28.2969 A2.5,2.5 0 0 1 1023,30.7969 L1023,948.73 A2.5,2.5 0 0 1 1020.5,951.23 L8.5,951.23 A2.5,2.5 0 0 1 6,948.73 L6,8.5 A2.5,2.5 0 0 1 8.5,6" fill="none" style="stroke:#000000;stroke-width:1.5;"/><line style="stroke:#000000;stroke-width:1.5;" x1="6" x2="67.7197" y1="28.2969" y2="28.2969"/><text fill="#000000" font-family="sans-serif" font-size="14" font-weight="bold" lengthAdjust="spacing" textLength="48.7197" x="10" y="20.9951">odeon</text></g><!--cluster model--><g class="cluster" data-qualified-name="odeon.model" data-source-line="3" id="ent0004"><path d="M32.5,49 L82.0215,49 A3.75,3.75 0 0 1 84.5215,51.5 L91.5215,71.2969 L996.5,71.2969 A2.5,2.5 0 0 1 999,73.7969 L999,924.73 A2.5,2.5 0 0 1 996.5,927.23 L32.5,927.23 A2.5,2.5 0 0 1 30,924.73 L30,51.5 A2.5,2.5 0 0 1 32.5,49" fill="none" style="stroke:#000000;stroke-width:1.5;"/><line style="stroke:#000000;stroke-width:1.5;" x1="30" x2="91.5215" y1="71.2969" y2="71.2969"/><text fill="#000000" font-family="sans-serif" font-size="14" font-weight="bold" lengthAdjust="spacing" textLength="48.5215" x="34" y="63.9951">model</text></g><!--cluster district_electricity_grid--><g class="cluster" data-qualified-name="odeon.model.district_electricity_grid" data-source-line="3" id="ent0005"><path d="M56.5,215 L239.1855,215 A3.75,3.75 0 0 1 241.6855,217.5 L248.6855,237.2969 L972.5,237.2969 A2.5,2.5 0 0 1 975,239.7969 L975,777.73 A2.5,2.5 0 0 1 972.5,780.23 L56.5,780.23 A2.5,2.5 0 0 1 54,777.73 L54,217.5 A2.5,2.5 0 0 1 56.5,215" fill="none" style="stroke:#000000;stroke-width:1.5;"/><line style="stroke:#000000;stroke-width:1.5;" x1="54" x2="248.6855" y1="237.2969" y2="237.2969"/><text fill="#000000" font-family="sans-serif" font-size="14" font-weight="bold" lengthAdjust="spacing" textLength="181.6855" x="58" y="229.9951">district_electricity_grid</text></g><!--cluster energy_network--><g class="cluster" data-qualified-name="odeon.model.energy_network" data-source-line="16" id="ent0007"><path d="M93.5,92 L221.4297,92 A3.75,3.75 0 0 1 223.9297,94.5 L230.9297,114.2969 L785.5,114.2969 A2.5,2.5 0 0 1 788,116.7969 L788,188.5 A2.5,2.5 0 0 1 785.5,191 L93.5,191 A2.5,2.5 0 0 1 91,188.5 L91,94.5 A2.5,2.5 0 0 1 93.5,92" fill="none" style="stroke:#000000;stroke-width:1.5;"/><line style="stroke:#000000;stroke-width:1.5;" x1="91" x2="230.9297" y1="114.2969" y2="114.2969"/><text fill="#000000" font-family="sans-serif" font-size="14" font-weight="bold" lengthAdjust="spacing" textLength="126.9297" x="95" y="106.9951">energy_network</text></g><!--cluster temporal--><g class="cluster" data-qualified-name="odeon.model.temporal" data-source-line="18" id="ent0012"><path d="M467.5,804.23 L540.0654,804.23 A3.75,3.75 0 0 1 542.5654,806.73 L549.5654,826.5269 L592.5,826.5269 A2.5,2.5 0 0 1 595,829.0269 L595,900.73 A2.5,2.5 0 0 1 592.5,903.23 L467.5,903.23 A2.5,2.5 0 0 1 465,900.73 L465,806.73 A2.5,2.5 0 0 1 467.5,804.23" fill="none" style="stroke:#000000;stroke-width:1.5;"/><line style="stroke:#000000;stroke-width:1.5;" x1="465" x2="549.5654" y1="826.5269" y2="826.5269"/><text fill="#000000" font-family="sans-serif" font-size="14" font-weight="bold" lengthAdjust="spacing" textLength="71.5654" x="469" y="819.2251">temporal</text></g><!--class DegCable--><g class="entity" data-qualified-name="odeon.model.district_electricity_grid.DegCable" data-source-line="3" id="ent0002"><rect fill="#F1F1F1" height="202.6719" rx="2.5" ry="2.5" style="stroke:#181818;stroke-width:0.5;" width="458.9883" x="69.51" y="561.56"/><ellipse cx="260.7419" cy="577.56" fill="#ADD1B2" rx="11" ry="11" style="stroke:#181818;stroke-width:1;"/><path d="M263.7107,583.2006 Q263.1326,583.4975 262.4919,583.6381 Q261.8513,583.7944 261.1482,583.7944 Q258.6482,583.7944 257.3201,582.1538 Q256.0076,580.4975 256.0076,577.3725 Q256.0076,574.2475 257.3201,572.5913 Q258.6482,570.935 261.1482,570.935 Q261.8513,570.935 262.4919,571.0913 Q263.1482,571.2475 263.7107,571.5444 L263.7107,574.2631 Q263.0857,573.685 262.4919,573.4194 Q261.8982,573.1381 261.2732,573.1381 Q259.9294,573.1381 259.2419,574.2163 Q258.5544,575.2788 258.5544,577.3725 Q258.5544,579.4663 259.2419,580.5444 Q259.9294,581.6069 261.2732,581.6069 Q261.8982,581.6069 262.4919,581.3413 Q263.0857,581.06 263.7107,580.4819 L263.7107,583.2006 Z " fill="#000000"/><text fill="#000000" font-family="sans-serif" font-size="14" lengthAdjust="spacing" textLength="68.0244" x="281.2419" y="582.4067">DegCable</text><line style="stroke:#181818;stroke-width:0.5;" x1="70.51" x2="527.4983" y1="593.56" y2="593.56"/><g data-visibility-modifier="PROTECTED_FIELD"><polygon fill="none" points="80.51,602.2084,84.51,606.2084,80.51,610.2084,76.51,606.2084" style="stroke:#B38D22;stroke-width:1;"/></g><text fill="#000000" font-family="sans-serif" font-size="14" lengthAdjust="spacing" textLength="432.9883" x="89.51" y="610.5551">_lineload_percent: &lt;class 'odeon.model.temporal.Temporal'&gt;</text><g data-visibility-modifier="PUBLIC_FIELD"><ellipse cx="80.51" cy="623.5053" fill="none" rx="3" ry="3" style="stroke:#038048;stroke-width:1;"/></g><text fill="#000000" font-family="sans-serif" font-size="14" lengthAdjust="spacing" textLength="149.8643" x="89.51" y="626.852">parallel: &lt;class 'int'&gt;</text><g data-visibility-modifier="PUBLIC_FIELD"><ellipse cx="80.51" cy="639.8022" fill="none" rx="3" ry="3" style="stroke:#038048;stroke-width:1;"/></g><text fill="#000000" font-family="sans-serif" font-size="14" lengthAdjust="spacing" textLength="136.3428" x="89.51" y="643.1489">type_: &lt;class 'str'&gt;</text><g data-visibility-modifier="PUBLIC_FIELD"><ellipse cx="80.51" cy="656.0991" fill="none" rx="3" ry="3" style="stroke:#038048;stroke-width:1;"/></g><text fill="#000000" font-family="sans-serif" font-size="14" lengthAdjust="spacing" textLength="199.541" x="89.51" y="659.4457">max_current: &lt;class 'float'&gt;</text><g data-visibility-modifier="PUBLIC_FIELD"><ellipse cx="80.51" cy="672.3959" fill="none" rx="3" ry="3" style="stroke:#038048;stroke-width:1;"/></g><text fill="#000000" font-family="sans-serif" font-size="14" lengthAdjust="spacing" textLength="213.8145" x="89.51" y="675.7426">r_ohm_per_km: &lt;class 'float'&gt;</text><g data-visibility-modifier="PUBLIC_FIELD"><ellipse cx="80.51" cy="688.6928" fill="none" rx="3" ry="3" style="stroke:#038048;stroke-width:1;"/></g><text fill="#000000" font-family="sans-serif" font-size="14" lengthAdjust="spacing" textLength="216.3438" x="89.51" y="692.0395">x_ohm_per_km: &lt;class 'float'&gt;</text><g data-visibility-modifier="PUBLIC_FIELD"><ellipse cx="80.51" cy="704.9897" fill="none" rx="3" ry="3" style="stroke:#038048;stroke-width:1;"/></g><text fill="#000000" font-family="sans-serif" font-size="14" lengthAdjust="spacing" textLength="198.4814" x="89.51" y="708.3364">c_nf_per_km: &lt;class 'float'&gt;</text><g data-visibility-modifier="PUBLIC_FIELD"><ellipse cx="80.51" cy="721.2866" fill="none" rx="3" ry="3" style="stroke:#038048;stroke-width:1;"/></g><text fill="#000000" font-family="sans-serif" font-size="14" lengthAdjust="spacing" textLength="176.0596" x="89.51" y="724.6332">max_i_ka: &lt;class 'float'&gt;</text><line style="stroke:#181818;stroke-width:1;stroke-dasharray:1,2;" x1="70.51" x2="527.4983" y1="731.935" y2="731.935"/><g data-visibility-modifier="PUBLIC_METHOD"><ellipse cx="80.51" cy="745.5834" fill="#84BE84" rx="3" ry="3" style="stroke:#038048;stroke-width:1;"/></g><text fill="#000000" font-family="sans-serif" font-size="14" lengthAdjust="spacing" textLength="191.7275" x="89.51" y="748.9301">lineload_percent (property)</text><line style="stroke:#181818;stroke-width:0.5;" x1="70.51" x2="527.4983" y1="756.2319" y2="756.2319"/></g><!--class DegObject--><g class="entity" data-qualified-name="odeon.model.district_electricity_grid.DegObject" data-source-line="17" id="ent0009"><rect fill="#F1F1F1" height="48" rx="2.5" ry="2.5" style="stroke:#181818;stroke-width:0.5;" width="105.876" x="336.06" y="351.78"/><ellipse cx="351.06" cy="367.78" fill="#ADD1B2" rx="11" ry="11" style="stroke:#181818;stroke-width:1;"/><path d="M354.0288,373.4206 Q353.4506,373.7175 352.81,373.8581 Q352.1694,374.0144 351.4663,374.0144 Q348.9663,374.0144 347.6381,372.3738 Q346.3256,370.7175 346.3256,367.5925 Q346.3256,364.4675 347.6381,362.8113 Q348.9663,361.155 351.4663,361.155 Q352.1694,361.155 352.81,361.3113 Q353.4663,361.4675 354.0288,361.7644 L354.0288,364.4831 Q353.4038,363.905 352.81,363.6394 Q352.2163,363.3581 351.5913,363.3581 Q350.2475,363.3581 349.56,364.4363 Q348.8725,365.4988 348.8725,367.5925 Q348.8725,369.6863 349.56,370.7644 Q350.2475,371.8269 351.5913,371.8269 Q352.2163,371.8269 352.81,371.5613 Q353.4038,371.28 354.0288,370.7019 L354.0288,373.4206 Z " fill="#000000"/><text fill="#000000" font-family="sans-serif" font-size="14" lengthAdjust="spacing" textLength="73.876" x="365.06" y="372.6267">DegObject</text><line style="stroke:#181818;stroke-width:0.5;" x1="337.06" x2="440.936" y1="383.78" y2="383.78"/><line style="stroke:#181818;stroke-width:0.5;" x1="337.06" x2="440.936" y1="391.78" y2="391.78"/></g><!--class DegNode--><g class="entity" data-qualified-name="odeon.model.district_electricity_grid.DegNode" data-source-line="19" id="ent0014"><rect fill="#F1F1F1" height="202.6719" rx="2.5" ry="2.5" style="stroke:#181818;stroke-width:0.5;" width="395.1816" x="563.41" y="561.56"/><ellipse cx="724.3416" cy="577.56" fill="#ADD1B2" rx="11" ry="11" style="stroke:#181818;stroke-width:1;"/><path d="M727.3104,583.2006 Q726.7323,583.4975 726.0916,583.6381 Q725.451,583.7944 724.7479,583.7944 Q722.2479,583.7944 720.9198,582.1538 Q719.6073,580.4975 719.6073,577.3725 Q719.6073,574.2475 720.9198,572.5913 Q722.2479,570.935 724.7479,570.935 Q725.451,570.935 726.0916,571.0913 Q726.7479,571.2475 727.3104,571.5444 L727.3104,574.2631 Q726.6854,573.685 726.0916,573.4194 Q725.4979,573.1381 724.8729,573.1381 Q723.5291,573.1381 722.8416,574.2163 Q722.1541,575.2788 722.1541,577.3725 Q722.1541,579.4663 722.8416,580.5444 Q723.5291,581.6069 724.8729,581.6069 Q725.4979,581.6069 726.0916,581.3413 Q726.6854,581.06 727.3104,580.4819 L727.3104,583.2006 Z " fill="#000000"/><text fill="#000000" font-family="sans-serif" font-size="14" lengthAdjust="spacing" textLength="64.8184" x="744.8416" y="582.4067">DegNode</text><line style="stroke:#181818;stroke-width:0.5;" x1="564.41" x2="957.5916" y1="593.56" y2="593.56"/><g data-visibility-modifier="PROTECTED_FIELD"><polygon fill="none" points="574.41,602.2084,578.41,606.2084,574.41,610.2084,570.41,606.2084" style="stroke:#B38D22;stroke-width:1;"/></g><text fill="#000000" font-family="sans-serif" font-size="14" lengthAdjust="spacing" textLength="369.1816" x="583.41" y="610.5551">_voltage: &lt;class 'odeon.model.temporal.Temporal'&gt;</text><line style="stroke:#181818;stroke-width:1;stroke-dasharray:1,2;" x1="564.41" x2="957.5916" y1="617.8569" y2="617.8569"/><g data-visibility-modifier="PUBLIC_METHOD"><ellipse cx="574.41" cy="631.5053" fill="#84BE84" rx="3" ry="3" style="stroke:#038048;stroke-width:1;"/></g><text fill="#000000" font-family="sans-serif" font-size="14" lengthAdjust="spacing" textLength="133.0889" x="583.41" y="634.852">demand (property)</text><g data-visibility-modifier="PUBLIC_METHOD"><ellipse cx="574.41" cy="647.8022" fill="#84BE84" rx="3" ry="3" style="stroke:#038048;stroke-width:1;"/></g><text fill="#000000" font-family="sans-serif" font-size="14" lengthAdjust="spacing" textLength="101.9854" x="583.41" y="651.1489">gen (property)</text><g data-visibility-modifier="PUBLIC_METHOD"><ellipse cx="574.41" cy="664.0991" fill="#84BE84" rx="3" ry="3" style="stroke:#038048;stroke-width:1;"/></g><text fill="#000000" font-family="sans-serif" font-size="14" lengthAdjust="spacing" textLength="128.7959" x="583.41" y="667.4457">storage (property)</text><g data-visibility-modifier="PUBLIC_METHOD"><ellipse cx="574.41" cy="680.3959" fill="#84BE84" rx="3" ry="3" style="stroke:#038048;stroke-width:1;"/></g><text fill="#000000" font-family="sans-serif" font-size="14" lengthAdjust="spacing" textLength="127.9209" x="583.41" y="683.7426">voltage (property)</text><line style="stroke:#181818;stroke-width:0.5;" x1="564.41" x2="957.5916" y1="691.0444" y2="691.0444"/><g data-visibility-modifier="PUBLIC_METHOD"><ellipse cx="574.41" cy="704.6928" fill="#84BE84" rx="3" ry="3" style="stroke:#038048;stroke-width:1;"/></g><text fill="#000000" font-family="sans-serif" font-size="14" lengthAdjust="spacing" textLength="275.1807" x="583.41" y="708.0395">connected_devices_of_type(self, type_)</text><g data-visibility-modifier="PUBLIC_METHOD"><ellipse cx="574.41" cy="720.9897" fill="#84BE84" rx="3" ry="3" style="stroke:#038048;stroke-width:1;"/></g><text fill="#000000" font-family="sans-serif" font-size="14" lengthAdjust="spacing" textLength="238.4033" x="583.41" y="724.3364">get_el_bus_from_attachment(self)</text><g data-visibility-modifier="PUBLIC_METHOD"><ellipse cx="574.41" cy="737.2866" fill="#84BE84" rx="3" ry="3" style="stroke:#038048;stroke-width:1;"/></g><text fill="#000000" font-family="sans-serif" font-size="14" lengthAdjust="spacing" textLength="328.5215" x="583.41" y="740.6332">get_flows_by_attached_component(self, type_)</text><g data-visibility-modifier="PUBLIC_METHOD"><ellipse cx="574.41" cy="753.5834" fill="#84BE84" rx="3" ry="3" style="stroke:#038048;stroke-width:1;"/></g><text fill="#000000" font-family="sans-serif" font-size="14" lengthAdjust="spacing" textLength="167.9521" x="583.41" y="756.9301">get_trafos_in_node(self)</text></g><!--class DistrictElectricityGrid--><g class="entity" data-qualified-name="odeon.model.district_electricity_grid.DistrictElectricityGrid" data-source-line="38" id="ent0021"><rect fill="#F1F1F1" height="251.5625" rx="2.5" ry="2.5" style="stroke:#181818;stroke-width:0.5;" width="481.9775" x="477.01" y="250"/><ellipse cx="639.1448" cy="266" fill="#ADD1B2" rx="11" ry="11" style="stroke:#181818;stroke-width:1;"/><path d="M642.1135,271.6406 Q641.5354,271.9375 640.8948,272.0781 Q640.2541,272.2344 639.551,272.2344 Q637.051,272.2344 635.7229,270.5938 Q634.4104,268.9375 634.4104,265.8125 Q634.4104,262.6875 635.7229,261.0313 Q637.051,259.375 639.551,259.375 Q640.2541,259.375 640.8948,259.5313 Q641.551,259.6875 642.1135,259.9844 L642.1135,262.7031 Q641.4885,262.125 640.8948,261.8594 Q640.301,261.5781 639.676,261.5781 Q638.3323,261.5781 637.6448,262.6563 Q636.9573,263.7188 636.9573,265.8125 Q636.9573,267.9063 637.6448,268.9844 Q638.3323,270.0469 639.676,270.0469 Q640.301,270.0469 640.8948,269.7813 Q641.4885,269.5 642.1135,268.9219 L642.1135,271.6406 Z " fill="#000000"/><text fill="#000000" font-family="sans-serif" font-size="14" lengthAdjust="spacing" textLength="149.208" x="659.6448" y="270.8467">DistrictElectricityGrid</text><line style="stroke:#181818;stroke-width:0.5;" x1="478.01" x2="957.9875" y1="282" y2="282"/><line style="stroke:#181818;stroke-width:1;stroke-dasharray:1,2;" x1="478.01" x2="957.9875" y1="290" y2="290"/><g data-visibility-modifier="PUBLIC_METHOD"><ellipse cx="488.01" cy="303.6484" fill="#84BE84" rx="3" ry="3" style="stroke:#038048;stroke-width:1;"/></g><text fill="#000000" font-family="sans-serif" font-size="14" lengthAdjust="spacing" textLength="120.5723" x="497.01" y="306.9951">cables (property)</text><line style="stroke:#181818;stroke-width:0.5;" x1="478.01" x2="957.9875" y1="314.2969" y2="314.2969"/><g data-visibility-modifier="PUBLIC_METHOD"><ellipse cx="488.01" cy="327.9453" fill="#84BE84" rx="3" ry="3" style="stroke:#038048;stroke-width:1;"/></g><text fill="#000000" font-family="sans-serif" font-size="14" lengthAdjust="spacing" textLength="167.8223" x="497.01" y="331.292">add_cables(self, cables)</text><g data-visibility-modifier="PUBLIC_METHOD"><ellipse cx="488.01" cy="344.2422" fill="#84BE84" rx="3" ry="3" style="stroke:#038048;stroke-width:1;"/></g><text fill="#000000" font-family="sans-serif" font-size="14" lengthAdjust="spacing" textLength="187.4141" x="497.01" y="347.5889">create_component_df(self)</text><g data-visibility-modifier="PUBLIC_METHOD"><ellipse cx="488.01" cy="360.5391" fill="#84BE84" rx="3" ry="3" style="stroke:#038048;stroke-width:1;"/></g><text fill="#000000" font-family="sans-serif" font-size="14" lengthAdjust="spacing" textLength="182.7588" x="497.01" y="363.8857">get_all_trafos_in_deg(self)</text><g data-visibility-modifier="PUBLIC_METHOD"><ellipse cx="488.01" cy="376.8359" fill="#84BE84" rx="3" ry="3" style="stroke:#038048;stroke-width:1;"/></g><text fill="#000000" font-family="sans-serif" font-size="14" lengthAdjust="spacing" textLength="134.9414" x="497.01" y="380.1826">get_lgs_nodes(self)</text><g data-visibility-modifier="PUBLIC_METHOD"><ellipse cx="488.01" cy="393.1328" fill="#84BE84" rx="3" ry="3" style="stroke:#038048;stroke-width:1;"/></g><text fill="#000000" font-family="sans-serif" font-size="14" lengthAdjust="spacing" textLength="397.5371" x="497.01" y="396.4795">get_nodes_by_connection_types(self, attachment_types)</text><g data-visibility-modifier="PUBLIC_METHOD"><ellipse cx="488.01" cy="409.4297" fill="#84BE84" rx="3" ry="3" style="stroke:#038048;stroke-width:1;"/></g><text fill="#000000" font-family="sans-serif" font-size="14" lengthAdjust="spacing" textLength="455.9775" x="497.01" y="412.7764">get_objects_of_type_by_voltage_lvl(self, voltage_lvl, object_type)</text><g data-visibility-modifier="PUBLIC_METHOD"><ellipse cx="488.01" cy="425.7266" fill="#84BE84" rx="3" ry="3" style="stroke:#038048;stroke-width:1;"/></g><text fill="#000000" font-family="sans-serif" font-size="14" lengthAdjust="spacing" textLength="161.6699" x="497.01" y="429.0732">get_source_nodes(self)</text><g data-visibility-modifier="PUBLIC_METHOD"><ellipse cx="488.01" cy="442.0234" fill="#84BE84" rx="3" ry="3" style="stroke:#038048;stroke-width:1;"/></g><text fill="#000000" font-family="sans-serif" font-size="14" lengthAdjust="spacing" textLength="198.1191" x="497.01" y="445.3701">get_transformer_nodes(self)</text><g data-visibility-modifier="PUBLIC_METHOD"><ellipse cx="488.01" cy="458.3203" fill="#84BE84" rx="3" ry="3" style="stroke:#038048;stroke-width:1;"/></g><text fill="#000000" font-family="sans-serif" font-size="14" lengthAdjust="spacing" textLength="285.4824" x="497.01" y="461.667">remove_cables(self, cables, node_mode)</text><g data-visibility-modifier="PUBLIC_METHOD"><ellipse cx="488.01" cy="474.6172" fill="#84BE84" rx="3" ry="3" style="stroke:#038048;stroke-width:1;"/></g><text fill="#000000" font-family="sans-serif" font-size="14" lengthAdjust="spacing" textLength="169.6543" x="497.01" y="477.9639">to_transformer_gdf(self)</text><g data-visibility-modifier="PUBLIC_METHOD"><ellipse cx="488.01" cy="490.9141" fill="#84BE84" rx="3" ry="3" style="stroke:#038048;stroke-width:1;"/></g><text fill="#000000" font-family="sans-serif" font-size="14" lengthAdjust="spacing" textLength="224.834" x="497.01" y="494.2607">to_transformer_station_gdf(self)</text></g><!--class EnergyEdge--><g class="entity" data-qualified-name="odeon.model.energy_network.EnergyEdge" data-source-line="16" id="ent0006"><rect fill="#F1F1F1" height="48" rx="2.5" ry="2.5" style="stroke:#181818;stroke-width:0.5;" width="116.4922" x="106.75" y="127"/><ellipse cx="121.75" cy="143" fill="#ADD1B2" rx="11" ry="11" style="stroke:#181818;stroke-width:1;"/><path d="M124.7188,148.6406 Q124.1406,148.9375 123.5,149.0781 Q122.8594,149.2344 122.1563,149.2344 Q119.6563,149.2344 118.3281,147.5938 Q117.0156,145.9375 117.0156,142.8125 Q117.0156,139.6875 118.3281,138.0313 Q119.6563,136.375 122.1563,136.375 Q122.8594,136.375 123.5,136.5313 Q124.1563,136.6875 124.7188,136.9844 L124.7188,139.7031 Q124.0938,139.125 123.5,138.8594 Q122.9063,138.5781 122.2813,138.5781 Q120.9375,138.5781 120.25,139.6563 Q119.5625,140.7188 119.5625,142.8125 Q119.5625,144.9063 120.25,145.9844 Q120.9375,147.0469 122.2813,147.0469 Q122.9063,147.0469 123.5,146.7813 Q124.0938,146.5 124.7188,145.9219 L124.7188,148.6406 Z " fill="#000000"/><text fill="#000000" font-family="sans-serif" font-size="14" lengthAdjust="spacing" textLength="84.4922" x="135.75" y="147.8467">EnergyEdge</text><line style="stroke:#181818;stroke-width:0.5;" x1="107.75" x2="222.2422" y1="159" y2="159"/><line style="stroke:#181818;stroke-width:0.5;" x1="107.75" x2="222.2422" y1="167" y2="167"/></g><!--class EnergyNode--><g class="entity" data-qualified-name="odeon.model.energy_network.EnergyNode" data-source-line="32" id="ent0015"><rect fill="#F1F1F1" height="48" rx="2.5" ry="2.5" style="stroke:#181818;stroke-width:0.5;" width="117.7979" x="258.1" y="127"/><ellipse cx="273.1" cy="143" fill="#ADD1B2" rx="11" ry="11" style="stroke:#181818;stroke-width:1;"/><path d="M276.0688,148.6406 Q275.4906,148.9375 274.85,149.0781 Q274.2094,149.2344 273.5063,149.2344 Q271.0063,149.2344 269.6781,147.5938 Q268.3656,145.9375 268.3656,142.8125 Q268.3656,139.6875 269.6781,138.0313 Q271.0063,136.375 273.5063,136.375 Q274.2094,136.375 274.85,136.5313 Q275.5063,136.6875 276.0688,136.9844 L276.0688,139.7031 Q275.4438,139.125 274.85,138.8594 Q274.2563,138.5781 273.6313,138.5781 Q272.2875,138.5781 271.6,139.6563 Q270.9125,140.7188 270.9125,142.8125 Q270.9125,144.9063 271.6,145.9844 Q272.2875,147.0469 273.6313,147.0469 Q274.2563,147.0469 274.85,146.7813 Q275.4438,146.5 276.0688,145.9219 L276.0688,148.6406 Z " fill="#000000"/><text fill="#000000" font-family="sans-serif" font-size="14" lengthAdjust="spacing" textLength="85.7979" x="287.1" y="147.8467">EnergyNode</text><line style="stroke:#181818;stroke-width:0.5;" x1="259.1" x2="374.8979" y1="159" y2="159"/><line style="stroke:#181818;stroke-width:0.5;" x1="259.1" x2="374.8979" y1="167" y2="167"/></g><!--class EnergyNetworkObject--><g class="entity" data-qualified-name="odeon.model.energy_network.EnergyNetworkObject" data-source-line="37" id="ent0019"><rect fill="#F1F1F1" height="48" rx="2.5" ry="2.5" style="stroke:#181818;stroke-width:0.5;" width="185.3096" x="411.35" y="127"/><ellipse cx="426.35" cy="143" fill="#ADD1B2" rx="11" ry="11" style="stroke:#181818;stroke-width:1;"/><path d="M429.3188,148.6406 Q428.7406,148.9375 428.1,149.0781 Q427.4594,149.2344 426.7563,149.2344 Q424.2563,149.2344 422.9281,147.5938 Q421.6156,145.9375 421.6156,142.8125 Q421.6156,139.6875 422.9281,138.0313 Q424.2563,136.375 426.7563,136.375 Q427.4594,136.375 428.1,136.5313 Q428.7563,136.6875 429.3188,136.9844 L429.3188,139.7031 Q428.6938,139.125 428.1,138.8594 Q427.5063,138.5781 426.8813,138.5781 Q425.5375,138.5781 424.85,139.6563 Q424.1625,140.7188 424.1625,142.8125 Q424.1625,144.9063 424.85,145.9844 Q425.5375,147.0469 426.8813,147.0469 Q427.5063,147.0469 428.1,146.7813 Q428.6938,146.5 429.3188,145.9219 L429.3188,148.6406 Z " fill="#000000"/><text fill="#000000" font-family="sans-serif" font-size="14" lengthAdjust="spacing" textLength="153.3096" x="440.35" y="147.8467">EnergyNetworkObject</text><line style="stroke:#181818;stroke-width:0.5;" x1="412.35" x2="595.6596" y1="159" y2="159"/><line style="stroke:#181818;stroke-width:0.5;" x1="412.35" x2="595.6596" y1="167" y2="167"/></g><!--class EnergyNetwork--><g class="entity" data-qualified-name="odeon.model.energy_network.EnergyNetwork" data-source-line="54" id="ent0022"><rect fill="#F1F1F1" height="48" rx="2.5" ry="2.5" style="stroke:#181818;stroke-width:0.5;" width="139.7139" x="632.14" y="127"/><ellipse cx="647.14" cy="143" fill="#ADD1B2" rx="11" ry="11" style="stroke:#181818;stroke-width:1;"/><path d="M650.1088,148.6406 Q649.5306,148.9375 648.89,149.0781 Q648.2494,149.2344 647.5463,149.2344 Q645.0463,149.2344 643.7181,147.5938 Q642.4056,145.9375 642.4056,142.8125 Q642.4056,139.6875 643.7181,138.0313 Q645.0463,136.375 647.5463,136.375 Q648.2494,136.375 648.89,136.5313 Q649.5463,136.6875 650.1088,136.9844 L650.1088,139.7031 Q649.4838,139.125 648.89,138.8594 Q648.2963,138.5781 647.6713,138.5781 Q646.3275,138.5781 645.64,139.6563 Q644.9525,140.7188 644.9525,142.8125 Q644.9525,144.9063 645.64,145.9844 Q646.3275,147.0469 647.6713,147.0469 Q648.2963,147.0469 648.89,146.7813 Q649.4838,146.5 650.1088,145.9219 L650.1088,148.6406 Z " fill="#000000"/><text fill="#000000" font-family="sans-serif" font-size="14" lengthAdjust="spacing" textLength="107.7139" x="661.14" y="147.8467">EnergyNetwork</text><line style="stroke:#181818;stroke-width:0.5;" x1="633.14" x2="770.8539" y1="159" y2="159"/><line style="stroke:#181818;stroke-width:0.5;" x1="633.14" x2="770.8539" y1="167" y2="167"/></g><!--class Temporal--><g class="entity" data-qualified-name="odeon.model.temporal.Temporal" data-source-line="18" id="ent0011"><rect fill="#F1F1F1" height="48" rx="2.5" ry="2.5" style="stroke:#181818;stroke-width:0.5;" width="98.4795" x="480.76" y="839.23"/><ellipse cx="495.76" cy="855.23" fill="#ADD1B2" rx="11" ry="11" style="stroke:#181818;stroke-width:1;"/><path d="M498.7288,860.8706 Q498.1506,861.1675 497.51,861.3081 Q496.8694,861.4644 496.1663,861.4644 Q493.6663,861.4644 492.3381,859.8238 Q491.0256,858.1675 491.0256,855.0425 Q491.0256,851.9175 492.3381,850.2613 Q493.6663,848.605 496.1663,848.605 Q496.8694,848.605 497.51,848.7613 Q498.1663,848.9175 498.7288,849.2144 L498.7288,851.9331 Q498.1038,851.355 497.51,851.0894 Q496.9163,850.8081 496.2913,850.8081 Q494.9475,850.8081 494.26,851.8863 Q493.5725,852.9488 493.5725,855.0425 Q493.5725,857.1363 494.26,858.2144 Q494.9475,859.2769 496.2913,859.2769 Q496.9163,859.2769 497.51,859.0113 Q498.1038,858.73 498.7288,858.1519 L498.7288,860.8706 Z " fill="#000000"/><text fill="#000000" font-family="sans-serif" font-size="14" lengthAdjust="spacing" textLength="66.4795" x="509.76" y="860.0767">Temporal</text><line style="stroke:#181818;stroke-width:0.5;" x1="481.76" x2="578.2395" y1="871.23" y2="871.23"/><line style="stroke:#181818;stroke-width:0.5;" x1="481.76" x2="578.2395" y1="879.23" y2="879.23"/></g><!--reverse link EnergyEdge to DegCable--><g class="link" data-entity-1="ent0006" data-entity-2="ent0002" data-link-type="extension" data-source-line="16" id="lnk8"><path codeLine="16" d="M175.6828,192.6395 C193.3128,259.7595 240.55,439.47 272.56,561.27" fill="none" id="EnergyEdge-backto-DegCable" style="stroke:#181818;stroke-width:1;"/><polygon fill="none" points="171.11,175.23,169.8797,194.1637,181.486,191.1152,171.11,175.23" style="stroke:#181818;stroke-width:1;"/></g><!--reverse link DegObject to DegCable--><g class="link" data-entity-1="ent0009" data-entity-2="ent0002" data-link-type="extension" data-source-line="17" id="lnk10"><path codeLine="17" d="M376.2125,417.2754 C365.1725,452.2554 349.09,503.21 330.79,561.19" fill="none" id="DegObject-backto-DegCable" style="stroke:#181818;stroke-width:1;"/><polygon fill="none" points="381.63,400.11,370.4907,415.4695,381.9342,419.0812,381.63,400.11" style="stroke:#181818;stroke-width:1;"/></g><!--reverse link DegCable to Temporal--><g class="link" data-entity-1="ent0002" data-entity-2="ent0011" data-link-type="composition" data-source-line="18" id="lnk13"><path codeLine="18" d="M425.2945,772.3271 C457.6845,800.1371 480.79,819.98 502.63,838.73" fill="none" id="DegCable-backto-Temporal" style="stroke:#181818;stroke-width:1;"/><polygon fill="#181818" points="416.19,764.51,418.1366,771.4534,425.2945,772.3271,423.348,765.3837,416.19,764.51" style="stroke:#181818;stroke-width:1;"/></g><!--reverse link EnergyNode to DegNode--><g class="link" data-entity-1="ent0015" data-entity-2="ent0014" data-link-type="extension" data-source-line="32" id="lnk16"><path codeLine="32" d="M302.681,192.5338 C282.041,253.6538 242.44,402.72 319,501.56 C382.9,584.06 447.88,526.02 546,561.56 C551.62,563.59 557.28,565.72 562.98,567.92" fill="none" id="EnergyNode-backto-DegNode" style="stroke:#181818;stroke-width:1;"/><polygon fill="none" points="308.44,175.48,296.9964,190.6142,308.3656,194.4535,308.44,175.48" style="stroke:#181818;stroke-width:1;"/></g><!--reverse link DegObject to DegNode--><g class="link" data-entity-1="ent0009" data-entity-2="ent0014" data-link-type="extension" data-source-line="33" id="lnk17"><path codeLine="33" d="M404.2969,416.7317 C415.2669,443.9117 429.8,472.19 460,501.56 C478.25,519.31 518.21,543.23 563.23,567.17" fill="none" id="DegObject-backto-DegNode" style="stroke:#181818;stroke-width:1;"/><polygon fill="none" points="397.56,400.04,398.733,418.9774,409.8608,414.4861,397.56,400.04" style="stroke:#181818;stroke-width:1;"/></g><!--reverse link DegNode to Temporal--><g class="link" data-entity-1="ent0014" data-entity-2="ent0011" data-link-type="composition" data-source-line="34" id="lnk18"><path codeLine="34" d="M634.7055,772.3271 C602.3155,800.1371 579.21,819.98 557.37,838.73" fill="none" id="DegNode-backto-Temporal" style="stroke:#181818;stroke-width:1;"/><polygon fill="#181818" points="643.81,764.51,636.652,765.3837,634.7055,772.3271,641.8634,771.4534,643.81,764.51" style="stroke:#181818;stroke-width:1;"/></g><!--reverse link EnergyNetworkObject to DegObject--><g class="link" data-entity-1="ent0019" data-entity-2="ent0009" data-link-type="extension" data-source-line="37" id="lnk20"><path codeLine="37" d="M471.4781,189.1492 C463.6381,198.5592 466.57,195.97 460,207 C431.09,255.49 407.98,317.93 396.63,351.29" fill="none" id="EnergyNetworkObject-backto-DegObject" style="stroke:#181818;stroke-width:1;"/><polygon fill="none" points="483,175.32,466.8684,185.3086,476.0879,192.9898,483,175.32" style="stroke:#181818;stroke-width:1;"/></g><!--reverse link EnergyNetwork to DistrictElectricityGrid--><g class="link" data-entity-1="ent0022" data-entity-2="ent0021" data-link-type="extension" data-source-line="54" id="lnk23"><path codeLine="54" d="M704.9756,193.3733 C706.3056,211.8033 706.96,221.11 709.01,249.59" fill="none" id="EnergyNetwork-backto-DistrictElectricityGrid" style="stroke:#181818;stroke-width:1;"/><polygon fill="none" points="703.68,175.42,698.9912,193.8052,710.96,192.9414,703.68,175.42" style="stroke:#181818;stroke-width:1;"/></g><?plantuml-src jPJ9Rjim443l-We1FJYj7Nr04VJI6hcbbzu7D3bIM7CHIDg9aFRVEwIOQh5RI4Lp4ZdxygXDQGLQKsdwg4f87vpa0L0XZoSPEcYS54N15VD-cN7r1PlFxA2mV2dUWP86bMK2MdGSJVXOtlMnDkDW0NLh7LFLjtpOV2gsBQE3GZMuI1EY8dGjmY2bEg9KisVW9-ScIMhAdNmSs4STYu2Zlg9-_hkQWwd_h8sP9HpPfQggYkry0kLDwooTG_U-02X-5kD1e47NT60mF5bthFRfkXSDbdS_RczNBg1ORFxry9s4RvkZP-B3BCF5vjUYza0cYRIpLO4rk1omk1o1cXanNicsGJEv-q3sj82nBEUQhNBBhJ5K8GeGU9OSFTWQ8gqt7bMzAnEuAKNi1Gud3xMp6bW8Z3zgWYCPPWk2wCd3eSjgYiej5MzUpQRnWcErzI0D6Eeunra0LvhVkiL7bpTcQrsArCD_9oiN_h9eYltjdthjdTPLbpNxGN5FSgerGitZI_DpE9aWW98cqzDV21_ka0KSw09HZpcad_28Be7DMAaQdu3pOs4IH7BpWv3Mf6VmcddWlHTdDvi6yVlHn03veO4wg-mxakpAtYDPvnZUdkWlUraIDM1yRPscd_X4wL3RCrwRpAwCXX1tGNR1Jc8qmunc6XzOQdYmMCxFAdAkC_0B?></g></svg>