<?plantuml 1.2026.2beta3?><svg xmlns="http://www.w3.org/2000/svg" xmlns:xlink="http://www.w3.org/1999/xlink" contentStyleType="text/css" data-diagram-type="CLASS" height="607px" preserveAspectRatio="none" style="width:1441px;height:607px;background:#FFFFFF;" version="1.1" viewBox="0 0 1441 607" width="1441px" zoomAndPan="magnify"><defs/><g><!--cluster odeon--><g class="cluster" data-qualified-name="odeon" data-source-line="3" id="ent0003"><path d="M8.5,6 L58.2197,6 A3.75,3.75 0 0 1 60.7197,8.5 L67.7197,28.2969 L1431.5,28.2969 A2.5,2.5 0 0 1 1434,30.7969 L1434,597.88 A2.5,2.5 0 0 1 1431.5,600.38 L8.5,600.38 A2.5,2.5 0 0 1 6,597.88 L6,8.5 A2.5,2.5 0 0 1 8.5,6" fill="none" style="stroke:#000000;stroke-width:1.5;"/><line style="stroke:#000000;stroke-width:1.5;" x1="6" x2="67.7197" y1="28.2969" y2="28.2969"/><text fill="#000000" font-family="sans-serif" font-size="14" font-weight="bold" lengthAdjust="spacing" textLength="48.7197" x="10" y="20.9951">odeon</text></g><!--cluster model--><g class="cluster" data-qualified-name="odeon.model" data-source-line="3" id="ent0004"><path d="M32.5,49 L82.0215,49 A3.75,3.75 0 0 1 84.5215,51.5 L91.5215,71.2969 L1407.5,71.2969 A2.5,2.5 0 0 1 1410,73.7969 L1410,573.88 A2.5,2.5 0 0 1 1407.5,576.38 L32.5,576.38 A2.5,2.5 0 0 1 30,573.88 L30,51.5 A2.5,2.5 0 0 1 32.5,49" fill="none" style="stroke:#000000;stroke-width:1.5;"/><line style="stroke:#000000;stroke-width:1.5;" x1="30" x2="91.5215" y1="71.2969" y2="71.2969"/><text fill="#000000" font-family="sans-serif" font-size="14" font-weight="bold" lengthAdjust="spacing" textLength="48.5215" x="34" y="63.9951">model</text></g><!--cluster energy_network--><g class="cluster" data-qualified-name="odeon.model.energy_network" data-source-line="3" id="ent0005"><path d="M106.5,215 L234.4297,215 A3.75,3.75 0 0 1 236.9297,217.5 L243.9297,237.2969 L1383.5,237.2969 A2.5,2.5 0 0 1 1386,239.7969 L1386,549.88 A2.5,2.5 0 0 1 1383.5,552.38 L106.5,552.38 A2.5,2.5 0 0 1 104,549.88 L104,217.5 A2.5,2.5 0 0 1 106.5,215" fill="none" style="stroke:#000000;stroke-width:1.5;"/><line style="stroke:#000000;stroke-width:1.5;" x1="104" x2="243.9297" y1="237.2969" y2="237.2969"/><text fill="#000000" font-family="sans-serif" font-size="14" font-weight="bold" lengthAdjust="spacing" textLength="126.9297" x="108" y="229.9951">energy_network</text></g><!--cluster network--><g class="cluster" data-qualified-name="odeon.model.network" data-source-line="6" id="ent0009"><path d="M63.5,92 L129.4209,92 A3.75,3.75 0 0 1 131.9209,94.5 L138.9209,114.2969 L557.5,114.2969 A2.5,2.5 0 0 1 560,116.7969 L560,188.5 A2.5,2.5 0 0 1 557.5,191 L63.5,191 A2.5,2.5 0 0 1 61,188.5 L61,94.5 A2.5,2.5 0 0 1 63.5,92" fill="none" style="stroke:#000000;stroke-width:1.5;"/><line style="stroke:#000000;stroke-width:1.5;" x1="61" x2="138.9209" y1="114.2969" y2="114.2969"/><text fill="#000000" font-family="sans-serif" font-size="14" font-weight="bold" lengthAdjust="spacing" textLength="64.9209" x="65" y="106.9951">network</text></g><!--cluster device--><g class="cluster" data-qualified-name="odeon.model.device" data-source-line="18" id="ent0015"><path d="M592.5,92 L644.7354,92 A3.75,3.75 0 0 1 647.2354,94.5 L654.2354,114.2969 L677.5,114.2969 A2.5,2.5 0 0 1 680,116.7969 L680,188.5 A2.5,2.5 0 0 1 677.5,191 L592.5,191 A2.5,2.5 0 0 1 590,188.5 L590,94.5 A2.5,2.5 0 0 1 592.5,92" fill="none" style="stroke:#000000;stroke-width:1.5;"/><line style="stroke:#000000;stroke-width:1.5;" x1="590" x2="654.2354" y1="114.2969" y2="114.2969"/><text fill="#000000" font-family="sans-serif" font-size="14" font-weight="bold" lengthAdjust="spacing" textLength="51.2354" x="594" y="106.9951">device</text></g><!--cluster asset--><g class="cluster" data-qualified-name="odeon.model.asset" data-source-line="22" id="ent0020"><path d="M1228.5,92 L1271.8008,92 A3.75,3.75 0 0 1 1274.3008,94.5 L1281.3008,114.2969 L1325.5,114.2969 A2.5,2.5 0 0 1 1328,116.7969 L1328,188.5 A2.5,2.5 0 0 1 1325.5,191 L1228.5,191 A2.5,2.5 0 0 1 1226,188.5 L1226,94.5 A2.5,2.5 0 0 1 1228.5,92" fill="none" style="stroke:#000000;stroke-width:1.5;"/><line style="stroke:#000000;stroke-width:1.5;" x1="1226" x2="1281.3008" y1="114.2969" y2="114.2969"/><text fill="#000000" font-family="sans-serif" font-size="14" font-weight="bold" lengthAdjust="spacing" textLength="42.3008" x="1230" y="106.9951">asset</text></g><!--class EnergyEdge--><g class="entity" data-qualified-name="odeon.model.energy_network.EnergyEdge" data-source-line="3" id="ent0002"><rect fill="#F1F1F1" height="48" rx="2.5" ry="2.5" style="stroke:#181818;stroke-width:0.5;" width="116.4922" x="592.75" y="488.38"/><ellipse cx="607.75" cy="504.38" fill="#ADD1B2" rx="11" ry="11" style="stroke:#181818;stroke-width:1;"/><path d="M610.7188,510.0206 Q610.1406,510.3175 609.5,510.4581 Q608.8594,510.6144 608.1563,510.6144 Q605.6563,510.6144 604.3281,508.9738 Q603.0156,507.3175 603.0156,504.1925 Q603.0156,501.0675 604.3281,499.4113 Q605.6563,497.755 608.1563,497.755 Q608.8594,497.755 609.5,497.9113 Q610.1563,498.0675 610.7188,498.3644 L610.7188,501.0831 Q610.0938,500.505 609.5,500.2394 Q608.9063,499.9581 608.2813,499.9581 Q606.9375,499.9581 606.25,501.0363 Q605.5625,502.0988 605.5625,504.1925 Q605.5625,506.2863 606.25,507.3644 Q606.9375,508.4269 608.2813,508.4269 Q608.9063,508.4269 609.5,508.1613 Q610.0938,507.88 610.7188,507.3019 L610.7188,510.0206 Z " fill="#000000"/><text fill="#000000" font-family="sans-serif" font-size="14" lengthAdjust="spacing" textLength="84.4922" x="621.75" y="509.2267">EnergyEdge</text><line style="stroke:#181818;stroke-width:0.5;" x1="593.75" x2="708.2422" y1="520.38" y2="520.38"/><line style="stroke:#181818;stroke-width:0.5;" x1="593.75" x2="708.2422" y1="528.38" y2="528.38"/></g><!--class EnergyNetworkObject--><g class="entity" data-qualified-name="odeon.model.energy_network.EnergyNetworkObject" data-source-line="5" id="ent0006"><rect fill="#F1F1F1" height="48" rx="2.5" ry="2.5" style="stroke:#181818;stroke-width:0.5;" width="185.3096" x="1184.35" y="315.19"/><ellipse cx="1199.35" cy="331.19" fill="#ADD1B2" rx="11" ry="11" style="stroke:#181818;stroke-width:1;"/><path d="M1202.3188,336.8306 Q1201.7406,337.1275 1201.1,337.2681 Q1200.4594,337.4244 1199.7563,337.4244 Q1197.2563,337.4244 1195.9281,335.7838 Q1194.6156,334.1275 1194.6156,331.0025 Q1194.6156,327.8775 1195.9281,326.2213 Q1197.2563,324.565 1199.7563,324.565 Q1200.4594,324.565 1201.1,324.7213 Q1201.7563,324.8775 1202.3188,325.1744 L1202.3188,327.8931 Q1201.6938,327.315 1201.1,327.0494 Q1200.5063,326.7681 1199.8813,326.7681 Q1198.5375,326.7681 1197.85,327.8463 Q1197.1625,328.9088 1197.1625,331.0025 Q1197.1625,333.0963 1197.85,334.1744 Q1198.5375,335.2369 1199.8813,335.2369 Q1200.5063,335.2369 1201.1,334.9713 Q1201.6938,334.69 1202.3188,334.1119 L1202.3188,336.8306 Z " fill="#000000"/><text fill="#000000" font-family="sans-serif" font-size="14" lengthAdjust="spacing" textLength="153.3096" x="1213.35" y="336.0367">EnergyNetworkObject</text><line style="stroke:#181818;stroke-width:0.5;" x1="1185.35" x2="1368.6596" y1="347.19" y2="347.19"/><line style="stroke:#181818;stroke-width:0.5;" x1="1185.35" x2="1368.6596" y1="355.19" y2="355.19"/></g><!--class EnergyNetwork--><g class="entity" data-qualified-name="odeon.model.energy_network.EnergyNetwork" data-source-line="7" id="ent0011"><rect fill="#F1F1F1" height="178.375" rx="2.5" ry="2.5" style="stroke:#181818;stroke-width:0.5;" width="1029.6523" x="120.17" y="250"/><ellipse cx="576.8892" cy="266" fill="#ADD1B2" rx="11" ry="11" style="stroke:#181818;stroke-width:1;"/><path d="M579.858,271.6406 Q579.2799,271.9375 578.6392,272.0781 Q577.9986,272.2344 577.2955,272.2344 Q574.7955,272.2344 573.4674,270.5938 Q572.1549,268.9375 572.1549,265.8125 Q572.1549,262.6875 573.4674,261.0313 Q574.7955,259.375 577.2955,259.375 Q577.9986,259.375 578.6392,259.5313 Q579.2955,259.6875 579.858,259.9844 L579.858,262.7031 Q579.233,262.125 578.6392,261.8594 Q578.0455,261.5781 577.4205,261.5781 Q576.0767,261.5781 575.3892,262.6563 Q574.7017,263.7188 574.7017,265.8125 Q574.7017,267.9063 575.3892,268.9844 Q576.0767,270.0469 577.4205,270.0469 Q578.0455,270.0469 578.6392,269.7813 Q579.233,269.5 579.858,268.9219 L579.858,271.6406 Z " fill="#000000"/><text fill="#000000" font-family="sans-serif" font-size="14" lengthAdjust="spacing" textLength="107.7139" x="597.3892" y="270.8467">EnergyNetwork</text><line style="stroke:#181818;stroke-width:0.5;" x1="121.17" x2="1148.8223" y1="282" y2="282"/><line style="stroke:#181818;stroke-width:0.5;" x1="121.17" x2="1148.8223" y1="290" y2="290"/><g data-visibility-modifier="PUBLIC_METHOD"><ellipse cx="131.17" cy="303.6484" fill="#84BE84" rx="3" ry="3" style="stroke:#038048;stroke-width:1;"/></g><text fill="#000000" font-family="sans-serif" font-size="14" lengthAdjust="spacing" textLength="1003.6523" x="140.17" y="306.9951">apply_connections_from_attachments(self, input_component_types, output_component_types, if_extra_components, write_lossless_input_flow)</text><g data-visibility-modifier="PUBLIC_METHOD"><ellipse cx="131.17" cy="319.9453" fill="#84BE84" rx="3" ry="3" style="stroke:#038048;stroke-width:1;"/></g><text fill="#000000" font-family="sans-serif" font-size="14" lengthAdjust="spacing" textLength="433.7813" x="140.17" y="323.292">check_consistencey_of_connected_energy_system_hosts(self)</text><g data-visibility-modifier="PUBLIC_METHOD"><ellipse cx="131.17" cy="336.2422" fill="#84BE84" rx="3" ry="3" style="stroke:#038048;stroke-width:1;"/></g><text fill="#000000" font-family="sans-serif" font-size="14" lengthAdjust="spacing" textLength="360.5068" x="140.17" y="339.5889">check_consistency_of_connected_components(self)</text><g data-visibility-modifier="PUBLIC_METHOD"><ellipse cx="131.17" cy="352.5391" fill="#84BE84" rx="3" ry="3" style="stroke:#038048;stroke-width:1;"/></g><text fill="#000000" font-family="sans-serif" font-size="14" lengthAdjust="spacing" textLength="337.2783" x="140.17" y="355.8857">get_connected_energy_system_hosts(self, type)</text><g data-visibility-modifier="PUBLIC_METHOD"><ellipse cx="131.17" cy="368.8359" fill="#84BE84" rx="3" ry="3" style="stroke:#038048;stroke-width:1;"/></g><text fill="#000000" font-family="sans-serif" font-size="14" lengthAdjust="spacing" textLength="420.4717" x="140.17" y="372.1826">get_connected_energy_system_hosts_via_attachments(self)</text><g data-visibility-modifier="PUBLIC_METHOD"><ellipse cx="131.17" cy="385.1328" fill="#84BE84" rx="3" ry="3" style="stroke:#038048;stroke-width:1;"/></g><text fill="#000000" font-family="sans-serif" font-size="14" lengthAdjust="spacing" textLength="363.9111" x="140.17" y="388.4795">get_connected_energy_system_hosts_via_links(self)</text><g data-visibility-modifier="PUBLIC_METHOD"><ellipse cx="131.17" cy="401.4297" fill="#84BE84" rx="3" ry="3" style="stroke:#038048;stroke-width:1;"/></g><text fill="#000000" font-family="sans-serif" font-size="14" lengthAdjust="spacing" textLength="383.25" x="140.17" y="404.7764">get_connected_energy_systems_via_attachments(self)</text><g data-visibility-modifier="PUBLIC_METHOD"><ellipse cx="131.17" cy="417.7266" fill="#84BE84" rx="3" ry="3" style="stroke:#038048;stroke-width:1;"/></g><text fill="#000000" font-family="sans-serif" font-size="14" lengthAdjust="spacing" textLength="326.6895" x="140.17" y="421.0732">get_connected_energy_systems_via_links(self)</text></g><!--class EnergyNode--><g class="entity" data-qualified-name="odeon.model.energy_network.EnergyNode" data-source-line="23" id="ent0022"><rect fill="#F1F1F1" height="48" rx="2.5" ry="2.5" style="stroke:#181818;stroke-width:0.5;" width="117.7979" x="981.1" y="488.38"/><ellipse cx="996.1" cy="504.38" fill="#ADD1B2" rx="11" ry="11" style="stroke:#181818;stroke-width:1;"/><path d="M999.0688,510.0206 Q998.4906,510.3175 997.85,510.4581 Q997.2094,510.6144 996.5063,510.6144 Q994.0063,510.6144 992.6781,508.9738 Q991.3656,507.3175 991.3656,504.1925 Q991.3656,501.0675 992.6781,499.4113 Q994.0063,497.755 996.5063,497.755 Q997.2094,497.755 997.85,497.9113 Q998.5063,498.0675 999.0688,498.3644 L999.0688,501.0831 Q998.4438,500.505 997.85,500.2394 Q997.2563,499.9581 996.6313,499.9581 Q995.2875,499.9581 994.6,501.0363 Q993.9125,502.0988 993.9125,504.1925 Q993.9125,506.2863 994.6,507.3644 Q995.2875,508.4269 996.6313,508.4269 Q997.2563,508.4269 997.85,508.1613 Q998.4438,507.88 999.0688,507.3019 L999.0688,510.0206 Z " fill="#000000"/><text fill="#000000" font-family="sans-serif" font-size="14" lengthAdjust="spacing" textLength="85.7979" x="1010.1" y="509.2267">EnergyNode</text><line style="stroke:#181818;stroke-width:0.5;" x1="982.1" x2="1097.8979" y1="520.38" y2="520.38"/><line style="stroke:#181818;stroke-width:0.5;" x1="982.1" x2="1097.8979" y1="528.38" y2="528.38"/></g><!--class Edge--><g class="entity" data-qualified-name="odeon.model.network.Edge" data-source-line="6" id="ent0008"><rect fill="#F1F1F1" height="48" rx="2.5" ry="2.5" style="stroke:#181818;stroke-width:0.5;" width="67.2324" x="77.38" y="127"/><ellipse cx="92.38" cy="143" fill="#ADD1B2" rx="11" ry="11" style="stroke:#181818;stroke-width:1;"/><path d="M95.3488,148.6406 Q94.7706,148.9375 94.13,149.0781 Q93.4894,149.2344 92.7863,149.2344 Q90.2863,149.2344 88.9581,147.5938 Q87.6456,145.9375 87.6456,142.8125 Q87.6456,139.6875 88.9581,138.0313 Q90.2863,136.375 92.7863,136.375 Q93.4894,136.375 94.13,136.5313 Q94.7863,136.6875 95.3488,136.9844 L95.3488,139.7031 Q94.7238,139.125 94.13,138.8594 Q93.5363,138.5781 92.9113,138.5781 Q91.5675,138.5781 90.88,139.6563 Q90.1925,140.7188 90.1925,142.8125 Q90.1925,144.9063 90.88,145.9844 Q91.5675,147.0469 92.9113,147.0469 Q93.5363,147.0469 94.13,146.7813 Q94.7238,146.5 95.3488,145.9219 L95.3488,148.6406 Z " fill="#000000"/><text fill="#000000" font-family="sans-serif" font-size="14" lengthAdjust="spacing" textLength="35.2324" x="106.38" y="147.8467">Edge</text><line style="stroke:#181818;stroke-width:0.5;" x1="78.38" x2="143.6124" y1="159" y2="159"/><line style="stroke:#181818;stroke-width:0.5;" x1="78.38" x2="143.6124" y1="167" y2="167"/></g><!--class Network--><g class="entity" data-qualified-name="odeon.model.network.Network" data-source-line="17" id="ent0012"><rect fill="#F1F1F1" height="48" rx="2.5" ry="2.5" style="stroke:#181818;stroke-width:0.5;" width="90.4541" x="282.77" y="127"/><ellipse cx="297.77" cy="143" fill="#ADD1B2" rx="11" ry="11" style="stroke:#181818;stroke-width:1;"/><path d="M300.7388,148.6406 Q300.1606,148.9375 299.52,149.0781 Q298.8794,149.2344 298.1763,149.2344 Q295.6763,149.2344 294.3481,147.5938 Q293.0356,145.9375 293.0356,142.8125 Q293.0356,139.6875 294.3481,138.0313 Q295.6763,136.375 298.1763,136.375 Q298.8794,136.375 299.52,136.5313 Q300.1763,136.6875 300.7388,136.9844 L300.7388,139.7031 Q300.1138,139.125 299.52,138.8594 Q298.9263,138.5781 298.3013,138.5781 Q296.9575,138.5781 296.27,139.6563 Q295.5825,140.7188 295.5825,142.8125 Q295.5825,144.9063 296.27,145.9844 Q296.9575,147.0469 298.3013,147.0469 Q298.9263,147.0469 299.52,146.7813 Q300.1138,146.5 300.7388,145.9219 L300.7388,148.6406 Z " fill="#000000"/><text fill="#000000" font-family="sans-serif" font-size="14" lengthAdjust="spacing" textLength="58.4541" x="311.77" y="147.8467">Network</text><line style="stroke:#181818;stroke-width:0.5;" x1="283.77" x2="372.2241" y1="159" y2="159"/><line style="stroke:#181818;stroke-width:0.5;" x1="283.77" x2="372.2241" y1="167" y2="167"/></g><!--class NetworkObject--><g class="entity" data-qualified-name="odeon.model.network.NetworkObject" data-source-line="21" id="ent0017"><rect fill="#F1F1F1" height="48" rx="2.5" ry="2.5" style="stroke:#181818;stroke-width:0.5;" width="136.0498" x="407.98" y="127"/><ellipse cx="422.98" cy="143" fill="#ADD1B2" rx="11" ry="11" style="stroke:#181818;stroke-width:1;"/><path d="M425.9488,148.6406 Q425.3706,148.9375 424.73,149.0781 Q424.0894,149.2344 423.3863,149.2344 Q420.8863,149.2344 419.5581,147.5938 Q418.2456,145.9375 418.2456,142.8125 Q418.2456,139.6875 419.5581,138.0313 Q420.8863,136.375 423.3863,136.375 Q424.0894,136.375 424.73,136.5313 Q425.3863,136.6875 425.9488,136.9844 L425.9488,139.7031 Q425.3238,139.125 424.73,138.8594 Q424.1363,138.5781 423.5113,138.5781 Q422.1675,138.5781 421.48,139.6563 Q420.7925,140.7188 420.7925,142.8125 Q420.7925,144.9063 421.48,145.9844 Q422.1675,147.0469 423.5113,147.0469 Q424.1363,147.0469 424.73,146.7813 Q425.3238,146.5 425.9488,145.9219 L425.9488,148.6406 Z " fill="#000000"/><text fill="#000000" font-family="sans-serif" font-size="14" lengthAdjust="spacing" textLength="104.0498" x="436.98" y="147.8467">NetworkObject</text><line style="stroke:#181818;stroke-width:0.5;" x1="408.98" x2="543.0298" y1="159" y2="159"/><line style="stroke:#181818;stroke-width:0.5;" x1="408.98" x2="543.0298" y1="167" y2="167"/></g><!--class Node--><g class="entity" data-qualified-name="odeon.model.network.Node" data-source-line="26" id="ent0024"><rect fill="#F1F1F1" height="48" rx="2.5" ry="2.5" style="stroke:#181818;stroke-width:0.5;" width="68.5381" x="179.73" y="127"/><ellipse cx="194.73" cy="143" fill="#ADD1B2" rx="11" ry="11" style="stroke:#181818;stroke-width:1;"/><path d="M197.6988,148.6406 Q197.1206,148.9375 196.48,149.0781 Q195.8394,149.2344 195.1363,149.2344 Q192.6363,149.2344 191.3081,147.5938 Q189.9956,145.9375 189.9956,142.8125 Q189.9956,139.6875 191.3081,138.0313 Q192.6363,136.375 195.1363,136.375 Q195.8394,136.375 196.48,136.5313 Q197.1363,136.6875 197.6988,136.9844 L197.6988,139.7031 Q197.0738,139.125 196.48,138.8594 Q195.8863,138.5781 195.2613,138.5781 Q193.9175,138.5781 193.23,139.6563 Q192.5425,140.7188 192.5425,142.8125 Q192.5425,144.9063 193.23,145.9844 Q193.9175,147.0469 195.2613,147.0469 Q195.8863,147.0469 196.48,146.7813 Q197.0738,146.5 197.6988,145.9219 L197.6988,148.6406 Z " fill="#000000"/><text fill="#000000" font-family="sans-serif" font-size="14" lengthAdjust="spacing" textLength="36.5381" x="208.73" y="147.8467">Node</text><line style="stroke:#181818;stroke-width:0.5;" x1="180.73" x2="247.2681" y1="159" y2="159"/><line style="stroke:#181818;stroke-width:0.5;" x1="180.73" x2="247.2681" y1="167" y2="167"/></g><!--class Bus--><g class="entity" data-qualified-name="odeon.model.device.Bus" data-source-line="18" id="ent0014"><rect fill="#F1F1F1" height="48" rx="2.5" ry="2.5" style="stroke:#181818;stroke-width:0.5;" width="57.7715" x="606.11" y="127"/><ellipse cx="621.11" cy="143" fill="#ADD1B2" rx="11" ry="11" style="stroke:#181818;stroke-width:1;"/><path d="M624.0788,148.6406 Q623.5006,148.9375 622.86,149.0781 Q622.2194,149.2344 621.5163,149.2344 Q619.0163,149.2344 617.6881,147.5938 Q616.3756,145.9375 616.3756,142.8125 Q616.3756,139.6875 617.6881,138.0313 Q619.0163,136.375 621.5163,136.375 Q622.2194,136.375 622.86,136.5313 Q623.5163,136.6875 624.0788,136.9844 L624.0788,139.7031 Q623.4538,139.125 622.86,138.8594 Q622.2663,138.5781 621.6413,138.5781 Q620.2975,138.5781 619.61,139.6563 Q618.9225,140.7188 618.9225,142.8125 Q618.9225,144.9063 619.61,145.9844 Q620.2975,147.0469 621.6413,147.0469 Q622.2663,147.0469 622.86,146.7813 Q623.4538,146.5 624.0788,145.9219 L624.0788,148.6406 Z " fill="#000000"/><text fill="#000000" font-family="sans-serif" font-size="14" lengthAdjust="spacing" textLength="25.7715" x="635.11" y="147.8467">Bus</text><line style="stroke:#181818;stroke-width:0.5;" x1="607.11" x2="662.8815" y1="159" y2="159"/><line style="stroke:#181818;stroke-width:0.5;" x1="607.11" x2="662.8815" y1="167" y2="167"/></g><!--class Asset--><g class="entity" data-qualified-name="odeon.model.asset.Asset" data-source-line="22" id="ent0019"><rect fill="#F1F1F1" height="48" rx="2.5" ry="2.5" style="stroke:#181818;stroke-width:0.5;" width="70.2676" x="1241.87" y="127"/><ellipse cx="1256.87" cy="143" fill="#ADD1B2" rx="11" ry="11" style="stroke:#181818;stroke-width:1;"/><path d="M1259.8388,148.6406 Q1259.2606,148.9375 1258.62,149.0781 Q1257.9794,149.2344 1257.2763,149.2344 Q1254.7763,149.2344 1253.4481,147.5938 Q1252.1356,145.9375 1252.1356,142.8125 Q1252.1356,139.6875 1253.4481,138.0313 Q1254.7763,136.375 1257.2763,136.375 Q1257.9794,136.375 1258.62,136.5313 Q1259.2763,136.6875 1259.8388,136.9844 L1259.8388,139.7031 Q1259.2138,139.125 1258.62,138.8594 Q1258.0263,138.5781 1257.4013,138.5781 Q1256.0575,138.5781 1255.37,139.6563 Q1254.6825,140.7188 1254.6825,142.8125 Q1254.6825,144.9063 1255.37,145.9844 Q1256.0575,147.0469 1257.4013,147.0469 Q1258.0263,147.0469 1258.62,146.7813 Q1259.2138,146.5 1259.8388,145.9219 L1259.8388,148.6406 Z " fill="#000000"/><text fill="#000000" font-family="sans-serif" font-size="14" lengthAdjust="spacing" textLength="38.2676" x="1270.87" y="147.8467">Asset</text><line style="stroke:#181818;stroke-width:0.5;" x1="1242.87" x2="1311.1376" y1="159" y2="159"/><line style="stroke:#181818;stroke-width:0.5;" x1="1242.87" x2="1311.1376" y1="167" y2="167"/></g><!--reverse link EnergyNetworkObject to EnergyEdge--><g class="link" data-entity-1="ent0006" data-entity-2="ent0002" data-link-type="extension" data-source-line="5" id="lnk7"><path codeLine="5" d="M1242.5812,376.057 C1221.9312,396.607 1201.68,412.99 1167,428.38 C1011.91,497.2 808.07,509.77 709.45,511.54" fill="none" id="EnergyNetworkObject-backto-EnergyEdge" style="stroke:#181818;stroke-width:1;"/><polygon fill="none" points="1255.34,363.36,1238.3489,371.8041,1246.8136,380.3099,1255.34,363.36" style="stroke:#181818;stroke-width:1;"/></g><!--reverse link Edge to EnergyEdge--><g class="link" data-entity-1="ent0008" data-entity-2="ent0002" data-link-type="extension" data-source-line="6" id="lnk10"><path codeLine="6" d="M80.9879,190.08 C74.4379,199.33 78.36,195.74 75,207 C46.89,301.29 10.58,354.01 75,428.38 C141.56,505.22 459.44,512.54 592.37,512.16" fill="none" id="Edge-backto-EnergyEdge" style="stroke:#181818;stroke-width:1;"/><polygon fill="none" points="91.39,175.39,76.0912,186.6126,85.8846,193.5474,91.39,175.39" style="stroke:#181818;stroke-width:1;"/></g><!--reverse link Network to EnergyNetwork--><g class="link" data-entity-1="ent0012" data-entity-2="ent0011" data-link-type="extension" data-source-line="17" id="lnk13"><path codeLine="17" d="M371.3414,186.2594 C381.5414,194.0994 378.95,191.72 390,199 C416.04,216.16 444.31,233.41 472.07,249.63" fill="none" id="Network-backto-EnergyNetwork" style="stroke:#181818;stroke-width:1;"/><polygon fill="none" points="357.07,175.29,367.6849,191.0165,374.9979,181.5023,357.07,175.29" style="stroke:#181818;stroke-width:1;"/></g><!--reverse link Bus to EnergyNetwork--><g class="link" data-entity-1="ent0014" data-entity-2="ent0011" data-link-type="extension" data-source-line="18" id="lnk16"><path codeLine="18" d="M635,193.21 C635,212.12 635,222.1 635,249.56" fill="none" id="Bus-backto-EnergyNetwork" style="stroke:#181818;stroke-width:1;"/><polygon fill="none" points="635,175.21,629,193.21,641,193.21,635,175.21" style="stroke:#181818;stroke-width:1;"/></g><!--reverse link NetworkObject to EnergyNetworkObject--><g class="link" data-entity-1="ent0017" data-entity-2="ent0006" data-link-type="extension" data-source-line="21" id="lnk18"><path codeLine="21" d="M538.0054,182.869 C558.3754,192.099 566.62,194.21 590,199 C621.4,205.45 1138.04,193.25 1167,207 C1214.52,229.58 1248.91,283.65 1265.62,314.87" fill="none" id="NetworkObject-backto-EnergyNetworkObject" style="stroke:#181818;stroke-width:1;"/><polygon fill="none" points="521.61,175.44,535.5291,188.3342,540.4818,177.4039,521.61,175.44" style="stroke:#181818;stroke-width:1;"/></g><!--reverse link Asset to EnergyNetworkObject--><g class="link" data-entity-1="ent0019" data-entity-2="ent0006" data-link-type="extension" data-source-line="22" id="lnk21"><path codeLine="22" d="M1277,193.21 C1277,228.89 1277,278.84 1277,314.7" fill="none" id="Asset-backto-EnergyNetworkObject" style="stroke:#181818;stroke-width:1;"/><polygon fill="none" points="1277,175.21,1271,193.21,1283,193.21,1277,175.21" style="stroke:#181818;stroke-width:1;"/></g><!--reverse link EnergyNetworkObject to EnergyNode--><g class="link" data-entity-1="ent0006" data-entity-2="ent0022" data-link-type="extension" data-source-line="25" id="lnk23"><path codeLine="25" d="M1235.7163,374.9465 C1213.8063,393.1865 1195.93,407.4 1167,428.38 C1137.79,449.56 1103.47,471.84 1077.88,487.98" fill="none" id="EnergyNetworkObject-backto-EnergyNode" style="stroke:#181818;stroke-width:1;"/><polygon fill="none" points="1249.55,363.43,1231.8775,370.3353,1239.5552,379.5577,1249.55,363.43" style="stroke:#181818;stroke-width:1;"/></g><!--reverse link Node to EnergyNode--><g class="link" data-entity-1="ent0024" data-entity-2="ent0022" data-link-type="extension" data-source-line="26" id="lnk25"><path codeLine="26" d="M181.1462,188.1119 C172.2762,196.9319 173.92,193.47 162,199 C150,204.58 111.7,197.04 103,207 C70.64,244.05 69.78,392.09 103,428.38 C110.46,436.53 776.23,490.32 980.85,506.67" fill="none" id="Node-backto-EnergyNode" style="stroke:#181818;stroke-width:1;"/><polygon fill="none" points="193.91,175.42,176.9155,183.8573,185.3768,192.3665,193.91,175.42" style="stroke:#181818;stroke-width:1;"/></g><?plantuml-src jLJ1ReCm3Btp5RbjKobViCiczRfzGfG50naXHjYKeQx_lh32AbRKXKgx98hjz_nUvEHEO0heaiflDW47JTvB1znXKqQHjeheIaMo-pxkqXp48Jf6VrQ-d4wlR--WMJn-RhTXx3Fcd_JGTWL7e9jHepUqKNLjUwdHEI_Ne2EPDLX9nQnqKO5ZkYUmMIoCgrlsXLMDpeSbzpLGBB3bnRZ997nmeyuP7-mQmo0j4baWaYVAp6Bt46rq0ReSX90X1gUXbvXDmY2Len7gVRQI1TAeR07w2tbMC05ou03cM0nUGihbtgYBAmi6MkFA4CWjRIux71S7RPg8i5aRgsTCAUoDXkIvfPKawsPsV5U7wpvMlRuPPiRgXG4dJyDw4rUeDP_wlyzbO5--gw5jECSN?></g></svg>