<?plantuml 1.2026.2beta3?><svg xmlns="http://www.w3.org/2000/svg" xmlns:xlink="http://www.w3.org/1999/xlink" contentStyleType="text/css" data-diagram-type="CLASS" height="859px" preserveAspectRatio="none" style="width:1593px;height:859px;background:#FFFFFF;" version="1.1" viewBox="0 0 1593 859" width="1593px" zoomAndPan="magnify"><defs/><g><!--cluster odeon--><g class="cluster" data-qualified-name="odeon" data-source-line="3" id="ent0003"><path d="M8.5,6 L58.2197,6 A3.75,3.75 0 0 1 60.7197,8.5 L67.7197,28.2969 L1583.5,28.2969 A2.5,2.5 0 0 1 1586,30.7969 L1586,849.7 A2.5,2.5 0 0 1 1583.5,852.2 L8.5,852.2 A2.5,2.5 0 0 1 6,849.7 L6,8.5 A2.5,2.5 0 0 1 8.5,6" fill="none" style="stroke:#000000;stroke-width:1.5;"/><line style="stroke:#000000;stroke-width:1.5;" x1="6" x2="67.7197" y1="28.2969" y2="28.2969"/><text fill="#000000" font-family="sans-serif" font-size="14" font-weight="bold" lengthAdjust="spacing" textLength="48.7197" x="10" y="20.9951">odeon</text></g><!--cluster model--><g class="cluster" data-qualified-name="odeon.model" data-source-line="3" id="ent0004"><path d="M32.5,49 L82.0215,49 A3.75,3.75 0 0 1 84.5215,51.5 L91.5215,71.2969 L1559.5,71.2969 A2.5,2.5 0 0 1 1562,73.7969 L1562,825.7 A2.5,2.5 0 0 1 1559.5,828.2 L32.5,828.2 A2.5,2.5 0 0 1 30,825.7 L30,51.5 A2.5,2.5 0 0 1 32.5,49" fill="none" style="stroke:#000000;stroke-width:1.5;"/><line style="stroke:#000000;stroke-width:1.5;" x1="30" x2="91.5215" y1="71.2969" y2="71.2969"/><text fill="#000000" font-family="sans-serif" font-size="14" font-weight="bold" lengthAdjust="spacing" textLength="48.5215" x="34" y="63.9951">model</text></g><!--cluster energy--><g class="cluster" data-qualified-name="odeon.model.energy" data-source-line="3" id="ent0005"><path d="M56.5,92 L112.5088,92 A3.75,3.75 0 0 1 115.0088,94.5 L122.0088,114.2969 L1535.5,114.2969 A2.5,2.5 0 0 1 1538,116.7969 L1538,801.7 A2.5,2.5 0 0 1 1535.5,804.2 L56.5,804.2 A2.5,2.5 0 0 1 54,801.7 L54,94.5 A2.5,2.5 0 0 1 56.5,92" fill="none" style="stroke:#000000;stroke-width:1.5;"/><line style="stroke:#000000;stroke-width:1.5;" x1="54" x2="122.0088" y1="114.2969" y2="114.2969"/><text fill="#000000" font-family="sans-serif" font-size="14" font-weight="bold" lengthAdjust="spacing" textLength="55.0088" x="58" y="106.9951">energy</text></g><!--class Medium--><g class="entity" data-qualified-name="odeon.model.energy.Medium" data-source-line="3" id="ent0002"><rect fill="#F1F1F1" height="455.4219" rx="2.5" ry="2.5" style="stroke:#181818;stroke-width:0.5;" width="666.0898" x="69.96" y="127"/><ellipse cx="370.7652" cy="143" fill="#EB937F" rx="11" ry="11" style="stroke:#181818;stroke-width:1;"/><path d="M374.8746,149 L367.1558,149 L367.1558,136.6094 L374.8746,136.6094 L374.8746,138.7656 L369.6089,138.7656 L369.6089,141.4375 L374.3746,141.4375 L374.3746,143.5938 L369.6089,143.5938 L369.6089,146.8438 L374.8746,146.8438 L374.8746,149 Z " fill="#000000"/><text fill="#000000" font-family="sans-serif" font-size="14" lengthAdjust="spacing" textLength="55.9795" x="391.2652" y="147.8467">Medium</text><line style="stroke:#181818;stroke-width:0.5;" x1="70.96" x2="735.0498" y1="159" y2="159"/><text fill="#000000" font-family="sans-serif" font-size="14" lengthAdjust="spacing" text-decoration="underline" textLength="153.9316" x="75.96" y="175.9951">ENERGY: ('energy', [])</text><text fill="#000000" font-family="sans-serif" font-size="14" lengthAdjust="spacing" text-decoration="underline" textLength="349.4668" x="75.96" y="192.292">ELECTRIC_ENERGY: ('electric energy', ['ENERGY'])</text><text fill="#000000" font-family="sans-serif" font-size="14" lengthAdjust="spacing" text-decoration="underline" textLength="352.3174" x="75.96" y="208.5889">THERMAL_ENERGY: ('thermal energy', ['ENERGY'])</text><text fill="#000000" font-family="sans-serif" font-size="14" lengthAdjust="spacing" text-decoration="underline" textLength="365.7568" x="75.96" y="224.8857">CHEMICAL_ENERGY: ('chemical energy', ['ENERGY'])</text><text fill="#000000" font-family="sans-serif" font-size="14" lengthAdjust="spacing" text-decoration="underline" textLength="424.1426" x="75.96" y="241.1826">EM_RADIATION_ENERGY: ('EM radiation energy', ['ENERGY'])</text><text fill="#000000" font-family="sans-serif" font-size="14" lengthAdjust="spacing" text-decoration="underline" textLength="479.5342" x="75.96" y="257.4795">AIR_THERMAL_ENERGY: ('air thermal energy', ['THERMAL_ENERGY'])</text><text fill="#000000" font-family="sans-serif" font-size="14" lengthAdjust="spacing" text-decoration="underline" textLength="528.3086" x="75.96" y="273.7764">WATER_THERMAL_ENERGY: ('water thermal energy', ['THERMAL_ENERGY'])</text><text fill="#000000" font-family="sans-serif" font-size="14" lengthAdjust="spacing" text-decoration="underline" textLength="516.6738" x="75.96" y="290.0732">BRINE_THERMAL_ENERGY: ('brine thermal energy', ['THERMAL_ENERGY'])</text><text fill="#000000" font-family="sans-serif" font-size="14" lengthAdjust="spacing" text-decoration="underline" textLength="636.9248" x="75.96" y="306.3701">WATER_THERMAL_ENERGY_LO: ('water thermal energy, LT', ['WATER_THERMAL_ENERGY'])</text><text fill="#000000" font-family="sans-serif" font-size="14" lengthAdjust="spacing" text-decoration="underline" textLength="654.0898" x="75.96" y="322.667">WATER_THERMAL_ENERGY_MED: ('water thermal energy, MT', ['WATER_THERMAL_ENERGY'])</text><text fill="#000000" font-family="sans-serif" font-size="14" lengthAdjust="spacing" text-decoration="underline" textLength="635.4893" x="75.96" y="338.9639">WATER_THERMAL_ENERGY_HI: ('water thermal energy, HT', ['WATER_THERMAL_ENERGY'])</text><text fill="#000000" font-family="sans-serif" font-size="14" lengthAdjust="spacing" text-decoration="underline" textLength="543.1357" x="75.96" y="355.2607">LIQUID_CHEMICAL_ENERGY: ('liquid chemical energy', ['CHEMICAL_ENERGY'])</text><text fill="#000000" font-family="sans-serif" font-size="14" lengthAdjust="spacing" text-decoration="underline" textLength="583.1328" x="75.96" y="371.5576">GASEOUS_CHEMICAL_ENERGY: ('gaseous chemical energy', ['CHEMICAL_ENERGY'])</text><text fill="#000000" font-family="sans-serif" font-size="14" lengthAdjust="spacing" text-decoration="underline" textLength="531.8564" x="75.96" y="387.8545">SOLID_CHEMICAL_ENERGY: ('solid chemical energy', ['CHEMICAL_ENERGY'])</text><text fill="#000000" font-family="sans-serif" font-size="14" lengthAdjust="spacing" text-decoration="underline" textLength="424.3545" x="75.96" y="404.1514">SOLAR_ENERGY: ('solar energy', ['EM_RADIATION_ENERGY'])</text><text fill="#000000" font-family="sans-serif" font-size="14" lengthAdjust="spacing" text-decoration="underline" textLength="359.208" x="75.96" y="420.4482">FUEL_OIL: ('fuel oil', ['LIQUID_CHEMICAL_ENERGY'])</text><text fill="#000000" font-family="sans-serif" font-size="14" lengthAdjust="spacing" text-decoration="underline" textLength="448.9365" x="75.96" y="436.7451">NATURAL_GAS: ('natural gas', ['GASEOUS_CHEMICAL_ENERGY'])</text><text fill="#000000" font-family="sans-serif" font-size="14" lengthAdjust="spacing" text-decoration="underline" textLength="373.8574" x="75.96" y="453.042">SYNGAS: ('syngas', ['GASEOUS_CHEMICAL_ENERGY'])</text><text fill="#000000" font-family="sans-serif" font-size="14" lengthAdjust="spacing" text-decoration="underline" textLength="367.5889" x="75.96" y="469.3389">BIOGAS: ('biogas', ['GASEOUS_CHEMICAL_ENERGY'])</text><text fill="#000000" font-family="sans-serif" font-size="14" lengthAdjust="spacing" text-decoration="underline" textLength="414.9346" x="75.96" y="485.6357">HYDROGEN: ('hydrogen', ['GASEOUS_CHEMICAL_ENERGY'])</text><text fill="#000000" font-family="sans-serif" font-size="14" lengthAdjust="spacing" text-decoration="underline" textLength="364.0547" x="75.96" y="501.9326">BIOMASS: ('biomass', ['SOLID_CHEMICAL_ENERGY'])</text><text fill="#000000" font-family="sans-serif" font-size="14" lengthAdjust="spacing" text-decoration="underline" textLength="420.5195" x="75.96" y="518.2295">BIOMASS_WOODCHIPS: ('biomass: woodchips', ['BIOMASS'])</text><text fill="#000000" font-family="sans-serif" font-size="14" lengthAdjust="spacing" text-decoration="underline" textLength="363.8359" x="75.96" y="534.5264">BIOMASS_PELLETS: ('biomass: pellets', ['BIOMASS'])</text><text fill="#000000" font-family="sans-serif" font-size="14" lengthAdjust="spacing" text-decoration="underline" textLength="409.3086" x="75.96" y="550.8232">BIOMASS_WOODLOGS: ('biomass: woodlogs', ['BIOMASS'])</text><line style="stroke:#181818;stroke-width:0.5;" x1="70.96" x2="735.0498" y1="558.125" y2="558.125"/><text fill="#000000" font-family="sans-serif" font-size="14" lengthAdjust="spacing" textLength="160.583" x="75.96" y="575.1201">get_by_label(cls, label)</text></g><!--class DagNode--><g class="entity" data-qualified-name="odeon.model.energy.DagNode" data-source-line="30" id="ent0006"><rect fill="#F1F1F1" height="316.75" rx="2.5" ry="2.5" style="stroke:#181818;stroke-width:0.5;" width="318.8037" x="1203.6" y="196.33"/><ellipse cx="1326.3598" cy="212.33" fill="#ADD1B2" rx="11" ry="11" style="stroke:#181818;stroke-width:1;"/><path d="M1329.3285,217.9706 Q1328.7504,218.2675 1328.1098,218.4081 Q1327.4691,218.5644 1326.766,218.5644 Q1324.266,218.5644 1322.9379,216.9238 Q1321.6254,215.2675 1321.6254,212.1425 Q1321.6254,209.0175 1322.9379,207.3613 Q1324.266,205.705 1326.766,205.705 Q1327.4691,205.705 1328.1098,205.8613 Q1328.766,206.0175 1329.3285,206.3144 L1329.3285,209.0331 Q1328.7035,208.455 1328.1098,208.1894 Q1327.516,207.9081 1326.891,207.9081 Q1325.5473,207.9081 1324.8598,208.9863 Q1324.1723,210.0488 1324.1723,212.1425 Q1324.1723,214.2363 1324.8598,215.3144 Q1325.5473,216.3769 1326.891,216.3769 Q1327.516,216.3769 1328.1098,216.1113 Q1328.7035,215.83 1329.3285,215.2519 L1329.3285,217.9706 Z " fill="#000000"/><text fill="#000000" font-family="sans-serif" font-size="14" lengthAdjust="spacing" textLength="64.7842" x="1346.8598" y="217.1767">DagNode</text><line style="stroke:#181818;stroke-width:0.5;" x1="1204.6" x2="1521.4037" y1="228.33" y2="228.33"/><g data-visibility-modifier="PUBLIC_FIELD"><ellipse cx="1214.6" cy="241.9784" fill="none" rx="3" ry="3" style="stroke:#038048;stroke-width:1;"/></g><text fill="#000000" font-family="sans-serif" font-size="14" lengthAdjust="spacing" textLength="67.4092" x="1223.6" y="245.3251">name: str</text><g data-visibility-modifier="PROTECTED_FIELD"><polygon fill="none" points="1214.6,253.2753,1218.6,257.2753,1214.6,261.2753,1210.6,257.2753" style="stroke:#B38D22;stroke-width:1;"/></g><text fill="#000000" font-family="sans-serif" font-size="14" lengthAdjust="spacing" textLength="90.2207" x="1223.6" y="261.622">_parents: list</text><g data-visibility-modifier="PROTECTED_FIELD"><polygon fill="none" points="1214.6,269.5722,1218.6,273.5722,1214.6,277.5722,1210.6,273.5722" style="stroke:#B38D22;stroke-width:1;"/></g><text fill="#000000" font-family="sans-serif" font-size="14" lengthAdjust="spacing" textLength="93.208" x="1223.6" y="277.9189">_children: list</text><line style="stroke:#181818;stroke-width:1;stroke-dasharray:1,2;" x1="1204.6" x2="1521.4037" y1="285.2206" y2="285.2206"/><g data-visibility-modifier="PUBLIC_METHOD"><ellipse cx="1214.6" cy="298.8691" fill="#84BE84" rx="3" ry="3" style="stroke:#038048;stroke-width:1;"/></g><text fill="#000000" font-family="sans-serif" font-size="14" lengthAdjust="spacing" textLength="132.0908" x="1223.6" y="302.2157">children (property)</text><g data-visibility-modifier="PUBLIC_METHOD"><ellipse cx="1214.6" cy="315.1659" fill="#84BE84" rx="3" ry="3" style="stroke:#038048;stroke-width:1;"/></g><text fill="#000000" font-family="sans-serif" font-size="14" lengthAdjust="spacing" textLength="129.3701" x="1223.6" y="318.5126">digraph (property)</text><g data-visibility-modifier="PUBLIC_METHOD"><ellipse cx="1214.6" cy="331.4628" fill="#84BE84" rx="3" ry="3" style="stroke:#038048;stroke-width:1;"/></g><text fill="#000000" font-family="sans-serif" font-size="14" lengthAdjust="spacing" textLength="129.1035" x="1223.6" y="334.8095">parents (property)</text><g data-visibility-modifier="PUBLIC_METHOD"><ellipse cx="1214.6" cy="347.7597" fill="#84BE84" rx="3" ry="3" style="stroke:#038048;stroke-width:1;"/></g><text fill="#000000" font-family="sans-serif" font-size="14" lengthAdjust="spacing" textLength="111.2822" x="1223.6" y="351.1064">roots (property)</text><g data-visibility-modifier="PUBLIC_METHOD"><ellipse cx="1214.6" cy="364.0566" fill="#84BE84" rx="3" ry="3" style="stroke:#038048;stroke-width:1;"/></g><text fill="#000000" font-family="sans-serif" font-size="14" lengthAdjust="spacing" textLength="107.96" x="1223.6" y="367.4032">subs (property)</text><g data-visibility-modifier="PUBLIC_METHOD"><ellipse cx="1214.6" cy="380.3534" fill="#84BE84" rx="3" ry="3" style="stroke:#038048;stroke-width:1;"/></g><text fill="#000000" font-family="sans-serif" font-size="14" lengthAdjust="spacing" textLength="122.3291" x="1223.6" y="383.7001">supers (property)</text><line style="stroke:#181818;stroke-width:0.5;" x1="1204.6" x2="1521.4037" y1="391.0019" y2="391.0019"/><g data-visibility-modifier="PROTECTED_METHOD"><polygon fill="#FFFF44" points="1214.6,399.6503,1218.6,403.6503,1214.6,407.6503,1210.6,403.6503" style="stroke:#B38D22;stroke-width:1;"/></g><text fill="#000000" font-family="sans-serif" font-size="14" lengthAdjust="spacing" textLength="177.2969" x="1223.6" y="407.997">_add_parent(self, parent)</text><g data-visibility-modifier="PUBLIC_METHOD"><ellipse cx="1214.6" cy="420.9472" fill="#84BE84" rx="3" ry="3" style="stroke:#038048;stroke-width:1;"/></g><text fill="#000000" font-family="sans-serif" font-size="14" lengthAdjust="spacing" textLength="167.6172" x="1223.6" y="424.2939">add_child(self, children)</text><g data-visibility-modifier="PUBLIC_METHOD"><ellipse cx="1214.6" cy="437.2441" fill="#84BE84" rx="3" ry="3" style="stroke:#038048;stroke-width:1;"/></g><text fill="#000000" font-family="sans-serif" font-size="14" lengthAdjust="spacing" textLength="245.0889" x="1223.6" y="440.5907">closest_common_super(self, other)</text><g data-visibility-modifier="PUBLIC_METHOD"><ellipse cx="1214.6" cy="453.5409" fill="#84BE84" rx="3" ry="3" style="stroke:#038048;stroke-width:1;"/></g><text fill="#000000" font-family="sans-serif" font-size="14" lengthAdjust="spacing" textLength="292.8037" x="1223.6" y="456.8876">closest_common_super_multi(self, nodes)</text><g data-visibility-modifier="PUBLIC_METHOD"><ellipse cx="1214.6" cy="469.8378" fill="#84BE84" rx="3" ry="3" style="stroke:#038048;stroke-width:1;"/></g><text fill="#000000" font-family="sans-serif" font-size="14" lengthAdjust="spacing" textLength="194.373" x="1223.6" y="473.1845">edge_tuples(self, recursive)</text><g data-visibility-modifier="PUBLIC_METHOD"><ellipse cx="1214.6" cy="486.1347" fill="#84BE84" rx="3" ry="3" style="stroke:#038048;stroke-width:1;"/></g><text fill="#000000" font-family="sans-serif" font-size="14" lengthAdjust="spacing" textLength="149.7822" x="1223.6" y="489.4814">inferiority(self, other)</text><g data-visibility-modifier="PUBLIC_METHOD"><ellipse cx="1214.6" cy="502.4316" fill="#84BE84" rx="3" ry="3" style="stroke:#038048;stroke-width:1;"/></g><text fill="#000000" font-family="sans-serif" font-size="14" lengthAdjust="spacing" textLength="157.1445" x="1223.6" y="505.7782">superiority(self, other)</text></g><!--class MediumManager--><g class="entity" data-qualified-name="odeon.model.energy.MediumManager" data-source-line="50" id="ent0007"><rect fill="#F1F1F1" height="194.6719" rx="2.5" ry="2.5" style="stroke:#181818;stroke-width:0.5;" width="397.4443" x="771.28" y="257.37"/><ellipse cx="907.0793" cy="273.37" fill="#ADD1B2" rx="11" ry="11" style="stroke:#181818;stroke-width:1;"/><path d="M910.0481,279.0106 Q909.4699,279.3075 908.8293,279.4481 Q908.1887,279.6044 907.4856,279.6044 Q904.9856,279.6044 903.6574,277.9638 Q902.3449,276.3075 902.3449,273.1825 Q902.3449,270.0575 903.6574,268.4013 Q904.9856,266.745 907.4856,266.745 Q908.1887,266.745 908.8293,266.9013 Q909.4856,267.0575 910.0481,267.3544 L910.0481,270.0731 Q909.4231,269.495 908.8293,269.2294 Q908.2356,268.9481 907.6106,268.9481 Q906.2668,268.9481 905.5793,270.0263 Q904.8918,271.0888 904.8918,273.1825 Q904.8918,275.2763 905.5793,276.3544 Q906.2668,277.4169 907.6106,277.4169 Q908.2356,277.4169 908.8293,277.1513 Q909.4231,276.87 910.0481,276.2919 L910.0481,279.0106 Z " fill="#000000"/><text fill="#000000" font-family="sans-serif" font-size="14" lengthAdjust="spacing" textLength="117.3457" x="927.5793" y="278.2167">MediumManager</text><line style="stroke:#181818;stroke-width:0.5;" x1="772.28" x2="1167.7243" y1="289.37" y2="289.37"/><line style="stroke:#181818;stroke-width:0.5;" x1="772.28" x2="1167.7243" y1="297.37" y2="297.37"/><g data-visibility-modifier="PROTECTED_METHOD"><polygon fill="#FFFF44" points="782.28,306.0184,786.28,310.0184,782.28,314.0184,778.28,310.0184" style="stroke:#B38D22;stroke-width:1;"/></g><text fill="#000000" font-family="sans-serif" font-size="14" lengthAdjust="spacing" textLength="110.4277" x="791.28" y="314.3651">_build_dag(self)</text><g data-visibility-modifier="PUBLIC_METHOD"><ellipse cx="782.28" cy="327.3153" fill="#84BE84" rx="3" ry="3" style="stroke:#038048;stroke-width:1;"/></g><text fill="#000000" font-family="sans-serif" font-size="14" lengthAdjust="spacing" textLength="349.583" x="791.28" y="330.662">closest_common_super(self, medium1, medium2)</text><g data-visibility-modifier="PUBLIC_METHOD"><ellipse cx="782.28" cy="343.6122" fill="#84BE84" rx="3" ry="3" style="stroke:#038048;stroke-width:1;"/></g><text fill="#000000" font-family="sans-serif" font-size="14" lengthAdjust="spacing" textLength="315.4033" x="791.28" y="346.9589">closest_common_super_multi(self, mediums)</text><g data-visibility-modifier="PUBLIC_METHOD"><ellipse cx="782.28" cy="359.9091" fill="#84BE84" rx="3" ry="3" style="stroke:#038048;stroke-width:1;"/></g><text fill="#000000" font-family="sans-serif" font-size="14" lengthAdjust="spacing" textLength="371.4443" x="791.28" y="363.2557">generalizes(self, medium1, medium2, include_same)</text><g data-visibility-modifier="PUBLIC_METHOD"><ellipse cx="782.28" cy="376.2059" fill="#84BE84" rx="3" ry="3" style="stroke:#038048;stroke-width:1;"/></g><text fill="#000000" font-family="sans-serif" font-size="14" lengthAdjust="spacing" textLength="348.8721" x="791.28" y="379.5526">is_linear(self, medium1, medium2, include_same)</text><g data-visibility-modifier="PUBLIC_METHOD"><ellipse cx="782.28" cy="392.5028" fill="#84BE84" rx="3" ry="3" style="stroke:#038048;stroke-width:1;"/></g><text fill="#000000" font-family="sans-serif" font-size="14" lengthAdjust="spacing" textLength="352.1943" x="791.28" y="395.8495">specifies(self, medium1, medium2, include_same)</text><g data-visibility-modifier="PUBLIC_METHOD"><ellipse cx="782.28" cy="408.7997" fill="#84BE84" rx="3" ry="3" style="stroke:#038048;stroke-width:1;"/></g><text fill="#000000" font-family="sans-serif" font-size="14" lengthAdjust="spacing" textLength="134.4355" x="791.28" y="412.1464">subs(self, medium)</text><g data-visibility-modifier="PUBLIC_METHOD"><ellipse cx="782.28" cy="425.0966" fill="#84BE84" rx="3" ry="3" style="stroke:#038048;stroke-width:1;"/></g><text fill="#000000" font-family="sans-serif" font-size="14" lengthAdjust="spacing" textLength="261.6387" x="791.28" y="428.4432">superiority(self, medium1, medium2)</text><g data-visibility-modifier="PUBLIC_METHOD"><ellipse cx="782.28" cy="441.3934" fill="#84BE84" rx="3" ry="3" style="stroke:#038048;stroke-width:1;"/></g><text fill="#000000" font-family="sans-serif" font-size="14" lengthAdjust="spacing" textLength="148.8047" x="791.28" y="444.7401">supers(self, medium)</text></g><!--class Singleton--><g class="entity" data-qualified-name="odeon.model.energy.Singleton" data-source-line="61" id="ent0008"><rect fill="#F1F1F1" height="48" rx="2.5" ry="2.5" style="stroke:#181818;stroke-width:0.5;" width="97.9668" x="354.02" y="691.31"/><ellipse cx="369.02" cy="707.31" fill="#ADD1B2" rx="11" ry="11" style="stroke:#181818;stroke-width:1;"/><path d="M371.9888,712.9506 Q371.4106,713.2475 370.77,713.3881 Q370.1294,713.5444 369.4263,713.5444 Q366.9263,713.5444 365.5981,711.9038 Q364.2856,710.2475 364.2856,707.1225 Q364.2856,703.9975 365.5981,702.3413 Q366.9263,700.685 369.4263,700.685 Q370.1294,700.685 370.77,700.8413 Q371.4263,700.9975 371.9888,701.2944 L371.9888,704.0131 Q371.3638,703.435 370.77,703.1694 Q370.1763,702.8881 369.5513,702.8881 Q368.2075,702.8881 367.52,703.9663 Q366.8325,705.0288 366.8325,707.1225 Q366.8325,709.2163 367.52,710.2944 Q368.2075,711.3569 369.5513,711.3569 Q370.1763,711.3569 370.77,711.0913 Q371.3638,710.81 371.9888,710.2319 L371.9888,712.9506 Z " fill="#000000"/><text fill="#000000" font-family="sans-serif" font-size="14" lengthAdjust="spacing" textLength="65.9668" x="383.02" y="712.1567">Singleton</text><line style="stroke:#181818;stroke-width:0.5;" x1="355.02" x2="450.9868" y1="723.31" y2="723.31"/><line style="stroke:#181818;stroke-width:0.5;" x1="355.02" x2="450.9868" y1="731.31" y2="731.31"/></g><!--class TypeDagNode--><g class="entity" data-qualified-name="odeon.model.energy.TypeDagNode" data-source-line="63" id="ent0009"><rect fill="#F1F1F1" height="145.7813" rx="2.5" ry="2.5" style="stroke:#181818;stroke-width:0.5;" width="292.9502" x="1216.52" y="642.42"/><ellipse cx="1309.1846" cy="658.42" fill="#ADD1B2" rx="11" ry="11" style="stroke:#181818;stroke-width:1;"/><path d="M1312.1533,664.0606 Q1311.5752,664.3575 1310.9346,664.4981 Q1310.2939,664.6544 1309.5908,664.6544 Q1307.0908,664.6544 1305.7627,663.0138 Q1304.4502,661.3575 1304.4502,658.2325 Q1304.4502,655.1075 1305.7627,653.4513 Q1307.0908,651.795 1309.5908,651.795 Q1310.2939,651.795 1310.9346,651.9513 Q1311.5908,652.1075 1312.1533,652.4044 L1312.1533,655.1231 Q1311.5283,654.545 1310.9346,654.2794 Q1310.3408,653.9981 1309.7158,653.9981 Q1308.3721,653.9981 1307.6846,655.0763 Q1306.9971,656.1388 1306.9971,658.2325 Q1306.9971,660.3263 1307.6846,661.4044 Q1308.3721,662.4669 1309.7158,662.4669 Q1310.3408,662.4669 1310.9346,662.2013 Q1311.5283,661.92 1312.1533,661.3419 L1312.1533,664.0606 Z " fill="#000000"/><text fill="#000000" font-family="sans-serif" font-size="14" lengthAdjust="spacing" textLength="99.1211" x="1329.6846" y="663.2667">TypeDagNode</text><line style="stroke:#181818;stroke-width:0.5;" x1="1217.52" x2="1508.4702" y1="674.42" y2="674.42"/><g data-visibility-modifier="PUBLIC_FIELD"><ellipse cx="1227.52" cy="688.0684" fill="none" rx="3" ry="3" style="stroke:#038048;stroke-width:1;"/></g><text fill="#000000" font-family="sans-serif" font-size="14" lengthAdjust="spacing" textLength="67.4092" x="1236.52" y="691.4151">name: str</text><g data-visibility-modifier="PROTECTED_FIELD"><polygon fill="none" points="1227.52,699.3653,1231.52,703.3653,1227.52,707.3653,1223.52,703.3653" style="stroke:#B38D22;stroke-width:1;"/></g><text fill="#000000" font-family="sans-serif" font-size="14" lengthAdjust="spacing" textLength="90.2207" x="1236.52" y="707.712">_parents: list</text><g data-visibility-modifier="PROTECTED_FIELD"><polygon fill="none" points="1227.52,715.6622,1231.52,719.6622,1227.52,723.6622,1223.52,719.6622" style="stroke:#B38D22;stroke-width:1;"/></g><text fill="#000000" font-family="sans-serif" font-size="14" lengthAdjust="spacing" textLength="93.208" x="1236.52" y="724.0089">_children: list</text><line style="stroke:#181818;stroke-width:0.5;" x1="1217.52" x2="1508.4702" y1="731.3106" y2="731.3106"/><g data-visibility-modifier="PUBLIC_METHOD"><ellipse cx="1227.52" cy="744.9591" fill="#84BE84" rx="3" ry="3" style="stroke:#038048;stroke-width:1;"/></g><text fill="#000000" font-family="sans-serif" font-size="14" lengthAdjust="spacing" textLength="266.9502" x="1236.52" y="748.3057">generalizes(self, other, include_same)</text><g data-visibility-modifier="PUBLIC_METHOD"><ellipse cx="1227.52" cy="761.2559" fill="#84BE84" rx="3" ry="3" style="stroke:#038048;stroke-width:1;"/></g><text fill="#000000" font-family="sans-serif" font-size="14" lengthAdjust="spacing" textLength="244.3779" x="1236.52" y="764.6026">is_linear(self, other, include_same)</text><g data-visibility-modifier="PUBLIC_METHOD"><ellipse cx="1227.52" cy="777.5528" fill="#84BE84" rx="3" ry="3" style="stroke:#038048;stroke-width:1;"/></g><text fill="#000000" font-family="sans-serif" font-size="14" lengthAdjust="spacing" textLength="247.7002" x="1236.52" y="780.8995">specifies(self, other, include_same)</text></g><!--reverse link DagNode to TypeDagNode--><g class="link" data-entity-1="ent0006" data-entity-2="ent0009" data-link-type="extension" data-source-line="71" id="lnk10"><path codeLine="71" d="M1363,531.52 C1363,576.43 1363,605.16 1363,642.23" fill="none" id="DagNode-backto-TypeDagNode" style="stroke:#181818;stroke-width:1;"/><polygon fill="none" points="1363,513.52,1357,531.52,1369,531.52,1363,513.52" style="stroke:#181818;stroke-width:1;"/></g><?plantuml-src hPPTZvf058Rl-HKalT3DkYRjvQOth58b0TaYPhDfcia8HvnacA4pqCPQ_tk73rlHqKNRA-2Sztquvp03z4mU0sV3L1te41Y8P6COm8fKanXw41ELsHhR5G4QxxOonpc9TlRC3YQlZsQ_Lmjx0_FBrxiJbMkFmi0PeGCvXIWN93B_-dfrjdVg3wTsu5dkWJrVWqWnxUGUJMtF6RNiqHfI4dNqsnuAhB5ZXOu_Es3OdYbmJ9I4iquSomdGQIUO25FJJLkeeRrOeQtZ_S0vt4Py2foPhI4k1M7mtsf4hd-kp87fXXLOv-kAz-pnURxtx_ofSnu_lGhlEfyNpXXfbYSbtmeIcxfLUgJMO2VMtFONSnqtmH9u8My4ptrNNwxazEPg5TGAsYmiMjlfTFTfC9yMjejynoqHgmAeoGcjxFeXQmWpArm4Ig36Lq8OpWkXcb4ZgpXdfghhw7NMCEI6NMz_Slp6lYJyUllqTHpu4tjM0jQRMF04sFKLUDPyNqAAPLs3zl6VjwCNtn-Ffixp8UZH_C5v7Ar9LZCRxGNAi-swTjXcP40fv5q9PHskFpajW_BaX950ZfORHF4IQ3-YSc1MftV6peYeSkg-ZMESpDIr-ZZUCvp2eobpORn36HR0SdKlIcIkhbNND5QX9Z0S6lVxaDdF1Cz0v9ixupucYS3PkXLhMAsOuFme8elbSK2TjK88gKfm73VLzINGrS2iBvIXp5H5DObzWIeLKIv1vYZYQSePgj2DYfVlmJCIb1Oq9usGgJ599OGu0PGN6GNPP0H4XP3aEwWiOIiGX0kIRuvkK15rcGjFf_vpyJ33YNfZRrNxoq8rXMASL8pBhQML-_t-v4ENBcjfsMTIre0f-VcdpsFUm2GieaKCIAgbKpOl4LMVMoow6cG64L4hl_CTobNIqce7gscyNar7rWkJdnEMg7sg_ewsbsJX9eFRjf1cljLwU7EeUjNn9BMgdN7X3V3nryF36ot-1W00?></g></svg>