<?plantuml 1.2026.2beta3?><svg xmlns="http://www.w3.org/2000/svg" xmlns:xlink="http://www.w3.org/1999/xlink" contentStyleType="text/css" data-diagram-type="CLASS" height="810px" preserveAspectRatio="none" style="width:880px;height:810px;background:#FFFFFF;" version="1.1" viewBox="0 0 880 810" width="880px" zoomAndPan="magnify"><defs/><g><!--cluster odeon--><g class="cluster" data-qualified-name="odeon" data-source-line="3" id="ent0003"><path d="M8.5,6 L58.2197,6 A3.75,3.75 0 0 1 60.7197,8.5 L67.7197,28.2969 L870.5,28.2969 A2.5,2.5 0 0 1 873,30.7969 L873,801.44 A2.5,2.5 0 0 1 870.5,803.94 L8.5,803.94 A2.5,2.5 0 0 1 6,801.44 L6,8.5 A2.5,2.5 0 0 1 8.5,6" fill="none" style="stroke:#000000;stroke-width:1.5;"/><line style="stroke:#000000;stroke-width:1.5;" x1="6" x2="67.7197" y1="28.2969" y2="28.2969"/><text fill="#000000" font-family="sans-serif" font-size="14" font-weight="bold" lengthAdjust="spacing" textLength="48.7197" x="10" y="20.9951">odeon</text></g><!--cluster model--><g class="cluster" data-qualified-name="odeon.model" data-source-line="3" id="ent0004"><path d="M32.5,49 L82.0215,49 A3.75,3.75 0 0 1 84.5215,51.5 L91.5215,71.2969 L846.5,71.2969 A2.5,2.5 0 0 1 849,73.7969 L849,777.44 A2.5,2.5 0 0 1 846.5,779.94 L32.5,779.94 A2.5,2.5 0 0 1 30,777.44 L30,51.5 A2.5,2.5 0 0 1 32.5,49" fill="none" style="stroke:#000000;stroke-width:1.5;"/><line style="stroke:#000000;stroke-width:1.5;" x1="30" x2="91.5215" y1="71.2969" y2="71.2969"/><text fill="#000000" font-family="sans-serif" font-size="14" font-weight="bold" lengthAdjust="spacing" textLength="48.5215" x="34" y="63.9951">model</text></g><!--cluster energy_system--><g class="cluster" data-qualified-name="odeon.model.energy_system" data-source-line="3" id="ent0005"><path d="M56.5,215 L176.0762,215 A3.75,3.75 0 0 1 178.5762,217.5 L185.5762,237.2969 L822.5,237.2969 A2.5,2.5 0 0 1 825,239.7969 L825,753.44 A2.5,2.5 0 0 1 822.5,755.94 L56.5,755.94 A2.5,2.5 0 0 1 54,753.44 L54,217.5 A2.5,2.5 0 0 1 56.5,215" fill="none" style="stroke:#000000;stroke-width:1.5;"/><line style="stroke:#000000;stroke-width:1.5;" x1="54" x2="185.5762" y1="237.2969" y2="237.2969"/><text fill="#000000" font-family="sans-serif" font-size="14" font-weight="bold" lengthAdjust="spacing" textLength="118.5762" x="58" y="229.9951">energy_system</text></g><!--cluster base--><g class="cluster" data-qualified-name="odeon.model.base" data-source-line="22" id="ent0007"><path d="M386.5,92 L424.7969,92 A3.75,3.75 0 0 1 427.2969,94.5 L434.2969,114.2969 L491.5,114.2969 A2.5,2.5 0 0 1 494,116.7969 L494,188.5 A2.5,2.5 0 0 1 491.5,191 L386.5,191 A2.5,2.5 0 0 1 384,188.5 L384,94.5 A2.5,2.5 0 0 1 386.5,92" fill="none" style="stroke:#000000;stroke-width:1.5;"/><line style="stroke:#000000;stroke-width:1.5;" x1="384" x2="434.2969" y1="114.2969" y2="114.2969"/><text fill="#000000" font-family="sans-serif" font-size="14" font-weight="bold" lengthAdjust="spacing" textLength="37.2969" x="388" y="106.9951">base</text></g><!--class DemandAccessor--><g class="entity" data-qualified-name="odeon.model.energy_system.DemandAccessor" data-source-line="3" id="ent0002"><rect fill="#F1F1F1" height="300.4531" rx="2.5" ry="2.5" style="stroke:#181818;stroke-width:0.5;" width="660.8125" x="108.59" y="250"/><ellipse cx="373.8141" cy="266" fill="#ADD1B2" rx="11" ry="11" style="stroke:#181818;stroke-width:1;"/><path d="M376.7829,271.6406 Q376.2047,271.9375 375.5641,272.0781 Q374.9235,272.2344 374.2204,272.2344 Q371.7204,272.2344 370.3922,270.5938 Q369.0797,268.9375 369.0797,265.8125 Q369.0797,262.6875 370.3922,261.0313 Q371.7204,259.375 374.2204,259.375 Q374.9235,259.375 375.5641,259.5313 Q376.2204,259.6875 376.7829,259.9844 L376.7829,262.7031 Q376.1579,262.125 375.5641,261.8594 Q374.9704,261.5781 374.3454,261.5781 Q373.0016,261.5781 372.3141,262.6563 Q371.6266,263.7188 371.6266,265.8125 Q371.6266,267.9063 372.3141,268.9844 Q373.0016,270.0469 374.3454,270.0469 Q374.9704,270.0469 375.5641,269.7813 Q376.1579,269.5 376.7829,268.9219 L376.7829,271.6406 Z " fill="#000000"/><text fill="#000000" font-family="sans-serif" font-size="14" lengthAdjust="spacing" textLength="121.8643" x="394.3141" y="270.8467">DemandAccessor</text><line style="stroke:#181818;stroke-width:0.5;" x1="109.59" x2="768.4025" y1="282" y2="282"/><g data-visibility-modifier="PROTECTED_FIELD"><polygon fill="none" points="119.59,290.6484,123.59,294.6484,119.59,298.6484,115.59,294.6484" style="stroke:#B38D22;stroke-width:1;"/></g><text fill="#000000" font-family="sans-serif" font-size="14" lengthAdjust="spacing" textLength="351.6748" x="128.59" y="298.9951">_Object__parent: odeon.model.base.Parent | None</text><g data-visibility-modifier="PROTECTED_FIELD"><polygon fill="none" points="119.59,306.9453,123.59,310.9453,119.59,314.9453,115.59,310.9453" style="stroke:#B38D22;stroke-width:1;"/></g><text fill="#000000" font-family="sans-serif" font-size="14" lengthAdjust="spacing" textLength="173.9678" x="128.59" y="315.292">_children_attributes: dict</text><g data-visibility-modifier="PROTECTED_FIELD"><polygon fill="none" points="119.59,323.2422,123.59,327.2422,119.59,331.2422,115.59,327.2422" style="stroke:#B38D22;stroke-width:1;"/></g><text fill="#000000" font-family="sans-serif" font-size="14" lengthAdjust="spacing" textLength="186.9766" x="128.59" y="331.5889">_associated_attributes: list</text><g data-visibility-modifier="PROTECTED_FIELD"><polygon fill="none" points="119.59,339.5391,123.59,343.5391,119.59,347.5391,115.59,343.5391" style="stroke:#B38D22;stroke-width:1;"/></g><text fill="#000000" font-family="sans-serif" font-size="14" lengthAdjust="spacing" textLength="175.5059" x="128.59" y="347.8857">_temporal_attributes: list</text><g data-visibility-modifier="PROTECTED_FIELD"><polygon fill="none" points="119.59,355.8359,123.59,359.8359,119.59,363.8359,115.59,359.8359" style="stroke:#B38D22;stroke-width:1;"/></g><text fill="#000000" font-family="sans-serif" font-size="14" lengthAdjust="spacing" textLength="208.4688" x="128.59" y="364.1826">_temporal_dict_attributes: list</text><line style="stroke:#181818;stroke-width:1;stroke-dasharray:1,2;" x1="109.59" x2="768.4025" y1="371.4844" y2="371.4844"/><g data-visibility-modifier="PUBLIC_METHOD"><ellipse cx="119.59" cy="385.1328" fill="#84BE84" rx="3" ry="3" style="stroke:#038048;stroke-width:1;"/></g><text fill="#000000" font-family="sans-serif" font-size="14" lengthAdjust="spacing" textLength="190.4561" x="128.59" y="388.4795">cooling_demand (property)</text><g data-visibility-modifier="PUBLIC_METHOD"><ellipse cx="119.59" cy="401.4297" fill="#84BE84" rx="3" ry="3" style="stroke:#038048;stroke-width:1;"/></g><text fill="#000000" font-family="sans-serif" font-size="14" lengthAdjust="spacing" textLength="169.2988" x="128.59" y="404.7764">dhw_demand (property)</text><g data-visibility-modifier="PUBLIC_METHOD"><ellipse cx="119.59" cy="417.7266" fill="#84BE84" rx="3" ry="3" style="stroke:#038048;stroke-width:1;"/></g><text fill="#000000" font-family="sans-serif" font-size="14" lengthAdjust="spacing" textLength="209.3984" x="128.59" y="421.0732">electricity_demand (property)</text><g data-visibility-modifier="PUBLIC_METHOD"><ellipse cx="119.59" cy="434.0234" fill="#84BE84" rx="3" ry="3" style="stroke:#038048;stroke-width:1;"/></g><text fill="#000000" font-family="sans-serif" font-size="14" lengthAdjust="spacing" textLength="182.2529" x="128.59" y="437.3701">energy_system (property)</text><g data-visibility-modifier="PUBLIC_METHOD"><ellipse cx="119.59" cy="450.3203" fill="#84BE84" rx="3" ry="3" style="stroke:#038048;stroke-width:1;"/></g><text fill="#000000" font-family="sans-serif" font-size="14" lengthAdjust="spacing" textLength="171.6436" x="128.59" y="453.667">heat_demand (property)</text><g data-visibility-modifier="PUBLIC_METHOD"><ellipse cx="119.59" cy="466.6172" fill="#84BE84" rx="3" ry="3" style="stroke:#038048;stroke-width:1;"/></g><text fill="#000000" font-family="sans-serif" font-size="14" lengthAdjust="spacing" textLength="193.293" x="128.59" y="469.9639">heating_demand (property)</text><line style="stroke:#181818;stroke-width:0.5;" x1="109.59" x2="768.4025" y1="477.2656" y2="477.2656"/><g data-visibility-modifier="PUBLIC_METHOD"><ellipse cx="119.59" cy="490.9141" fill="#84BE84" rx="3" ry="3" style="stroke:#038048;stroke-width:1;"/></g><text fill="#000000" font-family="sans-serif" font-size="14" lengthAdjust="spacing" textLength="527.1875" x="128.59" y="494.2607">get_demands(self, type, only_reachable_through, omit_reachable_through)</text><g data-visibility-modifier="PUBLIC_METHOD"><ellipse cx="119.59" cy="507.2109" fill="#84BE84" rx="3" ry="3" style="stroke:#038048;stroke-width:1;"/></g><text fill="#000000" font-family="sans-serif" font-size="14" lengthAdjust="spacing" textLength="536.1563" x="128.59" y="510.5576">get_summed_demand_input_flow(self, type, include_subdemands, if_empty)</text><g data-visibility-modifier="PUBLIC_METHOD"><ellipse cx="119.59" cy="523.5078" fill="#84BE84" rx="3" ry="3" style="stroke:#038048;stroke-width:1;"/></g><text fill="#000000" font-family="sans-serif" font-size="14" lengthAdjust="spacing" textLength="634.8125" x="128.59" y="526.8545">get_summed_demand_input_flow_total(self, type, include_subdemands, if_empty, if_none)</text><g data-visibility-modifier="PUBLIC_METHOD"><ellipse cx="119.59" cy="539.8047" fill="#84BE84" rx="3" ry="3" style="stroke:#038048;stroke-width:1;"/></g><text fill="#000000" font-family="sans-serif" font-size="14" lengthAdjust="spacing" textLength="235.2656" x="128.59" y="543.1514">set_demand_flow(self, type, flow)</text></g><!--class EnergySystem--><g class="entity" data-qualified-name="odeon.model.energy_system.EnergySystem" data-source-line="23" id="ent0009"><rect fill="#F1F1F1" height="121.1875" rx="2.5" ry="2.5" style="stroke:#181818;stroke-width:0.5;" width="304.0107" x="69.99" y="614.6"/><ellipse cx="167.0125" cy="630.6" fill="#ADD1B2" rx="11" ry="11" style="stroke:#181818;stroke-width:1;"/><path d="M169.9812,636.2406 Q169.4031,636.5375 168.7625,636.6781 Q168.1218,636.8344 167.4187,636.8344 Q164.9187,636.8344 163.5906,635.1938 Q162.2781,633.5375 162.2781,630.4125 Q162.2781,627.2875 163.5906,625.6313 Q164.9187,623.975 167.4187,623.975 Q168.1218,623.975 168.7625,624.1313 Q169.4187,624.2875 169.9812,624.5844 L169.9812,627.3031 Q169.3562,626.725 168.7625,626.4594 Q168.1687,626.1781 167.5437,626.1781 Q166.2,626.1781 165.5125,627.2563 Q164.825,628.3188 164.825,630.4125 Q164.825,632.5063 165.5125,633.5844 Q166.2,634.6469 167.5437,634.6469 Q168.1687,634.6469 168.7625,634.3813 Q169.3562,634.1 169.9812,633.5219 L169.9812,636.2406 Z " fill="#000000"/><text fill="#000000" font-family="sans-serif" font-size="14" lengthAdjust="spacing" textLength="101.4658" x="187.5125" y="635.4467">EnergySystem</text><line style="stroke:#181818;stroke-width:0.5;" x1="70.99" x2="373.0007" y1="646.6" y2="646.6"/><g data-visibility-modifier="PROTECTED_FIELD"><polygon fill="none" points="80.99,655.2484,84.99,659.2484,80.99,663.2484,76.99,659.2484" style="stroke:#B38D22;stroke-width:1;"/></g><text fill="#000000" font-family="sans-serif" font-size="14" lengthAdjust="spacing" textLength="123.2246" x="89.99" y="663.5951">_components: list</text><line style="stroke:#181818;stroke-width:1;stroke-dasharray:1,2;" x1="70.99" x2="373.0007" y1="670.8969" y2="670.8969"/><g data-visibility-modifier="PUBLIC_METHOD"><ellipse cx="80.99" cy="684.5453" fill="#84BE84" rx="3" ry="3" style="stroke:#038048;stroke-width:1;"/></g><text fill="#000000" font-family="sans-serif" font-size="14" lengthAdjust="spacing" textLength="162.1074" x="89.99" y="687.892">components (property)</text><line style="stroke:#181818;stroke-width:0.5;" x1="70.99" x2="373.0007" y1="695.1938" y2="695.1938"/><g data-visibility-modifier="PUBLIC_METHOD"><ellipse cx="80.99" cy="708.8422" fill="#84BE84" rx="3" ry="3" style="stroke:#038048;stroke-width:1;"/></g><text fill="#000000" font-family="sans-serif" font-size="14" lengthAdjust="spacing" textLength="250.8926" x="89.99" y="712.1889">add_components(self, components)</text><g data-visibility-modifier="PUBLIC_METHOD"><ellipse cx="80.99" cy="725.1391" fill="#84BE84" rx="3" ry="3" style="stroke:#038048;stroke-width:1;"/></g><text fill="#000000" font-family="sans-serif" font-size="14" lengthAdjust="spacing" textLength="278.0107" x="89.99" y="728.4857">remove_components(self, components)</text></g><!--class EnergySystemHost--><g class="entity" data-qualified-name="odeon.model.energy_system.EnergySystemHost" data-source-line="32" id="ent0011"><rect fill="#F1F1F1" height="129.4844" rx="2.5" ry="2.5" style="stroke:#181818;stroke-width:0.5;" width="400.1787" x="408.91" y="610.46"/><ellipse cx="538.0785" cy="626.46" fill="#ADD1B2" rx="11" ry="11" style="stroke:#181818;stroke-width:1;"/><path d="M541.0472,632.1006 Q540.4691,632.3975 539.8285,632.5381 Q539.1878,632.6944 538.4847,632.6944 Q535.9847,632.6944 534.6566,631.0538 Q533.3441,629.3975 533.3441,626.2725 Q533.3441,623.1475 534.6566,621.4913 Q535.9847,619.835 538.4847,619.835 Q539.1878,619.835 539.8285,619.9913 Q540.4847,620.1475 541.0472,620.4444 L541.0472,623.1631 Q540.4222,622.585 539.8285,622.3194 Q539.2347,622.0381 538.6097,622.0381 Q537.266,622.0381 536.5785,623.1163 Q535.891,624.1788 535.891,626.2725 Q535.891,628.3663 536.5785,629.4444 Q537.266,630.5069 538.6097,630.5069 Q539.2347,630.5069 539.8285,630.2413 Q540.4222,629.96 541.0472,629.3819 L541.0472,632.1006 Z " fill="#000000"/><text fill="#000000" font-family="sans-serif" font-size="14" lengthAdjust="spacing" textLength="133.3418" x="558.5785" y="631.3067">EnergySystemHost</text><line style="stroke:#181818;stroke-width:0.5;" x1="409.91" x2="808.0887" y1="642.46" y2="642.46"/><g data-visibility-modifier="PROTECTED_FIELD"><polygon fill="none" points="419.91,651.1084,423.91,655.1084,419.91,659.1084,415.91,655.1084" style="stroke:#B38D22;stroke-width:1;"/></g><text fill="#000000" font-family="sans-serif" font-size="14" lengthAdjust="spacing" textLength="224.2734" x="428.91" y="659.4551">_energy_system: EnergySystem</text><line style="stroke:#181818;stroke-width:0.5;" x1="409.91" x2="808.0887" y1="666.7569" y2="666.7569"/><g data-visibility-modifier="PUBLIC_METHOD"><ellipse cx="419.91" cy="680.4053" fill="#84BE84" rx="3" ry="3" style="stroke:#038048;stroke-width:1;"/></g><text fill="#000000" font-family="sans-serif" font-size="14" lengthAdjust="spacing" textLength="268.2354" x="428.91" y="683.752">get_emissions_by_energy_carrier(self)</text><g data-visibility-modifier="PUBLIC_METHOD"><ellipse cx="419.91" cy="696.7022" fill="#84BE84" rx="3" ry="3" style="stroke:#038048;stroke-width:1;"/></g><text fill="#000000" font-family="sans-serif" font-size="14" lengthAdjust="spacing" textLength="374.1787" x="428.91" y="700.0489">get_primary_energy_demand_by_energy_carrier(self)</text><g data-visibility-modifier="PUBLIC_METHOD"><ellipse cx="419.91" cy="712.9991" fill="#84BE84" rx="3" ry="3" style="stroke:#038048;stroke-width:1;"/></g><text fill="#000000" font-family="sans-serif" font-size="14" lengthAdjust="spacing" textLength="174.002" x="428.91" y="716.3457">get_total_emissions(self)</text><g data-visibility-modifier="PUBLIC_METHOD"><ellipse cx="419.91" cy="729.2959" fill="#84BE84" rx="3" ry="3" style="stroke:#038048;stroke-width:1;"/></g><text fill="#000000" font-family="sans-serif" font-size="14" lengthAdjust="spacing" textLength="279.9453" x="428.91" y="732.6426">get_total_primary_energy_demand(self)</text></g><!--class Object--><g class="entity" data-qualified-name="odeon.model.base.Object" data-source-line="22" id="ent0006"><rect fill="#F1F1F1" height="48" rx="2.5" ry="2.5" style="stroke:#181818;stroke-width:0.5;" width="77.5957" x="400.2" y="127"/><ellipse cx="415.2" cy="143" fill="#ADD1B2" rx="11" ry="11" style="stroke:#181818;stroke-width:1;"/><path d="M418.1688,148.6406 Q417.5906,148.9375 416.95,149.0781 Q416.3094,149.2344 415.6063,149.2344 Q413.1063,149.2344 411.7781,147.5938 Q410.4656,145.9375 410.4656,142.8125 Q410.4656,139.6875 411.7781,138.0313 Q413.1063,136.375 415.6063,136.375 Q416.3094,136.375 416.95,136.5313 Q417.6063,136.6875 418.1688,136.9844 L418.1688,139.7031 Q417.5438,139.125 416.95,138.8594 Q416.3563,138.5781 415.7313,138.5781 Q414.3875,138.5781 413.7,139.6563 Q413.0125,140.7188 413.0125,142.8125 Q413.0125,144.9063 413.7,145.9844 Q414.3875,147.0469 415.7313,147.0469 Q416.3563,147.0469 416.95,146.7813 Q417.5438,146.5 418.1688,145.9219 L418.1688,148.6406 Z " fill="#000000"/><text fill="#000000" font-family="sans-serif" font-size="14" lengthAdjust="spacing" textLength="45.5957" x="429.2" y="147.8467">Object</text><line style="stroke:#181818;stroke-width:0.5;" x1="401.2" x2="476.7957" y1="159" y2="159"/><line style="stroke:#181818;stroke-width:0.5;" x1="401.2" x2="476.7957" y1="167" y2="167"/></g><!--reverse link Object to DemandAccessor--><g class="link" data-entity-1="ent0006" data-entity-2="ent0002" data-link-type="extension" data-source-line="22" id="lnk8"><path codeLine="22" d="M439,193.26 C439,211.47 439,220.52 439,249.57" fill="none" id="Object-backto-DemandAccessor" style="stroke:#181818;stroke-width:1;"/><polygon fill="none" points="439,175.26,433,193.26,445,193.26,439,175.26" style="stroke:#181818;stroke-width:1;"/></g><!--reverse link DemandAccessor to EnergySystem--><g class="link" data-entity-1="ent0002" data-entity-2="ent0009" data-link-type="extension" data-source-line="31" id="lnk10"><path codeLine="31" d="M308.823,564.9835 C290.963,587.4635 284.67,595.36 269.53,614.41" fill="none" id="DemandAccessor-backto-EnergySystem" style="stroke:#181818;stroke-width:1;"/><polygon fill="none" points="320.02,550.89,304.1251,561.2511,313.5208,568.7158,320.02,550.89" style="stroke:#181818;stroke-width:1;"/></g><!--reverse link DemandAccessor to EnergySystemHost--><g class="link" data-entity-1="ent0002" data-entity-2="ent0011" data-link-type="extension" data-source-line="39" id="lnk12"><path codeLine="39" d="M541.7249,566.1696 C554.7149,587.0296 557.93,592.2 569.18,610.26" fill="none" id="DemandAccessor-backto-EnergySystemHost" style="stroke:#181818;stroke-width:1;"/><polygon fill="none" points="532.21,550.89,536.6318,569.3412,546.8181,562.9979,532.21,550.89" style="stroke:#181818;stroke-width:1;"/></g><?plantuml-src jLD1Rjmm3Bpx5G9wI1QR-06BNWgqG4zjWJv0a2NkMeKa6YATm6Zwzz9QRxAkNISzz6HxXXnngF6DGWUOwYYFK4E2V1eq3SGGgye6G_JtWleZH9FS1sk12BFwMRtJNviVO5dhpcH8V9WrDuQW_bO8zQI-O09fiAqFJY1jcBDlUWOwAESj2oUde_M6mStOu6baPO8EimcRtAYqBAZhQcyHWqydxOe9TTjbx23piAlshdrSWo68jUojvs6LljxDZ6d1y5h7YA-Fe7MrFy6bYMu9ml5EyT31dS8K1ft1sDOq0JIt6VjJAtZqlCHtPo7gOvGrdlMqJrtF-XZmSQRiamsz0obkfeC5EshPPHbtIqSpiWblLYjlIH8WilJiSpdH2EogNzKYHkUSgVTFz_Tl3kYhUVvKlhwVBt1CiqM9KPAypeDp0V-yCUFSLSjav0KGhnaYFi1sqTpjvX_tYlrhF_za_ZCIbmNCIWvg9bZo0D4JUKoac-5IRKtE7dAnDiMcopwQ_5mnNVTcImdKY_wIMjMSolxF3iUr_0O0?></g></svg>