<?plantuml 1.2026.2beta3?><svg xmlns="http://www.w3.org/2000/svg" xmlns:xlink="http://www.w3.org/1999/xlink" contentStyleType="text/css" data-diagram-type="CLASS" height="923px" preserveAspectRatio="none" style="width:477px;height:923px;background:#FFFFFF;" version="1.1" viewBox="0 0 477 923" width="477px" zoomAndPan="magnify"><defs/><g><!--cluster odeon--><g class="cluster" data-qualified-name="odeon" data-source-line="3" id="ent0003"><path d="M8.5,6 L58.2197,6 A3.75,3.75 0 0 1 60.7197,8.5 L67.7197,28.2969 L467.5,28.2969 A2.5,2.5 0 0 1 470,30.7969 L470,914.22 A2.5,2.5 0 0 1 467.5,916.72 L8.5,916.72 A2.5,2.5 0 0 1 6,914.22 L6,8.5 A2.5,2.5 0 0 1 8.5,6" fill="none" style="stroke:#000000;stroke-width:1.5;"/><line style="stroke:#000000;stroke-width:1.5;" x1="6" x2="67.7197" y1="28.2969" y2="28.2969"/><text fill="#000000" font-family="sans-serif" font-size="14" font-weight="bold" lengthAdjust="spacing" textLength="48.7197" x="10" y="20.9951">odeon</text></g><!--cluster model--><g class="cluster" data-qualified-name="odeon.model" data-source-line="3" id="ent0004"><path d="M32.5,49 L82.0215,49 A3.75,3.75 0 0 1 84.5215,51.5 L91.5215,71.2969 L443.5,71.2969 A2.5,2.5 0 0 1 446,73.7969 L446,890.22 A2.5,2.5 0 0 1 443.5,892.72 L32.5,892.72 A2.5,2.5 0 0 1 30,890.22 L30,51.5 A2.5,2.5 0 0 1 32.5,49" fill="none" style="stroke:#000000;stroke-width:1.5;"/><line style="stroke:#000000;stroke-width:1.5;" x1="30" x2="91.5215" y1="71.2969" y2="71.2969"/><text fill="#000000" font-family="sans-serif" font-size="14" font-weight="bold" lengthAdjust="spacing" textLength="48.5215" x="34" y="63.9951">model</text></g><!--cluster environment--><g class="cluster" data-qualified-name="odeon.model.environment" data-source-line="3" id="ent0005"><path d="M56.5,215 L158.1182,215 A3.75,3.75 0 0 1 160.6182,217.5 L167.6182,237.2969 L419.5,237.2969 A2.5,2.5 0 0 1 422,239.7969 L422,743.22 A2.5,2.5 0 0 1 419.5,745.72 L56.5,745.72 A2.5,2.5 0 0 1 54,743.22 L54,217.5 A2.5,2.5 0 0 1 56.5,215" fill="none" style="stroke:#000000;stroke-width:1.5;"/><line style="stroke:#000000;stroke-width:1.5;" x1="54" x2="167.6182" y1="237.2969" y2="237.2969"/><text fill="#000000" font-family="sans-serif" font-size="14" font-weight="bold" lengthAdjust="spacing" textLength="100.6182" x="58" y="229.9951">environment</text></g><!--cluster base--><g class="cluster" data-qualified-name="odeon.model.base" data-source-line="33" id="ent0007"><path d="M185.5,92 L223.7969,92 A3.75,3.75 0 0 1 226.2969,94.5 L233.2969,114.2969 L290.5,114.2969 A2.5,2.5 0 0 1 293,116.7969 L293,188.5 A2.5,2.5 0 0 1 290.5,191 L185.5,191 A2.5,2.5 0 0 1 183,188.5 L183,94.5 A2.5,2.5 0 0 1 185.5,92" fill="none" style="stroke:#000000;stroke-width:1.5;"/><line style="stroke:#000000;stroke-width:1.5;" x1="183" x2="233.2969" y1="114.2969" y2="114.2969"/><text fill="#000000" font-family="sans-serif" font-size="14" font-weight="bold" lengthAdjust="spacing" textLength="37.2969" x="187" y="106.9951">base</text></g><!--cluster temporal--><g class="cluster" data-qualified-name="odeon.model.temporal" data-source-line="34" id="ent0010"><path d="M175.5,769.72 L248.0654,769.72 A3.75,3.75 0 0 1 250.5654,772.22 L257.5654,792.0169 L300.5,792.0169 A2.5,2.5 0 0 1 303,794.5169 L303,866.22 A2.5,2.5 0 0 1 300.5,868.72 L175.5,868.72 A2.5,2.5 0 0 1 173,866.22 L173,772.22 A2.5,2.5 0 0 1 175.5,769.72" fill="none" style="stroke:#000000;stroke-width:1.5;"/><line style="stroke:#000000;stroke-width:1.5;" x1="173" x2="257.5654" y1="792.0169" y2="792.0169"/><text fill="#000000" font-family="sans-serif" font-size="14" font-weight="bold" lengthAdjust="spacing" textLength="71.5654" x="177" y="784.7151">temporal</text></g><!--class Weather--><g class="entity" data-qualified-name="odeon.model.environment.Weather" data-source-line="3" id="ent0002"><rect fill="#F1F1F1" height="479.7188" rx="2.5" ry="2.5" style="stroke:#181818;stroke-width:0.5;" width="335.1758" x="70.41" y="250"/><ellipse cx="203.8646" cy="266" fill="#ADD1B2" rx="11" ry="11" style="stroke:#181818;stroke-width:1;"/><path d="M206.8333,271.6406 Q206.2552,271.9375 205.6146,272.0781 Q204.974,272.2344 204.2708,272.2344 Q201.7708,272.2344 200.4427,270.5938 Q199.1302,268.9375 199.1302,265.8125 Q199.1302,262.6875 200.4427,261.0313 Q201.7708,259.375 204.2708,259.375 Q204.974,259.375 205.6146,259.5313 Q206.2708,259.6875 206.8333,259.9844 L206.8333,262.7031 Q206.2083,262.125 205.6146,261.8594 Q205.0208,261.5781 204.3958,261.5781 Q203.0521,261.5781 202.3646,262.6563 Q201.6771,263.7188 201.6771,265.8125 Q201.6771,267.9063 202.3646,268.9844 Q203.0521,270.0469 204.3958,270.0469 Q205.0208,270.0469 205.6146,269.7813 Q206.2083,269.5 206.8333,268.9219 L206.8333,271.6406 Z " fill="#000000"/><text fill="#000000" font-family="sans-serif" font-size="14" lengthAdjust="spacing" textLength="59.7666" x="224.3646" y="270.8467">Weather</text><line style="stroke:#181818;stroke-width:0.5;" x1="71.41" x2="404.5858" y1="282" y2="282"/><g data-visibility-modifier="PROTECTED_FIELD"><polygon fill="none" points="81.41,290.6484,85.41,294.6484,81.41,298.6484,77.41,294.6484" style="stroke:#B38D22;stroke-width:1;"/></g><text fill="#000000" font-family="sans-serif" font-size="14" lengthAdjust="spacing" textLength="235.9219" x="90.41" y="298.9951">_ambient_temperature: Temporal</text><g data-visibility-modifier="PROTECTED_FIELD"><polygon fill="none" points="81.41,306.9453,85.41,310.9453,81.41,314.9453,77.41,310.9453" style="stroke:#B38D22;stroke-width:1;"/></g><text fill="#000000" font-family="sans-serif" font-size="14" lengthAdjust="spacing" textLength="279.6924" x="90.41" y="315.292">_global_horizontal_irradiance: Temporal</text><g data-visibility-modifier="PROTECTED_FIELD"><polygon fill="none" points="81.41,323.2422,85.41,327.2422,81.41,331.2422,77.41,327.2422" style="stroke:#B38D22;stroke-width:1;"/></g><text fill="#000000" font-family="sans-serif" font-size="14" lengthAdjust="spacing" textLength="284.4092" x="90.41" y="331.5889">_diffuse_horizontal_irradiance: Temporal</text><g data-visibility-modifier="PROTECTED_FIELD"><polygon fill="none" points="81.41,339.5391,85.41,343.5391,81.41,347.5391,77.41,343.5391" style="stroke:#B38D22;stroke-width:1;"/></g><text fill="#000000" font-family="sans-serif" font-size="14" lengthAdjust="spacing" textLength="256.7988" x="90.41" y="347.8857">_direct_normal_irradiance: Temporal</text><g data-visibility-modifier="PROTECTED_FIELD"><polygon fill="none" points="81.41,355.8359,85.41,359.8359,81.41,363.8359,77.41,359.8359" style="stroke:#B38D22;stroke-width:1;"/></g><text fill="#000000" font-family="sans-serif" font-size="14" lengthAdjust="spacing" textLength="201.5918" x="90.41" y="364.1826">_soil_temperature: Temporal</text><g data-visibility-modifier="PROTECTED_FIELD"><polygon fill="none" points="81.41,372.1328,85.41,376.1328,81.41,380.1328,77.41,376.1328" style="stroke:#B38D22;stroke-width:1;"/></g><text fill="#000000" font-family="sans-serif" font-size="14" lengthAdjust="spacing" textLength="268.7959" x="90.41" y="380.4795">_underground_temperature: Temporal</text><g data-visibility-modifier="PROTECTED_FIELD"><polygon fill="none" points="81.41,388.4297,85.41,392.4297,81.41,396.4297,77.41,392.4297" style="stroke:#B38D22;stroke-width:1;"/></g><text fill="#000000" font-family="sans-serif" font-size="14" lengthAdjust="spacing" textLength="165.04" x="90.41" y="396.7764">_wind_speed: Temporal</text><g data-visibility-modifier="PROTECTED_FIELD"><polygon fill="none" points="81.41,404.7266,85.41,408.7266,81.41,412.7266,77.41,408.7266" style="stroke:#B38D22;stroke-width:1;"/></g><text fill="#000000" font-family="sans-serif" font-size="14" lengthAdjust="spacing" textLength="184.4063" x="90.41" y="413.0732">_wind_direction: Temporal</text><g data-visibility-modifier="PROTECTED_FIELD"><polygon fill="none" points="81.41,421.0234,85.41,425.0234,81.41,429.0234,77.41,425.0234" style="stroke:#B38D22;stroke-width:1;"/></g><text fill="#000000" font-family="sans-serif" font-size="14" lengthAdjust="spacing" textLength="143.7324" x="90.41" y="429.3701">_pressure: Temporal</text><g data-visibility-modifier="PROTECTED_FIELD"><polygon fill="none" points="81.41,437.3203,85.41,441.3203,81.41,445.3203,77.41,441.3203" style="stroke:#B38D22;stroke-width:1;"/></g><text fill="#000000" font-family="sans-serif" font-size="14" lengthAdjust="spacing" textLength="192.5547" x="90.41" y="445.667">_cloud_coverage: Temporal</text><g data-visibility-modifier="PROTECTED_FIELD"><polygon fill="none" points="81.41,453.6172,85.41,457.6172,81.41,461.6172,77.41,457.6172" style="stroke:#B38D22;stroke-width:1;"/></g><text fill="#000000" font-family="sans-serif" font-size="14" lengthAdjust="spacing" textLength="138.667" x="90.41" y="461.9639">_solar_position: dict</text><line style="stroke:#181818;stroke-width:1;stroke-dasharray:1,2;" x1="71.41" x2="404.5858" y1="469.2656" y2="469.2656"/><g data-visibility-modifier="PUBLIC_METHOD"><ellipse cx="81.41" cy="482.9141" fill="#84BE84" rx="3" ry="3" style="stroke:#038048;stroke-width:1;"/></g><text fill="#000000" font-family="sans-serif" font-size="14" lengthAdjust="spacing" textLength="228.8877" x="90.41" y="486.2607">ambient_temperature (property)</text><g data-visibility-modifier="PUBLIC_METHOD"><ellipse cx="81.41" cy="499.2109" fill="#84BE84" rx="3" ry="3" style="stroke:#038048;stroke-width:1;"/></g><text fill="#000000" font-family="sans-serif" font-size="14" lengthAdjust="spacing" textLength="185.5205" x="90.41" y="502.5576">cloud_coverage (property)</text><g data-visibility-modifier="PUBLIC_METHOD"><ellipse cx="81.41" cy="515.5078" fill="#84BE84" rx="3" ry="3" style="stroke:#038048;stroke-width:1;"/></g><text fill="#000000" font-family="sans-serif" font-size="14" lengthAdjust="spacing" textLength="277.375" x="90.41" y="518.8545">diffuse_horizontal_irradiance (property)</text><g data-visibility-modifier="PUBLIC_METHOD"><ellipse cx="81.41" cy="531.8047" fill="#84BE84" rx="3" ry="3" style="stroke:#038048;stroke-width:1;"/></g><text fill="#000000" font-family="sans-serif" font-size="14" lengthAdjust="spacing" textLength="249.7646" x="90.41" y="535.1514">direct_normal_irradiance (property)</text><g data-visibility-modifier="PUBLIC_METHOD"><ellipse cx="81.41" cy="548.1016" fill="#84BE84" rx="3" ry="3" style="stroke:#038048;stroke-width:1;"/></g><text fill="#000000" font-family="sans-serif" font-size="14" lengthAdjust="spacing" textLength="272.6582" x="90.41" y="551.4482">global_horizontal_irradiance (property)</text><g data-visibility-modifier="PUBLIC_METHOD"><ellipse cx="81.41" cy="564.3984" fill="#84BE84" rx="3" ry="3" style="stroke:#038048;stroke-width:1;"/></g><text fill="#000000" font-family="sans-serif" font-size="14" lengthAdjust="spacing" textLength="136.6982" x="90.41" y="567.7451">pressure (property)</text><g data-visibility-modifier="PUBLIC_METHOD"><ellipse cx="81.41" cy="580.6953" fill="#84BE84" rx="3" ry="3" style="stroke:#038048;stroke-width:1;"/></g><text fill="#000000" font-family="sans-serif" font-size="14" lengthAdjust="spacing" textLength="194.5576" x="90.41" y="584.042">soil_temperature (property)</text><g data-visibility-modifier="PUBLIC_METHOD"><ellipse cx="81.41" cy="596.9922" fill="#84BE84" rx="3" ry="3" style="stroke:#038048;stroke-width:1;"/></g><text fill="#000000" font-family="sans-serif" font-size="14" lengthAdjust="spacing" textLength="261.7617" x="90.41" y="600.3389">underground_temperature (property)</text><g data-visibility-modifier="PUBLIC_METHOD"><ellipse cx="81.41" cy="613.2891" fill="#84BE84" rx="3" ry="3" style="stroke:#038048;stroke-width:1;"/></g><text fill="#000000" font-family="sans-serif" font-size="14" lengthAdjust="spacing" textLength="177.3721" x="90.41" y="616.6357">wind_direction (property)</text><g data-visibility-modifier="PUBLIC_METHOD"><ellipse cx="81.41" cy="629.5859" fill="#84BE84" rx="3" ry="3" style="stroke:#038048;stroke-width:1;"/></g><text fill="#000000" font-family="sans-serif" font-size="14" lengthAdjust="spacing" textLength="158.0059" x="90.41" y="632.9326">wind_speed (property)</text><line style="stroke:#181818;stroke-width:0.5;" x1="71.41" x2="404.5858" y1="640.2344" y2="640.2344"/><g data-visibility-modifier="PUBLIC_METHOD"><ellipse cx="81.41" cy="653.8828" fill="#84BE84" rx="3" ry="3" style="stroke:#038048;stroke-width:1;"/></g><text fill="#000000" font-family="sans-serif" font-size="14" lengthAdjust="spacing" textLength="69.084" x="90.41" y="657.2295">copy(self)</text><g data-visibility-modifier="PUBLIC_METHOD"><ellipse cx="81.41" cy="670.1797" fill="#84BE84" rx="3" ry="3" style="stroke:#038048;stroke-width:1;"/></g><text fill="#000000" font-family="sans-serif" font-size="14" lengthAdjust="spacing" textLength="205.8643" x="90.41" y="673.5264">get_solar_position_as_df(self)</text><g data-visibility-modifier="PUBLIC_METHOD"><ellipse cx="81.41" cy="686.4766" fill="#84BE84" rx="3" ry="3" style="stroke:#038048;stroke-width:1;"/></g><text fill="#000000" font-family="sans-serif" font-size="14" lengthAdjust="spacing" textLength="263.6279" x="90.41" y="689.8232">get_solar_position_property(self, attr)</text><g data-visibility-modifier="PUBLIC_METHOD"><ellipse cx="81.41" cy="702.7734" fill="#84BE84" rx="3" ry="3" style="stroke:#038048;stroke-width:1;"/></g><text fill="#000000" font-family="sans-serif" font-size="14" lengthAdjust="spacing" textLength="183.2988" x="90.41" y="706.1201">set_solar_position(self, df)</text><g data-visibility-modifier="PUBLIC_METHOD"><ellipse cx="81.41" cy="719.0703" fill="#84BE84" rx="3" ry="3" style="stroke:#038048;stroke-width:1;"/></g><text fill="#000000" font-family="sans-serif" font-size="14" lengthAdjust="spacing" textLength="309.1758" x="90.41" y="722.417">set_solar_position_property(self, attr, value)</text></g><!--class Object--><g class="entity" data-qualified-name="odeon.model.base.Object" data-source-line="33" id="ent0006"><rect fill="#F1F1F1" height="48" rx="2.5" ry="2.5" style="stroke:#181818;stroke-width:0.5;" width="77.5957" x="199.2" y="127"/><ellipse cx="214.2" cy="143" fill="#ADD1B2" rx="11" ry="11" style="stroke:#181818;stroke-width:1;"/><path d="M217.1688,148.6406 Q216.5906,148.9375 215.95,149.0781 Q215.3094,149.2344 214.6063,149.2344 Q212.1063,149.2344 210.7781,147.5938 Q209.4656,145.9375 209.4656,142.8125 Q209.4656,139.6875 210.7781,138.0313 Q212.1063,136.375 214.6063,136.375 Q215.3094,136.375 215.95,136.5313 Q216.6063,136.6875 217.1688,136.9844 L217.1688,139.7031 Q216.5438,139.125 215.95,138.8594 Q215.3563,138.5781 214.7313,138.5781 Q213.3875,138.5781 212.7,139.6563 Q212.0125,140.7188 212.0125,142.8125 Q212.0125,144.9063 212.7,145.9844 Q213.3875,147.0469 214.7313,147.0469 Q215.3563,147.0469 215.95,146.7813 Q216.5438,146.5 217.1688,145.9219 L217.1688,148.6406 Z " fill="#000000"/><text fill="#000000" font-family="sans-serif" font-size="14" lengthAdjust="spacing" textLength="45.5957" x="228.2" y="147.8467">Object</text><line style="stroke:#181818;stroke-width:0.5;" x1="200.2" x2="275.7957" y1="159" y2="159"/><line style="stroke:#181818;stroke-width:0.5;" x1="200.2" x2="275.7957" y1="167" y2="167"/></g><!--class Temporal--><g class="entity" data-qualified-name="odeon.model.temporal.Temporal" data-source-line="34" id="ent0009"><rect fill="#F1F1F1" height="48" rx="2.5" ry="2.5" style="stroke:#181818;stroke-width:0.5;" width="98.4795" x="188.76" y="804.72"/><ellipse cx="203.76" cy="820.72" fill="#ADD1B2" rx="11" ry="11" style="stroke:#181818;stroke-width:1;"/><path d="M206.7288,826.3606 Q206.1506,826.6575 205.51,826.7981 Q204.8694,826.9544 204.1663,826.9544 Q201.6663,826.9544 200.3381,825.3138 Q199.0256,823.6575 199.0256,820.5325 Q199.0256,817.4075 200.3381,815.7513 Q201.6663,814.095 204.1663,814.095 Q204.8694,814.095 205.51,814.2513 Q206.1663,814.4075 206.7288,814.7044 L206.7288,817.4231 Q206.1038,816.845 205.51,816.5794 Q204.9163,816.2981 204.2913,816.2981 Q202.9475,816.2981 202.26,817.3763 Q201.5725,818.4388 201.5725,820.5325 Q201.5725,822.6263 202.26,823.7044 Q202.9475,824.7669 204.2913,824.7669 Q204.9163,824.7669 205.51,824.5013 Q206.1038,824.22 206.7288,823.6419 L206.7288,826.3606 Z " fill="#000000"/><text fill="#000000" font-family="sans-serif" font-size="14" lengthAdjust="spacing" textLength="66.4795" x="217.76" y="825.5667">Temporal</text><line style="stroke:#181818;stroke-width:0.5;" x1="189.76" x2="286.2395" y1="836.72" y2="836.72"/><line style="stroke:#181818;stroke-width:0.5;" x1="189.76" x2="286.2395" y1="844.72" y2="844.72"/></g><!--reverse link Object to Weather--><g class="link" data-entity-1="ent0006" data-entity-2="ent0002" data-link-type="extension" data-source-line="33" id="lnk8"><path codeLine="33" d="M238,193.42 C238,211.18 238,219.61 238,249.73" fill="none" id="Object-backto-Weather" style="stroke:#181818;stroke-width:1;"/><polygon fill="none" points="238,175.42,232,193.42,244,193.42,238,175.42" style="stroke:#181818;stroke-width:1;"/></g><!--reverse link Weather to Temporal--><g class="link" data-entity-1="ent0002" data-entity-2="ent0009" data-link-type="composition" data-source-line="34" id="lnk11"><path codeLine="34" d="M133.3194,741.3502 C143.9894,777.9402 160.09,797.58 188.35,814.39" fill="none" id="Weather-backto-Temporal" style="stroke:#181818;stroke-width:1;"/><polygon fill="#181818" points="129.96,729.83,127.7996,736.7099,133.3194,741.3502,135.4798,734.4703,129.96,729.83" style="stroke:#181818;stroke-width:1;"/></g><!--reverse link Weather to Temporal--><g class="link" data-entity-1="ent0002" data-entity-2="ent0009" data-link-type="composition" data-source-line="35" id="lnk12"><path codeLine="35" d="M156.6938,741.5329 C163.5738,771.8729 172.5,786.79 188.78,804.58" fill="none" id="Weather-backto-Temporal-1" style="stroke:#181818;stroke-width:1;"/><polygon fill="#181818" points="154.04,729.83,151.4659,736.566,156.6938,741.5329,159.2679,734.7968,154.04,729.83" style="stroke:#181818;stroke-width:1;"/></g><!--reverse link Weather to Temporal--><g class="link" data-entity-1="ent0002" data-entity-2="ent0009" data-link-type="composition" data-source-line="36" id="lnk13"><path codeLine="36" d="M180.0432,741.6765 C184.9432,772.0165 191.29,786.79 202.9,804.58" fill="none" id="Weather-backto-Temporal-2" style="stroke:#181818;stroke-width:1;"/><polygon fill="#181818" points="178.13,729.83,175.1378,736.391,180.0432,741.6765,183.0355,735.1155,178.13,729.83" style="stroke:#181818;stroke-width:1;"/></g><!--reverse link Weather to Temporal--><g class="link" data-entity-1="ent0002" data-entity-2="ent0009" data-link-type="composition" data-source-line="37" id="lnk14"><path codeLine="37" d="M203.3674,741.7741 C206.3074,772.1141 210.08,786.79 217.02,804.58" fill="none" id="Weather-backto-Temporal-3" style="stroke:#181818;stroke-width:1;"/><polygon fill="#181818" points="202.21,729.83,198.8073,736.1878,203.3674,741.7741,206.7701,735.4162,202.21,729.83" style="stroke:#181818;stroke-width:1;"/></g><!--reverse link Weather to Temporal--><g class="link" data-entity-1="ent0002" data-entity-2="ent0009" data-link-type="composition" data-source-line="38" id="lnk15"><path codeLine="38" d="M226.6795,741.824 C227.6395,772.164 228.87,786.79 231.14,804.58" fill="none" id="Weather-backto-Temporal-4" style="stroke:#181818;stroke-width:1;"/><polygon fill="#181818" points="226.3,729.83,222.4918,735.9535,226.6795,741.824,230.4878,735.7005,226.3,729.83" style="stroke:#181818;stroke-width:1;"/></g><!--reverse link Weather to Temporal--><g class="link" data-entity-1="ent0002" data-entity-2="ent0009" data-link-type="composition" data-source-line="39" id="lnk16"><path codeLine="39" d="M249.9868,741.8232 C248.9668,772.1632 247.66,786.79 245.26,804.58" fill="none" id="Weather-backto-Temporal-5" style="stroke:#181818;stroke-width:1;"/><polygon fill="#181818" points="250.39,729.83,246.1907,735.6922,249.9868,741.8232,254.1861,735.961,250.39,729.83" style="stroke:#181818;stroke-width:1;"/></g><!--reverse link Weather to Temporal--><g class="link" data-entity-1="ent0002" data-entity-2="ent0009" data-link-type="composition" data-source-line="40" id="lnk17"><path codeLine="40" d="M273.297,741.7725 C270.317,772.1125 266.46,786.79 259.38,804.58" fill="none" id="Weather-backto-Temporal-6" style="stroke:#181818;stroke-width:1;"/><polygon fill="#181818" points="274.47,729.83,269.9027,735.4103,273.297,741.7725,277.8643,736.1923,274.47,729.83" style="stroke:#181818;stroke-width:1;"/></g><!--reverse link Weather to Temporal--><g class="link" data-entity-1="ent0002" data-entity-2="ent0009" data-link-type="composition" data-source-line="41" id="lnk18"><path codeLine="41" d="M296.6239,741.6728 C291.6639,772.0128 285.25,786.79 273.5,804.58" fill="none" id="Weather-backto-Temporal-7" style="stroke:#181818;stroke-width:1;"/><polygon fill="#181818" points="298.56,729.83,293.6444,735.106,296.6239,741.6728,301.5396,736.3967,298.56,729.83" style="stroke:#181818;stroke-width:1;"/></g><!--reverse link Weather to Temporal--><g class="link" data-entity-1="ent0002" data-entity-2="ent0009" data-link-type="composition" data-source-line="42" id="lnk19"><path codeLine="42" d="M319.9742,741.5279 C313.0342,771.8679 304.04,786.79 287.62,804.58" fill="none" id="Weather-backto-Temporal-8" style="stroke:#181818;stroke-width:1;"/><polygon fill="#181818" points="322.65,729.83,317.4128,734.787,319.9742,741.5279,325.2114,736.5709,322.65,729.83" style="stroke:#181818;stroke-width:1;"/></g><!--reverse link Weather to Temporal--><g class="link" data-entity-1="ent0002" data-entity-2="ent0009" data-link-type="composition" data-source-line="43" id="lnk20"><path codeLine="43" d="M343.3501,741.3442 C332.5801,778.0342 316.29,797.76 287.71,814.53" fill="none" id="Weather-backto-Temporal-9" style="stroke:#181818;stroke-width:1;"/><polygon fill="#181818" points="346.73,729.83,341.202,734.4605,343.3501,741.3442,348.8781,736.7137,346.73,729.83" style="stroke:#181818;stroke-width:1;"/></g><?plantuml-src xLExRiCm3Dpr5G8wD6aIVK3HV-XIeAD0MxIZGXODIdQHFlwzogk873lfq34J9TxXH1x5Uqa6oQic1QVGzvR9D-YZ4AM34APWzOeGryZoKznfQ0gRSZfYqo93x1WVvKkw48DBUEse0AVNnFQ3V4n7omp6WYzpeh5LrGNy4vEnZDeJDzEaGDPD5jLvWrmpfJZ9URS932sYEK_lAx3aCwXb364eKphgZ2wfJs_Kmn8Ti6ufsBsKiMKKIed5YATorZAbIzpCnIBNpA2BBWwOuovcf4lJouZ7thFaS0OPE363Z9ERVGxjndEQrZgvG-rc5j1Ls_en3cpM4BIfBk17iHrbAI56thPoHZpWfXf5nsIMiWVNuLnyYzFDAY2WUYxUKfFowMkrkhPsujfQFWmquk7BgT-_TrEuAVohmWy0?></g></svg>