<?plantuml 1.2026.2beta3?><svg xmlns="http://www.w3.org/2000/svg" xmlns:xlink="http://www.w3.org/1999/xlink" contentStyleType="text/css" data-diagram-type="CLASS" height="1222px" preserveAspectRatio="none" style="width:1609px;height:1222px;background:#FFFFFF;" version="1.1" viewBox="0 0 1609 1222" width="1609px" zoomAndPan="magnify"><defs/><g><!--cluster odeon--><g class="cluster" data-qualified-name="odeon" data-source-line="3" id="ent0003"><path d="M8.5,6 L58.2197,6 A3.75,3.75 0 0 1 60.7197,8.5 L67.7197,28.2969 L1599.5,28.2969 A2.5,2.5 0 0 1 1602,30.7969 L1602,1213 A2.5,2.5 0 0 1 1599.5,1215.5 L8.5,1215.5 A2.5,2.5 0 0 1 6,1213 L6,8.5 A2.5,2.5 0 0 1 8.5,6" fill="none" style="stroke:#000000;stroke-width:1.5;"/><line style="stroke:#000000;stroke-width:1.5;" x1="6" x2="67.7197" y1="28.2969" y2="28.2969"/><text fill="#000000" font-family="sans-serif" font-size="14" font-weight="bold" lengthAdjust="spacing" textLength="48.7197" x="10" y="20.9951">odeon</text></g><!--cluster model--><g class="cluster" data-qualified-name="odeon.model" data-source-line="3" id="ent0004"><path d="M32.5,49 L82.0215,49 A3.75,3.75 0 0 1 84.5215,51.5 L91.5215,71.2969 L1575.5,71.2969 A2.5,2.5 0 0 1 1578,73.7969 L1578,1189 A2.5,2.5 0 0 1 1575.5,1191.5 L32.5,1191.5 A2.5,2.5 0 0 1 30,1189 L30,51.5 A2.5,2.5 0 0 1 32.5,49" fill="none" style="stroke:#000000;stroke-width:1.5;"/><line style="stroke:#000000;stroke-width:1.5;" x1="30" x2="91.5215" y1="71.2969" y2="71.2969"/><text fill="#000000" font-family="sans-serif" font-size="14" font-weight="bold" lengthAdjust="spacing" textLength="48.5215" x="34" y="63.9951">model</text></g><!--cluster expense--><g class="cluster" data-qualified-name="odeon.model.expense" data-source-line="3" id="ent0005"><path d="M56.5,215 L123.3369,215 A3.75,3.75 0 0 1 125.8369,217.5 L132.8369,237.2969 L1551.5,237.2969 A2.5,2.5 0 0 1 1554,239.7969 L1554,1165 A2.5,2.5 0 0 1 1551.5,1167.5 L56.5,1167.5 A2.5,2.5 0 0 1 54,1165 L54,217.5 A2.5,2.5 0 0 1 56.5,215" fill="none" style="stroke:#000000;stroke-width:1.5;"/><line style="stroke:#000000;stroke-width:1.5;" x1="54" x2="132.8369" y1="237.2969" y2="237.2969"/><text fill="#000000" font-family="sans-serif" font-size="14" font-weight="bold" lengthAdjust="spacing" textLength="65.8369" x="58" y="229.9951">expense</text></g><!--cluster base--><g class="cluster" data-qualified-name="odeon.model.base" data-source-line="20" id="ent0008"><path d="M698.5,92 L736.7969,92 A3.75,3.75 0 0 1 739.2969,94.5 L746.2969,114.2969 L803.5,114.2969 A2.5,2.5 0 0 1 806,116.7969 L806,188.5 A2.5,2.5 0 0 1 803.5,191 L698.5,191 A2.5,2.5 0 0 1 696,188.5 L696,94.5 A2.5,2.5 0 0 1 698.5,92" fill="none" style="stroke:#000000;stroke-width:1.5;"/><line style="stroke:#000000;stroke-width:1.5;" x1="696" x2="746.2969" y1="114.2969" y2="114.2969"/><text fill="#000000" font-family="sans-serif" font-size="14" font-weight="bold" lengthAdjust="spacing" textLength="37.2969" x="700" y="106.9951">base</text></g><!--class ExpenseType--><g class="entity" data-qualified-name="odeon.model.expense.ExpenseType" data-source-line="3" id="ent0002"><rect fill="#F1F1F1" height="178.375" rx="2.5" ry="2.5" style="stroke:#181818;stroke-width:0.5;" width="215.6836" x="70.16" y="294.74"/><ellipse cx="126.8778" cy="310.74" fill="#EB937F" rx="11" ry="11" style="stroke:#181818;stroke-width:1;"/><path d="M130.9871,316.74 L123.2684,316.74 L123.2684,304.3494 L130.9871,304.3494 L130.9871,306.5056 L125.7215,306.5056 L125.7215,309.1775 L130.4871,309.1775 L130.4871,311.3338 L125.7215,311.3338 L125.7215,314.5838 L130.9871,314.5838 L130.9871,316.74 Z " fill="#000000"/><text fill="#000000" font-family="sans-serif" font-size="14" lengthAdjust="spacing" textLength="93.748" x="147.3778" y="315.5867">ExpenseType</text><line style="stroke:#181818;stroke-width:0.5;" x1="71.16" x2="284.8436" y1="326.74" y2="326.74"/><text fill="#000000" font-family="sans-serif" font-size="14" lengthAdjust="spacing" text-decoration="underline" textLength="97.46" x="76.16" y="343.7351">CAPEX: capex</text><text fill="#000000" font-family="sans-serif" font-size="14" lengthAdjust="spacing" text-decoration="underline" textLength="158.1699" x="76.16" y="360.032">OPERATION: operation</text><text fill="#000000" font-family="sans-serif" font-size="14" lengthAdjust="spacing" text-decoration="underline" textLength="203.6836" x="76.16" y="376.3289">MAINTENANCE: maintenance</text><text fill="#000000" font-family="sans-serif" font-size="14" lengthAdjust="spacing" text-decoration="underline" textLength="175.8066" x="76.16" y="392.6257">COMMODITY: commodity</text><text fill="#000000" font-family="sans-serif" font-size="14" lengthAdjust="spacing" text-decoration="underline" textLength="133.3555" x="76.16" y="408.9226">REVENUE: revenue</text><text fill="#000000" font-family="sans-serif" font-size="14" lengthAdjust="spacing" text-decoration="underline" textLength="127.3809" x="76.16" y="425.2195">FUNDING: funding</text><text fill="#000000" font-family="sans-serif" font-size="14" lengthAdjust="spacing" text-decoration="underline" textLength="95.1357" x="76.16" y="441.5164">OTHER: other</text><text fill="#000000" font-family="sans-serif" font-size="14" lengthAdjust="spacing" text-decoration="underline" textLength="148.4902" x="76.16" y="457.8132">UNKNOWN: unknown</text><line style="stroke:#181818;stroke-width:0.5;" x1="71.16" x2="284.8436" y1="465.115" y2="465.115"/></g><!--class Actor--><g class="entity" data-qualified-name="odeon.model.expense.Actor" data-source-line="13" id="ent0006"><rect fill="#F1F1F1" height="129.4844" rx="2.5" ry="2.5" style="stroke:#181818;stroke-width:0.5;" width="377.6748" x="321.16" y="319.19"/><ellipse cx="487.2049" cy="335.19" fill="#ADD1B2" rx="11" ry="11" style="stroke:#181818;stroke-width:1;"/><path d="M490.1737,340.8306 Q489.5955,341.1275 488.9549,341.2681 Q488.3143,341.4244 487.6112,341.4244 Q485.1112,341.4244 483.783,339.7838 Q482.4705,338.1275 482.4705,335.0025 Q482.4705,331.8775 483.783,330.2213 Q485.1112,328.565 487.6112,328.565 Q488.3143,328.565 488.9549,328.7213 Q489.6112,328.8775 490.1737,329.1744 L490.1737,331.8931 Q489.5487,331.315 488.9549,331.0494 Q488.3612,330.7681 487.7362,330.7681 Q486.3924,330.7681 485.7049,331.8463 Q485.0174,332.9088 485.0174,335.0025 Q485.0174,337.0963 485.7049,338.1744 Q486.3924,339.2369 487.7362,339.2369 Q488.3612,339.2369 488.9549,338.9713 Q489.5487,338.69 490.1737,338.1119 L490.1737,340.8306 Z " fill="#000000"/><text fill="#000000" font-family="sans-serif" font-size="14" lengthAdjust="spacing" textLength="37.085" x="507.7049" y="340.0367">Actor</text><line style="stroke:#181818;stroke-width:0.5;" x1="322.16" x2="697.8348" y1="351.19" y2="351.19"/><g data-visibility-modifier="PROTECTED_FIELD"><polygon fill="none" points="332.16,359.8384,336.16,363.8384,332.16,367.8384,328.16,363.8384" style="stroke:#B38D22;stroke-width:1;"/></g><text fill="#000000" font-family="sans-serif" font-size="14" lengthAdjust="spacing" textLength="351.6748" x="341.16" y="368.1851">_Object__parent: odeon.model.base.Parent | None</text><g data-visibility-modifier="PROTECTED_FIELD"><polygon fill="none" points="332.16,376.1353,336.16,380.1353,332.16,384.1353,328.16,380.1353" style="stroke:#B38D22;stroke-width:1;"/></g><text fill="#000000" font-family="sans-serif" font-size="14" lengthAdjust="spacing" textLength="173.9678" x="341.16" y="384.482">_children_attributes: dict</text><g data-visibility-modifier="PROTECTED_FIELD"><polygon fill="none" points="332.16,392.4322,336.16,396.4322,332.16,400.4322,328.16,396.4322" style="stroke:#B38D22;stroke-width:1;"/></g><text fill="#000000" font-family="sans-serif" font-size="14" lengthAdjust="spacing" textLength="186.9766" x="341.16" y="400.7789">_associated_attributes: list</text><g data-visibility-modifier="PROTECTED_FIELD"><polygon fill="none" points="332.16,408.7291,336.16,412.7291,332.16,416.7291,328.16,412.7291" style="stroke:#B38D22;stroke-width:1;"/></g><text fill="#000000" font-family="sans-serif" font-size="14" lengthAdjust="spacing" textLength="175.5059" x="341.16" y="417.0757">_temporal_attributes: list</text><g data-visibility-modifier="PROTECTED_FIELD"><polygon fill="none" points="332.16,425.0259,336.16,429.0259,332.16,433.0259,328.16,429.0259" style="stroke:#B38D22;stroke-width:1;"/></g><text fill="#000000" font-family="sans-serif" font-size="14" lengthAdjust="spacing" textLength="208.4688" x="341.16" y="433.3726">_temporal_dict_attributes: list</text><line style="stroke:#181818;stroke-width:0.5;" x1="322.16" x2="697.8348" y1="440.6744" y2="440.6744"/></g><!--class BuildingConstructionExpense--><g class="entity" data-qualified-name="odeon.model.expense.BuildingConstructionExpense" data-source-line="21" id="ent0010"><rect fill="#F1F1F1" height="162.0781" rx="2.5" ry="2.5" style="stroke:#181818;stroke-width:0.5;" width="418.916" x="259.54" y="989.42"/><ellipse cx="362.0756" cy="1005.42" fill="#ADD1B2" rx="11" ry="11" style="stroke:#181818;stroke-width:1;"/><path d="M365.0444,1011.0606 Q364.4663,1011.3575 363.8256,1011.4981 Q363.185,1011.6544 362.4819,1011.6544 Q359.9819,1011.6544 358.6538,1010.0138 Q357.3413,1008.3575 357.3413,1005.2325 Q357.3413,1002.1075 358.6538,1000.4513 Q359.9819,998.795 362.4819,998.795 Q363.185,998.795 363.8256,998.9513 Q364.4819,999.1075 365.0444,999.4044 L365.0444,1002.1231 Q364.4194,1001.545 363.8256,1001.2794 Q363.2319,1000.9981 362.6069,1000.9981 Q361.2631,1000.9981 360.5756,1002.0763 Q359.8881,1003.1388 359.8881,1005.2325 Q359.8881,1007.3263 360.5756,1008.4044 Q361.2631,1009.4669 362.6069,1009.4669 Q363.2319,1009.4669 363.8256,1009.2013 Q364.4194,1008.92 365.0444,1008.3419 L365.0444,1011.0606 Z " fill="#000000"/><text fill="#000000" font-family="sans-serif" font-size="14" lengthAdjust="spacing" textLength="205.3447" x="382.5756" y="1010.2667">BuildingConstructionExpense</text><line style="stroke:#181818;stroke-width:0.5;" x1="260.54" x2="677.456" y1="1021.42" y2="1021.42"/><g data-visibility-modifier="PUBLIC_FIELD"><ellipse cx="270.54" cy="1035.0684" fill="none" rx="3" ry="3" style="stroke:#038048;stroke-width:1;"/></g><text fill="#000000" font-family="sans-serif" font-size="14" lengthAdjust="spacing" textLength="153.1045" x="279.54" y="1038.4151">fix_value: float | None</text><g data-visibility-modifier="PUBLIC_FIELD"><ellipse cx="270.54" cy="1051.3653" fill="none" rx="3" ry="3" style="stroke:#038048;stroke-width:1;"/></g><text fill="#000000" font-family="sans-serif" font-size="14" lengthAdjust="spacing" textLength="238.7793" x="279.54" y="1054.712">per_dimension_value: float | None</text><g data-visibility-modifier="PUBLIC_FIELD"><ellipse cx="270.54" cy="1067.6622" fill="none" rx="3" ry="3" style="stroke:#038048;stroke-width:1;"/></g><text fill="#000000" font-family="sans-serif" font-size="14" lengthAdjust="spacing" textLength="122.1582" x="279.54" y="1071.0089">period: int | None</text><g data-visibility-modifier="PUBLIC_FIELD"><ellipse cx="270.54" cy="1083.9591" fill="none" rx="3" ry="3" style="stroke:#038048;stroke-width:1;"/></g><text fill="#000000" font-family="sans-serif" font-size="14" lengthAdjust="spacing" textLength="205.0713" x="279.54" y="1087.3057">dimension_function: Optional</text><g data-visibility-modifier="PUBLIC_FIELD"><ellipse cx="270.54" cy="1100.2559" fill="none" rx="3" ry="3" style="stroke:#038048;stroke-width:1;"/></g><text fill="#000000" font-family="sans-serif" font-size="14" lengthAdjust="spacing" textLength="392.916" x="279.54" y="1103.6026">dimension_function_kwargs: dict[str, typing.Any] | None</text><g data-visibility-modifier="PUBLIC_FIELD"><ellipse cx="270.54" cy="1116.5528" fill="none" rx="3" ry="3" style="stroke:#038048;stroke-width:1;"/></g><text fill="#000000" font-family="sans-serif" font-size="14" lengthAdjust="spacing" textLength="169.8184" x="279.54" y="1119.8995">asset_function: Optional</text><g data-visibility-modifier="PUBLIC_FIELD"><ellipse cx="270.54" cy="1132.8497" fill="none" rx="3" ry="3" style="stroke:#038048;stroke-width:1;"/></g><text fill="#000000" font-family="sans-serif" font-size="14" lengthAdjust="spacing" textLength="357.6631" x="279.54" y="1136.1964">asset_function_kwargs: dict[str, typing.Any] | None</text><line style="stroke:#181818;stroke-width:0.5;" x1="260.54" x2="677.456" y1="1143.4981" y2="1143.4981"/></g><!--class PerLifeExpense--><g class="entity" data-qualified-name="odeon.model.expense.PerLifeExpense" data-source-line="30" id="ent0011"><rect fill="#F1F1F1" height="48" rx="2.5" ry="2.5" style="stroke:#181818;stroke-width:0.5;" width="139.4541" x="585.27" y="856.98"/><ellipse cx="600.27" cy="872.98" fill="#ADD1B2" rx="11" ry="11" style="stroke:#181818;stroke-width:1;"/><path d="M603.2388,878.6206 Q602.6606,878.9175 602.02,879.0581 Q601.3794,879.2144 600.6763,879.2144 Q598.1763,879.2144 596.8481,877.5738 Q595.5356,875.9175 595.5356,872.7925 Q595.5356,869.6675 596.8481,868.0113 Q598.1763,866.355 600.6763,866.355 Q601.3794,866.355 602.02,866.5113 Q602.6763,866.6675 603.2388,866.9644 L603.2388,869.6831 Q602.6138,869.105 602.02,868.8394 Q601.4263,868.5581 600.8013,868.5581 Q599.4575,868.5581 598.77,869.6363 Q598.0825,870.6988 598.0825,872.7925 Q598.0825,874.8863 598.77,875.9644 Q599.4575,877.0269 600.8013,877.0269 Q601.4263,877.0269 602.02,876.7613 Q602.6138,876.48 603.2388,875.9019 L603.2388,878.6206 Z " fill="#000000"/><text fill="#000000" font-family="sans-serif" font-size="14" lengthAdjust="spacing" textLength="107.4541" x="614.27" y="877.8267">PerLifeExpense</text><line style="stroke:#181818;stroke-width:0.5;" x1="586.27" x2="723.7241" y1="888.98" y2="888.98"/><line style="stroke:#181818;stroke-width:0.5;" x1="586.27" x2="723.7241" y1="896.98" y2="896.98"/></g><!--class BuildingTransformationExpense--><g class="entity" data-qualified-name="odeon.model.expense.BuildingTransformationExpense" data-source-line="31" id="ent0013"><rect fill="#F1F1F1" height="48" rx="2.5" ry="2.5" style="stroke:#181818;stroke-width:0.5;" width="255.542" x="713.23" y="1046.46"/><ellipse cx="728.23" cy="1062.46" fill="#ADD1B2" rx="11" ry="11" style="stroke:#181818;stroke-width:1;"/><path d="M731.1988,1068.1006 Q730.6206,1068.3975 729.98,1068.5381 Q729.3394,1068.6944 728.6363,1068.6944 Q726.1363,1068.6944 724.8081,1067.0538 Q723.4956,1065.3975 723.4956,1062.2725 Q723.4956,1059.1475 724.8081,1057.4913 Q726.1363,1055.835 728.6363,1055.835 Q729.3394,1055.835 729.98,1055.9913 Q730.6363,1056.1475 731.1988,1056.4444 L731.1988,1059.1631 Q730.5738,1058.585 729.98,1058.3194 Q729.3863,1058.0381 728.7613,1058.0381 Q727.4175,1058.0381 726.73,1059.1163 Q726.0425,1060.1788 726.0425,1062.2725 Q726.0425,1064.3663 726.73,1065.4444 Q727.4175,1066.5069 728.7613,1066.5069 Q729.3863,1066.5069 729.98,1066.2413 Q730.5738,1065.96 731.1988,1065.3819 L731.1988,1068.1006 Z " fill="#000000"/><text fill="#000000" font-family="sans-serif" font-size="14" lengthAdjust="spacing" textLength="223.542" x="742.23" y="1067.3067">BuildingTransformationExpense</text><line style="stroke:#181818;stroke-width:0.5;" x1="714.23" x2="967.772" y1="1078.46" y2="1078.46"/><line style="stroke:#181818;stroke-width:0.5;" x1="714.23" x2="967.772" y1="1086.46" y2="1086.46"/></g><!--class Expense--><g class="entity" data-qualified-name="odeon.model.expense.Expense" data-source-line="34" id="ent0015"><rect fill="#F1F1F1" height="267.8594" rx="2.5" ry="2.5" style="stroke:#181818;stroke-width:0.5;" width="517.668" x="734.17" y="250"/><ellipse cx="959.0484" cy="266" fill="#ADD1B2" rx="11" ry="11" style="stroke:#181818;stroke-width:1;"/><path d="M962.0172,271.6406 Q961.439,271.9375 960.7984,272.0781 Q960.1578,272.2344 959.4547,272.2344 Q956.9547,272.2344 955.6265,270.5938 Q954.314,268.9375 954.314,265.8125 Q954.314,262.6875 955.6265,261.0313 Q956.9547,259.375 959.4547,259.375 Q960.1578,259.375 960.7984,259.5313 Q961.4547,259.6875 962.0172,259.9844 L962.0172,262.7031 Q961.3922,262.125 960.7984,261.8594 Q960.2047,261.5781 959.5797,261.5781 Q958.2359,261.5781 957.5484,262.6563 Q956.8609,263.7188 956.8609,265.8125 Q956.8609,267.9063 957.5484,268.9844 Q958.2359,270.0469 959.5797,270.0469 Q960.2047,270.0469 960.7984,269.7813 Q961.3922,269.5 962.0172,268.9219 L962.0172,271.6406 Z " fill="#000000"/><text fill="#000000" font-family="sans-serif" font-size="14" lengthAdjust="spacing" textLength="59.4111" x="979.5484" y="270.8467">Expense</text><line style="stroke:#181818;stroke-width:0.5;" x1="735.17" x2="1250.838" y1="282" y2="282"/><g data-visibility-modifier="PROTECTED_FIELD"><polygon fill="none" points="745.17,290.6484,749.17,294.6484,745.17,298.6484,741.17,294.6484" style="stroke:#B38D22;stroke-width:1;"/></g><text fill="#000000" font-family="sans-serif" font-size="14" lengthAdjust="spacing" textLength="491.668" x="754.17" y="298.9951">_relative_expense: tuple[odeon.model.expense.Expense, float] | None</text><g data-visibility-modifier="PROTECTED_FIELD"><polygon fill="none" points="745.17,306.9453,749.17,310.9453,745.17,314.9453,741.17,310.9453" style="stroke:#B38D22;stroke-width:1;"/></g><text fill="#000000" font-family="sans-serif" font-size="14" lengthAdjust="spacing" textLength="311.0557" x="754.17" y="315.292">_sender: odeon.model.expense.Actor | None</text><g data-visibility-modifier="PROTECTED_FIELD"><polygon fill="none" points="745.17,323.2422,749.17,327.2422,745.17,331.2422,741.17,327.2422" style="stroke:#B38D22;stroke-width:1;"/></g><text fill="#000000" font-family="sans-serif" font-size="14" lengthAdjust="spacing" textLength="320.2432" x="754.17" y="331.5889">_receiver: odeon.model.expense.Actor | None</text><g data-visibility-modifier="PUBLIC_FIELD"><ellipse cx="745.17" cy="344.5391" fill="none" rx="3" ry="3" style="stroke:#038048;stroke-width:1;"/></g><text fill="#000000" font-family="sans-serif" font-size="14" lengthAdjust="spacing" textLength="343.957" x="754.17" y="347.8857">type: odeon.model.expense.ExpenseType | None</text><g data-visibility-modifier="PUBLIC_FIELD"><ellipse cx="745.17" cy="360.8359" fill="none" rx="3" ry="3" style="stroke:#038048;stroke-width:1;"/></g><text fill="#000000" font-family="sans-serif" font-size="14" lengthAdjust="spacing" textLength="110.1201" x="754.17" y="364.1826">is_annuity: bool</text><g data-visibility-modifier="PUBLIC_FIELD"><ellipse cx="745.17" cy="377.1328" fill="none" rx="3" ry="3" style="stroke:#038048;stroke-width:1;"/></g><text fill="#000000" font-family="sans-serif" font-size="14" lengthAdjust="spacing" textLength="232.1416" x="754.17" y="380.4795">price_change_factor: float | None</text><line style="stroke:#181818;stroke-width:1;stroke-dasharray:1,2;" x1="735.17" x2="1250.838" y1="387.7813" y2="387.7813"/><g data-visibility-modifier="PUBLIC_METHOD"><ellipse cx="745.17" cy="401.4297" fill="#84BE84" rx="3" ry="3" style="stroke:#038048;stroke-width:1;"/></g><text fill="#000000" font-family="sans-serif" font-size="14" lengthAdjust="spacing" textLength="140.1025" x="754.17" y="404.7764">financing (property)</text><g data-visibility-modifier="PUBLIC_METHOD"><ellipse cx="745.17" cy="417.7266" fill="#84BE84" rx="3" ry="3" style="stroke:#038048;stroke-width:1;"/></g><text fill="#000000" font-family="sans-serif" font-size="14" lengthAdjust="spacing" textLength="138.5576" x="754.17" y="421.0732">is_virtual (property)</text><g data-visibility-modifier="PUBLIC_METHOD"><ellipse cx="745.17" cy="434.0234" fill="#84BE84" rx="3" ry="3" style="stroke:#038048;stroke-width:1;"/></g><text fill="#000000" font-family="sans-serif" font-size="14" lengthAdjust="spacing" textLength="216.9932" x="754.17" y="437.3701">price_change_factor (property)</text><g data-visibility-modifier="PUBLIC_METHOD"><ellipse cx="745.17" cy="450.3203" fill="#84BE84" rx="3" ry="3" style="stroke:#038048;stroke-width:1;"/></g><text fill="#000000" font-family="sans-serif" font-size="14" lengthAdjust="spacing" textLength="132.8359" x="754.17" y="453.667">receiver (property)</text><g data-visibility-modifier="PUBLIC_METHOD"><ellipse cx="745.17" cy="466.6172" fill="#84BE84" rx="3" ry="3" style="stroke:#038048;stroke-width:1;"/></g><text fill="#000000" font-family="sans-serif" font-size="14" lengthAdjust="spacing" textLength="123.6484" x="754.17" y="469.9639">sender (property)</text><line style="stroke:#181818;stroke-width:0.5;" x1="735.17" x2="1250.838" y1="477.2656" y2="477.2656"/><g data-visibility-modifier="PUBLIC_METHOD"><ellipse cx="745.17" cy="490.9141" fill="#84BE84" rx="3" ry="3" style="stroke:#038048;stroke-width:1;"/></g><text fill="#000000" font-family="sans-serif" font-size="14" lengthAdjust="spacing" textLength="63.5127" x="754.17" y="494.2607">calc(self)</text><g data-visibility-modifier="PUBLIC_METHOD"><ellipse cx="745.17" cy="507.2109" fill="#84BE84" rx="3" ry="3" style="stroke:#038048;stroke-width:1;"/></g><text fill="#000000" font-family="sans-serif" font-size="14" lengthAdjust="spacing" textLength="123.375" x="754.17" y="510.5576">calc_annuity(self)</text></g><!--class Financing--><g class="entity" data-qualified-name="odeon.model.expense.Financing" data-source-line="52" id="ent0017"><rect fill="#F1F1F1" height="113.1875" rx="2.5" ry="2.5" style="stroke:#181818;stroke-width:0.5;" width="251.1553" x="1286.42" y="327.34"/><ellipse cx="1373.9405" cy="343.34" fill="#ADD1B2" rx="11" ry="11" style="stroke:#181818;stroke-width:1;"/><path d="M1376.9093,348.9806 Q1376.3311,349.2775 1375.6905,349.4181 Q1375.0499,349.5744 1374.3468,349.5744 Q1371.8468,349.5744 1370.5186,347.9338 Q1369.2061,346.2775 1369.2061,343.1525 Q1369.2061,340.0275 1370.5186,338.3713 Q1371.8468,336.715 1374.3468,336.715 Q1375.0499,336.715 1375.6905,336.8713 Q1376.3468,337.0275 1376.9093,337.3244 L1376.9093,340.0431 Q1376.2843,339.465 1375.6905,339.1994 Q1375.0968,338.9181 1374.4718,338.9181 Q1373.128,338.9181 1372.4405,339.9963 Q1371.753,341.0588 1371.753,343.1525 Q1371.753,345.2463 1372.4405,346.3244 Q1373.128,347.3869 1374.4718,347.3869 Q1375.0968,347.3869 1375.6905,347.1213 Q1376.2843,346.84 1376.9093,346.2619 L1376.9093,348.9806 Z " fill="#000000"/><text fill="#000000" font-family="sans-serif" font-size="14" lengthAdjust="spacing" textLength="67.6143" x="1394.4405" y="348.1867">Financing</text><line style="stroke:#181818;stroke-width:0.5;" x1="1287.42" x2="1536.5753" y1="359.34" y2="359.34"/><g data-visibility-modifier="PUBLIC_FIELD"><ellipse cx="1297.42" cy="372.9884" fill="none" rx="3" ry="3" style="stroke:#038048;stroke-width:1;"/></g><text fill="#000000" font-family="sans-serif" font-size="14" lengthAdjust="spacing" textLength="130.0742" x="1306.42" y="376.3351">interest_rate: float</text><g data-visibility-modifier="PUBLIC_FIELD"><ellipse cx="1297.42" cy="389.2853" fill="none" rx="3" ry="3" style="stroke:#038048;stroke-width:1;"/></g><text fill="#000000" font-family="sans-serif" font-size="14" lengthAdjust="spacing" textLength="225.1553" x="1306.42" y="392.632">observation_period: float | None</text><g data-visibility-modifier="PUBLIC_FIELD"><ellipse cx="1297.42" cy="405.5822" fill="none" rx="3" ry="3" style="stroke:#038048;stroke-width:1;"/></g><text fill="#000000" font-family="sans-serif" font-size="14" lengthAdjust="spacing" textLength="183.8047" x="1306.42" y="408.9289">price_change_factors: dict</text><line style="stroke:#181818;stroke-width:0.5;" x1="1287.42" x2="1536.5753" y1="416.2306" y2="416.2306"/><g data-visibility-modifier="PUBLIC_METHOD"><ellipse cx="1297.42" cy="429.8791" fill="#84BE84" rx="3" ry="3" style="stroke:#038048;stroke-width:1;"/></g><text fill="#000000" font-family="sans-serif" font-size="14" lengthAdjust="spacing" textLength="69.084" x="1306.42" y="433.2257">copy(self)</text></g><!--class FixExpense--><g class="entity" data-qualified-name="odeon.model.expense.FixExpense" data-source-line="58" id="ent0018"><rect fill="#F1F1F1" height="64.2969" rx="2.5" ry="2.5" style="stroke:#181818;stroke-width:0.5;" width="298.0703" x="132.96" y="643.05"/><ellipse cx="237.9258" cy="659.05" fill="#ADD1B2" rx="11" ry="11" style="stroke:#181818;stroke-width:1;"/><path d="M240.8946,664.6906 Q240.3164,664.9875 239.6758,665.1281 Q239.0352,665.2844 238.3321,665.2844 Q235.8321,665.2844 234.5039,663.6438 Q233.1914,661.9875 233.1914,658.8625 Q233.1914,655.7375 234.5039,654.0813 Q235.8321,652.425 238.3321,652.425 Q239.0352,652.425 239.6758,652.5813 Q240.3321,652.7375 240.8946,653.0344 L240.8946,655.7531 Q240.2696,655.175 239.6758,654.9094 Q239.0821,654.6281 238.4571,654.6281 Q237.1133,654.6281 236.4258,655.7063 Q235.7383,656.7688 235.7383,658.8625 Q235.7383,660.9563 236.4258,662.0344 Q237.1133,663.0969 238.4571,663.0969 Q239.0821,663.0969 239.6758,662.8313 Q240.2696,662.55 240.8946,661.9719 L240.8946,664.6906 Z " fill="#000000"/><text fill="#000000" font-family="sans-serif" font-size="14" lengthAdjust="spacing" textLength="79.6387" x="258.4258" y="663.8967">FixExpense</text><line style="stroke:#181818;stroke-width:0.5;" x1="133.96" x2="430.0303" y1="675.05" y2="675.05"/><g data-visibility-modifier="PUBLIC_FIELD"><ellipse cx="143.96" cy="688.6984" fill="none" rx="3" ry="3" style="stroke:#038048;stroke-width:1;"/></g><text fill="#000000" font-family="sans-serif" font-size="14" lengthAdjust="spacing" textLength="272.0703" x="152.96" y="692.0451">value: float | pandas.core.series.Series</text><line style="stroke:#181818;stroke-width:0.5;" x1="133.96" x2="430.0303" y1="699.3469" y2="699.3469"/></g><!--class PerPeriodExpense--><g class="entity" data-qualified-name="odeon.model.expense.PerPeriodExpense" data-source-line="64" id="ent0020"><rect fill="#F1F1F1" height="194.6719" rx="2.5" ry="2.5" style="stroke:#181818;stroke-width:0.5;" width="418.916" x="465.54" y="577.86"/><ellipse cx="607.56" cy="593.86" fill="#ADD1B2" rx="11" ry="11" style="stroke:#181818;stroke-width:1;"/><path d="M610.5288,599.5006 Q609.9506,599.7975 609.31,599.9381 Q608.6694,600.0944 607.9663,600.0944 Q605.4663,600.0944 604.1381,598.4538 Q602.8256,596.7975 602.8256,593.6725 Q602.8256,590.5475 604.1381,588.8913 Q605.4663,587.235 607.9663,587.235 Q608.6694,587.235 609.31,587.3913 Q609.9663,587.5475 610.5288,587.8444 L610.5288,590.5631 Q609.9038,589.985 609.31,589.7194 Q608.7163,589.4381 608.0913,589.4381 Q606.7475,589.4381 606.06,590.5163 Q605.3725,591.5788 605.3725,593.6725 Q605.3725,595.7663 606.06,596.8444 Q606.7475,597.9069 608.0913,597.9069 Q608.7163,597.9069 609.31,597.6413 Q609.9038,597.36 610.5288,596.7819 L610.5288,599.5006 Z " fill="#000000"/><text fill="#000000" font-family="sans-serif" font-size="14" lengthAdjust="spacing" textLength="126.376" x="628.06" y="598.7067">PerPeriodExpense</text><line style="stroke:#181818;stroke-width:0.5;" x1="466.54" x2="883.456" y1="609.86" y2="609.86"/><g data-visibility-modifier="PUBLIC_FIELD"><ellipse cx="476.54" cy="623.5084" fill="none" rx="3" ry="3" style="stroke:#038048;stroke-width:1;"/></g><text fill="#000000" font-family="sans-serif" font-size="14" lengthAdjust="spacing" textLength="153.1045" x="485.54" y="626.8551">fix_value: float | None</text><g data-visibility-modifier="PUBLIC_FIELD"><ellipse cx="476.54" cy="639.8053" fill="none" rx="3" ry="3" style="stroke:#038048;stroke-width:1;"/></g><text fill="#000000" font-family="sans-serif" font-size="14" lengthAdjust="spacing" textLength="238.7793" x="485.54" y="643.152">per_dimension_value: float | None</text><g data-visibility-modifier="PUBLIC_FIELD"><ellipse cx="476.54" cy="656.1022" fill="none" rx="3" ry="3" style="stroke:#038048;stroke-width:1;"/></g><text fill="#000000" font-family="sans-serif" font-size="14" lengthAdjust="spacing" textLength="122.1582" x="485.54" y="659.4489">period: int | None</text><g data-visibility-modifier="PUBLIC_FIELD"><ellipse cx="476.54" cy="672.3991" fill="none" rx="3" ry="3" style="stroke:#038048;stroke-width:1;"/></g><text fill="#000000" font-family="sans-serif" font-size="14" lengthAdjust="spacing" textLength="205.0713" x="485.54" y="675.7457">dimension_function: Optional</text><g data-visibility-modifier="PUBLIC_FIELD"><ellipse cx="476.54" cy="688.6959" fill="none" rx="3" ry="3" style="stroke:#038048;stroke-width:1;"/></g><text fill="#000000" font-family="sans-serif" font-size="14" lengthAdjust="spacing" textLength="392.916" x="485.54" y="692.0426">dimension_function_kwargs: dict[str, typing.Any] | None</text><g data-visibility-modifier="PUBLIC_FIELD"><ellipse cx="476.54" cy="704.9928" fill="none" rx="3" ry="3" style="stroke:#038048;stroke-width:1;"/></g><text fill="#000000" font-family="sans-serif" font-size="14" lengthAdjust="spacing" textLength="169.8184" x="485.54" y="708.3395">asset_function: Optional</text><g data-visibility-modifier="PUBLIC_FIELD"><ellipse cx="476.54" cy="721.2897" fill="none" rx="3" ry="3" style="stroke:#038048;stroke-width:1;"/></g><text fill="#000000" font-family="sans-serif" font-size="14" lengthAdjust="spacing" textLength="357.6631" x="485.54" y="724.6364">asset_function_kwargs: dict[str, typing.Any] | None</text><line style="stroke:#181818;stroke-width:0.5;" x1="466.54" x2="883.456" y1="731.9381" y2="731.9381"/><g data-visibility-modifier="PROTECTED_METHOD"><polygon fill="#FFFF44" points="476.54,740.5866,480.54,744.5866,476.54,748.5866,472.54,744.5866" style="stroke:#B38D22;stroke-width:1;"/></g><text fill="#000000" font-family="sans-serif" font-size="14" lengthAdjust="spacing" textLength="254.4063" x="485.54" y="748.9332">_calc_annuity_annual_payment(self)</text><g data-visibility-modifier="PROTECTED_METHOD"><polygon fill="#FFFF44" points="476.54,756.8834,480.54,760.8834,476.54,764.8834,472.54,760.8834" style="stroke:#B38D22;stroke-width:1;"/></g><text fill="#000000" font-family="sans-serif" font-size="14" lengthAdjust="spacing" textLength="266.3145" x="485.54" y="765.2301">_calc_annuity_complex_payment(self)</text></g><!--class PerThroughputExpense--><g class="entity" data-qualified-name="odeon.model.expense.PerThroughputExpense" data-source-line="77" id="ent0023"><rect fill="#F1F1F1" height="96.8906" rx="2.5" ry="2.5" style="stroke:#181818;stroke-width:0.5;" width="358.083" x="759.96" y="832.53"/><ellipse cx="852.8262" cy="848.53" fill="#ADD1B2" rx="11" ry="11" style="stroke:#181818;stroke-width:1;"/><path d="M855.795,854.1706 Q855.2168,854.4675 854.5762,854.6081 Q853.9356,854.7644 853.2325,854.7644 Q850.7325,854.7644 849.4043,853.1238 Q848.0918,851.4675 848.0918,848.3425 Q848.0918,845.2175 849.4043,843.5613 Q850.7325,841.905 853.2325,841.905 Q853.9356,841.905 854.5762,842.0613 Q855.2325,842.2175 855.795,842.5144 L855.795,845.2331 Q855.17,844.655 854.5762,844.3894 Q853.9825,844.1081 853.3575,844.1081 Q852.0137,844.1081 851.3262,845.1863 Q850.6387,846.2488 850.6387,848.3425 Q850.6387,850.4363 851.3262,851.5144 Q852.0137,852.5769 853.3575,852.5769 Q853.9825,852.5769 854.5762,852.3113 Q855.17,852.03 855.795,851.4519 L855.795,854.1706 Z " fill="#000000"/><text fill="#000000" font-family="sans-serif" font-size="14" lengthAdjust="spacing" textLength="163.8506" x="873.3262" y="853.3767">PerThroughputExpense</text><line style="stroke:#181818;stroke-width:0.5;" x1="760.96" x2="1117.043" y1="864.53" y2="864.53"/><g data-visibility-modifier="PUBLIC_FIELD"><ellipse cx="770.96" cy="878.1784" fill="none" rx="3" ry="3" style="stroke:#038048;stroke-width:1;"/></g><text fill="#000000" font-family="sans-serif" font-size="14" lengthAdjust="spacing" textLength="332.083" x="779.96" y="881.5251">socket: odeon.model.component.Socket | None</text><g data-visibility-modifier="PUBLIC_FIELD"><ellipse cx="770.96" cy="894.4753" fill="none" rx="3" ry="3" style="stroke:#038048;stroke-width:1;"/></g><text fill="#000000" font-family="sans-serif" font-size="14" lengthAdjust="spacing" textLength="322.2119" x="779.96" y="897.822">value: float | pandas.core.series.Series | None</text><line style="stroke:#181818;stroke-width:0.5;" x1="760.96" x2="1117.043" y1="905.1238" y2="905.1238"/><g data-visibility-modifier="PUBLIC_METHOD"><ellipse cx="770.96" cy="918.7722" fill="#84BE84" rx="3" ry="3" style="stroke:#038048;stroke-width:1;"/></g><text fill="#000000" font-family="sans-serif" font-size="14" lengthAdjust="spacing" textLength="156.625" x="779.96" y="922.1189">value_as_annuity(self)</text></g><!--class _DeviceExpense--><g class="entity" data-qualified-name="odeon.model.expense._DeviceExpense" data-source-line="82" id="ent0024"><rect fill="#F1F1F1" height="48" rx="2.5" ry="2.5" style="stroke:#181818;stroke-width:0.5;" width="146.29" x="919.85" y="651.2"/><ellipse cx="934.85" cy="667.2" fill="#ADD1B2" rx="11" ry="11" style="stroke:#181818;stroke-width:1;"/><path d="M937.8188,672.8406 Q937.2406,673.1375 936.6,673.2781 Q935.9594,673.4344 935.2563,673.4344 Q932.7563,673.4344 931.4281,671.7938 Q930.1156,670.1375 930.1156,667.0125 Q930.1156,663.8875 931.4281,662.2313 Q932.7563,660.575 935.2563,660.575 Q935.9594,660.575 936.6,660.7313 Q937.2563,660.8875 937.8188,661.1844 L937.8188,663.9031 Q937.1938,663.325 936.6,663.0594 Q936.0063,662.7781 935.3813,662.7781 Q934.0375,662.7781 933.35,663.8563 Q932.6625,664.9188 932.6625,667.0125 Q932.6625,669.1063 933.35,670.1844 Q934.0375,671.2469 935.3813,671.2469 Q936.0063,671.2469 936.6,670.9813 Q937.1938,670.7 937.8188,670.1219 L937.8188,672.8406 Z " fill="#000000"/><text fill="#000000" font-family="sans-serif" font-size="14" lengthAdjust="spacing" textLength="114.29" x="948.85" y="672.0467">_DeviceExpense</text><line style="stroke:#181818;stroke-width:0.5;" x1="920.85" x2="1065.14" y1="683.2" y2="683.2"/><line style="stroke:#181818;stroke-width:0.5;" x1="920.85" x2="1065.14" y1="691.2" y2="691.2"/></g><!--class PerUsageExpense--><g class="entity" data-qualified-name="odeon.model.expense.PerUsageExpense" data-source-line="83" id="ent0026"><rect fill="#F1F1F1" height="64.2969" rx="2.5" ry="2.5" style="stroke:#181818;stroke-width:0.5;" width="157.8428" x="1153.08" y="848.83"/><ellipse cx="1168.08" cy="864.83" fill="#ADD1B2" rx="11" ry="11" style="stroke:#181818;stroke-width:1;"/><path d="M1171.0488,870.4706 Q1170.4706,870.7675 1169.83,870.9081 Q1169.1894,871.0644 1168.4863,871.0644 Q1165.9863,871.0644 1164.6581,869.4237 Q1163.3456,867.7675 1163.3456,864.6425 Q1163.3456,861.5175 1164.6581,859.8612 Q1165.9863,858.205 1168.4863,858.205 Q1169.1894,858.205 1169.83,858.3612 Q1170.4863,858.5175 1171.0488,858.8144 L1171.0488,861.5331 Q1170.4238,860.955 1169.83,860.6894 Q1169.2363,860.4081 1168.6113,860.4081 Q1167.2675,860.4081 1166.58,861.4862 Q1165.8925,862.5487 1165.8925,864.6425 Q1165.8925,866.7362 1166.58,867.8144 Q1167.2675,868.8769 1168.6113,868.8769 Q1169.2363,868.8769 1169.83,868.6112 Q1170.4238,868.33 1171.0488,867.7519 L1171.0488,870.4706 Z " fill="#000000"/><text fill="#000000" font-family="sans-serif" font-size="14" lengthAdjust="spacing" textLength="125.8428" x="1182.08" y="869.6767">PerUsageExpense</text><line style="stroke:#181818;stroke-width:0.5;" x1="1154.08" x2="1309.9228" y1="880.83" y2="880.83"/><g data-visibility-modifier="PUBLIC_FIELD"><ellipse cx="1164.08" cy="894.4784" fill="none" rx="3" ry="3" style="stroke:#038048;stroke-width:1;"/></g><text fill="#000000" font-family="sans-serif" font-size="14" lengthAdjust="spacing" textLength="78.8594" x="1173.08" y="897.8251">value: float</text><line style="stroke:#181818;stroke-width:0.5;" x1="1154.08" x2="1309.9228" y1="905.1269" y2="905.1269"/></g><!--class _TransformerExpense--><g class="entity" data-qualified-name="odeon.model.expense._TransformerExpense" data-source-line="86" id="ent0027"><rect fill="#F1F1F1" height="48" rx="2.5" ry="2.5" style="stroke:#181818;stroke-width:0.5;" width="184.7217" x="1139.64" y="651.2"/><ellipse cx="1154.64" cy="667.2" fill="#ADD1B2" rx="11" ry="11" style="stroke:#181818;stroke-width:1;"/><path d="M1157.6088,672.8406 Q1157.0306,673.1375 1156.39,673.2781 Q1155.7494,673.4344 1155.0463,673.4344 Q1152.5463,673.4344 1151.2181,671.7938 Q1149.9056,670.1375 1149.9056,667.0125 Q1149.9056,663.8875 1151.2181,662.2313 Q1152.5463,660.575 1155.0463,660.575 Q1155.7494,660.575 1156.39,660.7313 Q1157.0463,660.8875 1157.6088,661.1844 L1157.6088,663.9031 Q1156.9838,663.325 1156.39,663.0594 Q1155.7963,662.7781 1155.1713,662.7781 Q1153.8275,662.7781 1153.14,663.8563 Q1152.4525,664.9188 1152.4525,667.0125 Q1152.4525,669.1063 1153.14,670.1844 Q1153.8275,671.2469 1155.1713,671.2469 Q1155.7963,671.2469 1156.39,670.9813 Q1156.9838,670.7 1157.6088,670.1219 L1157.6088,672.8406 Z " fill="#000000"/><text fill="#000000" font-family="sans-serif" font-size="14" lengthAdjust="spacing" textLength="152.7217" x="1168.64" y="672.0467">_TransformerExpense</text><line style="stroke:#181818;stroke-width:0.5;" x1="1140.64" x2="1323.3617" y1="683.2" y2="683.2"/><line style="stroke:#181818;stroke-width:0.5;" x1="1140.64" x2="1323.3617" y1="691.2" y2="691.2"/></g><!--class PerUsageTimeExpense--><g class="entity" data-qualified-name="odeon.model.expense.PerUsageTimeExpense" data-source-line="87" id="ent0029"><rect fill="#F1F1F1" height="64.2969" rx="2.5" ry="2.5" style="stroke:#181818;stroke-width:0.5;" width="192.5352" x="1345.73" y="848.83"/><ellipse cx="1360.73" cy="864.83" fill="#ADD1B2" rx="11" ry="11" style="stroke:#181818;stroke-width:1;"/><path d="M1363.6988,870.4706 Q1363.1206,870.7675 1362.48,870.9081 Q1361.8394,871.0644 1361.1363,871.0644 Q1358.6363,871.0644 1357.3081,869.4237 Q1355.9956,867.7675 1355.9956,864.6425 Q1355.9956,861.5175 1357.3081,859.8612 Q1358.6363,858.205 1361.1363,858.205 Q1361.8394,858.205 1362.48,858.3612 Q1363.1363,858.5175 1363.6988,858.8144 L1363.6988,861.5331 Q1363.0738,860.955 1362.48,860.6894 Q1361.8863,860.4081 1361.2613,860.4081 Q1359.9175,860.4081 1359.23,861.4862 Q1358.5425,862.5487 1358.5425,864.6425 Q1358.5425,866.7362 1359.23,867.8144 Q1359.9175,868.8769 1361.2613,868.8769 Q1361.8863,868.8769 1362.48,868.6112 Q1363.0738,868.33 1363.6988,867.7519 L1363.6988,870.4706 Z " fill="#000000"/><text fill="#000000" font-family="sans-serif" font-size="14" lengthAdjust="spacing" textLength="160.5352" x="1374.73" y="869.6767">PerUsageTimeExpense</text><line style="stroke:#181818;stroke-width:0.5;" x1="1346.73" x2="1537.2652" y1="880.83" y2="880.83"/><g data-visibility-modifier="PUBLIC_FIELD"><ellipse cx="1356.73" cy="894.4784" fill="none" rx="3" ry="3" style="stroke:#038048;stroke-width:1;"/></g><text fill="#000000" font-family="sans-serif" font-size="14" lengthAdjust="spacing" textLength="78.8594" x="1365.73" y="897.8251">value: float</text><line style="stroke:#181818;stroke-width:0.5;" x1="1346.73" x2="1537.2652" y1="905.1269" y2="905.1269"/></g><!--class Object--><g class="entity" data-qualified-name="odeon.model.base.Object" data-source-line="20" id="ent0007"><rect fill="#F1F1F1" height="48" rx="2.5" ry="2.5" style="stroke:#181818;stroke-width:0.5;" width="77.5957" x="712.2" y="127"/><ellipse cx="727.2" cy="143" fill="#ADD1B2" rx="11" ry="11" style="stroke:#181818;stroke-width:1;"/><path d="M730.1688,148.6406 Q729.5906,148.9375 728.95,149.0781 Q728.3094,149.2344 727.6063,149.2344 Q725.1063,149.2344 723.7781,147.5938 Q722.4656,145.9375 722.4656,142.8125 Q722.4656,139.6875 723.7781,138.0313 Q725.1063,136.375 727.6063,136.375 Q728.3094,136.375 728.95,136.5313 Q729.6063,136.6875 730.1688,136.9844 L730.1688,139.7031 Q729.5438,139.125 728.95,138.8594 Q728.3563,138.5781 727.7313,138.5781 Q726.3875,138.5781 725.7,139.6563 Q725.0125,140.7188 725.0125,142.8125 Q725.0125,144.9063 725.7,145.9844 Q726.3875,147.0469 727.7313,147.0469 Q728.3563,147.0469 728.95,146.7813 Q729.5438,146.5 730.1688,145.9219 L730.1688,148.6406 Z " fill="#000000"/><text fill="#000000" font-family="sans-serif" font-size="14" lengthAdjust="spacing" textLength="45.5957" x="741.2" y="147.8467">Object</text><line style="stroke:#181818;stroke-width:0.5;" x1="713.2" x2="788.7957" y1="159" y2="159"/><line style="stroke:#181818;stroke-width:0.5;" x1="713.2" x2="788.7957" y1="167" y2="167"/></g><!--reverse link Object to Actor--><g class="link" data-entity-1="ent0007" data-entity-2="ent0006" data-link-type="extension" data-source-line="20" id="lnk9"><path codeLine="20" d="M713.5721,187.8621 C678.8021,221.1721 626.77,271.04 577.01,318.72" fill="none" id="Object-backto-Actor" style="stroke:#181818;stroke-width:1;"/><polygon fill="none" points="726.57,175.41,709.4214,183.5295,717.7228,192.1947,726.57,175.41" style="stroke:#181818;stroke-width:1;"/></g><!--reverse link PerLifeExpense to BuildingConstructionExpense--><g class="link" data-entity-1="ent0011" data-entity-2="ent0010" data-link-type="extension" data-source-line="30" id="lnk12"><path codeLine="30" d="M619.1436,918.1193 C598.2036,939.2293 578.82,958.77 548.66,989.16" fill="none" id="PerLifeExpense-backto-BuildingConstructionExpense" style="stroke:#181818;stroke-width:1;"/><polygon fill="none" points="631.82,905.34,614.8839,913.8938,623.4034,922.3447,631.82,905.34" style="stroke:#181818;stroke-width:1;"/></g><!--reverse link PerLifeExpense to BuildingTransformationExpense--><g class="link" data-entity-1="ent0011" data-entity-2="ent0013" data-link-type="extension" data-source-line="33" id="lnk14"><path codeLine="33" d="M690.8564,918.1192 C726.5964,954.1492 782.08,1010.07 817.82,1046.1" fill="none" id="PerLifeExpense-backto-BuildingTransformationExpense" style="stroke:#181818;stroke-width:1;"/><polygon fill="none" points="678.18,905.34,686.5966,922.3447,695.1161,913.8938,678.18,905.34" style="stroke:#181818;stroke-width:1;"/></g><!--reverse link Object to Expense--><g class="link" data-entity-1="ent0007" data-entity-2="ent0015" data-link-type="extension" data-source-line="51" id="lnk16"><path codeLine="51" d="M788.5592,187.8399 C807.7792,206.1899 823.21,220.91 853.24,249.56" fill="none" id="Object-backto-Expense" style="stroke:#181818;stroke-width:1;"/><polygon fill="none" points="775.54,175.41,784.4159,192.1796,792.7025,183.5001,775.54,175.41" style="stroke:#181818;stroke-width:1;"/></g><!--reverse link Expense to FixExpense--><g class="link" data-entity-1="ent0015" data-entity-2="ent0018" data-link-type="extension" data-source-line="61" id="lnk19"><path codeLine="61" d="M716.9919,517.6953 C711.0019,519.9153 721.92,515.81 716,517.86 C600.68,557.86 561.66,533.37 448,577.86 C405.02,594.68 359.96,621.5 327.65,642.57" fill="none" id="Expense-backto-FixExpense" style="stroke:#181818;stroke-width:1;"/><polygon fill="none" points="733.87,511.44,714.9068,512.0693,719.077,523.3214,733.87,511.44" style="stroke:#181818;stroke-width:1;"/></g><!--reverse link PerPeriodExpense to PerLifeExpense--><g class="link" data-entity-1="ent0020" data-entity-2="ent0011" data-link-type="extension" data-source-line="64" id="lnk21"><path codeLine="64" d="M663.7385,790.9236 C660.6685,822.1436 659.31,836.09 657.27,856.82" fill="none" id="PerPeriodExpense-backto-PerLifeExpense" style="stroke:#181818;stroke-width:1;"/><polygon fill="none" points="665.5,773.01,657.7673,790.3364,669.7097,791.5108,665.5,773.01" style="stroke:#181818;stroke-width:1;"/></g><!--reverse link Expense to PerPeriodExpense--><g class="link" data-entity-1="ent0015" data-entity-2="ent0020" data-link-type="extension" data-source-line="76" id="lnk22"><path codeLine="76" d="M833.2544,530.2417 C811.2444,550.2617 802.23,558.46 781.28,577.52" fill="none" id="Expense-backto-PerPeriodExpense" style="stroke:#181818;stroke-width:1;"/><polygon fill="none" points="846.57,518.13,829.2171,525.8032,837.2916,534.6803,846.57,518.13" style="stroke:#181818;stroke-width:1;"/></g><!--reverse link _DeviceExpense to PerThroughputExpense--><g class="link" data-entity-1="ent0024" data-entity-2="ent0023" data-link-type="extension" data-source-line="82" id="lnk25"><path codeLine="82" d="M982.1956,716.9685 C973.6556,749.1685 962.71,790.52 951.66,832.22" fill="none" id="_DeviceExpense-backto-PerThroughputExpense" style="stroke:#181818;stroke-width:1;"/><polygon fill="none" points="986.81,699.57,976.3961,715.4304,987.9951,718.5066,986.81,699.57" style="stroke:#181818;stroke-width:1;"/></g><!--reverse link _TransformerExpense to PerUsageExpense--><g class="link" data-entity-1="ent0027" data-entity-2="ent0026" data-link-type="extension" data-source-line="86" id="lnk28"><path codeLine="86" d="M1232,717.57 C1232,754.27 1232,807.44 1232,848.56" fill="none" id="_TransformerExpense-backto-PerUsageExpense" style="stroke:#181818;stroke-width:1;"/><polygon fill="none" points="1232,699.57,1226,717.57,1238,717.57,1232,699.57" style="stroke:#181818;stroke-width:1;"/></g><!--reverse link _TransformerExpense to PerUsageTimeExpense--><g class="link" data-entity-1="ent0027" data-entity-2="ent0029" data-link-type="extension" data-source-line="90" id="lnk30"><path codeLine="90" d="M1269.0061,712.1069 C1306.8161,748.8069 1367.24,807.44 1409.63,848.56" fill="none" id="_TransformerExpense-backto-PerUsageTimeExpense" style="stroke:#181818;stroke-width:1;"/><polygon fill="none" points="1256.09,699.57,1264.8271,716.4123,1273.1851,707.8016,1256.09,699.57" style="stroke:#181818;stroke-width:1;"/></g><!--reverse link Expense to _DeviceExpense--><g class="link" data-entity-1="ent0015" data-entity-2="ent0024" data-link-type="extension" data-source-line="93" id="lnk31"><path codeLine="93" d="M993,536.13 C993,586.84 993,621.44 993,650.78" fill="none" id="Expense-backto-_DeviceExpense" style="stroke:#181818;stroke-width:1;"/><polygon fill="none" points="993,518.13,987,536.13,999,536.13,993,518.13" style="stroke:#181818;stroke-width:1;"/></g><!--reverse link Expense to _TransformerExpense--><g class="link" data-entity-1="ent0015" data-entity-2="ent0027" data-link-type="extension" data-source-line="96" id="lnk32"><path codeLine="96" d="M1114.5254,532.0061 C1156.4254,582.7161 1188.41,621.44 1212.65,650.78" fill="none" id="Expense-backto-_TransformerExpense" style="stroke:#181818;stroke-width:1;"/><polygon fill="none" points="1103.06,518.13,1109.9,535.8279,1119.1507,528.1843,1103.06,518.13" style="stroke:#181818;stroke-width:1;"/></g><?plantuml-src vLPRRzem57xFhx3KXxMYpG-8ziBQT4DR0sh3Bgggo3W7y1hio7OeYFBVTn88a0GCGjDUzkJ8v_QTxroS3qJ688KxmIDnOPQ2qE0u8BB9FedhhyvmdW9PE8iXXoHUBhIXXhFbRRld__G8eodCwh9kptziXvrku16PWi8xAUew3-rE4Ff1ExZrFJAXN1WGL31enEa-F7JlEk4lZ2Kd292RULtdqV_k1ttqes2AsJHytFU3kqxmsIF3JCHSZ1fumo_-8s8rOr1rMJ_u6dH_O2QPU1NoJJXBXoLKwxsCjPcH2hcwYBg3ty1C5ALKWJ1UHNj0KRLN2CWx2QG0D61ZdiHu5L5Z51za1hH7OiuCoZ2SP9mQY2lIXEjSQc2IIaKJgoptr5HOEWrSA-3au_lDpU4KBHHyoZ0FvFXM2crKnlBQhni9YMaD-IoQqYG3B4OYwOQ05lO9WfoW7XeSLE4ozWZVyjRQcc1jYs0UwQRvIPDzqkZrZQhHcjfdH7XDp3n5l6vRp5ysRZ4xC7jTLYMdkQlIN3BL0_MD3w4avo3Z5aPFg4EegD13gIQqMec_WsclTmkgRVoBI462LbE8raAFc2nDuDbYTxtgY9Vjs6WGCIZFCeqRLGKCCDmfoYqi8dX7bsAfpNL4XSXmCtba82LsIQeu0vnfAaOG3MdkkzRDhfiFGxxoa4PocQfyKvhvLU5jofN9Q5AvtkEo8Y_JgrokwDczYYAdnMZ2BZKamwlLTub-VNV6LZXU-VjDhhW5ycslG9i8tuPop9sM76XGqwAJedBMQnkWoK6v9LjCfji4R3XcE-kejcTIAcAgNIOLk8Y5WtQVYkF0k1oTasqq2wJQq5bcirUmSZHgrQ4zSjNb_xgXyVtTcOFYn4SpfND4PzPTLTF1ln7SLhEQqfbzKY-4lMRXMCbiD4upirCt_4LuXTgVHeuHqnF6VIga6_PExVkg0Vw8M5T52J6wWoaEwYbPDrAnPzxNT0G7vlSGcCqR1UeKHBiXJW0JOWF_0q0xOIoWQiGlpct7gXzRm3svd1-rwUmF?></g></svg>