<?plantuml 1.2026.2beta3?><svg xmlns="http://www.w3.org/2000/svg" xmlns:xlink="http://www.w3.org/1999/xlink" contentStyleType="text/css" data-diagram-type="CLASS" height="547px" preserveAspectRatio="none" style="width:671px;height:547px;background:#FFFFFF;" version="1.1" viewBox="0 0 671 547" width="671px" zoomAndPan="magnify"><defs/><g><!--cluster odeon--><g class="cluster" data-qualified-name="odeon" data-source-line="3" id="ent0003"><path d="M8.5,6 L58.2197,6 A3.75,3.75 0 0 1 60.7197,8.5 L67.7197,28.2969 L661.5,28.2969 A2.5,2.5 0 0 1 664,30.7969 L664,537.84 A2.5,2.5 0 0 1 661.5,540.34 L8.5,540.34 A2.5,2.5 0 0 1 6,537.84 L6,8.5 A2.5,2.5 0 0 1 8.5,6" fill="none" style="stroke:#000000;stroke-width:1.5;"/><line style="stroke:#000000;stroke-width:1.5;" x1="6" x2="67.7197" y1="28.2969" y2="28.2969"/><text fill="#000000" font-family="sans-serif" font-size="14" font-weight="bold" lengthAdjust="spacing" textLength="48.7197" x="10" y="20.9951">odeon</text></g><!--cluster io--><g class="cluster" data-qualified-name="odeon.io" data-source-line="3" id="ent0004"><path d="M32.5,49 L47.917,49 A3.75,3.75 0 0 1 50.417,51.5 L57.417,71.2969 L637.5,71.2969 A2.5,2.5 0 0 1 640,73.7969 L640,513.84 A2.5,2.5 0 0 1 637.5,516.34 L32.5,516.34 A2.5,2.5 0 0 1 30,513.84 L30,51.5 A2.5,2.5 0 0 1 32.5,49" fill="none" style="stroke:#000000;stroke-width:1.5;"/><line style="stroke:#000000;stroke-width:1.5;" x1="30" x2="57.417" y1="71.2969" y2="71.2969"/><text fill="#000000" font-family="sans-serif" font-size="14" font-weight="bold" lengthAdjust="spacing" textLength="14.417" x="34" y="63.9951">io</text></g><!--cluster file_adapter--><g class="cluster" data-qualified-name="odeon.io.file_adapter" data-source-line="3" id="ent0005"><path d="M56.5,92 L151.7129,92 A3.75,3.75 0 0 1 154.2129,94.5 L161.2129,114.2969 L613.5,114.2969 A2.5,2.5 0 0 1 616,116.7969 L616,489.84 A2.5,2.5 0 0 1 613.5,492.34 L56.5,492.34 A2.5,2.5 0 0 1 54,489.84 L54,94.5 A2.5,2.5 0 0 1 56.5,92" fill="none" style="stroke:#000000;stroke-width:1.5;"/><line style="stroke:#000000;stroke-width:1.5;" x1="54" x2="161.2129" y1="114.2969" y2="114.2969"/><text fill="#000000" font-family="sans-serif" font-size="14" font-weight="bold" lengthAdjust="spacing" textLength="94.2129" x="58" y="106.9951">file_adapter</text></g><!--class FileAdapter--><g class="entity" data-qualified-name="odeon.io.file_adapter.FileAdapter" data-source-line="3" id="ent0002"><rect fill="#F1F1F1" height="349.3438" rx="2.5" ry="2.5" style="stroke:#181818;stroke-width:0.5;" width="530.9297" x="69.54" y="127"/><ellipse cx="290.6381" cy="143" fill="#ADD1B2" rx="11" ry="11" style="stroke:#181818;stroke-width:1;"/><path d="M293.6069,148.6406 Q293.0288,148.9375 292.3881,149.0781 Q291.7475,149.2344 291.0444,149.2344 Q288.5444,149.2344 287.2163,147.5938 Q285.9038,145.9375 285.9038,142.8125 Q285.9038,139.6875 287.2163,138.0313 Q288.5444,136.375 291.0444,136.375 Q291.7475,136.375 292.3881,136.5313 Q293.0444,136.6875 293.6069,136.9844 L293.6069,139.7031 Q292.9819,139.125 292.3881,138.8594 Q291.7944,138.5781 291.1694,138.5781 Q289.8256,138.5781 289.1381,139.6563 Q288.4506,140.7188 288.4506,142.8125 Q288.4506,144.9063 289.1381,145.9844 Q289.8256,147.0469 291.1694,147.0469 Q291.7944,147.0469 292.3881,146.7813 Q292.9819,146.5 293.6069,145.9219 L293.6069,148.6406 Z " fill="#000000"/><text fill="#000000" font-family="sans-serif" font-size="14" lengthAdjust="spacing" textLength="80.2334" x="311.1381" y="147.8467">FileAdapter</text><line style="stroke:#181818;stroke-width:0.5;" x1="70.54" x2="599.4697" y1="159" y2="159"/><g data-visibility-modifier="PROTECTED_FIELD"><polygon fill="none" points="80.54,167.6484,84.54,171.6484,80.54,175.6484,76.54,171.6484" style="stroke:#B38D22;stroke-width:1;"/></g><text fill="#000000" font-family="sans-serif" font-size="14" lengthAdjust="spacing" textLength="237.9043" x="89.54" y="175.9951">_dir: typing.Optional[pathlib.Path]</text><g data-visibility-modifier="PROTECTED_METHOD"><polygon fill="#FFFF44" points="80.54,183.9453,84.54,187.9453,80.54,191.9453,76.54,187.9453" style="stroke:#B38D22;stroke-width:1;"/></g><text fill="#000000" font-family="sans-serif" font-size="14" lengthAdjust="spacing" textLength="331.3311" x="89.54" y="192.292">_project: typing.Optional[ForwardRef('Project')]</text><g data-visibility-modifier="PROTECTED_METHOD"><polygon fill="#FFFF44" points="80.54,200.2422,84.54,204.2422,80.54,208.2422,76.54,204.2422" style="stroke:#B38D22;stroke-width:1;"/></g><text fill="#000000" font-family="sans-serif" font-size="14" lengthAdjust="spacing" textLength="442.0459" x="89.54" y="208.5889">_branches_hdffilenames: typing.Dict[ForwardRef('Branch'), str]</text><g data-visibility-modifier="PROTECTED_METHOD"><polygon fill="#FFFF44" points="80.54,216.5391,84.54,220.5391,80.54,224.5391,76.54,220.5391" style="stroke:#B38D22;stroke-width:1;"/></g><text fill="#000000" font-family="sans-serif" font-size="14" lengthAdjust="spacing" textLength="504.9297" x="89.54" y="224.8857">_branches_hdffiles: typing.Dict[ForwardRef('Branch'), h5py._hl.files.File]</text><line style="stroke:#181818;stroke-width:1;stroke-dasharray:1,2;" x1="70.54" x2="599.4697" y1="232.1875" y2="232.1875"/><g data-visibility-modifier="PUBLIC_METHOD"><ellipse cx="80.54" cy="245.8359" fill="#84BE84" rx="3" ry="3" style="stroke:#038048;stroke-width:1;"/></g><text fill="#000000" font-family="sans-serif" font-size="14" lengthAdjust="spacing" textLength="94.1445" x="89.54" y="249.1826">dir (property)</text><g data-visibility-modifier="PUBLIC_METHOD"><ellipse cx="80.54" cy="262.1328" fill="#84BE84" rx="3" ry="3" style="stroke:#038048;stroke-width:1;"/></g><text fill="#000000" font-family="sans-serif" font-size="14" lengthAdjust="spacing" textLength="124.5098" x="89.54" y="265.4795">project (property)</text><line style="stroke:#181818;stroke-width:0.5;" x1="70.54" x2="599.4697" y1="272.7813" y2="272.7813"/><g data-visibility-modifier="PROTECTED_METHOD"><polygon fill="#FFFF44" points="80.54,281.4297,84.54,285.4297,80.54,289.4297,76.54,285.4297" style="stroke:#B38D22;stroke-width:1;"/></g><text fill="#000000" font-family="sans-serif" font-size="14" lengthAdjust="spacing" textLength="148.7568" x="89.54" y="289.7764">_clear_branches(self)</text><g data-visibility-modifier="PROTECTED_METHOD"><polygon fill="#FFFF44" points="80.54,297.7266,84.54,301.7266,80.54,305.7266,76.54,301.7266" style="stroke:#B38D22;stroke-width:1;"/></g><text fill="#000000" font-family="sans-serif" font-size="14" lengthAdjust="spacing" textLength="210.4717" x="89.54" y="306.0732">_delete_unused_hdf_files(self)</text><g data-visibility-modifier="PROTECTED_METHOD"><polygon fill="#FFFF44" points="80.54,314.0234,84.54,318.0234,80.54,322.0234,76.54,318.0234" style="stroke:#B38D22;stroke-width:1;"/></g><text fill="#000000" font-family="sans-serif" font-size="14" lengthAdjust="spacing" textLength="264.25" x="89.54" y="322.3701">_remove_unused_temporal_keys(self)</text><g data-visibility-modifier="PROTECTED_METHOD"><polygon fill="#FFFF44" points="80.54,330.3203,84.54,334.3203,80.54,338.3203,76.54,334.3203" style="stroke:#B38D22;stroke-width:1;"/></g><text fill="#000000" font-family="sans-serif" font-size="14" lengthAdjust="spacing" textLength="177.7412" x="89.54" y="338.667">_set_project(self, project)</text><g data-visibility-modifier="PUBLIC_METHOD"><ellipse cx="80.54" cy="351.6172" fill="#84BE84" rx="3" ry="3" style="stroke:#038048;stroke-width:1;"/></g><text fill="#000000" font-family="sans-serif" font-size="14" lengthAdjust="spacing" textLength="161.9229" x="89.54" y="354.9639">clean(self, delete_files)</text><g data-visibility-modifier="PUBLIC_METHOD"><ellipse cx="80.54" cy="367.9141" fill="#84BE84" rx="3" ry="3" style="stroke:#038048;stroke-width:1;"/></g><text fill="#000000" font-family="sans-serif" font-size="14" lengthAdjust="spacing" textLength="269.1992" x="89.54" y="371.2607">close_hdf_file_for_branch(self, branch)</text><g data-visibility-modifier="PUBLIC_METHOD"><ellipse cx="80.54" cy="384.2109" fill="#84BE84" rx="3" ry="3" style="stroke:#038048;stroke-width:1;"/></g><text fill="#000000" font-family="sans-serif" font-size="14" lengthAdjust="spacing" textLength="239.3535" x="89.54" y="387.5576">close_hdf_files(self, only_orphans)</text><g data-visibility-modifier="PUBLIC_METHOD"><ellipse cx="80.54" cy="400.5078" fill="#84BE84" rx="3" ry="3" style="stroke:#038048;stroke-width:1;"/></g><text fill="#000000" font-family="sans-serif" font-size="14" lengthAdjust="spacing" textLength="134.8115" x="89.54" y="403.8545">flush_hdf_files(self)</text><g data-visibility-modifier="PUBLIC_METHOD"><ellipse cx="80.54" cy="416.8047" fill="#84BE84" rx="3" ry="3" style="stroke:#038048;stroke-width:1;"/></g><text fill="#000000" font-family="sans-serif" font-size="14" lengthAdjust="spacing" textLength="256.1289" x="89.54" y="420.1514">get_hdf_file_for_branch(self, branch)</text><g data-visibility-modifier="PUBLIC_METHOD"><ellipse cx="80.54" cy="433.1016" fill="#84BE84" rx="3" ry="3" style="stroke:#038048;stroke-width:1;"/></g><text fill="#000000" font-family="sans-serif" font-size="14" lengthAdjust="spacing" textLength="266.6357" x="89.54" y="436.4482">get_hdf_path_for_branch(self, branch)</text><g data-visibility-modifier="PUBLIC_METHOD"><ellipse cx="80.54" cy="449.3984" fill="#84BE84" rx="3" ry="3" style="stroke:#038048;stroke-width:1;"/></g><text fill="#000000" font-family="sans-serif" font-size="14" lengthAdjust="spacing" textLength="262.6777" x="89.54" y="452.7451">write_to_dir(self, filename, overwrite)</text><g data-visibility-modifier="PUBLIC_METHOD"><ellipse cx="80.54" cy="465.6953" fill="#84BE84" rx="3" ry="3" style="stroke:#038048;stroke-width:1;"/></g><text fill="#000000" font-family="sans-serif" font-size="14" lengthAdjust="spacing" textLength="491.7021" x="89.54" y="469.042">write_to_pickle(self, filename, overwrite, error_if_swapped_temporals)</text></g><?plantuml-src ZPB1RiCW38RlUGga7TAe4RTTTjiqzTfgrwb2D365bG8oj5KqxTq7b6ITsaqz9RO_y_ktN1FRWpLKMIgK1iPxxW9WLNMQUt-xI1SnU3x_ay_gWVKAdqWOd39RkdH1MSFrk-D1QhMXg_XTHyYX_O0kN8CBYoUE_Hk8MRqwGtMJEZR8JIV1CzcBf6_u7lpK_wgwyAlt9UDrqn8Vy5R_NRtoqGsKIPqT-snrNL5QpQD9Ceic760OccfU_5pc68kgdGQEa_RCWnPDsX5e2C0Evk2XJnEnB33L4VRsEDK3x9r5hjaEXX_6GnZNc7CjAL4S9ycQaYrQMI2Nh8T9aWaxZbVmSt05-bAsHW_CefFSfDU4FdXvPM2-ZRFT8J5YwJh-mKweee5WqscLsdW1SQ0ZO0OkGQUwdOQ_sPO0OjHJWlaJT-vYoT7LrpS0?></g></svg>