<?plantuml 1.2026.2beta3?><svg xmlns="http://www.w3.org/2000/svg" xmlns:xlink="http://www.w3.org/1999/xlink" contentStyleType="text/css" data-diagram-type="CLASS" height="1291px" preserveAspectRatio="none" style="width:1592px;height:1291px;background:#FFFFFF;" version="1.1" viewBox="0 0 1592 1291" width="1592px" zoomAndPan="magnify"><defs/><g><!--cluster odeon--><g class="cluster" data-qualified-name="odeon" data-source-line="3" id="ent0003"><path d="M8.5,6 L58.2197,6 A3.75,3.75 0 0 1 60.7197,8.5 L67.7197,28.2969 L1582.5,28.2969 A2.5,2.5 0 0 1 1585,30.7969 L1585,1282.05 A2.5,2.5 0 0 1 1582.5,1284.55 L8.5,1284.55 A2.5,2.5 0 0 1 6,1282.05 L6,8.5 A2.5,2.5 0 0 1 8.5,6" fill="none" style="stroke:#000000;stroke-width:1.5;"/><line style="stroke:#000000;stroke-width:1.5;" x1="6" x2="67.7197" y1="28.2969" y2="28.2969"/><text fill="#000000" font-family="sans-serif" font-size="14" font-weight="bold" lengthAdjust="spacing" textLength="48.7197" x="10" y="20.9951">odeon</text></g><!--cluster model--><g class="cluster" data-qualified-name="odeon.model" data-source-line="3" id="ent0004"><path d="M32.5,49 L82.0215,49 A3.75,3.75 0 0 1 84.5215,51.5 L91.5215,71.2969 L1558.5,71.2969 A2.5,2.5 0 0 1 1561,73.7969 L1561,1258.05 A2.5,2.5 0 0 1 1558.5,1260.55 L32.5,1260.55 A2.5,2.5 0 0 1 30,1258.05 L30,51.5 A2.5,2.5 0 0 1 32.5,49" fill="none" style="stroke:#000000;stroke-width:1.5;"/><line style="stroke:#000000;stroke-width:1.5;" x1="30" x2="91.5215" y1="71.2969" y2="71.2969"/><text fill="#000000" font-family="sans-serif" font-size="14" font-weight="bold" lengthAdjust="spacing" textLength="48.5215" x="34" y="63.9951">model</text></g><!--cluster geometry--><g class="cluster" data-qualified-name="odeon.model.geometry" data-source-line="3" id="ent0005"><path d="M56.5,92 L133.4404,92 A3.75,3.75 0 0 1 135.9404,94.5 L142.9404,114.2969 L1534.5,114.2969 A2.5,2.5 0 0 1 1537,116.7969 L1537,1111.05 A2.5,2.5 0 0 1 1534.5,1113.55 L56.5,1113.55 A2.5,2.5 0 0 1 54,1111.05 L54,94.5 A2.5,2.5 0 0 1 56.5,92" fill="none" style="stroke:#000000;stroke-width:1.5;"/><line style="stroke:#000000;stroke-width:1.5;" x1="54" x2="142.9404" y1="114.2969" y2="114.2969"/><text fill="#000000" font-family="sans-serif" font-size="14" font-weight="bold" lengthAdjust="spacing" textLength="75.9404" x="58" y="106.9951">geometry</text></g><!--cluster base_geometry--><g class="cluster" data-qualified-name="odeon.model.base_geometry" data-source-line="69" id="ent0013"><path d="M747.5,1137.55 L868.7373,1137.55 A3.75,3.75 0 0 1 871.2373,1140.05 L878.2373,1159.8469 L944.5,1159.8469 A2.5,2.5 0 0 1 947,1162.3469 L947,1234.05 A2.5,2.5 0 0 1 944.5,1236.55 L747.5,1236.55 A2.5,2.5 0 0 1 745,1234.05 L745,1140.05 A2.5,2.5 0 0 1 747.5,1137.55" fill="none" style="stroke:#000000;stroke-width:1.5;"/><line style="stroke:#000000;stroke-width:1.5;" x1="745" x2="878.2373" y1="1159.8469" y2="1159.8469"/><text fill="#000000" font-family="sans-serif" font-size="14" font-weight="bold" lengthAdjust="spacing" textLength="120.2373" x="749" y="1152.5451">base_geometry</text></g><!--class Geometry--><g class="entity" data-qualified-name="odeon.model.geometry.Geometry" data-source-line="3" id="ent0002"><rect fill="#F1F1F1" height="267.8594" rx="2.5" ry="2.5" style="stroke:#181818;stroke-width:0.5;" width="325.7832" x="514.11" y="127"/><ellipse cx="637.8473" cy="143" fill="#ADD1B2" rx="11" ry="11" style="stroke:#181818;stroke-width:1;"/><path d="M640.8161,148.6406 Q640.2379,148.9375 639.5973,149.0781 Q638.9567,149.2344 638.2536,149.2344 Q635.7536,149.2344 634.4254,147.5938 Q633.1129,145.9375 633.1129,142.8125 Q633.1129,139.6875 634.4254,138.0313 Q635.7536,136.375 638.2536,136.375 Q638.9567,136.375 639.5973,136.5313 Q640.2536,136.6875 640.8161,136.9844 L640.8161,139.7031 Q640.1911,139.125 639.5973,138.8594 Q639.0036,138.5781 638.3786,138.5781 Q637.0348,138.5781 636.3473,139.6563 Q635.6598,140.7188 635.6598,142.8125 Q635.6598,144.9063 636.3473,145.9844 Q637.0348,147.0469 638.3786,147.0469 Q639.0036,147.0469 639.5973,146.7813 Q640.1911,146.5 640.8161,145.9219 L640.8161,148.6406 Z " fill="#000000"/><text fill="#000000" font-family="sans-serif" font-size="14" lengthAdjust="spacing" textLength="69.8086" x="658.3473" y="147.8467">Geometry</text><line style="stroke:#181818;stroke-width:0.5;" x1="515.11" x2="838.8932" y1="159" y2="159"/><g data-visibility-modifier="PROTECTED_FIELD"><polygon fill="none" points="525.11,167.6484,529.11,171.6484,525.11,175.6484,521.11,171.6484" style="stroke:#B38D22;stroke-width:1;"/></g><text fill="#000000" font-family="sans-serif" font-size="14" lengthAdjust="spacing" textLength="162.3125" x="534.11" y="175.9951">_shape: BaseGeometry</text><g data-visibility-modifier="PUBLIC_FIELD"><ellipse cx="525.11" cy="188.9453" fill="none" rx="3" ry="3" style="stroke:#038048;stroke-width:1;"/></g><text fill="#000000" font-family="sans-serif" font-size="14" lengthAdjust="spacing" textLength="94.3291" x="534.11" y="192.292">altitude: float</text><line style="stroke:#181818;stroke-width:1;stroke-dasharray:1,2;" x1="515.11" x2="838.8932" y1="199.5938" y2="199.5938"/><g data-visibility-modifier="PUBLIC_METHOD"><ellipse cx="525.11" cy="213.2422" fill="#84BE84" rx="3" ry="3" style="stroke:#038048;stroke-width:1;"/></g><text fill="#000000" font-family="sans-serif" font-size="14" lengthAdjust="spacing" textLength="133.3828" x="534.11" y="216.5889">centroid (property)</text><g data-visibility-modifier="PUBLIC_METHOD"><ellipse cx="525.11" cy="229.5391" fill="#84BE84" rx="3" ry="3" style="stroke:#038048;stroke-width:1;"/></g><text fill="#000000" font-family="sans-serif" font-size="14" lengthAdjust="spacing" textLength="114.707" x="534.11" y="232.8857">has_z (property)</text><g data-visibility-modifier="PUBLIC_METHOD"><ellipse cx="525.11" cy="245.8359" fill="#84BE84" rx="3" ry="3" style="stroke:#038048;stroke-width:1;"/></g><text fill="#000000" font-family="sans-serif" font-size="14" lengthAdjust="spacing" textLength="129.5" x="534.11" y="249.1826">is_point (property)</text><g data-visibility-modifier="PUBLIC_METHOD"><ellipse cx="525.11" cy="262.1328" fill="#84BE84" rx="3" ry="3" style="stroke:#038048;stroke-width:1;"/></g><text fill="#000000" font-family="sans-serif" font-size="14" lengthAdjust="spacing" textLength="149.748" x="534.11" y="265.4795">is_polygon (property)</text><g data-visibility-modifier="PUBLIC_METHOD"><ellipse cx="525.11" cy="278.4297" fill="#84BE84" rx="3" ry="3" style="stroke:#038048;stroke-width:1;"/></g><text fill="#000000" font-family="sans-serif" font-size="14" lengthAdjust="spacing" textLength="274.7432" x="534.11" y="281.7764">longitude_latitude_linestring (property)</text><g data-visibility-modifier="PUBLIC_METHOD"><ellipse cx="525.11" cy="294.7266" fill="#84BE84" rx="3" ry="3" style="stroke:#038048;stroke-width:1;"/></g><text fill="#000000" font-family="sans-serif" font-size="14" lengthAdjust="spacing" textLength="131.5645" x="534.11" y="298.0732">polygon (property)</text><g data-visibility-modifier="PUBLIC_METHOD"><ellipse cx="525.11" cy="311.0234" fill="#84BE84" rx="3" ry="3" style="stroke:#038048;stroke-width:1;"/></g><text fill="#000000" font-family="sans-serif" font-size="14" lengthAdjust="spacing" textLength="117.8584" x="534.11" y="314.3701">shape (property)</text><line style="stroke:#181818;stroke-width:0.5;" x1="515.11" x2="838.8932" y1="321.6719" y2="321.6719"/><g data-visibility-modifier="PUBLIC_METHOD"><ellipse cx="525.11" cy="335.3203" fill="#84BE84" rx="3" ry="3" style="stroke:#038048;stroke-width:1;"/></g><text fill="#000000" font-family="sans-serif" font-size="14" lengthAdjust="spacing" textLength="154.0547" x="534.11" y="338.667">lat_lon(self, projector)</text><g data-visibility-modifier="PUBLIC_METHOD"><ellipse cx="525.11" cy="351.6172" fill="#84BE84" rx="3" ry="3" style="stroke:#038048;stroke-width:1;"/></g><text fill="#000000" font-family="sans-serif" font-size="14" lengthAdjust="spacing" textLength="154.0547" x="534.11" y="354.9639">lon_lat(self, projector)</text><g data-visibility-modifier="PUBLIC_METHOD"><ellipse cx="525.11" cy="367.9141" fill="#84BE84" rx="3" ry="3" style="stroke:#038048;stroke-width:1;"/></g><text fill="#000000" font-family="sans-serif" font-size="14" lengthAdjust="spacing" textLength="299.7832" x="534.11" y="371.2607">shape_in_crs(self, to_srid, projector, order)</text><g data-visibility-modifier="PUBLIC_METHOD"><ellipse cx="525.11" cy="384.2109" fill="#84BE84" rx="3" ry="3" style="stroke:#038048;stroke-width:1;"/></g><text fill="#000000" font-family="sans-serif" font-size="14" lengthAdjust="spacing" textLength="268.7002" x="534.11" y="387.5576">shape_in_wgs84(self, projector, order)</text></g><!--class LinestringGeometry--><g class="entity" data-qualified-name="odeon.model.geometry.LinestringGeometry" data-source-line="20" id="ent0006"><rect fill="#F1F1F1" height="300.4531" rx="2.5" ry="2.5" style="stroke:#181818;stroke-width:0.5;" width="278.0137" x="69.99" y="625.98"/><ellipse cx="135.1604" cy="641.98" fill="#ADD1B2" rx="11" ry="11" style="stroke:#181818;stroke-width:1;"/><path d="M138.1292,647.6206 Q137.551,647.9175 136.9104,648.0581 Q136.2698,648.2144 135.5667,648.2144 Q133.0667,648.2144 131.7385,646.5737 Q130.426,644.9175 130.426,641.7925 Q130.426,638.6675 131.7385,637.0112 Q133.0667,635.355 135.5667,635.355 Q136.2698,635.355 136.9104,635.5112 Q137.5667,635.6675 138.1292,635.9644 L138.1292,638.6831 Q137.5042,638.105 136.9104,637.8394 Q136.3167,637.5581 135.6917,637.5581 Q134.3479,637.5581 133.6604,638.6362 Q132.9729,639.6987 132.9729,641.7925 Q132.9729,643.8862 133.6604,644.9644 Q134.3479,646.0269 135.6917,646.0269 Q136.3167,646.0269 136.9104,645.7612 Q137.5042,645.48 138.1292,644.9019 L138.1292,647.6206 Z " fill="#000000"/><text fill="#000000" font-family="sans-serif" font-size="14" lengthAdjust="spacing" textLength="139.1729" x="155.6604" y="646.8267">LinestringGeometry</text><line style="stroke:#181818;stroke-width:0.5;" x1="70.99" x2="347.0037" y1="657.98" y2="657.98"/><g data-visibility-modifier="PROTECTED_FIELD"><polygon fill="none" points="80.99,666.6284,84.99,670.6284,80.99,674.6284,76.99,670.6284" style="stroke:#B38D22;stroke-width:1;"/></g><text fill="#000000" font-family="sans-serif" font-size="14" lengthAdjust="spacing" textLength="162.3125" x="89.99" y="674.9751">_shape: BaseGeometry</text><g data-visibility-modifier="PUBLIC_FIELD"><ellipse cx="80.99" cy="687.9253" fill="none" rx="3" ry="3" style="stroke:#038048;stroke-width:1;"/></g><text fill="#000000" font-family="sans-serif" font-size="14" lengthAdjust="spacing" textLength="94.3291" x="89.99" y="691.272">altitude: float</text><line style="stroke:#181818;stroke-width:1;stroke-dasharray:1,2;" x1="70.99" x2="347.0037" y1="698.5737" y2="698.5737"/><g data-visibility-modifier="PUBLIC_METHOD"><ellipse cx="80.99" cy="712.2222" fill="#84BE84" rx="3" ry="3" style="stroke:#038048;stroke-width:1;"/></g><text fill="#000000" font-family="sans-serif" font-size="14" lengthAdjust="spacing" textLength="190.3604" x="89.99" y="715.5689">edges_linestring (property)</text><g data-visibility-modifier="PUBLIC_METHOD"><ellipse cx="80.99" cy="728.5191" fill="#84BE84" rx="3" ry="3" style="stroke:#038048;stroke-width:1;"/></g><text fill="#000000" font-family="sans-serif" font-size="14" lengthAdjust="spacing" textLength="195.0156" x="89.99" y="731.8657">edges_pointpairs (property)</text><g data-visibility-modifier="PUBLIC_METHOD"><ellipse cx="80.99" cy="744.8159" fill="#84BE84" rx="3" ry="3" style="stroke:#038048;stroke-width:1;"/></g><text fill="#000000" font-family="sans-serif" font-size="14" lengthAdjust="spacing" textLength="120.2373" x="89.99" y="748.1626">height (property)</text><g data-visibility-modifier="PUBLIC_METHOD"><ellipse cx="80.99" cy="761.1128" fill="#84BE84" rx="3" ry="3" style="stroke:#038048;stroke-width:1;"/></g><text fill="#000000" font-family="sans-serif" font-size="14" lengthAdjust="spacing" textLength="145.4414" x="89.99" y="764.4595">horizontal (property)</text><g data-visibility-modifier="PUBLIC_METHOD"><ellipse cx="80.99" cy="777.4097" fill="#84BE84" rx="3" ry="3" style="stroke:#038048;stroke-width:1;"/></g><text fill="#000000" font-family="sans-serif" font-size="14" lengthAdjust="spacing" textLength="178.6162" x="89.99" y="780.7564">length_beeline (property)</text><g data-visibility-modifier="PUBLIC_METHOD"><ellipse cx="80.99" cy="793.7066" fill="#84BE84" rx="3" ry="3" style="stroke:#038048;stroke-width:1;"/></g><text fill="#000000" font-family="sans-serif" font-size="14" lengthAdjust="spacing" textLength="252.0137" x="89.99" y="797.0532">length_beeline_projected (property)</text><g data-visibility-modifier="PUBLIC_METHOD"><ellipse cx="80.99" cy="810.0034" fill="#84BE84" rx="3" ry="3" style="stroke:#038048;stroke-width:1;"/></g><text fill="#000000" font-family="sans-serif" font-size="14" lengthAdjust="spacing" textLength="159.0654" x="89.99" y="813.3501">length_path (property)</text><g data-visibility-modifier="PUBLIC_METHOD"><ellipse cx="80.99" cy="826.3003" fill="#84BE84" rx="3" ry="3" style="stroke:#038048;stroke-width:1;"/></g><text fill="#000000" font-family="sans-serif" font-size="14" lengthAdjust="spacing" textLength="232.4629" x="89.99" y="829.647">length_path_projected (property)</text><g data-visibility-modifier="PUBLIC_METHOD"><ellipse cx="80.99" cy="842.5972" fill="#84BE84" rx="3" ry="3" style="stroke:#038048;stroke-width:1;"/></g><text fill="#000000" font-family="sans-serif" font-size="14" lengthAdjust="spacing" textLength="158.751" x="89.99" y="845.9439">xyz_by_axis (property)</text><g data-visibility-modifier="PUBLIC_METHOD"><ellipse cx="80.99" cy="858.8941" fill="#84BE84" rx="3" ry="3" style="stroke:#038048;stroke-width:1;"/></g><text fill="#000000" font-family="sans-serif" font-size="14" lengthAdjust="spacing" textLength="166.4072" x="89.99" y="862.2407">xyz_by_point (property)</text><g data-visibility-modifier="PUBLIC_METHOD"><ellipse cx="80.99" cy="875.1909" fill="#84BE84" rx="3" ry="3" style="stroke:#038048;stroke-width:1;"/></g><text fill="#000000" font-family="sans-serif" font-size="14" lengthAdjust="spacing" textLength="120.4629" x="89.99" y="878.5376">z_max (property)</text><g data-visibility-modifier="PUBLIC_METHOD"><ellipse cx="80.99" cy="891.4878" fill="#84BE84" rx="3" ry="3" style="stroke:#038048;stroke-width:1;"/></g><text fill="#000000" font-family="sans-serif" font-size="14" lengthAdjust="spacing" textLength="116.3613" x="89.99" y="894.8345">z_min (property)</text><line style="stroke:#181818;stroke-width:0.5;" x1="70.99" x2="347.0037" y1="902.1362" y2="902.1362"/><g data-visibility-modifier="PUBLIC_METHOD"><ellipse cx="80.99" cy="915.7847" fill="#84BE84" rx="3" ry="3" style="stroke:#038048;stroke-width:1;"/></g><text fill="#000000" font-family="sans-serif" font-size="14" lengthAdjust="spacing" textLength="186.7852" x="89.99" y="919.1314">points(self, apply_altitude)</text></g><!--class MultiGeometry--><g class="entity" data-qualified-name="odeon.model.geometry.MultiGeometry" data-source-line="40" id="ent0008"><rect fill="#F1F1F1" height="88.5938" rx="2.5" ry="2.5" style="stroke:#181818;stroke-width:0.5;" width="251.2441" x="383.38" y="731.91"/><ellipse cx="452.7374" cy="747.91" fill="#ADD1B2" rx="11" ry="11" style="stroke:#181818;stroke-width:1;"/><path d="M455.7062,753.5506 Q455.128,753.8475 454.4874,753.9881 Q453.8468,754.1444 453.1437,754.1444 Q450.6437,754.1444 449.3155,752.5038 Q448.003,750.8475 448.003,747.7225 Q448.003,744.5975 449.3155,742.9413 Q450.6437,741.285 453.1437,741.285 Q453.8468,741.285 454.4874,741.4413 Q455.1437,741.5975 455.7062,741.8944 L455.7062,744.6131 Q455.0812,744.035 454.4874,743.7694 Q453.8937,743.4881 453.2687,743.4881 Q451.9249,743.4881 451.2374,744.5663 Q450.5499,745.6288 450.5499,747.7225 Q450.5499,749.8163 451.2374,750.8944 Q451.9249,751.9569 453.2687,751.9569 Q453.8937,751.9569 454.4874,751.6913 Q455.0812,751.41 455.7062,750.8319 L455.7062,753.5506 Z " fill="#000000"/><text fill="#000000" font-family="sans-serif" font-size="14" lengthAdjust="spacing" textLength="104.0293" x="473.2374" y="752.7567">MultiGeometry</text><line style="stroke:#181818;stroke-width:0.5;" x1="384.38" x2="633.6241" y1="763.91" y2="763.91"/><g data-visibility-modifier="PROTECTED_FIELD"><polygon fill="none" points="394.38,772.5584,398.38,776.5584,394.38,780.5584,390.38,776.5584" style="stroke:#B38D22;stroke-width:1;"/></g><text fill="#000000" font-family="sans-serif" font-size="14" lengthAdjust="spacing" textLength="225.2441" x="403.38" y="780.9051">_shape: BaseMultipartGeometry</text><line style="stroke:#181818;stroke-width:1;stroke-dasharray:1,2;" x1="384.38" x2="633.6241" y1="788.2069" y2="788.2069"/><g data-visibility-modifier="PUBLIC_METHOD"><ellipse cx="394.38" cy="801.8553" fill="#84BE84" rx="3" ry="3" style="stroke:#038048;stroke-width:1;"/></g><text fill="#000000" font-family="sans-serif" font-size="14" lengthAdjust="spacing" textLength="185.5273" x="403.38" y="805.202">is_multipolygon (property)</text><line style="stroke:#181818;stroke-width:0.5;" x1="384.38" x2="633.6241" y1="812.5038" y2="812.5038"/></g><!--class NominalGeometry--><g class="entity" data-qualified-name="odeon.model.geometry.NominalGeometry" data-source-line="47" id="ent0010"><rect fill="#F1F1F1" height="333.0469" rx="2.5" ry="2.5" style="stroke:#181818;stroke-width:0.5;" width="352.2998" x="669.85" y="609.68"/><ellipse cx="777.892" cy="625.68" fill="#ADD1B2" rx="11" ry="11" style="stroke:#181818;stroke-width:1;"/><path d="M780.8607,631.3206 Q780.2826,631.6175 779.642,631.7581 Q779.0014,631.9144 778.2982,631.9144 Q775.7982,631.9144 774.4701,630.2738 Q773.1576,628.6175 773.1576,625.4925 Q773.1576,622.3675 774.4701,620.7113 Q775.7982,619.055 778.2982,619.055 Q779.0014,619.055 779.642,619.2113 Q780.2982,619.3675 780.8607,619.6644 L780.8607,622.3831 Q780.2357,621.805 779.642,621.5394 Q779.0482,621.2581 778.4232,621.2581 Q777.0795,621.2581 776.392,622.3363 Q775.7045,623.3988 775.7045,625.4925 Q775.7045,627.5863 776.392,628.6644 Q777.0795,629.7269 778.4232,629.7269 Q779.0482,629.7269 779.642,629.4613 Q780.2357,629.18 780.8607,628.6019 L780.8607,631.3206 Z " fill="#000000"/><text fill="#000000" font-family="sans-serif" font-size="14" lengthAdjust="spacing" textLength="127.7158" x="798.392" y="630.5267">NominalGeometry</text><line style="stroke:#181818;stroke-width:0.5;" x1="670.85" x2="1021.1498" y1="641.68" y2="641.68"/><g data-visibility-modifier="PUBLIC_FIELD"><ellipse cx="680.85" cy="655.3284" fill="none" rx="3" ry="3" style="stroke:#038048;stroke-width:1;"/></g><text fill="#000000" font-family="sans-serif" font-size="14" lengthAdjust="spacing" textLength="188.043" x="689.85" y="658.6751">dimensions_nominal: tuple</text><g data-visibility-modifier="PUBLIC_FIELD"><ellipse cx="680.85" cy="671.6253" fill="none" rx="3" ry="3" style="stroke:#038048;stroke-width:1;"/></g><text fill="#000000" font-family="sans-serif" font-size="14" lengthAdjust="spacing" textLength="261.4404" x="689.85" y="674.972">dimensions_projected_nominal: tuple</text><g data-visibility-modifier="PUBLIC_FIELD"><ellipse cx="680.85" cy="687.9222" fill="none" rx="3" ry="3" style="stroke:#038048;stroke-width:1;"/></g><text fill="#000000" font-family="sans-serif" font-size="14" lengthAdjust="spacing" textLength="135.4541" x="689.85" y="691.2689">area_nominal: float</text><g data-visibility-modifier="PUBLIC_FIELD"><ellipse cx="680.85" cy="704.2191" fill="none" rx="3" ry="3" style="stroke:#038048;stroke-width:1;"/></g><text fill="#000000" font-family="sans-serif" font-size="14" lengthAdjust="spacing" textLength="208.8516" x="689.85" y="707.5657">area_projected_nominal: float</text><g data-visibility-modifier="PUBLIC_FIELD"><ellipse cx="680.85" cy="720.5159" fill="none" rx="3" ry="3" style="stroke:#038048;stroke-width:1;"/></g><text fill="#000000" font-family="sans-serif" font-size="14" lengthAdjust="spacing" textLength="85.2441" x="689.85" y="723.8626">height: float</text><g data-visibility-modifier="PUBLIC_FIELD"><ellipse cx="680.85" cy="736.8128" fill="none" rx="3" ry="3" style="stroke:#038048;stroke-width:1;"/></g><text fill="#000000" font-family="sans-serif" font-size="14" lengthAdjust="spacing" textLength="59.377" x="689.85" y="740.1595">tilt: float</text><g data-visibility-modifier="PUBLIC_FIELD"><ellipse cx="680.85" cy="753.1097" fill="none" rx="3" ry="3" style="stroke:#038048;stroke-width:1;"/></g><text fill="#000000" font-family="sans-serif" font-size="14" lengthAdjust="spacing" textLength="97.3096" x="689.85" y="756.4564">azimuth: float</text><g data-visibility-modifier="PUBLIC_FIELD"><ellipse cx="680.85" cy="769.4066" fill="none" rx="3" ry="3" style="stroke:#038048;stroke-width:1;"/></g><text fill="#000000" font-family="sans-serif" font-size="14" lengthAdjust="spacing" textLength="266.2734" x="689.85" y="772.7532">azimuth_cardinal: CardinalOrientation</text><line style="stroke:#181818;stroke-width:1;stroke-dasharray:1,2;" x1="670.85" x2="1021.1498" y1="780.055" y2="780.055"/><g data-visibility-modifier="PUBLIC_METHOD"><ellipse cx="680.85" cy="793.7034" fill="#84BE84" rx="3" ry="3" style="stroke:#038048;stroke-width:1;"/></g><text fill="#000000" font-family="sans-serif" font-size="14" lengthAdjust="spacing" textLength="107.1396" x="689.85" y="797.0501">area (property)</text><g data-visibility-modifier="PUBLIC_METHOD"><ellipse cx="680.85" cy="810.0003" fill="#84BE84" rx="3" ry="3" style="stroke:#038048;stroke-width:1;"/></g><text fill="#000000" font-family="sans-serif" font-size="14" lengthAdjust="spacing" textLength="180.5371" x="689.85" y="813.347">area_projected (property)</text><g data-visibility-modifier="PUBLIC_METHOD"><ellipse cx="680.85" cy="826.2972" fill="#84BE84" rx="3" ry="3" style="stroke:#038048;stroke-width:1;"/></g><text fill="#000000" font-family="sans-serif" font-size="14" lengthAdjust="spacing" textLength="155.4287" x="689.85" y="829.6439">dimensions (property)</text><g data-visibility-modifier="PUBLIC_METHOD"><ellipse cx="680.85" cy="842.5941" fill="#84BE84" rx="3" ry="3" style="stroke:#038048;stroke-width:1;"/></g><text fill="#000000" font-family="sans-serif" font-size="14" lengthAdjust="spacing" textLength="228.8262" x="689.85" y="845.9407">dimensions_projected (property)</text><g data-visibility-modifier="PUBLIC_METHOD"><ellipse cx="680.85" cy="858.8909" fill="#84BE84" rx="3" ry="3" style="stroke:#038048;stroke-width:1;"/></g><text fill="#000000" font-family="sans-serif" font-size="14" lengthAdjust="spacing" textLength="100.7617" x="689.85" y="862.2376">mrr (property)</text><g data-visibility-modifier="PUBLIC_METHOD"><ellipse cx="680.85" cy="875.1878" fill="#84BE84" rx="3" ry="3" style="stroke:#038048;stroke-width:1;"/></g><text fill="#000000" font-family="sans-serif" font-size="14" lengthAdjust="spacing" textLength="185.1309" x="689.85" y="878.5345">mrr_equal_area (property)</text><g data-visibility-modifier="PUBLIC_METHOD"><ellipse cx="680.85" cy="891.4847" fill="#84BE84" rx="3" ry="3" style="stroke:#038048;stroke-width:1;"/></g><text fill="#000000" font-family="sans-serif" font-size="14" lengthAdjust="spacing" textLength="99.1416" x="689.85" y="894.8314">pdr (property)</text><g data-visibility-modifier="PUBLIC_METHOD"><ellipse cx="680.85" cy="907.7816" fill="#84BE84" rx="3" ry="3" style="stroke:#038048;stroke-width:1;"/></g><text fill="#000000" font-family="sans-serif" font-size="14" lengthAdjust="spacing" textLength="183.5107" x="689.85" y="911.1282">pdr_equal_area (property)</text><line style="stroke:#181818;stroke-width:0.5;" x1="670.85" x2="1021.1498" y1="918.43" y2="918.43"/><g data-visibility-modifier="PUBLIC_METHOD"><ellipse cx="680.85" cy="932.0784" fill="#84BE84" rx="3" ry="3" style="stroke:#038048;stroke-width:1;"/></g><text fill="#000000" font-family="sans-serif" font-size="14" lengthAdjust="spacing" textLength="326.2998" x="689.85" y="935.4251">set_longitude_latitude(self, longitude_latitude)</text></g><!--class TiltedRectangleGeometry--><g class="entity" data-qualified-name="odeon.model.geometry.TiltedRectangleGeometry" data-source-line="70" id="ent0015"><rect fill="#F1F1F1" height="642.6875" rx="2.5" ry="2.5" style="stroke:#181818;stroke-width:0.5;" width="463.8623" x="1057.07" y="454.86"/><ellipse cx="1195.0021" cy="470.86" fill="#ADD1B2" rx="11" ry="11" style="stroke:#181818;stroke-width:1;"/><path d="M1197.9709,476.5006 Q1197.3928,476.7975 1196.7521,476.9381 Q1196.1115,477.0944 1195.4084,477.0944 Q1192.9084,477.0944 1191.5803,475.4537 Q1190.2678,473.7975 1190.2678,470.6725 Q1190.2678,467.5475 1191.5803,465.8912 Q1192.9084,464.235 1195.4084,464.235 Q1196.1115,464.235 1196.7521,464.3912 Q1197.4084,464.5475 1197.9709,464.8444 L1197.9709,467.5631 Q1197.3459,466.985 1196.7521,466.7194 Q1196.1584,466.4381 1195.5334,466.4381 Q1194.1896,466.4381 1193.5021,467.5162 Q1192.8146,468.5787 1192.8146,470.6725 Q1192.8146,472.7662 1193.5021,473.8444 Q1194.1896,474.9069 1195.5334,474.9069 Q1196.1584,474.9069 1196.7521,474.6412 Q1197.3459,474.36 1197.9709,473.7819 L1197.9709,476.5006 Z " fill="#000000"/><text fill="#000000" font-family="sans-serif" font-size="14" lengthAdjust="spacing" textLength="179.498" x="1215.5021" y="475.7067">TiltedRectangleGeometry</text><line style="stroke:#181818;stroke-width:0.5;" x1="1058.07" x2="1519.9323" y1="486.86" y2="486.86"/><g data-visibility-modifier="PROTECTED_FIELD"><polygon fill="none" points="1068.07,495.5084,1072.07,499.5084,1068.07,503.5084,1064.07,499.5084" style="stroke:#B38D22;stroke-width:1;"/></g><text fill="#000000" font-family="sans-serif" font-size="14" lengthAdjust="spacing" textLength="162.3125" x="1077.07" y="503.8551">_shape: BaseGeometry</text><g data-visibility-modifier="PUBLIC_FIELD"><ellipse cx="1068.07" cy="516.8053" fill="none" rx="3" ry="3" style="stroke:#038048;stroke-width:1;"/></g><text fill="#000000" font-family="sans-serif" font-size="14" lengthAdjust="spacing" textLength="94.3291" x="1077.07" y="520.152">altitude: float</text><line style="stroke:#181818;stroke-width:1;stroke-dasharray:1,2;" x1="1058.07" x2="1519.9323" y1="527.4537" y2="527.4537"/><g data-visibility-modifier="PUBLIC_METHOD"><ellipse cx="1068.07" cy="541.1022" fill="#84BE84" rx="3" ry="3" style="stroke:#038048;stroke-width:1;"/></g><text fill="#000000" font-family="sans-serif" font-size="14" lengthAdjust="spacing" textLength="107.1396" x="1077.07" y="544.4489">area (property)</text><g data-visibility-modifier="PUBLIC_METHOD"><ellipse cx="1068.07" cy="557.3991" fill="#84BE84" rx="3" ry="3" style="stroke:#038048;stroke-width:1;"/></g><text fill="#000000" font-family="sans-serif" font-size="14" lengthAdjust="spacing" textLength="180.5371" x="1077.07" y="560.7457">area_projected (property)</text><g data-visibility-modifier="PUBLIC_METHOD"><ellipse cx="1068.07" cy="573.6959" fill="#84BE84" rx="3" ry="3" style="stroke:#038048;stroke-width:1;"/></g><text fill="#000000" font-family="sans-serif" font-size="14" lengthAdjust="spacing" textLength="132.3027" x="1077.07" y="577.0426">azimuth (property)</text><g data-visibility-modifier="PUBLIC_METHOD"><ellipse cx="1068.07" cy="589.9928" fill="#84BE84" rx="3" ry="3" style="stroke:#038048;stroke-width:1;"/></g><text fill="#000000" font-family="sans-serif" font-size="14" lengthAdjust="spacing" textLength="209.4668" x="1077.07" y="593.3395">azimuth_tilt_vector (property)</text><g data-visibility-modifier="PUBLIC_METHOD"><ellipse cx="1068.07" cy="606.2897" fill="#84BE84" rx="3" ry="3" style="stroke:#038048;stroke-width:1;"/></g><text fill="#000000" font-family="sans-serif" font-size="14" lengthAdjust="spacing" textLength="151.1768" x="1077.07" y="609.6364">centroid3d (property)</text><g data-visibility-modifier="PUBLIC_METHOD"><ellipse cx="1068.07" cy="622.5866" fill="#84BE84" rx="3" ry="3" style="stroke:#038048;stroke-width:1;"/></g><text fill="#000000" font-family="sans-serif" font-size="14" lengthAdjust="spacing" textLength="224.2939" x="1077.07" y="625.9332">dimension_azimuthal (property)</text><g data-visibility-modifier="PUBLIC_METHOD"><ellipse cx="1068.07" cy="638.8834" fill="#84BE84" rx="3" ry="3" style="stroke:#038048;stroke-width:1;"/></g><text fill="#000000" font-family="sans-serif" font-size="14" lengthAdjust="spacing" textLength="297.6914" x="1077.07" y="642.2301">dimension_azimuthal_projected (property)</text><g data-visibility-modifier="PUBLIC_METHOD"><ellipse cx="1068.07" cy="655.1803" fill="#84BE84" rx="3" ry="3" style="stroke:#038048;stroke-width:1;"/></g><text fill="#000000" font-family="sans-serif" font-size="14" lengthAdjust="spacing" textLength="260.9004" x="1077.07" y="658.527">dimension_crossazimuthal (property)</text><g data-visibility-modifier="PUBLIC_METHOD"><ellipse cx="1068.07" cy="671.4772" fill="#84BE84" rx="3" ry="3" style="stroke:#038048;stroke-width:1;"/></g><text fill="#000000" font-family="sans-serif" font-size="14" lengthAdjust="spacing" textLength="155.4287" x="1077.07" y="674.8239">dimensions (property)</text><g data-visibility-modifier="PUBLIC_METHOD"><ellipse cx="1068.07" cy="687.7741" fill="#84BE84" rx="3" ry="3" style="stroke:#038048;stroke-width:1;"/></g><text fill="#000000" font-family="sans-serif" font-size="14" lengthAdjust="spacing" textLength="228.8262" x="1077.07" y="691.1207">dimensions_projected (property)</text><g data-visibility-modifier="PUBLIC_METHOD"><ellipse cx="1068.07" cy="704.0709" fill="#84BE84" rx="3" ry="3" style="stroke:#038048;stroke-width:1;"/></g><text fill="#000000" font-family="sans-serif" font-size="14" lengthAdjust="spacing" textLength="190.3604" x="1077.07" y="707.4176">edges_linestring (property)</text><g data-visibility-modifier="PUBLIC_METHOD"><ellipse cx="1068.07" cy="720.3678" fill="#84BE84" rx="3" ry="3" style="stroke:#038048;stroke-width:1;"/></g><text fill="#000000" font-family="sans-serif" font-size="14" lengthAdjust="spacing" textLength="195.0156" x="1077.07" y="723.7145">edges_pointpairs (property)</text><g data-visibility-modifier="PUBLIC_METHOD"><ellipse cx="1068.07" cy="736.6647" fill="#84BE84" rx="3" ry="3" style="stroke:#038048;stroke-width:1;"/></g><text fill="#000000" font-family="sans-serif" font-size="14" lengthAdjust="spacing" textLength="176.6064" x="1077.07" y="740.0114">edges_vectors (property)</text><g data-visibility-modifier="PUBLIC_METHOD"><ellipse cx="1068.07" cy="752.9616" fill="#84BE84" rx="3" ry="3" style="stroke:#038048;stroke-width:1;"/></g><text fill="#000000" font-family="sans-serif" font-size="14" lengthAdjust="spacing" textLength="120.2373" x="1077.07" y="756.3082">height (property)</text><g data-visibility-modifier="PUBLIC_METHOD"><ellipse cx="1068.07" cy="769.2584" fill="#84BE84" rx="3" ry="3" style="stroke:#038048;stroke-width:1;"/></g><text fill="#000000" font-family="sans-serif" font-size="14" lengthAdjust="spacing" textLength="145.4414" x="1077.07" y="772.6051">horizontal (property)</text><g data-visibility-modifier="PUBLIC_METHOD"><ellipse cx="1068.07" cy="785.5553" fill="#84BE84" rx="3" ry="3" style="stroke:#038048;stroke-width:1;"/></g><text fill="#000000" font-family="sans-serif" font-size="14" lengthAdjust="spacing" textLength="194.7354" x="1077.07" y="788.902">horizontal_edges (property)</text><g data-visibility-modifier="PUBLIC_METHOD"><ellipse cx="1068.07" cy="801.8522" fill="#84BE84" rx="3" ry="3" style="stroke:#038048;stroke-width:1;"/></g><text fill="#000000" font-family="sans-serif" font-size="14" lengthAdjust="spacing" textLength="130.2246" x="1077.07" y="805.1989">inclined (property)</text><g data-visibility-modifier="PUBLIC_METHOD"><ellipse cx="1068.07" cy="818.1491" fill="#84BE84" rx="3" ry="3" style="stroke:#038048;stroke-width:1;"/></g><text fill="#000000" font-family="sans-serif" font-size="14" lengthAdjust="spacing" textLength="179.5186" x="1077.07" y="821.4957">inclined_edges (property)</text><g data-visibility-modifier="PUBLIC_METHOD"><ellipse cx="1068.07" cy="834.4459" fill="#84BE84" rx="3" ry="3" style="stroke:#038048;stroke-width:1;"/></g><text fill="#000000" font-family="sans-serif" font-size="14" lengthAdjust="spacing" textLength="398.9248" x="1077.07" y="837.7926">indices_lower_upper_upward_downward_edge (property)</text><g data-visibility-modifier="PUBLIC_METHOD"><ellipse cx="1068.07" cy="850.7428" fill="#84BE84" rx="3" ry="3" style="stroke:#038048;stroke-width:1;"/></g><text fill="#000000" font-family="sans-serif" font-size="14" lengthAdjust="spacing" textLength="155.8867" x="1077.07" y="854.0895">lower_edge (property)</text><g data-visibility-modifier="PUBLIC_METHOD"><ellipse cx="1068.07" cy="867.0397" fill="#84BE84" rx="3" ry="3" style="stroke:#038048;stroke-width:1;"/></g><text fill="#000000" font-family="sans-serif" font-size="14" lengthAdjust="spacing" textLength="176.3193" x="1077.07" y="870.3864">normal_vector (property)</text><g data-visibility-modifier="PUBLIC_METHOD"><ellipse cx="1068.07" cy="883.3366" fill="#84BE84" rx="3" ry="3" style="stroke:#038048;stroke-width:1;"/></g><text fill="#000000" font-family="sans-serif" font-size="14" lengthAdjust="spacing" textLength="159.4893" x="1077.07" y="886.6832">orientations (property)</text><g data-visibility-modifier="PUBLIC_METHOD"><ellipse cx="1068.07" cy="899.6334" fill="#84BE84" rx="3" ry="3" style="stroke:#038048;stroke-width:1;"/></g><text fill="#000000" font-family="sans-serif" font-size="14" lengthAdjust="spacing" textLength="94.3701" x="1077.07" y="902.9801">tilt (property)</text><g data-visibility-modifier="PUBLIC_METHOD"><ellipse cx="1068.07" cy="915.9303" fill="#84BE84" rx="3" ry="3" style="stroke:#038048;stroke-width:1;"/></g><text fill="#000000" font-family="sans-serif" font-size="14" lengthAdjust="spacing" textLength="158.6279" x="1077.07" y="919.277">upper_edge (property)</text><g data-visibility-modifier="PUBLIC_METHOD"><ellipse cx="1068.07" cy="932.2272" fill="#84BE84" rx="3" ry="3" style="stroke:#038048;stroke-width:1;"/></g><text fill="#000000" font-family="sans-serif" font-size="14" lengthAdjust="spacing" textLength="127.8115" x="1077.07" y="935.5739">vertical (property)</text><g data-visibility-modifier="PUBLIC_METHOD"><ellipse cx="1068.07" cy="948.5241" fill="#84BE84" rx="3" ry="3" style="stroke:#038048;stroke-width:1;"/></g><text fill="#000000" font-family="sans-serif" font-size="14" lengthAdjust="spacing" textLength="147.7314" x="1077.07" y="951.8707">z_centroid (property)</text><g data-visibility-modifier="PUBLIC_METHOD"><ellipse cx="1068.07" cy="964.8209" fill="#84BE84" rx="3" ry="3" style="stroke:#038048;stroke-width:1;"/></g><text fill="#000000" font-family="sans-serif" font-size="14" lengthAdjust="spacing" textLength="120.4629" x="1077.07" y="968.1676">z_max (property)</text><g data-visibility-modifier="PUBLIC_METHOD"><ellipse cx="1068.07" cy="981.1178" fill="#84BE84" rx="3" ry="3" style="stroke:#038048;stroke-width:1;"/></g><text fill="#000000" font-family="sans-serif" font-size="14" lengthAdjust="spacing" textLength="116.3613" x="1077.07" y="984.4645">z_min (property)</text><line style="stroke:#181818;stroke-width:0.5;" x1="1058.07" x2="1519.9323" y1="991.7662" y2="991.7662"/><g data-visibility-modifier="PUBLIC_METHOD"><ellipse cx="1068.07" cy="1005.4147" fill="#84BE84" rx="3" ry="3" style="stroke:#038048;stroke-width:1;"/></g><text fill="#000000" font-family="sans-serif" font-size="14" lengthAdjust="spacing" textLength="210.9297" x="1077.07" y="1008.7614">normal_linestring(self, length)</text><g data-visibility-modifier="PUBLIC_METHOD"><ellipse cx="1068.07" cy="1021.7116" fill="#84BE84" rx="3" ry="3" style="stroke:#038048;stroke-width:1;"/></g><text fill="#000000" font-family="sans-serif" font-size="14" lengthAdjust="spacing" textLength="210.5469" x="1077.07" y="1025.0582">points(self, repeat_first_point)</text><g data-visibility-modifier="PUBLIC_METHOD"><ellipse cx="1068.07" cy="1038.0084" fill="#84BE84" rx="3" ry="3" style="stroke:#038048;stroke-width:1;"/></g><text fill="#000000" font-family="sans-serif" font-size="14" lengthAdjust="spacing" textLength="437.8623" x="1077.07" y="1041.3551">set_vertical_approximate_azimuth(self, approximate_azimuth)</text><g data-visibility-modifier="PUBLIC_METHOD"><ellipse cx="1068.07" cy="1054.3053" fill="#84BE84" rx="3" ry="3" style="stroke:#038048;stroke-width:1;"/></g><text fill="#000000" font-family="sans-serif" font-size="14" lengthAdjust="spacing" textLength="223.1865" x="1077.07" y="1057.652">vertices(self, repeat_first_point)</text><g data-visibility-modifier="PUBLIC_METHOD"><ellipse cx="1068.07" cy="1070.6022" fill="#84BE84" rx="3" ry="3" style="stroke:#038048;stroke-width:1;"/></g><text fill="#000000" font-family="sans-serif" font-size="14" lengthAdjust="spacing" textLength="250.6875" x="1077.07" y="1073.9489">xyz_by_axis(self, repeat_first_point)</text><g data-visibility-modifier="PUBLIC_METHOD"><ellipse cx="1068.07" cy="1086.8991" fill="#84BE84" rx="3" ry="3" style="stroke:#038048;stroke-width:1;"/></g><text fill="#000000" font-family="sans-serif" font-size="14" lengthAdjust="spacing" textLength="258.3438" x="1077.07" y="1090.2457">xyz_by_point(self, repeat_first_point)</text></g><!--class CardinalOrientation--><g class="entity" data-qualified-name="odeon.model.base_geometry.CardinalOrientation" data-source-line="69" id="ent0012"><rect fill="#F1F1F1" height="48" rx="2.5" ry="2.5" style="stroke:#181818;stroke-width:0.5;" width="169.2656" x="761.37" y="1172.55"/><ellipse cx="776.37" cy="1188.55" fill="#ADD1B2" rx="11" ry="11" style="stroke:#181818;stroke-width:1;"/><path d="M779.3388,1194.1906 Q778.7606,1194.4875 778.12,1194.6281 Q777.4794,1194.7844 776.7763,1194.7844 Q774.2763,1194.7844 772.9481,1193.1438 Q771.6356,1191.4875 771.6356,1188.3625 Q771.6356,1185.2375 772.9481,1183.5813 Q774.2763,1181.925 776.7763,1181.925 Q777.4794,1181.925 778.12,1182.0813 Q778.7763,1182.2375 779.3388,1182.5344 L779.3388,1185.2531 Q778.7138,1184.675 778.12,1184.4094 Q777.5263,1184.1281 776.9013,1184.1281 Q775.5575,1184.1281 774.87,1185.2063 Q774.1825,1186.2688 774.1825,1188.3625 Q774.1825,1190.4563 774.87,1191.5344 Q775.5575,1192.5969 776.9013,1192.5969 Q777.5263,1192.5969 778.12,1192.3313 Q778.7138,1192.05 779.3388,1191.4719 L779.3388,1194.1906 Z " fill="#000000"/><text fill="#000000" font-family="sans-serif" font-size="14" lengthAdjust="spacing" textLength="137.2656" x="790.37" y="1193.3967">CardinalOrientation</text><line style="stroke:#181818;stroke-width:0.5;" x1="762.37" x2="929.6356" y1="1204.55" y2="1204.55"/><line style="stroke:#181818;stroke-width:0.5;" x1="762.37" x2="929.6356" y1="1212.55" y2="1212.55"/></g><!--reverse link Geometry to LinestringGeometry--><g class="link" data-entity-1="ent0002" data-entity-2="ent0006" data-link-type="extension" data-source-line="39" id="lnk7"><path codeLine="39" d="M498.4607,348.9887 C446.5007,379.5187 407.36,409.17 366,454.86 C321.63,503.88 286.97,567.72 261.63,625.5" fill="none" id="Geometry-backto-LinestringGeometry" style="stroke:#181818;stroke-width:1;"/><polygon fill="none" points="513.98,339.87,495.4211,343.8155,501.5002,354.1618,513.98,339.87" style="stroke:#181818;stroke-width:1;"/></g><!--reverse link Geometry to MultiGeometry--><g class="link" data-entity-1="ent0002" data-entity-2="ent0008" data-link-type="extension" data-source-line="46" id="lnk9"><path codeLine="46" d="M627.8108,412.227 C591.4508,523.317 547.42,657.81 523.32,731.46" fill="none" id="Geometry-backto-MultiGeometry" style="stroke:#181818;stroke-width:1;"/><polygon fill="none" points="633.41,395.12,622.1085,410.3606,633.5132,414.0934,633.41,395.12" style="stroke:#181818;stroke-width:1;"/></g><!--reverse link Geometry to NominalGeometry--><g class="link" data-entity-1="ent0002" data-entity-2="ent0010" data-link-type="extension" data-source-line="68" id="lnk11"><path codeLine="68" d="M726.481,412.2166 C748.051,477.7066 768.62,540.19 791.46,609.57" fill="none" id="Geometry-backto-NominalGeometry" style="stroke:#181818;stroke-width:1;"/><polygon fill="none" points="720.85,395.12,720.7821,414.0935,732.1798,410.3396,720.85,395.12" style="stroke:#181818;stroke-width:1;"/></g><!--reverse link NominalGeometry to CardinalOrientation--><g class="link" data-entity-1="ent0010" data-entity-2="ent0012" data-link-type="composition" data-source-line="69" id="lnk14"><path codeLine="69" d="M846,955.15 C846,1042.52 846,1128.41 846,1172.2" fill="none" id="NominalGeometry-backto-CardinalOrientation" style="stroke:#181818;stroke-width:1;"/><polygon fill="#181818" points="846,943.15,842,949.15,846,955.15,850,949.15,846,943.15" style="stroke:#181818;stroke-width:1;"/></g><!--reverse link Geometry to TiltedRectangleGeometry--><g class="link" data-entity-1="ent0002" data-entity-2="ent0015" data-link-type="extension" data-source-line="110" id="lnk16"><path codeLine="110" d="M856.3593,338.2986 C922.3393,370.4686 980.6,404.9 1040,454.86 C1045.66,459.62 1051.28,464.53 1056.84,469.57" fill="none" id="Geometry-backto-TiltedRectangleGeometry" style="stroke:#181818;stroke-width:1;"/><polygon fill="none" points="840.18,330.41,853.7298,343.6917,858.9888,332.9055,840.18,330.41" style="stroke:#181818;stroke-width:1;"/></g><?plantuml-src fLPDZzCm4BtdLqJYm9RkzW87jDeJ7BZm8I7k8syyJOmSszZEzWFuxpXEcjIEa-sMInlF6y-C_LvcyZgN5ANOrEwFRqgKDLfzoBA24sEIsEPJ_v3_pbw1gOZ2-_m3CNYoPsl2BRCDTVOjbyHccqssBb1OBHdDRvIM2hKzhB9rHGmS0mipe2GJTchaXrAAmCobA7qUuCJs3qoWiPg9Cl1CxVQLdri0N4XYmOMzCSYtjxd3Vc9XfUwIjMaIY0y4J42XJGzR2KOpUkPtcqjDCN3VbURzkpZUuFTtYOBFmp6l8mDfYMRkiZhGiw08qoPa35bPXUnKKhEZ59Rma1qKfQtW4R7Dim11VtYaAIT5R3LddzcvFnpXyG1apqpAFjNN4MgoZorCnEBm6qyK4wMuoz5VRilNyiloyEVkxb8obwZ_qhYKSwnxK15jXqWjs-xrgJqmVGlSiQulF2XbgUQlqjqcuMTLhochKHWcXG7HeVUvRHJ701hudJWHZMGqTihkZ8azFTnfTrXQniS5ERAwiLMyXe9esWNvs3zzqyorCjTmfF2tsoODj1DM4K3ZqMRCC_jghUCruA-6S9XaLrJ7wndNLj86VR-BscWlyIdmFpAFH91Tf9GtKRH79t8Ol5EKBCZmXoCSwNTtlKIK7AzhdI-XknTHoWQj-k39z_m0Fyt9jpFAWJv0r6qJ-7CQTFDA6lDCk1SAzVh1qe7TXLmxSaOp-73XHuGeshfeqfZqfwne3oDtgA5Hol_kdEI0oftm3-skw9EaTPwOXTIrAof1jnob6wPlzH4OkWeceP_SFokYYpX2ydFhmZdNLpkoUEe7VlAkea6eKQ7xQjewGcr7xghhAwVAm8rABVUi9XPFwXo7Q8mCHyB516Sp_W8tlrpmkxwhpVIKVm00?></g></svg>