<?plantuml 1.2026.2beta3?><svg xmlns="http://www.w3.org/2000/svg" xmlns:xlink="http://www.w3.org/1999/xlink" contentStyleType="text/css" data-diagram-type="CLASS" height="1682px" preserveAspectRatio="none" style="width:930px;height:1682px;background:#FFFFFF;" version="1.1" viewBox="0 0 930 1682" width="930px" zoomAndPan="magnify"><defs/><g><!--cluster odeon--><g class="cluster" data-qualified-name="odeon" data-source-line="3" id="ent0003"><path d="M8.5,6 L58.2197,6 A3.75,3.75 0 0 1 60.7197,8.5 L67.7197,28.2969 L920.5,28.2969 A2.5,2.5 0 0 1 923,30.7969 L923,1673.17 A2.5,2.5 0 0 1 920.5,1675.67 L8.5,1675.67 A2.5,2.5 0 0 1 6,1673.17 L6,8.5 A2.5,2.5 0 0 1 8.5,6" fill="none" style="stroke:#000000;stroke-width:1.5;"/><line style="stroke:#000000;stroke-width:1.5;" x1="6" x2="67.7197" y1="28.2969" y2="28.2969"/><text fill="#000000" font-family="sans-serif" font-size="14" font-weight="bold" lengthAdjust="spacing" textLength="48.7197" x="10" y="20.9951">odeon</text></g><!--cluster model--><g class="cluster" data-qualified-name="odeon.model" data-source-line="3" id="ent0004"><path d="M32.5,49 L82.0215,49 A3.75,3.75 0 0 1 84.5215,51.5 L91.5215,71.2969 L896.5,71.2969 A2.5,2.5 0 0 1 899,73.7969 L899,1649.17 A2.5,2.5 0 0 1 896.5,1651.67 L32.5,1651.67 A2.5,2.5 0 0 1 30,1649.17 L30,51.5 A2.5,2.5 0 0 1 32.5,49" fill="none" style="stroke:#000000;stroke-width:1.5;"/><line style="stroke:#000000;stroke-width:1.5;" x1="30" x2="91.5215" y1="71.2969" y2="71.2969"/><text fill="#000000" font-family="sans-serif" font-size="14" font-weight="bold" lengthAdjust="spacing" textLength="48.5215" x="34" y="63.9951">model</text></g><!--cluster network--><g class="cluster" data-qualified-name="odeon.model.network" data-source-line="3" id="ent0005"><path d="M56.5,215 L122.4209,215 A3.75,3.75 0 0 1 124.9209,217.5 L131.9209,237.2969 L872.5,237.2969 A2.5,2.5 0 0 1 875,239.7969 L875,1625.17 A2.5,2.5 0 0 1 872.5,1627.67 L56.5,1627.67 A2.5,2.5 0 0 1 54,1625.17 L54,217.5 A2.5,2.5 0 0 1 56.5,215" fill="none" style="stroke:#000000;stroke-width:1.5;"/><line style="stroke:#000000;stroke-width:1.5;" x1="54" x2="131.9209" y1="237.2969" y2="237.2969"/><text fill="#000000" font-family="sans-serif" font-size="14" font-weight="bold" lengthAdjust="spacing" textLength="64.9209" x="58" y="229.9951">network</text></g><!--cluster base--><g class="cluster" data-qualified-name="odeon.model.base" data-source-line="85" id="ent0010"><path d="M243.5,92 L281.7969,92 A3.75,3.75 0 0 1 284.2969,94.5 L291.2969,114.2969 L531.5,114.2969 A2.5,2.5 0 0 1 534,116.7969 L534,188.5 A2.5,2.5 0 0 1 531.5,191 L243.5,191 A2.5,2.5 0 0 1 241,188.5 L241,94.5 A2.5,2.5 0 0 1 243.5,92" fill="none" style="stroke:#000000;stroke-width:1.5;"/><line style="stroke:#000000;stroke-width:1.5;" x1="241" x2="291.2969" y1="114.2969" y2="114.2969"/><text fill="#000000" font-family="sans-serif" font-size="14" font-weight="bold" lengthAdjust="spacing" textLength="37.2969" x="245" y="106.9951">base</text></g><!--class Edge--><g class="entity" data-qualified-name="odeon.model.network.Edge" data-source-line="3" id="ent0002"><rect fill="#F1F1F1" height="218.9688" rx="2.5" ry="2.5" style="stroke:#181818;stroke-width:0.5;" width="210.7617" x="81.62" y="1392.7"/><ellipse cx="165.1346" cy="1408.7" fill="#ADD1B2" rx="11" ry="11" style="stroke:#181818;stroke-width:1;"/><path d="M168.1034,1414.3406 Q167.5253,1414.6375 166.8846,1414.7781 Q166.244,1414.9344 165.5409,1414.9344 Q163.0409,1414.9344 161.7128,1413.2938 Q160.4003,1411.6375 160.4003,1408.5125 Q160.4003,1405.3875 161.7128,1403.7313 Q163.0409,1402.075 165.5409,1402.075 Q166.244,1402.075 166.8846,1402.2313 Q167.5409,1402.3875 168.1034,1402.6844 L168.1034,1405.4031 Q167.4784,1404.825 166.8846,1404.5594 Q166.2909,1404.2781 165.6659,1404.2781 Q164.3221,1404.2781 163.6346,1405.3563 Q162.9471,1406.4188 162.9471,1408.5125 Q162.9471,1410.6063 163.6346,1411.6844 Q164.3221,1412.7469 165.6659,1412.7469 Q166.2909,1412.7469 166.8846,1412.4813 Q167.4784,1412.2 168.1034,1411.6219 L168.1034,1414.3406 Z " fill="#000000"/><text fill="#000000" font-family="sans-serif" font-size="14" lengthAdjust="spacing" textLength="35.2324" x="185.6346" y="1413.5467">Edge</text><line style="stroke:#181818;stroke-width:0.5;" x1="82.62" x2="291.3817" y1="1424.7" y2="1424.7"/><g data-visibility-modifier="PROTECTED_FIELD"><polygon fill="none" points="92.62,1433.3484,96.62,1437.3484,92.62,1441.3484,88.62,1437.3484" style="stroke:#B38D22;stroke-width:1;"/></g><text fill="#000000" font-family="sans-serif" font-size="14" lengthAdjust="spacing" textLength="108.6982" x="101.62" y="1441.6951">_node_to: Node</text><g data-visibility-modifier="PROTECTED_FIELD"><polygon fill="none" points="92.62,1449.6453,96.62,1453.6453,92.62,1457.6453,88.62,1453.6453" style="stroke:#B38D22;stroke-width:1;"/></g><text fill="#000000" font-family="sans-serif" font-size="14" lengthAdjust="spacing" textLength="127.5313" x="101.62" y="1457.992">_node_from: Node</text><g data-visibility-modifier="PROTECTED_FIELD"><polygon fill="none" points="92.62,1465.9422,96.62,1469.9422,92.62,1473.9422,88.62,1469.9422" style="stroke:#B38D22;stroke-width:1;"/></g><text fill="#000000" font-family="sans-serif" font-size="14" lengthAdjust="spacing" textLength="92.2441" x="101.62" y="1474.2889">_length: float</text><line style="stroke:#181818;stroke-width:1;stroke-dasharray:1,2;" x1="82.62" x2="291.3817" y1="1481.5906" y2="1481.5906"/><g data-visibility-modifier="PUBLIC_METHOD"><ellipse cx="92.62" cy="1495.2391" fill="#84BE84" rx="3" ry="3" style="stroke:#038048;stroke-width:1;"/></g><text fill="#000000" font-family="sans-serif" font-size="14" lengthAdjust="spacing" textLength="120.2373" x="101.62" y="1498.5857">length (property)</text><g data-visibility-modifier="PUBLIC_METHOD"><ellipse cx="92.62" cy="1511.5359" fill="#84BE84" rx="3" ry="3" style="stroke:#038048;stroke-width:1;"/></g><text fill="#000000" font-family="sans-serif" font-size="14" lengthAdjust="spacing" textLength="150.4385" x="101.62" y="1514.8826">node_from (property)</text><g data-visibility-modifier="PUBLIC_METHOD"><ellipse cx="92.62" cy="1527.8328" fill="#84BE84" rx="3" ry="3" style="stroke:#038048;stroke-width:1;"/></g><text fill="#000000" font-family="sans-serif" font-size="14" lengthAdjust="spacing" textLength="131.6055" x="101.62" y="1531.1795">node_to (property)</text><g data-visibility-modifier="PUBLIC_METHOD"><ellipse cx="92.62" cy="1544.1297" fill="#84BE84" rx="3" ry="3" style="stroke:#038048;stroke-width:1;"/></g><text fill="#000000" font-family="sans-serif" font-size="14" lengthAdjust="spacing" textLength="117.8447" x="101.62" y="1547.4764">nodes (property)</text><line style="stroke:#181818;stroke-width:0.5;" x1="82.62" x2="291.3817" y1="1554.7781" y2="1554.7781"/><g data-visibility-modifier="PUBLIC_METHOD"><ellipse cx="92.62" cy="1568.4266" fill="#84BE84" rx="3" ry="3" style="stroke:#038048;stroke-width:1;"/></g><text fill="#000000" font-family="sans-serif" font-size="14" lengthAdjust="spacing" textLength="184.7617" x="101.62" y="1571.7732">common_node(self, other)</text><g data-visibility-modifier="PUBLIC_METHOD"><ellipse cx="92.62" cy="1584.7234" fill="#84BE84" rx="3" ry="3" style="stroke:#038048;stroke-width:1;"/></g><text fill="#000000" font-family="sans-serif" font-size="14" lengthAdjust="spacing" textLength="155.1553" x="101.62" y="1588.0701">connected(self, other)</text><g data-visibility-modifier="PUBLIC_METHOD"><ellipse cx="92.62" cy="1601.0203" fill="#84BE84" rx="3" ry="3" style="stroke:#038048;stroke-width:1;"/></g><text fill="#000000" font-family="sans-serif" font-size="14" lengthAdjust="spacing" textLength="172.2246" x="101.62" y="1604.367">opposite_node(self, this)</text></g><!--class NetworkObject--><g class="entity" data-qualified-name="odeon.model.network.NetworkObject" data-source-line="17" id="ent0006"><rect fill="#F1F1F1" height="170.0781" rx="2.5" ry="2.5" style="stroke:#181818;stroke-width:0.5;" width="257.1504" x="70.42" y="706.31"/><ellipse cx="142.7203" cy="722.31" fill="#ADD1B2" rx="11" ry="11" style="stroke:#181818;stroke-width:1;"/><path d="M145.689,727.9506 Q145.1109,728.2475 144.4703,728.3881 Q143.8297,728.5444 143.1265,728.5444 Q140.6265,728.5444 139.2984,726.9038 Q137.9859,725.2475 137.9859,722.1225 Q137.9859,718.9975 139.2984,717.3413 Q140.6265,715.685 143.1265,715.685 Q143.8297,715.685 144.4703,715.8413 Q145.1265,715.9975 145.689,716.2944 L145.689,719.0131 Q145.064,718.435 144.4703,718.1694 Q143.8765,717.8881 143.2515,717.8881 Q141.9078,717.8881 141.2203,718.9663 Q140.5328,720.0288 140.5328,722.1225 Q140.5328,724.2163 141.2203,725.2944 Q141.9078,726.3569 143.2515,726.3569 Q143.8765,726.3569 144.4703,726.0913 Q145.064,725.81 145.689,725.2319 L145.689,727.9506 Z " fill="#000000"/><text fill="#000000" font-family="sans-serif" font-size="14" lengthAdjust="spacing" textLength="104.0498" x="163.2203" y="727.1567">NetworkObject</text><line style="stroke:#181818;stroke-width:0.5;" x1="71.42" x2="326.5704" y1="738.31" y2="738.31"/><g data-visibility-modifier="PROTECTED_FIELD"><polygon fill="none" points="81.42,746.9584,85.42,750.9584,81.42,754.9584,77.42,750.9584" style="stroke:#B38D22;stroke-width:1;"/></g><text fill="#000000" font-family="sans-serif" font-size="14" lengthAdjust="spacing" textLength="133.7383" x="90.42" y="755.3051">_partitions: set[str]</text><line style="stroke:#181818;stroke-width:1;stroke-dasharray:1,2;" x1="71.42" x2="326.5704" y1="762.6069" y2="762.6069"/><g data-visibility-modifier="PUBLIC_METHOD"><ellipse cx="81.42" cy="776.2553" fill="#84BE84" rx="3" ry="3" style="stroke:#038048;stroke-width:1;"/></g><text fill="#000000" font-family="sans-serif" font-size="14" lengthAdjust="spacing" textLength="132.4668" x="90.42" y="779.602">network (property)</text><g data-visibility-modifier="PUBLIC_METHOD"><ellipse cx="81.42" cy="792.5522" fill="#84BE84" rx="3" ry="3" style="stroke:#038048;stroke-width:1;"/></g><text fill="#000000" font-family="sans-serif" font-size="14" lengthAdjust="spacing" textLength="142.3242" x="90.42" y="795.8989">partitions (property)</text><g data-visibility-modifier="PUBLIC_METHOD"><ellipse cx="81.42" cy="808.8491" fill="#84BE84" rx="3" ry="3" style="stroke:#038048;stroke-width:1;"/></g><text fill="#000000" font-family="sans-serif" font-size="14" lengthAdjust="spacing" textLength="169.8867" x="90.42" y="812.1957">partitions_list (property)</text><line style="stroke:#181818;stroke-width:0.5;" x1="71.42" x2="326.5704" y1="819.4975" y2="819.4975"/><g data-visibility-modifier="PROTECTED_METHOD"><polygon fill="#FFFF44" points="81.42,828.1459,85.42,832.1459,81.42,836.1459,77.42,832.1459" style="stroke:#B38D22;stroke-width:1;"/></g><text fill="#000000" font-family="sans-serif" font-size="14" lengthAdjust="spacing" textLength="159.7764" x="90.42" y="836.4926">_set_network(self, net)</text><g data-visibility-modifier="PUBLIC_METHOD"><ellipse cx="81.42" cy="849.4428" fill="#84BE84" rx="3" ry="3" style="stroke:#038048;stroke-width:1;"/></g><text fill="#000000" font-family="sans-serif" font-size="14" lengthAdjust="spacing" textLength="196.7383" x="90.42" y="852.7895">add_partition(self, partition)</text><g data-visibility-modifier="PUBLIC_METHOD"><ellipse cx="81.42" cy="865.7397" fill="#84BE84" rx="3" ry="3" style="stroke:#038048;stroke-width:1;"/></g><text fill="#000000" font-family="sans-serif" font-size="14" lengthAdjust="spacing" textLength="231.1504" x="90.42" y="869.0864">remove_partitions(self, partition)</text></g><!--class Network--><g class="entity" data-qualified-name="odeon.model.network.Network" data-source-line="18" id="ent0008"><rect fill="#F1F1F1" height="1082.7031" rx="2.5" ry="2.5" style="stroke:#181818;stroke-width:0.5;" width="496.8594" x="362.57" y="250"/><ellipse cx="577.5226" cy="266" fill="#ADD1B2" rx="11" ry="11" style="stroke:#181818;stroke-width:1;"/><path d="M580.4914,271.6406 Q579.9133,271.9375 579.2726,272.0781 Q578.632,272.2344 577.9289,272.2344 Q575.4289,272.2344 574.1008,270.5938 Q572.7883,268.9375 572.7883,265.8125 Q572.7883,262.6875 574.1008,261.0313 Q575.4289,259.375 577.9289,259.375 Q578.632,259.375 579.2726,259.5313 Q579.9289,259.6875 580.4914,259.9844 L580.4914,262.7031 Q579.8664,262.125 579.2726,261.8594 Q578.6789,261.5781 578.0539,261.5781 Q576.7101,261.5781 576.0226,262.6563 Q575.3351,263.7188 575.3351,265.8125 Q575.3351,267.9063 576.0226,268.9844 Q576.7101,270.0469 578.0539,270.0469 Q578.6789,270.0469 579.2726,269.7813 Q579.8664,269.5 580.4914,268.9219 L580.4914,271.6406 Z " fill="#000000"/><text fill="#000000" font-family="sans-serif" font-size="14" lengthAdjust="spacing" textLength="58.4541" x="598.0226" y="270.8467">Network</text><line style="stroke:#181818;stroke-width:0.5;" x1="363.57" x2="858.4294" y1="282" y2="282"/><g data-visibility-modifier="PROTECTED_FIELD"><polygon fill="none" points="373.57,290.6484,377.57,294.6484,373.57,298.6484,369.57,294.6484" style="stroke:#B38D22;stroke-width:1;"/></g><text fill="#000000" font-family="sans-serif" font-size="14" lengthAdjust="spacing" textLength="78.9619" x="382.57" y="298.9951">_nodes: list</text><g data-visibility-modifier="PROTECTED_FIELD"><polygon fill="none" points="373.57,306.9453,377.57,310.9453,373.57,314.9453,369.57,310.9453" style="stroke:#B38D22;stroke-width:1;"/></g><text fill="#000000" font-family="sans-serif" font-size="14" lengthAdjust="spacing" textLength="79.0234" x="382.57" y="315.292">_edges: list</text><g data-visibility-modifier="PROTECTED_FIELD"><polygon fill="none" points="373.57,323.2422,377.57,327.2422,373.57,331.2422,369.57,327.2422" style="stroke:#B38D22;stroke-width:1;"/></g><text fill="#000000" font-family="sans-serif" font-size="14" lengthAdjust="spacing" textLength="100.0918" x="382.57" y="331.5889">_graph: Graph</text><g data-visibility-modifier="PROTECTED_FIELD"><polygon fill="none" points="373.57,339.5391,377.57,343.5391,373.57,347.5391,369.57,343.5391" style="stroke:#B38D22;stroke-width:1;"/></g><text fill="#000000" font-family="sans-serif" font-size="14" lengthAdjust="spacing" textLength="127.5381" x="382.57" y="347.8857">_digraph: DiGraph</text><line style="stroke:#181818;stroke-width:1;stroke-dasharray:1,2;" x1="363.57" x2="858.4294" y1="355.1875" y2="355.1875"/><g data-visibility-modifier="PUBLIC_METHOD"><ellipse cx="373.57" cy="368.8359" fill="#84BE84" rx="3" ry="3" style="stroke:#038048;stroke-width:1;"/></g><text fill="#000000" font-family="sans-serif" font-size="14" lengthAdjust="spacing" textLength="129.3701" x="382.57" y="372.1826">digraph (property)</text><g data-visibility-modifier="PUBLIC_METHOD"><ellipse cx="373.57" cy="385.1328" fill="#84BE84" rx="3" ry="3" style="stroke:#038048;stroke-width:1;"/></g><text fill="#000000" font-family="sans-serif" font-size="14" lengthAdjust="spacing" textLength="117.9063" x="382.57" y="388.4795">edges (property)</text><g data-visibility-modifier="PUBLIC_METHOD"><ellipse cx="373.57" cy="401.4297" fill="#84BE84" rx="3" ry="3" style="stroke:#038048;stroke-width:1;"/></g><text fill="#000000" font-family="sans-serif" font-size="14" lengthAdjust="spacing" textLength="116.5938" x="382.57" y="404.7764">graph (property)</text><g data-visibility-modifier="PUBLIC_METHOD"><ellipse cx="373.57" cy="417.7266" fill="#84BE84" rx="3" ry="3" style="stroke:#038048;stroke-width:1;"/></g><text fill="#000000" font-family="sans-serif" font-size="14" lengthAdjust="spacing" textLength="117.8447" x="382.57" y="421.0732">nodes (property)</text><line style="stroke:#181818;stroke-width:0.5;" x1="363.57" x2="858.4294" y1="428.375" y2="428.375"/><g data-visibility-modifier="PROTECTED_METHOD"><polygon fill="#FFFF44" points="373.57,437.0234,377.57,441.0234,373.57,445.0234,369.57,441.0234" style="stroke:#B38D22;stroke-width:1;"/></g><text fill="#000000" font-family="sans-serif" font-size="14" lengthAdjust="spacing" textLength="219.3105" x="382.57" y="445.3701">_remove(self, network_objects)</text><g data-visibility-modifier="PROTECTED_METHOD"><polygon fill="#FFFF44" points="373.57,453.3203,377.57,457.3203,373.57,461.3203,369.57,457.3203" style="stroke:#B38D22;stroke-width:1;"/></g><text fill="#000000" font-family="sans-serif" font-size="14" lengthAdjust="spacing" textLength="133.6904" x="382.57" y="461.667">_reset_graphs(self)</text><g data-visibility-modifier="PROTECTED_METHOD"><polygon fill="#FFFF44" points="373.57,469.6172,377.57,473.6172,373.57,477.6172,369.57,473.6172" style="stroke:#B38D22;stroke-width:1;"/></g><text fill="#000000" font-family="sans-serif" font-size="14" lengthAdjust="spacing" textLength="195.5762" x="382.57" y="477.9639">_to_networkx(self, directed)</text><g data-visibility-modifier="PUBLIC_METHOD"><ellipse cx="373.57" cy="490.9141" fill="#84BE84" rx="3" ry="3" style="stroke:#038048;stroke-width:1;"/></g><text fill="#000000" font-family="sans-serif" font-size="14" lengthAdjust="spacing" textLength="273.3145" x="382.57" y="494.2607">add_edges(self, edges, existing_mode)</text><g data-visibility-modifier="PUBLIC_METHOD"><ellipse cx="373.57" cy="507.2109" fill="#84BE84" rx="3" ry="3" style="stroke:#038048;stroke-width:1;"/></g><text fill="#000000" font-family="sans-serif" font-size="14" lengthAdjust="spacing" textLength="172.0537" x="382.57" y="510.5576">add_network(self, other)</text><g data-visibility-modifier="PUBLIC_METHOD"><ellipse cx="373.57" cy="523.5078" fill="#84BE84" rx="3" ry="3" style="stroke:#038048;stroke-width:1;"/></g><text fill="#000000" font-family="sans-serif" font-size="14" lengthAdjust="spacing" textLength="273.1914" x="382.57" y="526.8545">add_nodes(self, nodes, existing_mode)</text><g data-visibility-modifier="PUBLIC_METHOD"><ellipse cx="373.57" cy="539.8047" fill="#84BE84" rx="3" ry="3" style="stroke:#038048;stroke-width:1;"/></g><text fill="#000000" font-family="sans-serif" font-size="14" lengthAdjust="spacing" textLength="124.2637" x="382.57" y="543.1514">attachments(self)</text><g data-visibility-modifier="PUBLIC_METHOD"><ellipse cx="373.57" cy="556.1016" fill="#84BE84" rx="3" ry="3" style="stroke:#038048;stroke-width:1;"/></g><text fill="#000000" font-family="sans-serif" font-size="14" lengthAdjust="spacing" textLength="263.9902" x="382.57" y="559.4482">categorize_edges_by_nodecount(self)</text><g data-visibility-modifier="PUBLIC_METHOD"><ellipse cx="373.57" cy="572.3984" fill="#84BE84" rx="3" ry="3" style="stroke:#038048;stroke-width:1;"/></g><text fill="#000000" font-family="sans-serif" font-size="14" lengthAdjust="spacing" textLength="143.8965" x="382.57" y="575.7451">clear_partitions(self)</text><g data-visibility-modifier="PUBLIC_METHOD"><ellipse cx="373.57" cy="588.6953" fill="#84BE84" rx="3" ry="3" style="stroke:#038048;stroke-width:1;"/></g><text fill="#000000" font-family="sans-serif" font-size="14" lengthAdjust="spacing" textLength="173.9336" x="382.57" y="592.042">connectivity_matrix(self)</text><g data-visibility-modifier="PUBLIC_METHOD"><ellipse cx="373.57" cy="604.9922" fill="#84BE84" rx="3" ry="3" style="stroke:#038048;stroke-width:1;"/></g><text fill="#000000" font-family="sans-serif" font-size="14" lengthAdjust="spacing" textLength="324.2695" x="382.57" y="608.3389">detach(self, objects, edge_mode, node_mode)</text><g data-visibility-modifier="PUBLIC_METHOD"><ellipse cx="373.57" cy="621.2891" fill="#84BE84" rx="3" ry="3" style="stroke:#038048;stroke-width:1;"/></g><text fill="#000000" font-family="sans-serif" font-size="14" lengthAdjust="spacing" textLength="226.0576" x="382.57" y="624.6357">doublets(self, respect_direction)</text><g data-visibility-modifier="PUBLIC_METHOD"><ellipse cx="373.57" cy="637.5859" fill="#84BE84" rx="3" ry="3" style="stroke:#038048;stroke-width:1;"/></g><text fill="#000000" font-family="sans-serif" font-size="14" lengthAdjust="spacing" textLength="144.3613" x="382.57" y="640.9326">edge_partitions(self)</text><g data-visibility-modifier="PUBLIC_METHOD"><ellipse cx="373.57" cy="653.8828" fill="#84BE84" rx="3" ry="3" style="stroke:#038048;stroke-width:1;"/></g><text fill="#000000" font-family="sans-serif" font-size="14" lengthAdjust="spacing" textLength="348.8105" x="382.57" y="657.2295">get_attachments_of_type(self, attachment_types)</text><g data-visibility-modifier="PUBLIC_METHOD"><ellipse cx="373.57" cy="670.1797" fill="#84BE84" rx="3" ry="3" style="stroke:#038048;stroke-width:1;"/></g><text fill="#000000" font-family="sans-serif" font-size="14" lengthAdjust="spacing" textLength="260.8389" x="382.57" y="673.5264">get_by_partition(self, partition, what)</text><g data-visibility-modifier="PUBLIC_METHOD"><ellipse cx="373.57" cy="686.4766" fill="#84BE84" rx="3" ry="3" style="stroke:#038048;stroke-width:1;"/></g><text fill="#000000" font-family="sans-serif" font-size="14" lengthAdjust="spacing" textLength="315.916" x="382.57" y="689.8232">get_closest_node_to_point(self, point, nodes)</text><g data-visibility-modifier="PUBLIC_METHOD"><ellipse cx="373.57" cy="702.7734" fill="#84BE84" rx="3" ry="3" style="stroke:#038048;stroke-width:1;"/></g><text fill="#000000" font-family="sans-serif" font-size="14" lengthAdjust="spacing" textLength="329" x="382.57" y="706.1201">get_closest_node_to_shape(self, shape, nodes)</text><g data-visibility-modifier="PUBLIC_METHOD"><ellipse cx="373.57" cy="719.0703" fill="#84BE84" rx="3" ry="3" style="stroke:#038048;stroke-width:1;"/></g><text fill="#000000" font-family="sans-serif" font-size="14" lengthAdjust="spacing" textLength="282.5977" x="382.57" y="722.417">get_common_nodes_from_edges(edges)</text><g data-visibility-modifier="PUBLIC_METHOD"><ellipse cx="373.57" cy="735.3672" fill="#84BE84" rx="3" ry="3" style="stroke:#038048;stroke-width:1;"/></g><text fill="#000000" font-family="sans-serif" font-size="14" lengthAdjust="spacing" textLength="166.2637" x="382.57" y="738.7139">get_edge_by_id(self, id)</text><g data-visibility-modifier="PUBLIC_METHOD"><ellipse cx="373.57" cy="751.6641" fill="#84BE84" rx="3" ry="3" style="stroke:#038048;stroke-width:1;"/></g><text fill="#000000" font-family="sans-serif" font-size="14" lengthAdjust="spacing" textLength="470.8594" x="382.57" y="755.0107">get_edges_by_node_pair(self, nodes, respect_direction, use_graph)</text><g data-visibility-modifier="PUBLIC_METHOD"><ellipse cx="373.57" cy="767.9609" fill="#84BE84" rx="3" ry="3" style="stroke:#038048;stroke-width:1;"/></g><text fill="#000000" font-family="sans-serif" font-size="14" lengthAdjust="spacing" textLength="384.6924" x="382.57" y="771.3076">get_edges_by_nodes(self, nodes, direction, use_graph)</text><g data-visibility-modifier="PUBLIC_METHOD"><ellipse cx="373.57" cy="784.2578" fill="#84BE84" rx="3" ry="3" style="stroke:#038048;stroke-width:1;"/></g><text fill="#000000" font-family="sans-serif" font-size="14" lengthAdjust="spacing" textLength="221.9219" x="382.57" y="787.6045">get_edges_of_components(self)</text><g data-visibility-modifier="PUBLIC_METHOD"><ellipse cx="373.57" cy="800.5547" fill="#84BE84" rx="3" ry="3" style="stroke:#038048;stroke-width:1;"/></g><text fill="#000000" font-family="sans-serif" font-size="14" lengthAdjust="spacing" textLength="193.1563" x="382.57" y="803.9014">get_empty_end_nodes(self)</text><g data-visibility-modifier="PUBLIC_METHOD"><ellipse cx="373.57" cy="816.8516" fill="#84BE84" rx="3" ry="3" style="stroke:#038048;stroke-width:1;"/></g><text fill="#000000" font-family="sans-serif" font-size="14" lengthAdjust="spacing" textLength="141.2441" x="382.57" y="820.1982">get_end_nodes(self)</text><g data-visibility-modifier="PUBLIC_METHOD"><ellipse cx="373.57" cy="833.1484" fill="#84BE84" rx="3" ry="3" style="stroke:#038048;stroke-width:1;"/></g><text fill="#000000" font-family="sans-serif" font-size="14" lengthAdjust="spacing" textLength="303.29" x="382.57" y="836.4951">get_node_by_attachment(self, attachment)</text><g data-visibility-modifier="PUBLIC_METHOD"><ellipse cx="373.57" cy="849.4453" fill="#84BE84" rx="3" ry="3" style="stroke:#038048;stroke-width:1;"/></g><text fill="#000000" font-family="sans-serif" font-size="14" lengthAdjust="spacing" textLength="247.8643" x="382.57" y="852.792">get_node_by_id(self, id, use_graph)</text><g data-visibility-modifier="PUBLIC_METHOD"><ellipse cx="373.57" cy="865.7422" fill="#84BE84" rx="3" ry="3" style="stroke:#038048;stroke-width:1;"/></g><text fill="#000000" font-family="sans-serif" font-size="14" lengthAdjust="spacing" textLength="291.8604" x="382.57" y="869.0889">get_node_ids_by_edge_ids(self, edge_ids)</text><g data-visibility-modifier="PUBLIC_METHOD"><ellipse cx="373.57" cy="882.0391" fill="#84BE84" rx="3" ry="3" style="stroke:#038048;stroke-width:1;"/></g><text fill="#000000" font-family="sans-serif" font-size="14" lengthAdjust="spacing" textLength="401.7207" x="382.57" y="885.3857">get_nodes_by_attachment_types(self, attachment_types)</text><g data-visibility-modifier="PUBLIC_METHOD"><ellipse cx="373.57" cy="898.3359" fill="#84BE84" rx="3" ry="3" style="stroke:#038048;stroke-width:1;"/></g><text fill="#000000" font-family="sans-serif" font-size="14" lengthAdjust="spacing" textLength="325.1719" x="382.57" y="901.6826">get_nodes_by_attachments(self, attachments)</text><g data-visibility-modifier="PUBLIC_METHOD"><ellipse cx="373.57" cy="914.6328" fill="#84BE84" rx="3" ry="3" style="stroke:#038048;stroke-width:1;"/></g><text fill="#000000" font-family="sans-serif" font-size="14" lengthAdjust="spacing" textLength="220.4111" x="382.57" y="917.9795">get_nodes_from_all_edges(self)</text><g data-visibility-modifier="PUBLIC_METHOD"><ellipse cx="373.57" cy="930.9297" fill="#84BE84" rx="3" ry="3" style="stroke:#038048;stroke-width:1;"/></g><text fill="#000000" font-family="sans-serif" font-size="14" lengthAdjust="spacing" textLength="214.6211" x="382.57" y="934.2764">get_nodes_from_edges(edges)</text><g data-visibility-modifier="PUBLIC_METHOD"><ellipse cx="373.57" cy="947.2266" fill="#84BE84" rx="3" ry="3" style="stroke:#038048;stroke-width:1;"/></g><text fill="#000000" font-family="sans-serif" font-size="14" lengthAdjust="spacing" textLength="271.8105" x="382.57" y="950.5732">get_nodes_of_component(self, anchor)</text><g data-visibility-modifier="PUBLIC_METHOD"><ellipse cx="373.57" cy="963.5234" fill="#84BE84" rx="3" ry="3" style="stroke:#038048;stroke-width:1;"/></g><text fill="#000000" font-family="sans-serif" font-size="14" lengthAdjust="spacing" textLength="221.8604" x="382.57" y="966.8701">get_nodes_of_components(self)</text><g data-visibility-modifier="PUBLIC_METHOD"><ellipse cx="373.57" cy="979.8203" fill="#84BE84" rx="3" ry="3" style="stroke:#038048;stroke-width:1;"/></g><text fill="#000000" font-family="sans-serif" font-size="14" lengthAdjust="spacing" textLength="325.9443" x="382.57" y="983.167">get_nodes_with_degree(self, degree, directed)</text><g data-visibility-modifier="PUBLIC_METHOD"><ellipse cx="373.57" cy="996.1172" fill="#84BE84" rx="3" ry="3" style="stroke:#038048;stroke-width:1;"/></g><text fill="#000000" font-family="sans-serif" font-size="14" lengthAdjust="spacing" textLength="259.9229" x="382.57" y="999.4639">is_continuous(self, allowed_distance)</text><g data-visibility-modifier="PUBLIC_METHOD"><ellipse cx="373.57" cy="1012.4141" fill="#84BE84" rx="3" ry="3" style="stroke:#038048;stroke-width:1;"/></g><text fill="#000000" font-family="sans-serif" font-size="14" lengthAdjust="spacing" textLength="271.8584" x="382.57" y="1015.7607">is_doublet_free(self, respect_direction)</text><g data-visibility-modifier="PUBLIC_METHOD"><ellipse cx="373.57" cy="1028.7109" fill="#84BE84" rx="3" ry="3" style="stroke:#038048;stroke-width:1;"/></g><text fill="#000000" font-family="sans-serif" font-size="14" lengthAdjust="spacing" textLength="154.2256" x="382.57" y="1032.0576">is_edgecomplete(self)</text><g data-visibility-modifier="PUBLIC_METHOD"><ellipse cx="373.57" cy="1045.0078" fill="#84BE84" rx="3" ry="3" style="stroke:#038048;stroke-width:1;"/></g><text fill="#000000" font-family="sans-serif" font-size="14" lengthAdjust="spacing" textLength="124.9814" x="382.57" y="1048.3545">is_geometric(self)</text><g data-visibility-modifier="PUBLIC_METHOD"><ellipse cx="373.57" cy="1061.3047" fill="#84BE84" rx="3" ry="3" style="stroke:#038048;stroke-width:1;"/></g><text fill="#000000" font-family="sans-serif" font-size="14" lengthAdjust="spacing" textLength="96.0928" x="382.57" y="1064.6514">is_linked(self)</text><g data-visibility-modifier="PUBLIC_METHOD"><ellipse cx="373.57" cy="1077.6016" fill="#84BE84" rx="3" ry="3" style="stroke:#038048;stroke-width:1;"/></g><text fill="#000000" font-family="sans-serif" font-size="14" lengthAdjust="spacing" textLength="118.6514" x="382.57" y="1080.9482">is_loop_free(self)</text><g data-visibility-modifier="PUBLIC_METHOD"><ellipse cx="373.57" cy="1093.8984" fill="#84BE84" rx="3" ry="3" style="stroke:#038048;stroke-width:1;"/></g><text fill="#000000" font-family="sans-serif" font-size="14" lengthAdjust="spacing" textLength="98.3965" x="382.57" y="1097.2451">is_planar(self)</text><g data-visibility-modifier="PUBLIC_METHOD"><ellipse cx="373.57" cy="1110.1953" fill="#84BE84" rx="3" ry="3" style="stroke:#038048;stroke-width:1;"/></g><text fill="#000000" font-family="sans-serif" font-size="14" lengthAdjust="spacing" textLength="87.3633" x="382.57" y="1113.542">is_valid(self)</text><g data-visibility-modifier="PUBLIC_METHOD"><ellipse cx="373.57" cy="1126.4922" fill="#84BE84" rx="3" ry="3" style="stroke:#038048;stroke-width:1;"/></g><text fill="#000000" font-family="sans-serif" font-size="14" lengthAdjust="spacing" textLength="142.9395" x="382.57" y="1129.8389">length(self, missing)</text><g data-visibility-modifier="PUBLIC_METHOD"><ellipse cx="373.57" cy="1142.7891" fill="#84BE84" rx="3" ry="3" style="stroke:#038048;stroke-width:1;"/></g><text fill="#000000" font-family="sans-serif" font-size="14" lengthAdjust="spacing" textLength="72.8506" x="382.57" y="1146.1357">loops(self)</text><g data-visibility-modifier="PUBLIC_METHOD"><ellipse cx="373.57" cy="1159.0859" fill="#84BE84" rx="3" ry="3" style="stroke:#038048;stroke-width:1;"/></g><text fill="#000000" font-family="sans-serif" font-size="14" lengthAdjust="spacing" textLength="138.0176" x="382.57" y="1162.4326">n_components(self)</text><g data-visibility-modifier="PUBLIC_METHOD"><ellipse cx="373.57" cy="1175.3828" fill="#84BE84" rx="3" ry="3" style="stroke:#038048;stroke-width:1;"/></g><text fill="#000000" font-family="sans-serif" font-size="14" lengthAdjust="spacing" textLength="161.7314" x="382.57" y="1178.7295">n_cycles(self, directed)</text><g data-visibility-modifier="PUBLIC_METHOD"><ellipse cx="373.57" cy="1191.6797" fill="#84BE84" rx="3" ry="3" style="stroke:#038048;stroke-width:1;"/></g><text fill="#000000" font-family="sans-serif" font-size="14" lengthAdjust="spacing" textLength="144.2998" x="382.57" y="1195.0264">node_partitions(self)</text><g data-visibility-modifier="PUBLIC_METHOD"><ellipse cx="373.57" cy="1207.9766" fill="#84BE84" rx="3" ry="3" style="stroke:#038048;stroke-width:1;"/></g><text fill="#000000" font-family="sans-serif" font-size="14" lengthAdjust="spacing" textLength="102.3613" x="382.57" y="1211.3232">partitions(self)</text><g data-visibility-modifier="PUBLIC_METHOD"><ellipse cx="373.57" cy="1224.2734" fill="#84BE84" rx="3" ry="3" style="stroke:#038048;stroke-width:1;"/></g><text fill="#000000" font-family="sans-serif" font-size="14" lengthAdjust="spacing" textLength="302.4697" x="382.57" y="1227.6201">pop(self, objects, edge_mode, node_mode)</text><g data-visibility-modifier="PUBLIC_METHOD"><ellipse cx="373.57" cy="1240.5703" fill="#84BE84" rx="3" ry="3" style="stroke:#038048;stroke-width:1;"/></g><text fill="#000000" font-family="sans-serif" font-size="14" lengthAdjust="spacing" textLength="361.8125" x="382.57" y="1243.917">remove_edges(self, edges, node_mode, use_graph)</text><g data-visibility-modifier="PUBLIC_METHOD"><ellipse cx="373.57" cy="1256.8672" fill="#84BE84" rx="3" ry="3" style="stroke:#038048;stroke-width:1;"/></g><text fill="#000000" font-family="sans-serif" font-size="14" lengthAdjust="spacing" textLength="280.0889" x="382.57" y="1260.2139">remove_nodes(self, nodes, edge_mode)</text><g data-visibility-modifier="PUBLIC_METHOD"><ellipse cx="373.57" cy="1273.1641" fill="#84BE84" rx="3" ry="3" style="stroke:#038048;stroke-width:1;"/></g><text fill="#000000" font-family="sans-serif" font-size="14" lengthAdjust="spacing" textLength="157.5342" x="382.57" y="1276.5107">set_edges(self, edges)</text><g data-visibility-modifier="PUBLIC_METHOD"><ellipse cx="373.57" cy="1289.4609" fill="#84BE84" rx="3" ry="3" style="stroke:#038048;stroke-width:1;"/></g><text fill="#000000" font-family="sans-serif" font-size="14" lengthAdjust="spacing" textLength="157.4111" x="382.57" y="1292.8076">set_nodes(self, nodes)</text><g data-visibility-modifier="PUBLIC_METHOD"><ellipse cx="373.57" cy="1305.7578" fill="#84BE84" rx="3" ry="3" style="stroke:#038048;stroke-width:1;"/></g><text fill="#000000" font-family="sans-serif" font-size="14" lengthAdjust="spacing" textLength="198.666" x="382.57" y="1309.1045">to_edge_gdf(self, attributes)</text><g data-visibility-modifier="PUBLIC_METHOD"><ellipse cx="373.57" cy="1322.0547" fill="#84BE84" rx="3" ry="3" style="stroke:#038048;stroke-width:1;"/></g><text fill="#000000" font-family="sans-serif" font-size="14" lengthAdjust="spacing" textLength="198.6045" x="382.57" y="1325.4014">to_node_gdf(self, attributes)</text></g><!--class Node--><g class="entity" data-qualified-name="odeon.model.network.Node" data-source-line="98" id="ent0014"><rect fill="#F1F1F1" height="137.4844" rx="2.5" ry="2.5" style="stroke:#181818;stroke-width:0.5;" width="236.0752" x="326.96" y="1433.44"/><ellipse cx="422.4786" cy="1449.44" fill="#ADD1B2" rx="11" ry="11" style="stroke:#181818;stroke-width:1;"/><path d="M425.4473,1455.0806 Q424.8692,1455.3775 424.2286,1455.5181 Q423.5879,1455.6744 422.8848,1455.6744 Q420.3848,1455.6744 419.0567,1454.0338 Q417.7442,1452.3775 417.7442,1449.2525 Q417.7442,1446.1275 419.0567,1444.4713 Q420.3848,1442.815 422.8848,1442.815 Q423.5879,1442.815 424.2286,1442.9713 Q424.8848,1443.1275 425.4473,1443.4244 L425.4473,1446.1431 Q424.8223,1445.565 424.2286,1445.2994 Q423.6348,1445.0181 423.0098,1445.0181 Q421.6661,1445.0181 420.9786,1446.0963 Q420.2911,1447.1588 420.2911,1449.2525 Q420.2911,1451.3463 420.9786,1452.4244 Q421.6661,1453.4869 423.0098,1453.4869 Q423.6348,1453.4869 424.2286,1453.2213 Q424.8223,1452.94 425.4473,1452.3619 L425.4473,1455.0806 Z " fill="#000000"/><text fill="#000000" font-family="sans-serif" font-size="14" lengthAdjust="spacing" textLength="36.5381" x="442.9786" y="1454.2867">Node</text><line style="stroke:#181818;stroke-width:0.5;" x1="327.96" x2="562.0352" y1="1465.44" y2="1465.44"/><g data-visibility-modifier="PROTECTED_FIELD"><polygon fill="none" points="337.96,1474.0884,341.96,1478.0884,337.96,1482.0884,333.96,1478.0884" style="stroke:#B38D22;stroke-width:1;"/></g><text fill="#000000" font-family="sans-serif" font-size="14" lengthAdjust="spacing" textLength="193.2246" x="346.96" y="1482.4351">_attachment: Object | None</text><g data-visibility-modifier="PROTECTED_FIELD"><polygon fill="none" points="337.96,1490.3853,341.96,1494.3853,337.96,1498.3853,333.96,1494.3853" style="stroke:#B38D22;stroke-width:1;"/></g><text fill="#000000" font-family="sans-serif" font-size="14" lengthAdjust="spacing" textLength="162.5586" x="346.96" y="1498.732">_elevation: float | None</text><line style="stroke:#181818;stroke-width:1;stroke-dasharray:1,2;" x1="327.96" x2="562.0352" y1="1506.0338" y2="1506.0338"/><g data-visibility-modifier="PUBLIC_METHOD"><ellipse cx="337.96" cy="1519.6822" fill="#84BE84" rx="3" ry="3" style="stroke:#038048;stroke-width:1;"/></g><text fill="#000000" font-family="sans-serif" font-size="14" lengthAdjust="spacing" textLength="156.9326" x="346.96" y="1523.0289">attachment (property)</text><g data-visibility-modifier="PUBLIC_METHOD"><ellipse cx="337.96" cy="1535.9791" fill="#84BE84" rx="3" ry="3" style="stroke:#038048;stroke-width:1;"/></g><text fill="#000000" font-family="sans-serif" font-size="14" lengthAdjust="spacing" textLength="140.4102" x="346.96" y="1539.3257">elevation (property)</text><line style="stroke:#181818;stroke-width:0.5;" x1="327.96" x2="562.0352" y1="1546.6275" y2="1546.6275"/><g data-visibility-modifier="PUBLIC_METHOD"><ellipse cx="337.96" cy="1560.2759" fill="#84BE84" rx="3" ry="3" style="stroke:#038048;stroke-width:1;"/></g><text fill="#000000" font-family="sans-serif" font-size="14" lengthAdjust="spacing" textLength="210.0752" x="346.96" y="1563.6226">copy(self, deep_custom_data)</text></g><!--class Object--><g class="entity" data-qualified-name="odeon.model.base.Object" data-source-line="85" id="ent0009"><rect fill="#F1F1F1" height="48" rx="2.5" ry="2.5" style="stroke:#181818;stroke-width:0.5;" width="77.5957" x="440.2" y="127"/><ellipse cx="455.2" cy="143" fill="#ADD1B2" rx="11" ry="11" style="stroke:#181818;stroke-width:1;"/><path d="M458.1688,148.6406 Q457.5906,148.9375 456.95,149.0781 Q456.3094,149.2344 455.6063,149.2344 Q453.1063,149.2344 451.7781,147.5938 Q450.4656,145.9375 450.4656,142.8125 Q450.4656,139.6875 451.7781,138.0313 Q453.1063,136.375 455.6063,136.375 Q456.3094,136.375 456.95,136.5313 Q457.6063,136.6875 458.1688,136.9844 L458.1688,139.7031 Q457.5438,139.125 456.95,138.8594 Q456.3563,138.5781 455.7313,138.5781 Q454.3875,138.5781 453.7,139.6563 Q453.0125,140.7188 453.0125,142.8125 Q453.0125,144.9063 453.7,145.9844 Q454.3875,147.0469 455.7313,147.0469 Q456.3563,147.0469 456.95,146.7813 Q457.5438,146.5 458.1688,145.9219 L458.1688,148.6406 Z " fill="#000000"/><text fill="#000000" font-family="sans-serif" font-size="14" lengthAdjust="spacing" textLength="45.5957" x="469.2" y="147.8467">Object</text><line style="stroke:#181818;stroke-width:0.5;" x1="441.2" x2="516.7957" y1="159" y2="159"/><line style="stroke:#181818;stroke-width:0.5;" x1="441.2" x2="516.7957" y1="167" y2="167"/></g><!--class GeometryObject--><g class="entity" data-qualified-name="odeon.model.base.GeometryObject" data-source-line="97" id="ent0012"><rect fill="#F1F1F1" height="48" rx="2.5" ry="2.5" style="stroke:#181818;stroke-width:0.5;" width="147.4043" x="257.3" y="127"/><ellipse cx="272.3" cy="143" fill="#ADD1B2" rx="11" ry="11" style="stroke:#181818;stroke-width:1;"/><path d="M275.2688,148.6406 Q274.6906,148.9375 274.05,149.0781 Q273.4094,149.2344 272.7063,149.2344 Q270.2063,149.2344 268.8781,147.5938 Q267.5656,145.9375 267.5656,142.8125 Q267.5656,139.6875 268.8781,138.0313 Q270.2063,136.375 272.7063,136.375 Q273.4094,136.375 274.05,136.5313 Q274.7063,136.6875 275.2688,136.9844 L275.2688,139.7031 Q274.6438,139.125 274.05,138.8594 Q273.4563,138.5781 272.8313,138.5781 Q271.4875,138.5781 270.8,139.6563 Q270.1125,140.7188 270.1125,142.8125 Q270.1125,144.9063 270.8,145.9844 Q271.4875,147.0469 272.8313,147.0469 Q273.4563,147.0469 274.05,146.7813 Q274.6438,146.5 275.2688,145.9219 L275.2688,148.6406 Z " fill="#000000"/><text fill="#000000" font-family="sans-serif" font-size="14" lengthAdjust="spacing" textLength="115.4043" x="286.3" y="147.8467">GeometryObject</text><line style="stroke:#181818;stroke-width:0.5;" x1="258.3" x2="403.7043" y1="159" y2="159"/><line style="stroke:#181818;stroke-width:0.5;" x1="258.3" x2="403.7043" y1="167" y2="167"/></g><!--reverse link NetworkObject to Edge--><g class="link" data-entity-1="ent0006" data-entity-2="ent0002" data-link-type="extension" data-source-line="17" id="lnk7"><path codeLine="17" d="M197.2651,894.7974 C195.0851,1023.4674 191.24,1250.58 188.84,1392.41" fill="none" id="NetworkObject-backto-Edge" style="stroke:#181818;stroke-width:1;"/><polygon fill="none" points="197.57,876.8,191.2659,894.6958,203.2642,894.8991,197.57,876.8" style="stroke:#181818;stroke-width:1;"/></g><!--reverse link Object to Network--><g class="link" data-entity-1="ent0009" data-entity-2="ent0008" data-link-type="extension" data-source-line="85" id="lnk11"><path codeLine="85" d="M487.4966,193.0968 C491.0466,210.2568 492.71,218.31 499.18,249.59" fill="none" id="Object-backto-Network" style="stroke:#181818;stroke-width:1;"/><polygon fill="none" points="483.85,175.47,481.621,194.3123,493.3721,191.8812,483.85,175.47" style="stroke:#181818;stroke-width:1;"/></g><!--reverse link GeometryObject to NetworkObject--><g class="link" data-entity-1="ent0012" data-entity-2="ent0006" data-link-type="extension" data-source-line="97" id="lnk13"><path codeLine="97" d="M322.5042,193.0969 C304.8242,278.5769 246.99,558.25 216.47,705.86" fill="none" id="GeometryObject-backto-NetworkObject" style="stroke:#181818;stroke-width:1;"/><polygon fill="none" points="326.15,175.47,316.6286,191.8816,328.3798,194.3122,326.15,175.47" style="stroke:#181818;stroke-width:1;"/></g><!--reverse link NetworkObject to Node--><g class="link" data-entity-1="ent0006" data-entity-2="ent0014" data-link-type="extension" data-source-line="107" id="lnk15"><path codeLine="107" d="M217.8496,894.2785 C239.2596,1002.6185 279.47,1177.62 345,1332.7 C359.63,1367.32 380.26,1403.45 398.99,1433.33" fill="none" id="NetworkObject-backto-Node" style="stroke:#181818;stroke-width:1;"/><polygon fill="none" points="214.36,876.62,211.9635,895.4417,223.7358,893.1153,214.36,876.62" style="stroke:#181818;stroke-width:1;"/></g><?plantuml-src fLPBRjim4Dth50AoQ88aFe3HPOliqWCK1K5BOuajHHBas8xRzEuT_lInw2H0DxRuviEPn-4CFzMw1Qqs0_t9ZG8yQVkhgXh9dIk9Db_R3ke_rGrJ13FKs_gPFl9wR_Km8X9KX_sstalDiTfiglk8rBV6QWCMptVL_MYsHb6lC3T76Alk6pqCMeNDRnt8_KEjiGTxvoLAGOFGNk3Q6Eq4mjm6U-7kghzLAU7d-FzjzvEyrPzV7n-lyl86RSdBo9pRrb8uf1MGuRJgB3T4sPF_esKh4l15HCYpcC05ES7B0bdhb0YyOHO6VSn4f72P3jaI9rxk06DSBcXv43LBgY_9iXKsi4txyBQDMILH-AQ_5qfHg8vvPf9QSd9nH47YWyrH-U-20qJUz0Cep87TDnoXqrRyXXW1svs3fqOV58vA4hXbXbiKABIQZ6F5YAF0CniuMl6IHItuhNAOaPoOM0WcXfZZQlLX9m5pz4IW8NqM6Q8Dqt4L8kY8wLbMJEyPdaq-d4aIK9SCACNHKz8Srm_rgUUO51kf7JZCDvSPBH8fPE6_4zDNr5tFnr32zuNwT1DTkD2f1i9lqWbfKxmYNqhHpYJZQL4-mYxFVaNYGtrm4CkovEAYTDur8wOf0QFLl9g2U31K3Q3c5Pb59J34Jq5CXxKwlGlD6Hdhw8AIQ4DUWJtwdbqhlvnfkkNEiKpUhfw2sTfYgHmEbqivk-Hh-Vhmet1ETDv7DRssLxKAEvm4zgo5pa8koBXOj27Xo8UYXd7GXp4bAVK9MYeZXxGjHBLqOIdmqL_fqfAcpyS7HjgGmoAu0pq0zOjcXacXVgNXam2jpRH5n8paYjiPSEHIZ4PnNAQ81k4SDJyFawEH55KWYh0pDJctRitfTbtsdGAYpGUxNPmVfOO_QYtBEXcK6dpUWRHSlffpdmbVcH9E3IgOT-r-AbyhTWVCuX1EMRoS_3lkOFFUl4y3_VsHdnpvmJ_HlAqfZ-yExOymqPF9ObfFobTWvfyCgt4U-5bCLLgbcNfrJ4odSb492vq2Iq-nyCyVP2kglSKPhG9LK-_PridvAxqhbNzNWeGZzo6bfsMMU2Odk-NpA9kitu_cFBOGCAmvEAJkrNBa__aWzAdy0m00?></g></svg>