<?plantuml 1.2026.2beta3?><svg xmlns="http://www.w3.org/2000/svg" xmlns:xlink="http://www.w3.org/1999/xlink" contentStyleType="text/css" data-diagram-type="CLASS" height="442px" preserveAspectRatio="none" style="width:542px;height:442px;background:#FFFFFF;" version="1.1" viewBox="0 0 542 442" width="542px" zoomAndPan="magnify"><defs/><g><!--cluster odeon--><g class="cluster" data-qualified-name="odeon" data-source-line="3" id="ent0003"><path d="M8.5,6 L58.2197,6 A3.75,3.75 0 0 1 60.7197,8.5 L67.7197,28.2969 L532.5,28.2969 A2.5,2.5 0 0 1 535,30.7969 L535,432.69 A2.5,2.5 0 0 1 532.5,435.19 L8.5,435.19 A2.5,2.5 0 0 1 6,432.69 L6,8.5 A2.5,2.5 0 0 1 8.5,6" fill="none" style="stroke:#000000;stroke-width:1.5;"/><line style="stroke:#000000;stroke-width:1.5;" x1="6" x2="67.7197" y1="28.2969" y2="28.2969"/><text fill="#000000" font-family="sans-serif" font-size="14" font-weight="bold" lengthAdjust="spacing" textLength="48.7197" x="10" y="20.9951">odeon</text></g><!--cluster model--><g class="cluster" data-qualified-name="odeon.model" data-source-line="3" id="ent0004"><path d="M32.5,49 L82.0215,49 A3.75,3.75 0 0 1 84.5215,51.5 L91.5215,71.2969 L508.5,71.2969 A2.5,2.5 0 0 1 511,73.7969 L511,408.69 A2.5,2.5 0 0 1 508.5,411.19 L32.5,411.19 A2.5,2.5 0 0 1 30,408.69 L30,51.5 A2.5,2.5 0 0 1 32.5,49" fill="none" style="stroke:#000000;stroke-width:1.5;"/><line style="stroke:#000000;stroke-width:1.5;" x1="30" x2="91.5215" y1="71.2969" y2="71.2969"/><text fill="#000000" font-family="sans-serif" font-size="14" font-weight="bold" lengthAdjust="spacing" textLength="48.5215" x="34" y="63.9951">model</text></g><!--cluster region--><g class="cluster" data-qualified-name="odeon.model.region" data-source-line="3" id="ent0005"><path d="M56.5,215 L108.3047,215 A3.75,3.75 0 0 1 110.8047,217.5 L117.8047,237.2969 L484.5,237.2969 A2.5,2.5 0 0 1 487,239.7969 L487,384.69 A2.5,2.5 0 0 1 484.5,387.19 L56.5,387.19 A2.5,2.5 0 0 1 54,384.69 L54,217.5 A2.5,2.5 0 0 1 56.5,215" fill="none" style="stroke:#000000;stroke-width:1.5;"/><line style="stroke:#000000;stroke-width:1.5;" x1="54" x2="117.8047" y1="237.2969" y2="237.2969"/><text fill="#000000" font-family="sans-serif" font-size="14" font-weight="bold" lengthAdjust="spacing" textLength="50.8047" x="58" y="229.9951">region</text></g><!--cluster base--><g class="cluster" data-qualified-name="odeon.model.base" data-source-line="7" id="ent0007"><path d="M194.5,92 L232.7969,92 A3.75,3.75 0 0 1 235.2969,94.5 L242.2969,114.2969 L321.5,114.2969 A2.5,2.5 0 0 1 324,116.7969 L324,188.5 A2.5,2.5 0 0 1 321.5,191 L194.5,191 A2.5,2.5 0 0 1 192,188.5 L192,94.5 A2.5,2.5 0 0 1 194.5,92" fill="none" style="stroke:#000000;stroke-width:1.5;"/><line style="stroke:#000000;stroke-width:1.5;" x1="192" x2="242.2969" y1="114.2969" y2="114.2969"/><text fill="#000000" font-family="sans-serif" font-size="14" font-weight="bold" lengthAdjust="spacing" textLength="37.2969" x="196" y="106.9951">base</text></g><!--class Region--><g class="entity" data-qualified-name="odeon.model.region.Region" data-source-line="3" id="ent0002"><rect fill="#F1F1F1" height="80.5938" rx="2.5" ry="2.5" style="stroke:#181818;stroke-width:0.5;" width="157.3799" x="70.31" y="270.3"/><ellipse cx="120.4721" cy="286.3" fill="#ADD1B2" rx="11" ry="11" style="stroke:#181818;stroke-width:1;"/><path d="M123.4409,291.9406 Q122.8627,292.2375 122.2221,292.3781 Q121.5815,292.5344 120.8784,292.5344 Q118.3784,292.5344 117.0502,290.8938 Q115.7377,289.2375 115.7377,286.1125 Q115.7377,282.9875 117.0502,281.3313 Q118.3784,279.675 120.8784,279.675 Q121.5815,279.675 122.2221,279.8313 Q122.8784,279.9875 123.4409,280.2844 L123.4409,283.0031 Q122.8159,282.425 122.2221,282.1594 Q121.6284,281.8781 121.0034,281.8781 Q119.6596,281.8781 118.9721,282.9563 Q118.2846,284.0188 118.2846,286.1125 Q118.2846,288.2063 118.9721,289.2844 Q119.6596,290.3469 121.0034,290.3469 Q121.6284,290.3469 122.2221,290.0813 Q122.8159,289.8 123.4409,289.2219 L123.4409,291.9406 Z " fill="#000000"/><text fill="#000000" font-family="sans-serif" font-size="14" lengthAdjust="spacing" textLength="48.5557" x="140.9721" y="291.1467">Region</text><line style="stroke:#181818;stroke-width:0.5;" x1="71.31" x2="226.6899" y1="302.3" y2="302.3"/><g data-visibility-modifier="PUBLIC_FIELD"><ellipse cx="81.31" cy="315.9484" fill="none" rx="3" ry="3" style="stroke:#038048;stroke-width:1;"/></g><text fill="#000000" font-family="sans-serif" font-size="14" lengthAdjust="spacing" textLength="131.3799" x="90.31" y="319.2951">boundary: Polygon</text><g data-visibility-modifier="PUBLIC_FIELD"><ellipse cx="81.31" cy="332.2453" fill="none" rx="3" ry="3" style="stroke:#038048;stroke-width:1;"/></g><text fill="#000000" font-family="sans-serif" font-size="14" lengthAdjust="spacing" textLength="69.3096" x="90.31" y="335.592">seed: Any</text><line style="stroke:#181818;stroke-width:0.5;" x1="71.31" x2="226.6899" y1="342.8938" y2="342.8938"/></g><!--class Segregation--><g class="entity" data-qualified-name="odeon.model.region.Segregation" data-source-line="8" id="ent0009"><rect fill="#F1F1F1" height="121.1875" rx="2.5" ry="2.5" style="stroke:#181818;stroke-width:0.5;" width="207.6582" x="263.17" y="250"/><ellipse cx="320.2296" cy="266" fill="#ADD1B2" rx="11" ry="11" style="stroke:#181818;stroke-width:1;"/><path d="M323.1983,271.6406 Q322.6202,271.9375 321.9796,272.0781 Q321.3389,272.2344 320.6358,272.2344 Q318.1358,272.2344 316.8077,270.5938 Q315.4952,268.9375 315.4952,265.8125 Q315.4952,262.6875 316.8077,261.0313 Q318.1358,259.375 320.6358,259.375 Q321.3389,259.375 321.9796,259.5313 Q322.6358,259.6875 323.1983,259.9844 L323.1983,262.7031 Q322.5733,262.125 321.9796,261.8594 Q321.3858,261.5781 320.7608,261.5781 Q319.4171,261.5781 318.7296,262.6563 Q318.0421,263.7188 318.0421,265.8125 Q318.0421,267.9063 318.7296,268.9844 Q319.4171,270.0469 320.7608,270.0469 Q321.3858,270.0469 321.9796,269.7813 Q322.5733,269.5 323.1983,268.9219 L323.1983,271.6406 Z " fill="#000000"/><text fill="#000000" font-family="sans-serif" font-size="14" lengthAdjust="spacing" textLength="85.0391" x="340.7296" y="270.8467">Segregation</text><line style="stroke:#181818;stroke-width:0.5;" x1="264.17" x2="469.8282" y1="282" y2="282"/><g data-visibility-modifier="PROTECTED_FIELD"><polygon fill="none" points="274.17,290.6484,278.17,294.6484,274.17,298.6484,270.17,294.6484" style="stroke:#B38D22;stroke-width:1;"/></g><text fill="#000000" font-family="sans-serif" font-size="14" lengthAdjust="spacing" textLength="88.6074" x="283.17" y="298.9951">_regions: list</text><line style="stroke:#181818;stroke-width:1;stroke-dasharray:1,2;" x1="264.17" x2="469.8282" y1="306.2969" y2="306.2969"/><g data-visibility-modifier="PUBLIC_METHOD"><ellipse cx="274.17" cy="319.9453" fill="#84BE84" rx="3" ry="3" style="stroke:#038048;stroke-width:1;"/></g><text fill="#000000" font-family="sans-serif" font-size="14" lengthAdjust="spacing" textLength="127.4902" x="283.17" y="323.292">regions (property)</text><line style="stroke:#181818;stroke-width:0.5;" x1="264.17" x2="469.8282" y1="330.5938" y2="330.5938"/><g data-visibility-modifier="PUBLIC_METHOD"><ellipse cx="274.17" cy="344.2422" fill="#84BE84" rx="3" ry="3" style="stroke:#038048;stroke-width:1;"/></g><text fill="#000000" font-family="sans-serif" font-size="14" lengthAdjust="spacing" textLength="181.6582" x="283.17" y="347.5889">add_regions(self, regions)</text><g data-visibility-modifier="PUBLIC_METHOD"><ellipse cx="274.17" cy="360.5391" fill="#84BE84" rx="3" ry="3" style="stroke:#038048;stroke-width:1;"/></g><text fill="#000000" font-family="sans-serif" font-size="14" lengthAdjust="spacing" textLength="79.4063" x="283.17" y="363.8857">to_gdf(self)</text></g><!--class Organizer--><g class="entity" data-qualified-name="odeon.model.base.Organizer" data-source-line="7" id="ent0006"><rect fill="#F1F1F1" height="48" rx="2.5" ry="2.5" style="stroke:#181818;stroke-width:0.5;" width="100.7217" x="207.64" y="127"/><ellipse cx="222.64" cy="143" fill="#ADD1B2" rx="11" ry="11" style="stroke:#181818;stroke-width:1;"/><path d="M225.6088,148.6406 Q225.0306,148.9375 224.39,149.0781 Q223.7494,149.2344 223.0463,149.2344 Q220.5463,149.2344 219.2181,147.5938 Q217.9056,145.9375 217.9056,142.8125 Q217.9056,139.6875 219.2181,138.0313 Q220.5463,136.375 223.0463,136.375 Q223.7494,136.375 224.39,136.5313 Q225.0463,136.6875 225.6088,136.9844 L225.6088,139.7031 Q224.9838,139.125 224.39,138.8594 Q223.7963,138.5781 223.1713,138.5781 Q221.8275,138.5781 221.14,139.6563 Q220.4525,140.7188 220.4525,142.8125 Q220.4525,144.9063 221.14,145.9844 Q221.8275,147.0469 223.1713,147.0469 Q223.7963,147.0469 224.39,146.7813 Q224.9838,146.5 225.6088,145.9219 L225.6088,148.6406 Z " fill="#000000"/><text fill="#000000" font-family="sans-serif" font-size="14" lengthAdjust="spacing" textLength="68.7217" x="236.64" y="147.8467">Organizer</text><line style="stroke:#181818;stroke-width:0.5;" x1="208.64" x2="307.3617" y1="159" y2="159"/><line style="stroke:#181818;stroke-width:0.5;" x1="208.64" x2="307.3617" y1="167" y2="167"/></g><!--reverse link Organizer to Region--><g class="link" data-entity-1="ent0006" data-entity-2="ent0002" data-link-type="extension" data-source-line="7" id="lnk8"><path codeLine="7" d="M231.6764,190.061 C214.4364,214.971 197.02,240.16 176.36,270.04" fill="none" id="Organizer-backto-Region" style="stroke:#181818;stroke-width:1;"/><polygon fill="none" points="241.92,175.26,226.7427,186.6464,236.61,193.4755,241.92,175.26" style="stroke:#181818;stroke-width:1;"/></g><!--reverse link Organizer to Segregation--><g class="link" data-entity-1="ent0006" data-entity-2="ent0009" data-link-type="extension" data-source-line="16" id="lnk10"><path codeLine="16" d="M284.3211,190.0627 C297.8811,209.6627 307.66,223.81 325.65,249.81" fill="none" id="Organizer-backto-Segregation" style="stroke:#181818;stroke-width:1;"/><polygon fill="none" points="274.08,175.26,279.3868,193.4764,289.2553,186.649,274.08,175.26" style="stroke:#181818;stroke-width:1;"/></g><?plantuml-src dOuz3i8m38Ltdy8I0wr2Su2AXHE0u01HIjoeKaYgE0pXv-vKRP4wq8NfsP_zxBV5O2XuUHl4oKYs2nxWwZJpZuayZu9F44suUwDZhl4KNBQ3Ip2HgV7WCxnXwMqqapn6gttte8ZxLrMjtrx_VI4xL3fD0JPgmboZwpY1b21cWaKVGqynvHAK0g6D-IuNJAxTuToL859GrhGZBl-BlOZr0G00?></g></svg>