<?plantuml 1.2026.2beta3?><svg xmlns="http://www.w3.org/2000/svg" xmlns:xlink="http://www.w3.org/1999/xlink" contentStyleType="text/css" data-diagram-type="CLASS" height="474px" preserveAspectRatio="none" style="width:691px;height:474px;background:#FFFFFF;" version="1.1" viewBox="0 0 691 474" width="691px" zoomAndPan="magnify"><defs/><g><!--cluster odeon--><g class="cluster" data-qualified-name="odeon" data-source-line="3" id="ent0003"><path d="M8.5,6 L58.2197,6 A3.75,3.75 0 0 1 60.7197,8.5 L67.7197,28.2969 L681.5,28.2969 A2.5,2.5 0 0 1 684,30.7969 L684,464.66 A2.5,2.5 0 0 1 681.5,467.16 L8.5,467.16 A2.5,2.5 0 0 1 6,464.66 L6,8.5 A2.5,2.5 0 0 1 8.5,6" fill="none" style="stroke:#000000;stroke-width:1.5;"/><line style="stroke:#000000;stroke-width:1.5;" x1="6" x2="67.7197" y1="28.2969" y2="28.2969"/><text fill="#000000" font-family="sans-serif" font-size="14" font-weight="bold" lengthAdjust="spacing" textLength="48.7197" x="10" y="20.9951">odeon</text></g><!--cluster io--><g class="cluster" data-qualified-name="odeon.io" data-source-line="3" id="ent0004"><path d="M32.5,49 L47.917,49 A3.75,3.75 0 0 1 50.417,51.5 L57.417,71.2969 L657.5,71.2969 A2.5,2.5 0 0 1 660,73.7969 L660,440.66 A2.5,2.5 0 0 1 657.5,443.16 L32.5,443.16 A2.5,2.5 0 0 1 30,440.66 L30,51.5 A2.5,2.5 0 0 1 32.5,49" fill="none" style="stroke:#000000;stroke-width:1.5;"/><line style="stroke:#000000;stroke-width:1.5;" x1="30" x2="57.417" y1="71.2969" y2="71.2969"/><text fill="#000000" font-family="sans-serif" font-size="14" font-weight="bold" lengthAdjust="spacing" textLength="14.417" x="34" y="63.9951">io</text></g><!--cluster sqlite_adapter--><g class="cluster" data-qualified-name="odeon.io.sqlite_adapter" data-source-line="3" id="ent0005"><path d="M56.5,92 L170.6689,92 A3.75,3.75 0 0 1 173.1689,94.5 L180.1689,114.2969 L633.5,114.2969 A2.5,2.5 0 0 1 636,116.7969 L636,416.66 A2.5,2.5 0 0 1 633.5,419.16 L56.5,419.16 A2.5,2.5 0 0 1 54,416.66 L54,94.5 A2.5,2.5 0 0 1 56.5,92" fill="none" style="stroke:#000000;stroke-width:1.5;"/><line style="stroke:#000000;stroke-width:1.5;" x1="54" x2="180.1689" y1="114.2969" y2="114.2969"/><text fill="#000000" font-family="sans-serif" font-size="14" font-weight="bold" lengthAdjust="spacing" textLength="113.1689" x="58" y="106.9951">sqlite_adapter</text></g><!--class SQLiteAdapter--><g class="entity" data-qualified-name="odeon.io.sqlite_adapter.SQLiteAdapter" data-source-line="3" id="ent0002"><rect fill="#F1F1F1" height="276.1563" rx="2.5" ry="2.5" style="stroke:#181818;stroke-width:0.5;" width="550.207" x="69.9" y="127"/><ellipse cx="290.0104" cy="143" fill="#ADD1B2" rx="11" ry="11" style="stroke:#181818;stroke-width:1;"/><path d="M292.9791,148.6406 Q292.401,148.9375 291.7604,149.0781 Q291.1197,149.2344 290.4166,149.2344 Q287.9166,149.2344 286.5885,147.5938 Q285.276,145.9375 285.276,142.8125 Q285.276,139.6875 286.5885,138.0313 Q287.9166,136.375 290.4166,136.375 Q291.1197,136.375 291.7604,136.5313 Q292.4166,136.6875 292.9791,136.9844 L292.9791,139.7031 Q292.3541,139.125 291.7604,138.8594 Q291.1666,138.5781 290.5416,138.5781 Q289.1979,138.5781 288.5104,139.6563 Q287.8229,140.7188 287.8229,142.8125 Q287.8229,144.9063 288.5104,145.9844 Q289.1979,147.0469 290.5416,147.0469 Q291.1666,147.0469 291.7604,146.7813 Q292.3541,146.5 292.9791,145.9219 L292.9791,148.6406 Z " fill="#000000"/><text fill="#000000" font-family="sans-serif" font-size="14" lengthAdjust="spacing" textLength="101.4863" x="310.5104" y="147.8467">SQLiteAdapter</text><line style="stroke:#181818;stroke-width:0.5;" x1="70.9" x2="619.107" y1="159" y2="159"/><line style="stroke:#181818;stroke-width:0.5;" x1="70.9" x2="619.107" y1="167" y2="167"/><g data-visibility-modifier="PROTECTED_METHOD"><polygon fill="#FFFF44" points="80.9,175.6484,84.9,179.6484,80.9,183.6484,76.9,179.6484" style="stroke:#B38D22;stroke-width:1;"/></g><text fill="#000000" font-family="sans-serif" font-size="14" lengthAdjust="spacing" textLength="212.4814" x="89.9" y="183.9951">_branch_db_path(self, branch)</text><g data-visibility-modifier="PROTECTED_METHOD"><polygon fill="#FFFF44" points="80.9,191.9453,84.9,195.9453,80.9,199.9453,76.9,195.9453" style="stroke:#B38D22;stroke-width:1;"/></g><text fill="#000000" font-family="sans-serif" font-size="14" lengthAdjust="spacing" textLength="139.1865" x="89.9" y="200.292">_connect(self, path)</text><g data-visibility-modifier="PROTECTED_METHOD"><polygon fill="#FFFF44" points="80.9,208.2422,84.9,212.2422,80.9,216.2422,76.9,212.2422" style="stroke:#B38D22;stroke-width:1;"/></g><text fill="#000000" font-family="sans-serif" font-size="14" lengthAdjust="spacing" textLength="216.1865" x="89.9" y="216.5889">_init_schema_branch(self, con)</text><g data-visibility-modifier="PROTECTED_METHOD"><polygon fill="#FFFF44" points="80.9,224.5391,84.9,228.5391,80.9,232.5391,76.9,228.5391" style="stroke:#B38D22;stroke-width:1;"/></g><text fill="#000000" font-family="sans-serif" font-size="14" lengthAdjust="spacing" textLength="216.4189" x="89.9" y="232.8857">_init_schema_project(self, con)</text><g data-visibility-modifier="PROTECTED_METHOD"><polygon fill="#FFFF44" points="80.9,240.8359,84.9,244.8359,80.9,248.8359,76.9,244.8359" style="stroke:#B38D22;stroke-width:1;"/></g><text fill="#000000" font-family="sans-serif" font-size="14" lengthAdjust="spacing" textLength="212.9463" x="89.9" y="249.1826">_project_db_path(self, project)</text><g data-visibility-modifier="PROTECTED_METHOD"><polygon fill="#FFFF44" points="80.9,257.1328,84.9,261.1328,80.9,265.1328,76.9,261.1328" style="stroke:#B38D22;stroke-width:1;"/></g><text fill="#000000" font-family="sans-serif" font-size="14" lengthAdjust="spacing" textLength="468.1182" x="89.9" y="265.4795">_read_branch(self, path, metadata, restore_branch_id, restore_ids)</text><g data-visibility-modifier="PROTECTED_METHOD"><polygon fill="#FFFF44" points="80.9,273.4297,84.9,277.4297,80.9,281.4297,76.9,277.4297" style="stroke:#B38D22;stroke-width:1;"/></g><text fill="#000000" font-family="sans-serif" font-size="14" lengthAdjust="spacing" textLength="395.1445" x="89.9" y="281.7764">_read_branch_into_project(self, project, path, metadata)</text><g data-visibility-modifier="PROTECTED_METHOD"><polygon fill="#FFFF44" points="80.9,289.7266,84.9,293.7266,80.9,297.7266,76.9,293.7266" style="stroke:#B38D22;stroke-width:1;"/></g><text fill="#000000" font-family="sans-serif" font-size="14" lengthAdjust="spacing" textLength="239.2031" x="89.9" y="298.0732">_read_project_meta(self, db_path)</text><g data-visibility-modifier="PROTECTED_METHOD"><polygon fill="#FFFF44" points="80.9,306.0234,84.9,310.0234,80.9,314.0234,76.9,310.0234" style="stroke:#B38D22;stroke-width:1;"/></g><text fill="#000000" font-family="sans-serif" font-size="14" lengthAdjust="spacing" textLength="191.0781" x="89.9" y="314.3701">_write_branch(self, branch)</text><g data-visibility-modifier="PROTECTED_METHOD"><polygon fill="#FFFF44" points="80.9,322.3203,84.9,326.3203,80.9,330.3203,76.9,326.3203" style="stroke:#B38D22;stroke-width:1;"/></g><text fill="#000000" font-family="sans-serif" font-size="14" lengthAdjust="spacing" textLength="191.543" x="89.9" y="330.667">_write_project(self, project)</text><g data-visibility-modifier="PUBLIC_METHOD"><ellipse cx="80.9" cy="343.6172" fill="#84BE84" rx="3" ry="3" style="stroke:#038048;stroke-width:1;"/></g><text fill="#000000" font-family="sans-serif" font-size="14" lengthAdjust="spacing" textLength="127.7842" x="89.9" y="346.9639">list_branches(self)</text><g data-visibility-modifier="PUBLIC_METHOD"><ellipse cx="80.9" cy="359.9141" fill="#84BE84" rx="3" ry="3" style="stroke:#038048;stroke-width:1;"/></g><text fill="#000000" font-family="sans-serif" font-size="14" lengthAdjust="spacing" textLength="524.207" x="89.9" y="363.2607">read_branches_into_project(self, project, branch_ids, description_contains)</text><g data-visibility-modifier="PUBLIC_METHOD"><ellipse cx="80.9" cy="376.2109" fill="#84BE84" rx="3" ry="3" style="stroke:#038048;stroke-width:1;"/></g><text fill="#000000" font-family="sans-serif" font-size="14" lengthAdjust="spacing" textLength="123.3818" x="89.9" y="379.5576">read_project(self)</text><g data-visibility-modifier="PUBLIC_METHOD"><ellipse cx="80.9" cy="392.5078" fill="#84BE84" rx="3" ry="3" style="stroke:#038048;stroke-width:1;"/></g><text fill="#000000" font-family="sans-serif" font-size="14" lengthAdjust="spacing" textLength="184.543" x="89.9" y="395.8545">write_project(self, project)</text></g><?plantuml-src VL7DRi8m3BxtAI9ns11Lts5tBeW7YDp4KurAKc9B7D3UVSdgKeW6Htz_-UnycEWnXevYnvUH12ruc0HJqxWHc5_HtV6mp-FNF9bRix5zWk06wtixWGoVZEDtQsPmcsaNGq0dYXT9GIcGM7O3da43L93bDJ-bU5eJLA1WzQoYHP0G_7DqqRNcZ99t4MXDGfQOS5c0_0gHvoeZDv9OLT6fJhuxbuw5K8lMBP9hAdTzQhXURIR_VMxRx4PYKIVo7vl1XxB8R-lU5-PS2DabceHYA5ybG86Ni4Txnjvs-la5?></g></svg>