<?plantuml 1.2026.2beta3?><svg xmlns="http://www.w3.org/2000/svg" xmlns:xlink="http://www.w3.org/1999/xlink" contentStyleType="text/css" data-diagram-type="CLASS" height="434px" preserveAspectRatio="none" style="width:295px;height:434px;background:#FFFFFF;" version="1.1" viewBox="0 0 295 434" width="295px" zoomAndPan="magnify"><defs/><g><!--cluster odeon--><g class="cluster" data-qualified-name="odeon" data-source-line="3" id="ent0003"><path d="M8.5,6 L58.2197,6 A3.75,3.75 0 0 1 60.7197,8.5 L67.7197,28.2969 L285.5,28.2969 A2.5,2.5 0 0 1 288,30.7969 L288,424.69 A2.5,2.5 0 0 1 285.5,427.19 L8.5,427.19 A2.5,2.5 0 0 1 6,424.69 L6,8.5 A2.5,2.5 0 0 1 8.5,6" fill="none" style="stroke:#000000;stroke-width:1.5;"/><line style="stroke:#000000;stroke-width:1.5;" x1="6" x2="67.7197" y1="28.2969" y2="28.2969"/><text fill="#000000" font-family="sans-serif" font-size="14" font-weight="bold" lengthAdjust="spacing" textLength="48.7197" x="10" y="20.9951">odeon</text></g><!--cluster model--><g class="cluster" data-qualified-name="odeon.model" data-source-line="3" id="ent0004"><path d="M32.5,49 L82.0215,49 A3.75,3.75 0 0 1 84.5215,51.5 L91.5215,71.2969 L261.5,71.2969 A2.5,2.5 0 0 1 264,73.7969 L264,400.69 A2.5,2.5 0 0 1 261.5,403.19 L32.5,403.19 A2.5,2.5 0 0 1 30,400.69 L30,51.5 A2.5,2.5 0 0 1 32.5,49" fill="none" style="stroke:#000000;stroke-width:1.5;"/><line style="stroke:#000000;stroke-width:1.5;" x1="30" x2="91.5215" y1="71.2969" y2="71.2969"/><text fill="#000000" font-family="sans-serif" font-size="14" font-weight="bold" lengthAdjust="spacing" textLength="48.5215" x="34" y="63.9951">model</text></g><!--cluster street_grid--><g class="cluster" data-qualified-name="odeon.model.street_grid" data-source-line="3" id="ent0005"><path d="M56.5,215 L143.8584,215 A3.75,3.75 0 0 1 146.3584,217.5 L153.3584,237.2969 L237.5,237.2969 A2.5,2.5 0 0 1 240,239.7969 L240,376.69 A2.5,2.5 0 0 1 237.5,379.19 L56.5,379.19 A2.5,2.5 0 0 1 54,376.69 L54,217.5 A2.5,2.5 0 0 1 56.5,215" fill="none" style="stroke:#000000;stroke-width:1.5;"/><line style="stroke:#000000;stroke-width:1.5;" x1="54" x2="153.3584" y1="237.2969" y2="237.2969"/><text fill="#000000" font-family="sans-serif" font-size="14" font-weight="bold" lengthAdjust="spacing" textLength="86.3584" x="58" y="229.9951">street_grid</text></g><!--cluster network--><g class="cluster" data-qualified-name="odeon.model.network" data-source-line="9" id="ent0007"><path d="M88.5,92 L154.4209,92 A3.75,3.75 0 0 1 156.9209,94.5 L163.9209,114.2969 L205.5,114.2969 A2.5,2.5 0 0 1 208,116.7969 L208,188.5 A2.5,2.5 0 0 1 205.5,191 L88.5,191 A2.5,2.5 0 0 1 86,188.5 L86,94.5 A2.5,2.5 0 0 1 88.5,92" fill="none" style="stroke:#000000;stroke-width:1.5;"/><line style="stroke:#000000;stroke-width:1.5;" x1="86" x2="163.9209" y1="114.2969" y2="114.2969"/><text fill="#000000" font-family="sans-serif" font-size="14" font-weight="bold" lengthAdjust="spacing" textLength="64.9209" x="90" y="106.9951">network</text></g><!--class StreetGrid--><g class="entity" data-qualified-name="odeon.model.street_grid.StreetGrid" data-source-line="3" id="ent0002"><rect fill="#F1F1F1" height="113.1875" rx="2.5" ry="2.5" style="stroke:#181818;stroke-width:0.5;" width="153.5381" x="70.23" y="250"/><ellipse cx="107.4193" cy="266" fill="#ADD1B2" rx="11" ry="11" style="stroke:#181818;stroke-width:1;"/><path d="M110.3881,271.6406 Q109.8099,271.9375 109.1693,272.0781 Q108.5287,272.2344 107.8256,272.2344 Q105.3256,272.2344 103.9974,270.5938 Q102.6849,268.9375 102.6849,265.8125 Q102.6849,262.6875 103.9974,261.0313 Q105.3256,259.375 107.8256,259.375 Q108.5287,259.375 109.1693,259.5313 Q109.8256,259.6875 110.3881,259.9844 L110.3881,262.7031 Q109.7631,262.125 109.1693,261.8594 Q108.5756,261.5781 107.9506,261.5781 Q106.6068,261.5781 105.9193,262.6563 Q105.2318,263.7188 105.2318,265.8125 Q105.2318,267.9063 105.9193,268.9844 Q106.6068,270.0469 107.9506,270.0469 Q108.5756,270.0469 109.1693,269.7813 Q109.7631,269.5 110.3881,268.9219 L110.3881,271.6406 Z " fill="#000000"/><text fill="#000000" font-family="sans-serif" font-size="14" lengthAdjust="spacing" textLength="72.2285" x="126.3503" y="270.8467">StreetGrid</text><line style="stroke:#181818;stroke-width:0.5;" x1="71.23" x2="222.7681" y1="282" y2="282"/><g data-visibility-modifier="PROTECTED_FIELD"><polygon fill="none" points="81.23,290.6484,85.23,294.6484,81.23,298.6484,77.23,294.6484" style="stroke:#B38D22;stroke-width:1;"/></g><text fill="#000000" font-family="sans-serif" font-size="14" lengthAdjust="spacing" textLength="78.9619" x="90.23" y="298.9951">_nodes: list</text><g data-visibility-modifier="PROTECTED_FIELD"><polygon fill="none" points="81.23,306.9453,85.23,310.9453,81.23,314.9453,77.23,310.9453" style="stroke:#B38D22;stroke-width:1;"/></g><text fill="#000000" font-family="sans-serif" font-size="14" lengthAdjust="spacing" textLength="79.0234" x="90.23" y="315.292">_edges: list</text><g data-visibility-modifier="PROTECTED_FIELD"><polygon fill="none" points="81.23,323.2422,85.23,327.2422,81.23,331.2422,77.23,327.2422" style="stroke:#B38D22;stroke-width:1;"/></g><text fill="#000000" font-family="sans-serif" font-size="14" lengthAdjust="spacing" textLength="100.0918" x="90.23" y="331.5889">_graph: Graph</text><g data-visibility-modifier="PROTECTED_FIELD"><polygon fill="none" points="81.23,339.5391,85.23,343.5391,81.23,347.5391,77.23,343.5391" style="stroke:#B38D22;stroke-width:1;"/></g><text fill="#000000" font-family="sans-serif" font-size="14" lengthAdjust="spacing" textLength="127.5381" x="90.23" y="347.8857">_digraph: DiGraph</text><line style="stroke:#181818;stroke-width:0.5;" x1="71.23" x2="222.7681" y1="355.1875" y2="355.1875"/></g><!--class Network--><g class="entity" data-qualified-name="odeon.model.network.Network" data-source-line="9" id="ent0006"><rect fill="#F1F1F1" height="48" rx="2.5" ry="2.5" style="stroke:#181818;stroke-width:0.5;" width="90.4541" x="101.77" y="127"/><ellipse cx="116.77" cy="143" fill="#ADD1B2" rx="11" ry="11" style="stroke:#181818;stroke-width:1;"/><path d="M119.7388,148.6406 Q119.1606,148.9375 118.52,149.0781 Q117.8794,149.2344 117.1763,149.2344 Q114.6763,149.2344 113.3481,147.5938 Q112.0356,145.9375 112.0356,142.8125 Q112.0356,139.6875 113.3481,138.0313 Q114.6763,136.375 117.1763,136.375 Q117.8794,136.375 118.52,136.5313 Q119.1763,136.6875 119.7388,136.9844 L119.7388,139.7031 Q119.1138,139.125 118.52,138.8594 Q117.9263,138.5781 117.3013,138.5781 Q115.9575,138.5781 115.27,139.6563 Q114.5825,140.7188 114.5825,142.8125 Q114.5825,144.9063 115.27,145.9844 Q115.9575,147.0469 117.3013,147.0469 Q117.9263,147.0469 118.52,146.7813 Q119.1138,146.5 119.7388,145.9219 L119.7388,148.6406 Z " fill="#000000"/><text fill="#000000" font-family="sans-serif" font-size="14" lengthAdjust="spacing" textLength="58.4541" x="130.77" y="147.8467">Network</text><line style="stroke:#181818;stroke-width:0.5;" x1="102.77" x2="191.2241" y1="159" y2="159"/><line style="stroke:#181818;stroke-width:0.5;" x1="102.77" x2="191.2241" y1="167" y2="167"/></g><!--reverse link Network to StreetGrid--><g class="link" data-entity-1="ent0006" data-entity-2="ent0002" data-link-type="extension" data-source-line="9" id="lnk8"><path codeLine="9" d="M147,193.33 C147,213.05 147,224.11 147,249.78" fill="none" id="Network-backto-StreetGrid" style="stroke:#181818;stroke-width:1;"/><polygon fill="none" points="147,175.33,141,193.33,153,193.33,147,175.33" style="stroke:#181818;stroke-width:1;"/></g><?plantuml-src KrV8JqdDpzFB1L8vUiKbHQcf9V7fHPafN5p9EOd5nRYazOB1R7SWKw6QIpa-3wYWs4eX9xEu1CXBJKb7ugKN9HPaM2cuWoWWDoKJAk2I2H6gvKAs92-rf3o_A5lF3q8hsDJewXBX2W00?></g></svg>