<?plantuml 1.2026.2beta3?><svg xmlns="http://www.w3.org/2000/svg" xmlns:xlink="http://www.w3.org/1999/xlink" contentStyleType="text/css" data-diagram-type="CLASS" height="449px" preserveAspectRatio="none" style="width:631px;height:449px;background:#FFFFFF;" version="1.1" viewBox="0 0 631 449" width="631px" zoomAndPan="magnify"><defs/><g><!--cluster odeon--><g class="cluster" data-qualified-name="odeon" data-source-line="3" id="ent0003"><path d="M8.5,6 L58.2197,6 A3.75,3.75 0 0 1 60.7197,8.5 L67.7197,28.2969 L621.5,28.2969 A2.5,2.5 0 0 1 624,30.7969 L624,440.06 A2.5,2.5 0 0 1 621.5,442.56 L8.5,442.56 A2.5,2.5 0 0 1 6,440.06 L6,8.5 A2.5,2.5 0 0 1 8.5,6" fill="none" style="stroke:#000000;stroke-width:1.5;"/><line style="stroke:#000000;stroke-width:1.5;" x1="6" x2="67.7197" y1="28.2969" y2="28.2969"/><text fill="#000000" font-family="sans-serif" font-size="14" font-weight="bold" lengthAdjust="spacing" textLength="48.7197" x="10" y="20.9951">odeon</text></g><!--cluster io--><g class="cluster" data-qualified-name="odeon.io" data-source-line="3" id="ent0004"><path d="M32.5,49 L47.917,49 A3.75,3.75 0 0 1 50.417,51.5 L57.417,71.2969 L597.5,71.2969 A2.5,2.5 0 0 1 600,73.7969 L600,416.06 A2.5,2.5 0 0 1 597.5,418.56 L32.5,418.56 A2.5,2.5 0 0 1 30,416.06 L30,51.5 A2.5,2.5 0 0 1 32.5,49" fill="none" style="stroke:#000000;stroke-width:1.5;"/><line style="stroke:#000000;stroke-width:1.5;" x1="30" x2="57.417" y1="71.2969" y2="71.2969"/><text fill="#000000" font-family="sans-serif" font-size="14" font-weight="bold" lengthAdjust="spacing" textLength="14.417" x="34" y="63.9951">io</text></g><!--cluster temporal_manager--><g class="cluster" data-qualified-name="odeon.io.temporal_manager" data-source-line="3" id="ent0005"><path d="M56.5,92 L205.9355,92 A3.75,3.75 0 0 1 208.4355,94.5 L215.4355,114.2969 L573.5,114.2969 A2.5,2.5 0 0 1 576,116.7969 L576,392.06 A2.5,2.5 0 0 1 573.5,394.56 L56.5,394.56 A2.5,2.5 0 0 1 54,392.06 L54,94.5 A2.5,2.5 0 0 1 56.5,92" fill="none" style="stroke:#000000;stroke-width:1.5;"/><line style="stroke:#000000;stroke-width:1.5;" x1="54" x2="215.4355" y1="114.2969" y2="114.2969"/><text fill="#000000" font-family="sans-serif" font-size="14" font-weight="bold" lengthAdjust="spacing" textLength="148.4355" x="58" y="106.9951">temporal_manager</text></g><!--class TemporalManager--><g class="entity" data-qualified-name="odeon.io.temporal_manager.TemporalManager" data-source-line="3" id="ent0002"><rect fill="#F1F1F1" height="251.5625" rx="2.5" ry="2.5" style="stroke:#181818;stroke-width:0.5;" width="489.7227" x="70.14" y="127"/><ellipse cx="246.8285" cy="143" fill="#ADD1B2" rx="11" ry="11" style="stroke:#181818;stroke-width:1;"/><path d="M249.7972,148.6406 Q249.2191,148.9375 248.5785,149.0781 Q247.9379,149.2344 247.2347,149.2344 Q244.7347,149.2344 243.4066,147.5938 Q242.0941,145.9375 242.0941,142.8125 Q242.0941,139.6875 243.4066,138.0313 Q244.7347,136.375 247.2347,136.375 Q247.9379,136.375 248.5785,136.5313 Q249.2347,136.6875 249.7972,136.9844 L249.7972,139.7031 Q249.1722,139.125 248.5785,138.8594 Q247.9847,138.5781 247.3597,138.5781 Q246.016,138.5781 245.3285,139.6563 Q244.641,140.7188 244.641,142.8125 Q244.641,144.9063 245.3285,145.9844 Q246.016,147.0469 247.3597,147.0469 Q247.9847,147.0469 248.5785,146.7813 Q249.1722,146.5 249.7972,145.9219 L249.7972,148.6406 Z " fill="#000000"/><text fill="#000000" font-family="sans-serif" font-size="14" lengthAdjust="spacing" textLength="127.8457" x="267.3285" y="147.8467">TemporalManager</text><line style="stroke:#181818;stroke-width:0.5;" x1="71.14" x2="558.8627" y1="159" y2="159"/><g data-visibility-modifier="PROTECTED_FIELD"><polygon fill="none" points="81.14,167.6484,85.14,171.6484,81.14,175.6484,77.14,171.6484" style="stroke:#B38D22;stroke-width:1;"/></g><text fill="#000000" font-family="sans-serif" font-size="14" lengthAdjust="spacing" textLength="270.0742" x="90.14" y="175.9951">_settings: typing.Dict[typing.Type, str]</text><g data-visibility-modifier="PROTECTED_METHOD"><polygon fill="#FFFF44" points="81.14,183.9453,85.14,187.9453,81.14,191.9453,77.14,187.9453" style="stroke:#B38D22;stroke-width:1;"/></g><text fill="#000000" font-family="sans-serif" font-size="14" lengthAdjust="spacing" textLength="463.7227" x="90.14" y="192.292">_target: typing.Union[ForwardRef('Project'), ForwardRef('Branch')]</text><line style="stroke:#181818;stroke-width:1;stroke-dasharray:1,2;" x1="71.14" x2="558.8627" y1="199.5938" y2="199.5938"/><g data-visibility-modifier="PUBLIC_METHOD"><ellipse cx="81.14" cy="213.2422" fill="#84BE84" rx="3" ry="3" style="stroke:#038048;stroke-width:1;"/></g><text fill="#000000" font-family="sans-serif" font-size="14" lengthAdjust="spacing" textLength="131.4414" x="90.14" y="216.5889">settings (property)</text><g data-visibility-modifier="PUBLIC_METHOD"><ellipse cx="81.14" cy="229.5391" fill="#84BE84" rx="3" ry="3" style="stroke:#038048;stroke-width:1;"/></g><text fill="#000000" font-family="sans-serif" font-size="14" lengthAdjust="spacing" textLength="118.4258" x="90.14" y="232.8857">target (property)</text><line style="stroke:#181818;stroke-width:0.5;" x1="71.14" x2="558.8627" y1="240.1875" y2="240.1875"/><g data-visibility-modifier="PROTECTED_METHOD"><polygon fill="#FFFF44" points="81.14,248.8359,85.14,252.8359,81.14,256.8359,77.14,252.8359" style="stroke:#B38D22;stroke-width:1;"/></g><text fill="#000000" font-family="sans-serif" font-size="14" lengthAdjust="spacing" textLength="165.5732" x="90.14" y="257.1826">_set_target(self, target)</text><g data-visibility-modifier="PUBLIC_METHOD"><ellipse cx="81.14" cy="270.1328" fill="#84BE84" rx="3" ry="3" style="stroke:#038048;stroke-width:1;"/></g><text fill="#000000" font-family="sans-serif" font-size="14" lengthAdjust="spacing" textLength="349.7129" x="90.14" y="273.4795">apply_settings_for_object(self, base_object, deep)</text><g data-visibility-modifier="PUBLIC_METHOD"><ellipse cx="81.14" cy="286.4297" fill="#84BE84" rx="3" ry="3" style="stroke:#038048;stroke-width:1;"/></g><text fill="#000000" font-family="sans-serif" font-size="14" lengthAdjust="spacing" textLength="143.2813" x="90.14" y="289.7764">load_temporals(self)</text><g data-visibility-modifier="PUBLIC_METHOD"><ellipse cx="81.14" cy="302.7266" fill="#84BE84" rx="3" ry="3" style="stroke:#038048;stroke-width:1;"/></g><text fill="#000000" font-family="sans-serif" font-size="14" lengthAdjust="spacing" textLength="193.751" x="90.14" y="306.0732">reset_access_counters(self)</text><g data-visibility-modifier="PUBLIC_METHOD"><ellipse cx="81.14" cy="319.0234" fill="#84BE84" rx="3" ry="3" style="stroke:#038048;stroke-width:1;"/></g><text fill="#000000" font-family="sans-serif" font-size="14" lengthAdjust="spacing" textLength="161.3281" x="90.14" y="322.3701">reset_swap_mode(self)</text><g data-visibility-modifier="PUBLIC_METHOD"><ellipse cx="81.14" cy="335.3203" fill="#84BE84" rx="3" ry="3" style="stroke:#038048;stroke-width:1;"/></g><text fill="#000000" font-family="sans-serif" font-size="14" lengthAdjust="spacing" textLength="238.7725" x="90.14" y="338.667">set_swap_mode(self, swap_mode)</text><g data-visibility-modifier="PUBLIC_METHOD"><ellipse cx="81.14" cy="351.6172" fill="#84BE84" rx="3" ry="3" style="stroke:#038048;stroke-width:1;"/></g><text fill="#000000" font-family="sans-serif" font-size="14" lengthAdjust="spacing" textLength="438.2246" x="90.14" y="354.9639">swap_or_load_temporals(self, threshold_swap, threshold_load)</text><g data-visibility-modifier="PUBLIC_METHOD"><ellipse cx="81.14" cy="367.9141" fill="#84BE84" rx="3" ry="3" style="stroke:#038048;stroke-width:1;"/></g><text fill="#000000" font-family="sans-serif" font-size="14" lengthAdjust="spacing" textLength="149.5703" x="90.14" y="371.2607">swap_temporals(self)</text></g><?plantuml-src TL1DQyCm3BtxLnXsI4A3Vy2EO-ms6AKxbM9KH_aOZcLaZnB6_lkSnYcXssvwJqzwJoeaDKXE3QGYZfuOh1x1GOSiXB4Gmly2TSZ4wuBbbtZG0MCSN1SUPPnyAjJpOE8nruV9Oor3v5DIHk0EuqttxWPonnVY2t2pnxOitfW-qCIYgkMMVc9mfY-gar1Ax5O_MNecZnodIkoMrLjAwoLRTYq3shQM2qW3uBsTRjbrIwpfF9jduHa2PgQM3Q9FCvQWqUjFmbMOMCRP1Op14BIXJnUHxvhX0bwFwQqh_PjCJrhnt9_h5EaFntH3dxRsP9lhYYsUvUlqVSxl7m00?></g></svg>