<?plantuml 1.2026.2beta3?><svg xmlns="http://www.w3.org/2000/svg" xmlns:xlink="http://www.w3.org/1999/xlink" contentStyleType="text/css" data-diagram-type="CLASS" height="1827px" preserveAspectRatio="none" style="width:677px;height:1827px;background:#FFFFFF;" version="1.1" viewBox="0 0 677 1827" width="677px" zoomAndPan="magnify"><defs/><g><!--cluster odeon--><g class="cluster" data-qualified-name="odeon" data-source-line="3" id="ent0003"><path d="M8.5,6 L58.2197,6 A3.75,3.75 0 0 1 60.7197,8.5 L67.7197,28.2969 L667.5,28.2969 A2.5,2.5 0 0 1 670,30.7969 L670,1817.92 A2.5,2.5 0 0 1 667.5,1820.42 L8.5,1820.42 A2.5,2.5 0 0 1 6,1817.92 L6,8.5 A2.5,2.5 0 0 1 8.5,6" fill="none" style="stroke:#000000;stroke-width:1.5;"/><line style="stroke:#000000;stroke-width:1.5;" x1="6" x2="67.7197" y1="28.2969" y2="28.2969"/><text fill="#000000" font-family="sans-serif" font-size="14" font-weight="bold" lengthAdjust="spacing" textLength="48.7197" x="10" y="20.9951">odeon</text></g><!--cluster model--><g class="cluster" data-qualified-name="odeon.model" data-source-line="3" id="ent0004"><path d="M32.5,49 L82.0215,49 A3.75,3.75 0 0 1 84.5215,51.5 L91.5215,71.2969 L643.5,71.2969 A2.5,2.5 0 0 1 646,73.7969 L646,1793.92 A2.5,2.5 0 0 1 643.5,1796.42 L32.5,1796.42 A2.5,2.5 0 0 1 30,1793.92 L30,51.5 A2.5,2.5 0 0 1 32.5,49" fill="none" style="stroke:#000000;stroke-width:1.5;"/><line style="stroke:#000000;stroke-width:1.5;" x1="30" x2="91.5215" y1="71.2969" y2="71.2969"/><text fill="#000000" font-family="sans-serif" font-size="14" font-weight="bold" lengthAdjust="spacing" textLength="48.5215" x="34" y="63.9951">model</text></g><!--cluster temporal--><g class="cluster" data-qualified-name="odeon.model.temporal" data-source-line="3" id="ent0005"><path d="M56.5,215 L129.0654,215 A3.75,3.75 0 0 1 131.5654,217.5 L138.5654,237.2969 L619.5,237.2969 A2.5,2.5 0 0 1 622,239.7969 L622,1769.92 A2.5,2.5 0 0 1 619.5,1772.42 L56.5,1772.42 A2.5,2.5 0 0 1 54,1769.92 L54,217.5 A2.5,2.5 0 0 1 56.5,215" fill="none" style="stroke:#000000;stroke-width:1.5;"/><line style="stroke:#000000;stroke-width:1.5;" x1="54" x2="138.5654" y1="237.2969" y2="237.2969"/><text fill="#000000" font-family="sans-serif" font-size="14" font-weight="bold" lengthAdjust="spacing" textLength="71.5654" x="58" y="229.9951">temporal</text></g><!--cluster base--><g class="cluster" data-qualified-name="odeon.model.base" data-source-line="96" id="ent0007"><path d="M275.5,92 L313.7969,92 A3.75,3.75 0 0 1 316.2969,94.5 L323.2969,114.2969 L400.5,114.2969 A2.5,2.5 0 0 1 403,116.7969 L403,188.5 A2.5,2.5 0 0 1 400.5,191 L275.5,191 A2.5,2.5 0 0 1 273,188.5 L273,94.5 A2.5,2.5 0 0 1 275.5,92" fill="none" style="stroke:#000000;stroke-width:1.5;"/><line style="stroke:#000000;stroke-width:1.5;" x1="273" x2="323.2969" y1="114.2969" y2="114.2969"/><text fill="#000000" font-family="sans-serif" font-size="14" font-weight="bold" lengthAdjust="spacing" textLength="37.2969" x="277" y="106.9951">base</text></g><!--class Temporal--><g class="entity" data-qualified-name="odeon.model.temporal.Temporal" data-source-line="3" id="ent0002"><rect fill="#F1F1F1" height="1506.4219" rx="2.5" ry="2.5" style="stroke:#181818;stroke-width:0.5;" width="535.7148" x="70.14" y="250"/><ellipse cx="300.5077" cy="266" fill="#ADD1B2" rx="11" ry="11" style="stroke:#181818;stroke-width:1;"/><path d="M303.4764,271.6406 Q302.8983,271.9375 302.2577,272.0781 Q301.6171,272.2344 300.9139,272.2344 Q298.4139,272.2344 297.0858,270.5938 Q295.7733,268.9375 295.7733,265.8125 Q295.7733,262.6875 297.0858,261.0313 Q298.4139,259.375 300.9139,259.375 Q301.6171,259.375 302.2577,259.5313 Q302.9139,259.6875 303.4764,259.9844 L303.4764,262.7031 Q302.8514,262.125 302.2577,261.8594 Q301.6639,261.5781 301.0389,261.5781 Q299.6952,261.5781 299.0077,262.6563 Q298.3202,263.7188 298.3202,265.8125 Q298.3202,267.9063 299.0077,268.9844 Q299.6952,270.0469 301.0389,270.0469 Q301.6639,270.0469 302.2577,269.7813 Q302.8514,269.5 303.4764,268.9219 L303.4764,271.6406 Z " fill="#000000"/><text fill="#000000" font-family="sans-serif" font-size="14" lengthAdjust="spacing" textLength="66.4795" x="321.0077" y="270.8467">Temporal</text><line style="stroke:#181818;stroke-width:0.5;" x1="71.14" x2="604.8548" y1="282" y2="282"/><g data-visibility-modifier="PROTECTED_FIELD"><polygon fill="none" points="81.14,290.6484,85.14,294.6484,81.14,298.6484,77.14,294.6484" style="stroke:#B38D22;stroke-width:1;"/></g><text fill="#000000" font-family="sans-serif" font-size="14" lengthAdjust="spacing" textLength="146.3848" x="90.14" y="298.9951">_STORE_SHAPE: bool</text><g data-visibility-modifier="PROTECTED_FIELD"><polygon fill="none" points="81.14,306.9453,85.14,310.9453,81.14,314.9453,77.14,310.9453" style="stroke:#B38D22;stroke-width:1;"/></g><text fill="#000000" font-family="sans-serif" font-size="14" lengthAdjust="spacing" textLength="149.4268" x="90.14" y="315.292">_STORE_SERIES: bool</text><g data-visibility-modifier="PROTECTED_FIELD"><polygon fill="none" points="81.14,323.2422,85.14,327.2422,81.14,331.2422,77.14,327.2422" style="stroke:#B38D22;stroke-width:1;"/></g><text fill="#000000" font-family="sans-serif" font-size="14" lengthAdjust="spacing" textLength="129.8486" x="90.14" y="331.5889">_READ_ONLY: bool</text><g data-visibility-modifier="PROTECTED_FIELD"><polygon fill="none" points="81.14,339.5391,85.14,343.5391,81.14,347.5391,77.14,343.5391" style="stroke:#B38D22;stroke-width:1;"/></g><text fill="#000000" font-family="sans-serif" font-size="14" lengthAdjust="spacing" textLength="150.6572" x="90.14" y="347.8857">_SWAP_MODE: Literal</text><g data-visibility-modifier="PROTECTED_FIELD"><polygon fill="none" points="81.14,355.8359,85.14,359.8359,81.14,363.8359,77.14,359.8359" style="stroke:#B38D22;stroke-width:1;"/></g><text fill="#000000" font-family="sans-serif" font-size="14" lengthAdjust="spacing" textLength="108.6709" x="90.14" y="364.1826">_swapped: bool</text><g data-visibility-modifier="PROTECTED_FIELD"><polygon fill="none" points="81.14,372.1328,85.14,376.1328,81.14,380.1328,77.14,376.1328" style="stroke:#B38D22;stroke-width:1;"/></g><text fill="#000000" font-family="sans-serif" font-size="14" lengthAdjust="spacing" textLength="113.374" x="90.14" y="380.4795">_n_accesses: int</text><g data-visibility-modifier="PROTECTED_FIELD"><polygon fill="none" points="81.14,388.4297,85.14,392.4297,81.14,396.4297,77.14,392.4297" style="stroke:#B38D22;stroke-width:1;"/></g><text fill="#000000" font-family="sans-serif" font-size="14" lengthAdjust="spacing" textLength="129.459" x="90.14" y="396.7764">_series_none: bool</text><g data-visibility-modifier="PRIVATE_FIELD"><rect fill="none" height="6" style="stroke:#C82930;stroke-width:1;" width="6" x="78.14" y="406.7266"/></g><text fill="#000000" font-family="sans-serif" font-size="14" lengthAdjust="spacing" textLength="294.3623" x="90.14" y="413.0732">__series: pandas.core.series.Series | None</text><g data-visibility-modifier="PRIVATE_FIELD"><rect fill="none" height="6" style="stroke:#C82930;stroke-width:1;" width="6" x="78.14" y="423.0234"/></g><text fill="#000000" font-family="sans-serif" font-size="14" lengthAdjust="spacing" textLength="295.1484" x="90.14" y="429.3701">__shape: pandas.core.series.Series | None</text><g data-visibility-modifier="PROTECTED_FIELD"><polygon fill="none" points="81.14,437.3203,85.14,441.3203,81.14,445.3203,77.14,441.3203" style="stroke:#B38D22;stroke-width:1;"/></g><text fill="#000000" font-family="sans-serif" font-size="14" lengthAdjust="spacing" textLength="220.9443" x="90.14" y="445.667">_total: numbers.Number | None</text><g data-visibility-modifier="PROTECTED_FIELD"><polygon fill="none" points="81.14,453.6172,85.14,457.6172,81.14,461.6172,77.14,457.6172" style="stroke:#B38D22;stroke-width:1;"/></g><text fill="#000000" font-family="sans-serif" font-size="14" lengthAdjust="spacing" textLength="206.0352" x="90.14" y="461.9639">_fix: numbers.Number | None</text><g data-visibility-modifier="PROTECTED_FIELD"><polygon fill="none" points="81.14,469.9141,85.14,473.9141,81.14,477.9141,77.14,473.9141" style="stroke:#B38D22;stroke-width:1;"/></g><text fill="#000000" font-family="sans-serif" font-size="14" lengthAdjust="spacing" textLength="464.8438" x="90.14" y="478.2607">_timeindex: pandas.core.indexes.datetimes.DatetimeIndex | None</text><g data-visibility-modifier="PROTECTED_FIELD"><polygon fill="none" points="81.14,486.2109,85.14,490.2109,81.14,494.2109,77.14,490.2109" style="stroke:#B38D22;stroke-width:1;"/></g><text fill="#000000" font-family="sans-serif" font-size="14" lengthAdjust="spacing" textLength="291.9219" x="90.14" y="494.5576">_parent: odeon.model.base.Object | None</text><g data-visibility-modifier="PROTECTED_FIELD"><polygon fill="none" points="81.14,502.5078,85.14,506.5078,81.14,510.5078,77.14,506.5078" style="stroke:#B38D22;stroke-width:1;"/></g><text fill="#000000" font-family="sans-serif" font-size="14" lengthAdjust="spacing" textLength="346.0215" x="90.14" y="510.8545">_master: odeon.model.temporal.Temporal | None</text><g data-visibility-modifier="PROTECTED_FIELD"><polygon fill="none" points="81.14,518.8047,85.14,522.8047,81.14,526.8047,77.14,522.8047" style="stroke:#B38D22;stroke-width:1;"/></g><text fill="#000000" font-family="sans-serif" font-size="14" lengthAdjust="spacing" textLength="82.4756" x="90.14" y="527.1514">_clients: list</text><g data-visibility-modifier="PROTECTED_FIELD"><polygon fill="none" points="81.14,535.1016,85.14,539.1016,81.14,543.1016,77.14,539.1016" style="stroke:#B38D22;stroke-width:1;"/></g><text fill="#000000" font-family="sans-serif" font-size="14" lengthAdjust="spacing" textLength="215.332" x="90.14" y="543.4482">_min: numbers.Number | None</text><g data-visibility-modifier="PROTECTED_FIELD"><polygon fill="none" points="81.14,551.3984,85.14,555.3984,81.14,559.3984,77.14,555.3984" style="stroke:#B38D22;stroke-width:1;"/></g><text fill="#000000" font-family="sans-serif" font-size="14" lengthAdjust="spacing" textLength="219.4336" x="90.14" y="559.7451">_max: numbers.Number | None</text><g data-visibility-modifier="PROTECTED_FIELD"><polygon fill="none" points="81.14,567.6953,85.14,571.6953,81.14,575.6953,77.14,571.6953" style="stroke:#B38D22;stroke-width:1;"/></g><text fill="#000000" font-family="sans-serif" font-size="14" lengthAdjust="spacing" textLength="228.6348" x="90.14" y="576.042">_mean: numbers.Number | None</text><g data-visibility-modifier="PROTECTED_FIELD"><polygon fill="none" points="81.14,583.9922,85.14,587.9922,81.14,591.9922,77.14,587.9922" style="stroke:#B38D22;stroke-width:1;"/></g><text fill="#000000" font-family="sans-serif" font-size="14" lengthAdjust="spacing" textLength="119.9297" x="90.14" y="592.3389">_constraints: dict</text><line style="stroke:#181818;stroke-width:1;stroke-dasharray:1,2;" x1="71.14" x2="604.8548" y1="599.6406" y2="599.6406"/><g data-visibility-modifier="PUBLIC_METHOD"><ellipse cx="81.14" cy="613.2891" fill="#84BE84" rx="3" ry="3" style="stroke:#038048;stroke-width:1;"/></g><text fill="#000000" font-family="sans-serif" font-size="14" lengthAdjust="spacing" textLength="124.2773" x="90.14" y="616.6357">branch (property)</text><g data-visibility-modifier="PUBLIC_METHOD"><ellipse cx="81.14" cy="629.5859" fill="#84BE84" rx="3" ry="3" style="stroke:#038048;stroke-width:1;"/></g><text fill="#000000" font-family="sans-serif" font-size="14" lengthAdjust="spacing" textLength="121.3584" x="90.14" y="632.9326">clients (property)</text><g data-visibility-modifier="PUBLIC_METHOD"><ellipse cx="81.14" cy="645.8828" fill="#84BE84" rx="3" ry="3" style="stroke:#038048;stroke-width:1;"/></g><text fill="#000000" font-family="sans-serif" font-size="14" lengthAdjust="spacing" textLength="193.1357" x="90.14" y="649.2295">clients_recursive (property)</text><g data-visibility-modifier="PUBLIC_METHOD"><ellipse cx="81.14" cy="662.1797" fill="#84BE84" rx="3" ry="3" style="stroke:#038048;stroke-width:1;"/></g><text fill="#000000" font-family="sans-serif" font-size="14" lengthAdjust="spacing" textLength="92.7158" x="90.14" y="665.5264">fix (property)</text><g data-visibility-modifier="PUBLIC_METHOD"><ellipse cx="81.14" cy="678.4766" fill="#84BE84" rx="3" ry="3" style="stroke:#038048;stroke-width:1;"/></g><text fill="#000000" font-family="sans-serif" font-size="14" lengthAdjust="spacing" textLength="156.0234" x="90.14" y="681.8232">has_branch (property)</text><g data-visibility-modifier="PUBLIC_METHOD"><ellipse cx="81.14" cy="694.7734" fill="#84BE84" rx="3" ry="3" style="stroke:#038048;stroke-width:1;"/></g><text fill="#000000" font-family="sans-serif" font-size="14" lengthAdjust="spacing" textLength="153.1045" x="90.14" y="698.1201">has_clients (property)</text><g data-visibility-modifier="PUBLIC_METHOD"><ellipse cx="81.14" cy="711.0703" fill="#84BE84" rx="3" ry="3" style="stroke:#038048;stroke-width:1;"/></g><text fill="#000000" font-family="sans-serif" font-size="14" lengthAdjust="spacing" textLength="124.4619" x="90.14" y="714.417">has_fix (property)</text><g data-visibility-modifier="PUBLIC_METHOD"><ellipse cx="81.14" cy="727.3672" fill="#84BE84" rx="3" ry="3" style="stroke:#038048;stroke-width:1;"/></g><text fill="#000000" font-family="sans-serif" font-size="14" lengthAdjust="spacing" textLength="156.7275" x="90.14" y="730.7139">has_master (property)</text><g data-visibility-modifier="PUBLIC_METHOD"><ellipse cx="81.14" cy="743.6641" fill="#84BE84" rx="3" ry="3" style="stroke:#038048;stroke-width:1;"/></g><text fill="#000000" font-family="sans-serif" font-size="14" lengthAdjust="spacing" textLength="153.5557" x="90.14" y="747.0107">has_parent (property)</text><g data-visibility-modifier="PUBLIC_METHOD"><ellipse cx="81.14" cy="759.9609" fill="#84BE84" rx="3" ry="3" style="stroke:#038048;stroke-width:1;"/></g><text fill="#000000" font-family="sans-serif" font-size="14" lengthAdjust="spacing" textLength="148.8184" x="90.14" y="763.3076">has_series (property)</text><g data-visibility-modifier="PUBLIC_METHOD"><ellipse cx="81.14" cy="776.2578" fill="#84BE84" rx="3" ry="3" style="stroke:#038048;stroke-width:1;"/></g><text fill="#000000" font-family="sans-serif" font-size="14" lengthAdjust="spacing" textLength="149.6045" x="90.14" y="779.6045">has_shape (property)</text><g data-visibility-modifier="PUBLIC_METHOD"><ellipse cx="81.14" cy="792.5547" fill="#84BE84" rx="3" ry="3" style="stroke:#038048;stroke-width:1;"/></g><text fill="#000000" font-family="sans-serif" font-size="14" lengthAdjust="spacing" textLength="177.5361" x="90.14" y="795.9014">has_timeindex (property)</text><g data-visibility-modifier="PUBLIC_METHOD"><ellipse cx="81.14" cy="808.8516" fill="#84BE84" rx="3" ry="3" style="stroke:#038048;stroke-width:1;"/></g><text fill="#000000" font-family="sans-serif" font-size="14" lengthAdjust="spacing" textLength="180.4482" x="90.14" y="812.1982">has_timeseries (property)</text><g data-visibility-modifier="PUBLIC_METHOD"><ellipse cx="81.14" cy="825.1484" fill="#84BE84" rx="3" ry="3" style="stroke:#038048;stroke-width:1;"/></g><text fill="#000000" font-family="sans-serif" font-size="14" lengthAdjust="spacing" textLength="181.2344" x="90.14" y="828.4951">has_timeshape (property)</text><g data-visibility-modifier="PUBLIC_METHOD"><ellipse cx="81.14" cy="841.4453" fill="#84BE84" rx="3" ry="3" style="stroke:#038048;stroke-width:1;"/></g><text fill="#000000" font-family="sans-serif" font-size="14" lengthAdjust="spacing" textLength="139.3711" x="90.14" y="844.792">has_total (property)</text><g data-visibility-modifier="PUBLIC_METHOD"><ellipse cx="81.14" cy="857.7422" fill="#84BE84" rx="3" ry="3" style="stroke:#038048;stroke-width:1;"/></g><text fill="#000000" font-family="sans-serif" font-size="14" lengthAdjust="spacing" textLength="154.6563" x="90.14" y="861.0889">is_constant (property)</text><g data-visibility-modifier="PUBLIC_METHOD"><ellipse cx="81.14" cy="874.0391" fill="#84BE84" rx="3" ry="3" style="stroke:#038048;stroke-width:1;"/></g><text fill="#000000" font-family="sans-serif" font-size="14" lengthAdjust="spacing" textLength="138.708" x="90.14" y="877.3857">is_empty (property)</text><g data-visibility-modifier="PUBLIC_METHOD"><ellipse cx="81.14" cy="890.3359" fill="#84BE84" rx="3" ry="3" style="stroke:#038048;stroke-width:1;"/></g><text fill="#000000" font-family="sans-serif" font-size="14" lengthAdjust="spacing" textLength="157.2129" x="90.14" y="893.6826">is_temporal (property)</text><g data-visibility-modifier="PUBLIC_METHOD"><ellipse cx="81.14" cy="906.6328" fill="#84BE84" rx="3" ry="3" style="stroke:#038048;stroke-width:1;"/></g><text fill="#000000" font-family="sans-serif" font-size="14" lengthAdjust="spacing" textLength="120.2373" x="90.14" y="909.9795">length (property)</text><g data-visibility-modifier="PUBLIC_METHOD"><ellipse cx="81.14" cy="922.9297" fill="#84BE84" rx="3" ry="3" style="stroke:#038048;stroke-width:1;"/></g><text fill="#000000" font-family="sans-serif" font-size="14" lengthAdjust="spacing" textLength="124.9814" x="90.14" y="926.2764">master (property)</text><g data-visibility-modifier="PUBLIC_METHOD"><ellipse cx="81.14" cy="939.2266" fill="#84BE84" rx="3" ry="3" style="stroke:#038048;stroke-width:1;"/></g><text fill="#000000" font-family="sans-serif" font-size="14" lengthAdjust="spacing" textLength="204.0527" x="90.14" y="942.5732">masters_recursive (property)</text><g data-visibility-modifier="PUBLIC_METHOD"><ellipse cx="81.14" cy="955.5234" fill="#84BE84" rx="3" ry="3" style="stroke:#038048;stroke-width:1;"/></g><text fill="#000000" font-family="sans-serif" font-size="14" lengthAdjust="spacing" textLength="154.5674" x="90.14" y="958.8701">n_accesses (property)</text><g data-visibility-modifier="PUBLIC_METHOD"><ellipse cx="81.14" cy="971.8203" fill="#84BE84" rx="3" ry="3" style="stroke:#038048;stroke-width:1;"/></g><text fill="#000000" font-family="sans-serif" font-size="14" lengthAdjust="spacing" textLength="121.8096" x="90.14" y="975.167">parent (property)</text><g data-visibility-modifier="PUBLIC_METHOD"><ellipse cx="81.14" cy="988.1172" fill="#84BE84" rx="3" ry="3" style="stroke:#038048;stroke-width:1;"/></g><text fill="#000000" font-family="sans-serif" font-size="14" lengthAdjust="spacing" textLength="154.8682" x="90.14" y="991.4639">rangeindex (property)</text><g data-visibility-modifier="PUBLIC_METHOD"><ellipse cx="81.14" cy="1004.4141" fill="#84BE84" rx="3" ry="3" style="stroke:#038048;stroke-width:1;"/></g><text fill="#000000" font-family="sans-serif" font-size="14" lengthAdjust="spacing" textLength="144.0605" x="90.14" y="1007.7607">read_only (property)</text><g data-visibility-modifier="PUBLIC_METHOD"><ellipse cx="81.14" cy="1020.7109" fill="#84BE84" rx="3" ry="3" style="stroke:#038048;stroke-width:1;"/></g><text fill="#000000" font-family="sans-serif" font-size="14" lengthAdjust="spacing" textLength="117.0723" x="90.14" y="1024.0576">series (property)</text><g data-visibility-modifier="PUBLIC_METHOD"><ellipse cx="81.14" cy="1037.0078" fill="#84BE84" rx="3" ry="3" style="stroke:#038048;stroke-width:1;"/></g><text fill="#000000" font-family="sans-serif" font-size="14" lengthAdjust="spacing" textLength="117.8584" x="90.14" y="1040.3545">shape (property)</text><g data-visibility-modifier="PUBLIC_METHOD"><ellipse cx="81.14" cy="1053.3047" fill="#84BE84" rx="3" ry="3" style="stroke:#038048;stroke-width:1;"/></g><text fill="#000000" font-family="sans-serif" font-size="14" lengthAdjust="spacing" textLength="158.5254" x="90.14" y="1056.6514">swap_mode (property)</text><g data-visibility-modifier="PUBLIC_METHOD"><ellipse cx="81.14" cy="1069.6016" fill="#84BE84" rx="3" ry="3" style="stroke:#038048;stroke-width:1;"/></g><text fill="#000000" font-family="sans-serif" font-size="14" lengthAdjust="spacing" textLength="145.79" x="90.14" y="1072.9482">timeindex (property)</text><g data-visibility-modifier="PUBLIC_METHOD"><ellipse cx="81.14" cy="1085.8984" fill="#84BE84" rx="3" ry="3" style="stroke:#038048;stroke-width:1;"/></g><text fill="#000000" font-family="sans-serif" font-size="14" lengthAdjust="spacing" textLength="148.7021" x="90.14" y="1089.2451">timeseries (property)</text><g data-visibility-modifier="PUBLIC_METHOD"><ellipse cx="81.14" cy="1102.1953" fill="#84BE84" rx="3" ry="3" style="stroke:#038048;stroke-width:1;"/></g><text fill="#000000" font-family="sans-serif" font-size="14" lengthAdjust="spacing" textLength="149.4883" x="90.14" y="1105.542">timeshape (property)</text><g data-visibility-modifier="PUBLIC_METHOD"><ellipse cx="81.14" cy="1118.4922" fill="#84BE84" rx="3" ry="3" style="stroke:#038048;stroke-width:1;"/></g><text fill="#000000" font-family="sans-serif" font-size="14" lengthAdjust="spacing" textLength="145.4824" x="90.14" y="1121.8389">timevalue (property)</text><g data-visibility-modifier="PUBLIC_METHOD"><ellipse cx="81.14" cy="1134.7891" fill="#84BE84" rx="3" ry="3" style="stroke:#038048;stroke-width:1;"/></g><text fill="#000000" font-family="sans-serif" font-size="14" lengthAdjust="spacing" textLength="107.625" x="90.14" y="1138.1357">total (property)</text><g data-visibility-modifier="PUBLIC_METHOD"><ellipse cx="81.14" cy="1151.0859" fill="#84BE84" rx="3" ry="3" style="stroke:#038048;stroke-width:1;"/></g><text fill="#000000" font-family="sans-serif" font-size="14" lengthAdjust="spacing" textLength="113.8525" x="90.14" y="1154.4326">value (property)</text><line style="stroke:#181818;stroke-width:0.5;" x1="71.14" x2="604.8548" y1="1161.7344" y2="1161.7344"/><g data-visibility-modifier="PROTECTED_METHOD"><polygon fill="#FFFF44" points="81.14,1170.3828,85.14,1174.3828,81.14,1178.3828,77.14,1174.3828" style="stroke:#B38D22;stroke-width:1;"/></g><text fill="#000000" font-family="sans-serif" font-size="14" lengthAdjust="spacing" textLength="172.1152" x="90.14" y="1178.7295">__add(self, other, factor)</text><g data-visibility-modifier="PROTECTED_METHOD"><polygon fill="#FFFF44" points="81.14,1186.6797,85.14,1190.6797,81.14,1194.6797,77.14,1190.6797" style="stroke:#B38D22;stroke-width:1;"/></g><text fill="#000000" font-family="sans-serif" font-size="14" lengthAdjust="spacing" textLength="204.6953" x="90.14" y="1195.0264">_add_to_master(self, master)</text><g data-visibility-modifier="PROTECTED_METHOD"><polygon fill="#FFFF44" points="81.14,1202.9766,85.14,1206.9766,81.14,1210.9766,77.14,1206.9766" style="stroke:#B38D22;stroke-width:1;"/></g><text fill="#000000" font-family="sans-serif" font-size="14" lengthAdjust="spacing" textLength="237.624" x="90.14" y="1211.3232">_get(self, attribute, not_available)</text><g data-visibility-modifier="PROTECTED_METHOD"><polygon fill="#FFFF44" points="81.14,1219.2734,85.14,1223.2734,81.14,1227.2734,77.14,1223.2734" style="stroke:#B38D22;stroke-width:1;"/></g><text fill="#000000" font-family="sans-serif" font-size="14" lengthAdjust="spacing" textLength="114.0986" x="90.14" y="1227.6201">_get_series(self)</text><g data-visibility-modifier="PROTECTED_METHOD"><polygon fill="#FFFF44" points="81.14,1235.5703,85.14,1239.5703,81.14,1243.5703,77.14,1239.5703" style="stroke:#B38D22;stroke-width:1;"/></g><text fill="#000000" font-family="sans-serif" font-size="14" lengthAdjust="spacing" textLength="114.8848" x="90.14" y="1243.917">_get_shape(self)</text><g data-visibility-modifier="PROTECTED_METHOD"><polygon fill="#FFFF44" points="81.14,1251.8672,85.14,1255.8672,81.14,1259.8672,77.14,1255.8672" style="stroke:#B38D22;stroke-width:1;"/></g><text fill="#000000" font-family="sans-serif" font-size="14" lengthAdjust="spacing" textLength="193.9902" x="90.14" y="1260.2139">_is_available(self, attribute)</text><g data-visibility-modifier="PROTECTED_METHOD"><polygon fill="#FFFF44" points="81.14,1268.1641,85.14,1272.1641,81.14,1276.1641,77.14,1272.1641" style="stroke:#B38D22;stroke-width:1;"/></g><text fill="#000000" font-family="sans-serif" font-size="14" lengthAdjust="spacing" textLength="246.9277" x="90.14" y="1276.5107">_is_constrained_by(self, constraint)</text><g data-visibility-modifier="PROTECTED_METHOD"><polygon fill="#FFFF44" points="81.14,1284.4609,85.14,1288.4609,81.14,1292.4609,77.14,1288.4609" style="stroke:#B38D22;stroke-width:1;"/></g><text fill="#000000" font-family="sans-serif" font-size="14" lengthAdjust="spacing" textLength="72.5703" x="90.14" y="1292.8076">_load(self)</text><g data-visibility-modifier="PROTECTED_METHOD"><polygon fill="#FFFF44" points="81.14,1300.7578,85.14,1304.7578,81.14,1308.7578,77.14,1304.7578" style="stroke:#B38D22;stroke-width:1;"/></g><text fill="#000000" font-family="sans-serif" font-size="14" lengthAdjust="spacing" textLength="223.5625" x="90.14" y="1309.1045">_remove_client(self, timeseries)</text><g data-visibility-modifier="PROTECTED_METHOD"><polygon fill="#FFFF44" points="81.14,1317.0547,85.14,1321.0547,81.14,1325.0547,77.14,1321.0547" style="stroke:#B38D22;stroke-width:1;"/></g><text fill="#000000" font-family="sans-serif" font-size="14" lengthAdjust="spacing" textLength="214.1563" x="90.14" y="1325.4014">_remove_series_from_hdf(self)</text><g data-visibility-modifier="PROTECTED_METHOD"><polygon fill="#FFFF44" points="81.14,1333.3516,85.14,1337.3516,81.14,1341.3516,77.14,1337.3516" style="stroke:#B38D22;stroke-width:1;"/></g><text fill="#000000" font-family="sans-serif" font-size="14" lengthAdjust="spacing" textLength="193.457" x="90.14" y="1341.6982">_reset_access_counter(self)</text><g data-visibility-modifier="PROTECTED_METHOD"><polygon fill="#FFFF44" points="81.14,1349.6484,85.14,1353.6484,81.14,1357.6484,77.14,1353.6484" style="stroke:#B38D22;stroke-width:1;"/></g><text fill="#000000" font-family="sans-serif" font-size="14" lengthAdjust="spacing" textLength="455.7041" x="90.14" y="1357.9951">_series_from_compressed_blob(blob, dtype, length, compressed)</text><g data-visibility-modifier="PROTECTED_METHOD"><polygon fill="#FFFF44" points="81.14,1365.9453,85.14,1369.9453,81.14,1373.9453,77.14,1369.9453" style="stroke:#B38D22;stroke-width:1;"/></g><text fill="#000000" font-family="sans-serif" font-size="14" lengthAdjust="spacing" textLength="153.6855" x="90.14" y="1374.292">_series_from_hdf(self)</text><g data-visibility-modifier="PROTECTED_METHOD"><polygon fill="#FFFF44" points="81.14,1382.2422,85.14,1386.2422,81.14,1390.2422,77.14,1386.2422" style="stroke:#B38D22;stroke-width:1;"/></g><text fill="#000000" font-family="sans-serif" font-size="14" lengthAdjust="spacing" textLength="284.9971" x="90.14" y="1390.5889">_series_to_compressed_blob(self, series)</text><g data-visibility-modifier="PROTECTED_METHOD"><polygon fill="#FFFF44" points="81.14,1398.5391,85.14,1402.5391,81.14,1406.5391,77.14,1402.5391" style="stroke:#B38D22;stroke-width:1;"/></g><text fill="#000000" font-family="sans-serif" font-size="14" lengthAdjust="spacing" textLength="185.2129" x="90.14" y="1406.8857">_series_to_hdf(self, series)</text><g data-visibility-modifier="PROTECTED_METHOD"><polygon fill="#FFFF44" points="81.14,1414.8359,85.14,1418.8359,81.14,1422.8359,77.14,1418.8359" style="stroke:#B38D22;stroke-width:1;"/></g><text fill="#000000" font-family="sans-serif" font-size="14" lengthAdjust="spacing" textLength="235.6143" x="90.14" y="1423.1826">_series_to_timeseries(self, series)</text><g data-visibility-modifier="PROTECTED_METHOD"><polygon fill="#FFFF44" points="81.14,1431.1328,85.14,1435.1328,81.14,1439.1328,77.14,1435.1328" style="stroke:#B38D22;stroke-width:1;"/></g><text fill="#000000" font-family="sans-serif" font-size="14" lengthAdjust="spacing" textLength="181.1523" x="90.14" y="1439.4795">_set(self, attribute, value)</text><g data-visibility-modifier="PROTECTED_METHOD"><polygon fill="#FFFF44" points="81.14,1447.4297,85.14,1451.4297,81.14,1455.4297,77.14,1451.4297" style="stroke:#B38D22;stroke-width:1;"/></g><text fill="#000000" font-family="sans-serif" font-size="14" lengthAdjust="spacing" textLength="509.7148" x="90.14" y="1455.7764">_set_constraints(self, total, shape, series, fix, timeindex, master, parent)</text><g data-visibility-modifier="PROTECTED_METHOD"><polygon fill="#FFFF44" points="81.14,1463.7266,85.14,1467.7266,81.14,1471.7266,77.14,1467.7266" style="stroke:#B38D22;stroke-width:1;"/></g><text fill="#000000" font-family="sans-serif" font-size="14" lengthAdjust="spacing" textLength="172.3408" x="90.14" y="1472.0732">_set_parent(self, parent)</text><g data-visibility-modifier="PROTECTED_METHOD"><polygon fill="#FFFF44" points="81.14,1480.0234,85.14,1484.0234,81.14,1488.0234,77.14,1484.0234" style="stroke:#B38D22;stroke-width:1;"/></g><text fill="#000000" font-family="sans-serif" font-size="14" lengthAdjust="spacing" textLength="162.8662" x="90.14" y="1488.3701">_set_series(self, series)</text><g data-visibility-modifier="PROTECTED_METHOD"><polygon fill="#FFFF44" points="81.14,1496.3203,85.14,1500.3203,81.14,1504.3203,77.14,1500.3203" style="stroke:#B38D22;stroke-width:1;"/></g><text fill="#000000" font-family="sans-serif" font-size="14" lengthAdjust="spacing" textLength="164.4385" x="90.14" y="1504.667">_set_shape(self, shape)</text><g data-visibility-modifier="PROTECTED_METHOD"><polygon fill="#FFFF44" points="81.14,1512.6172,85.14,1516.6172,81.14,1520.6172,77.14,1516.6172" style="stroke:#B38D22;stroke-width:1;"/></g><text fill="#000000" font-family="sans-serif" font-size="14" lengthAdjust="spacing" textLength="78.8594" x="90.14" y="1520.9639">_swap(self)</text><g data-visibility-modifier="PUBLIC_METHOD"><ellipse cx="81.14" cy="1533.9141" fill="#84BE84" rx="3" ry="3" style="stroke:#038048;stroke-width:1;"/></g><text fill="#000000" font-family="sans-serif" font-size="14" lengthAdjust="spacing" textLength="154.8066" x="90.14" y="1537.2607">add_client(self, client)</text><g data-visibility-modifier="PUBLIC_METHOD"><ellipse cx="81.14" cy="1550.2109" fill="#84BE84" rx="3" ry="3" style="stroke:#038048;stroke-width:1;"/></g><text fill="#000000" font-family="sans-serif" font-size="14" lengthAdjust="spacing" textLength="197.6953" x="90.14" y="1553.5576">add_to_master(self, master)</text><g data-visibility-modifier="PUBLIC_METHOD"><ellipse cx="81.14" cy="1566.5078" fill="#84BE84" rx="3" ry="3" style="stroke:#038048;stroke-width:1;"/></g><text fill="#000000" font-family="sans-serif" font-size="14" lengthAdjust="spacing" textLength="69.084" x="90.14" y="1569.8545">copy(self)</text><g data-visibility-modifier="PUBLIC_METHOD"><ellipse cx="81.14" cy="1582.8047" fill="#84BE84" rx="3" ry="3" style="stroke:#038048;stroke-width:1;"/></g><text fill="#000000" font-family="sans-serif" font-size="14" lengthAdjust="spacing" textLength="216.6787" x="90.14" y="1586.1514">create_client(self, total, factor)</text><g data-visibility-modifier="PUBLIC_METHOD"><ellipse cx="81.14" cy="1599.1016" fill="#84BE84" rx="3" ry="3" style="stroke:#038048;stroke-width:1;"/></g><text fill="#000000" font-family="sans-serif" font-size="14" lengthAdjust="spacing" textLength="127.9824" x="90.14" y="1602.4482">equals(self, other)</text><g data-visibility-modifier="PUBLIC_METHOD"><ellipse cx="81.14" cy="1615.3984" fill="#84BE84" rx="3" ry="3" style="stroke:#038048;stroke-width:1;"/></g><text fill="#000000" font-family="sans-serif" font-size="14" lengthAdjust="spacing" textLength="66.1514" x="90.14" y="1618.7451">max(self)</text><g data-visibility-modifier="PUBLIC_METHOD"><ellipse cx="81.14" cy="1631.6953" fill="#84BE84" rx="3" ry="3" style="stroke:#038048;stroke-width:1;"/></g><text fill="#000000" font-family="sans-serif" font-size="14" lengthAdjust="spacing" textLength="75.3525" x="90.14" y="1635.042">mean(self)</text><g data-visibility-modifier="PUBLIC_METHOD"><ellipse cx="81.14" cy="1647.9922" fill="#84BE84" rx="3" ry="3" style="stroke:#038048;stroke-width:1;"/></g><text fill="#000000" font-family="sans-serif" font-size="14" lengthAdjust="spacing" textLength="62.0498" x="90.14" y="1651.3389">min(self)</text><g data-visibility-modifier="PUBLIC_METHOD"><ellipse cx="81.14" cy="1664.2891" fill="#84BE84" rx="3" ry="3" style="stroke:#038048;stroke-width:1;"/></g><text fill="#000000" font-family="sans-serif" font-size="14" lengthAdjust="spacing" textLength="181.9248" x="90.14" y="1667.6357">remove_client(self, client)</text><g data-visibility-modifier="PUBLIC_METHOD"><ellipse cx="81.14" cy="1680.5859" fill="#84BE84" rx="3" ry="3" style="stroke:#038048;stroke-width:1;"/></g><text fill="#000000" font-family="sans-serif" font-size="14" lengthAdjust="spacing" textLength="185.377" x="90.14" y="1683.9326">remove_from_master(self)</text><g data-visibility-modifier="PUBLIC_METHOD"><ellipse cx="81.14" cy="1696.8828" fill="#84BE84" rx="3" ry="3" style="stroke:#038048;stroke-width:1;"/></g><text fill="#000000" font-family="sans-serif" font-size="14" lengthAdjust="spacing" textLength="227.2197" x="90.14" y="1700.2295">set_shape_or_series(self, shape)</text><g data-visibility-modifier="PUBLIC_METHOD"><ellipse cx="81.14" cy="1713.1797" fill="#84BE84" rx="3" ry="3" style="stroke:#038048;stroke-width:1;"/></g><text fill="#000000" font-family="sans-serif" font-size="14" lengthAdjust="spacing" textLength="242.5117" x="90.14" y="1716.5264">set_swap_mode_from_branch(self)</text><g data-visibility-modifier="PUBLIC_METHOD"><ellipse cx="81.14" cy="1729.4766" fill="#84BE84" rx="3" ry="3" style="stroke:#038048;stroke-width:1;"/></g><text fill="#000000" font-family="sans-serif" font-size="14" lengthAdjust="spacing" textLength="322.1094" x="90.14" y="1732.8232">set_timeshape_or_timeseries(self, timeshape)</text><g data-visibility-modifier="PUBLIC_METHOD"><ellipse cx="81.14" cy="1745.7734" fill="#84BE84" rx="3" ry="3" style="stroke:#038048;stroke-width:1;"/></g><text fill="#000000" font-family="sans-serif" font-size="14" lengthAdjust="spacing" textLength="194.2227" x="90.14" y="1749.1201">to_compressed_record(self)</text></g><!--class Identified--><g class="entity" data-qualified-name="odeon.model.base.Identified" data-source-line="96" id="ent0006"><rect fill="#F1F1F1" height="48" rx="2.5" ry="2.5" style="stroke:#181818;stroke-width:0.5;" width="98.1992" x="288.9" y="127"/><ellipse cx="303.9" cy="143" fill="#ADD1B2" rx="11" ry="11" style="stroke:#181818;stroke-width:1;"/><path d="M306.8688,148.6406 Q306.2906,148.9375 305.65,149.0781 Q305.0094,149.2344 304.3063,149.2344 Q301.8063,149.2344 300.4781,147.5938 Q299.1656,145.9375 299.1656,142.8125 Q299.1656,139.6875 300.4781,138.0313 Q301.8063,136.375 304.3063,136.375 Q305.0094,136.375 305.65,136.5313 Q306.3063,136.6875 306.8688,136.9844 L306.8688,139.7031 Q306.2438,139.125 305.65,138.8594 Q305.0563,138.5781 304.4313,138.5781 Q303.0875,138.5781 302.4,139.6563 Q301.7125,140.7188 301.7125,142.8125 Q301.7125,144.9063 302.4,145.9844 Q303.0875,147.0469 304.4313,147.0469 Q305.0563,147.0469 305.65,146.7813 Q306.2438,146.5 306.8688,145.9219 L306.8688,148.6406 Z " fill="#000000"/><text fill="#000000" font-family="sans-serif" font-size="14" lengthAdjust="spacing" textLength="66.1992" x="317.9" y="147.8467">Identified</text><line style="stroke:#181818;stroke-width:0.5;" x1="289.9" x2="386.0992" y1="159" y2="159"/><line style="stroke:#181818;stroke-width:0.5;" x1="289.9" x2="386.0992" y1="167" y2="167"/></g><!--reverse link Identified to Temporal--><g class="link" data-entity-1="ent0006" data-entity-2="ent0002" data-link-type="extension" data-source-line="96" id="lnk8"><path codeLine="96" d="M338,193.18 C338,210.21 338,217.91 338,249.84" fill="none" id="Identified-backto-Temporal" style="stroke:#181818;stroke-width:1;"/><polygon fill="none" points="338,175.18,332,193.18,344,193.18,338,175.18" style="stroke:#181818;stroke-width:1;"/></g><?plantuml-src ZLLDRniX4Btlhq3AeR7ix0-mUeaKIusKnb4SgUe9iJ2sgLZO0dPjDVtlXONzPjDUxDqtZm7Ul9dzX1G39VFI_OdSGbafJKIMKK6CISRoj_Y0VcStUFUsVTtWtPVxbyqQ5Kg93jkyFcvsBVYwkN_0s-Udxntjs_qB_hfzS0kVk0M_xGqslqXL0Mj94XDAmHWmQyIbzGpG70oMIa9atU48hb5592Ccfqf37h1yL_-XT_JiLjJS8wdWFwWts2fBn1h9Krc0Dlbp_T-5z_mo7xIy12uPN8OxrP3RYX4BdcBoX_Zqw2FT-efea7OzA4513EJRuWTGsn5BOfnuwt_KggLJmLrU9vNWnijPSZb_YP9ySCCIo0TBgPB6QiBhlHYdDilpR5be8kaHtLPQLQ3jTP4juu5I6DP0JzhmCmoYJlV1-v4Od4ZiuLHoZwTI124dS2Z410wMcSBUN1EqDKCoCfEg3gNJULyEK6w2u6HqKeSx1zZh66mCCi05o8CTQfZG941pjUdwTG0dH7G5EoH4qK0OLb8CZvoGQ2gDdntODy00JMi_etjQSu-UYJYDq4aL9XoCNITWmjYj0R5V8MMFe5TeJwXLUk5YBkIg6QqNIU75HmzW8qQirRmuMLWXgImcPy85AGH4LdHZJMuXVuqMSJLl5urpndZRiS1mSOsaheqzIoZ2sfGQIdM6s6AHtidQOyI9lTUgn4UsxoKmxfp1BsxtasmqM7HZlbv4LLbfRoftCA6AM_-pGinUAwT7SAq_QKCQB-_l6N6d-JXfk41t-8xPh4z7koidI8dwrIQ9qVwKR1Jqhd99VFMQNCun_1B4hPtSU6I5GbyrsS9RJ3GCpP-mPvIuxI9-XwDeIs_IGPN3IupCsNT9LNLjKb3NrdRibN3JfXcMyFD4XEbtIZrjBaqE_xrfdtdxcB9XUy0Oh6tGEsKzKUBDiT8ZTO86WT6Cb90YV6NwATg1uTDChD16wt7HjvoRdaetlVGdctpb7vcx0DzpOEZp-ztTnr_tlm00?></g></svg>