<?plantuml 1.2026.2beta3?><svg xmlns="http://www.w3.org/2000/svg" xmlns:xlink="http://www.w3.org/1999/xlink" contentStyleType="text/css" data-diagram-type="CLASS" height="787px" preserveAspectRatio="none" style="width:814px;height:787px;background:#FFFFFF;" version="1.1" viewBox="0 0 814 787" width="814px" zoomAndPan="magnify"><defs/><g><!--cluster odeon--><g class="cluster" data-qualified-name="odeon" data-source-line="3" id="ent0003"><path d="M8.5,6 L58.2197,6 A3.75,3.75 0 0 1 60.7197,8.5 L67.7197,28.2969 L804.5,28.2969 A2.5,2.5 0 0 1 807,30.7969 L807,777.77 A2.5,2.5 0 0 1 804.5,780.27 L8.5,780.27 A2.5,2.5 0 0 1 6,777.77 L6,8.5 A2.5,2.5 0 0 1 8.5,6" fill="none" style="stroke:#000000;stroke-width:1.5;"/><line style="stroke:#000000;stroke-width:1.5;" x1="6" x2="67.7197" y1="28.2969" y2="28.2969"/><text fill="#000000" font-family="sans-serif" font-size="14" font-weight="bold" lengthAdjust="spacing" textLength="48.7197" x="10" y="20.9951">odeon</text></g><!--cluster model--><g class="cluster" data-qualified-name="odeon.model" data-source-line="3" id="ent0004"><path d="M32.5,49 L82.0215,49 A3.75,3.75 0 0 1 84.5215,51.5 L91.5215,71.2969 L780.5,71.2969 A2.5,2.5 0 0 1 783,73.7969 L783,753.77 A2.5,2.5 0 0 1 780.5,756.27 L32.5,756.27 A2.5,2.5 0 0 1 30,753.77 L30,51.5 A2.5,2.5 0 0 1 32.5,49" fill="none" style="stroke:#000000;stroke-width:1.5;"/><line style="stroke:#000000;stroke-width:1.5;" x1="30" x2="91.5215" y1="71.2969" y2="71.2969"/><text fill="#000000" font-family="sans-serif" font-size="14" font-weight="bold" lengthAdjust="spacing" textLength="48.5215" x="34" y="63.9951">model</text></g><!--cluster waters--><g class="cluster" data-qualified-name="odeon.model.waters" data-source-line="3" id="ent0005"><path d="M56.5,215 L111.3057,215 A3.75,3.75 0 0 1 113.8057,217.5 L120.8057,237.2969 L743.5,237.2969 A2.5,2.5 0 0 1 746,239.7969 L746,606.77 A2.5,2.5 0 0 1 743.5,609.27 L56.5,609.27 A2.5,2.5 0 0 1 54,606.77 L54,217.5 A2.5,2.5 0 0 1 56.5,215" fill="none" style="stroke:#000000;stroke-width:1.5;"/><line style="stroke:#000000;stroke-width:1.5;" x1="54" x2="120.8057" y1="237.2969" y2="237.2969"/><text fill="#000000" font-family="sans-serif" font-size="14" font-weight="bold" lengthAdjust="spacing" textLength="53.8057" x="58" y="229.9951">waters</text></g><!--cluster geometry--><g class="cluster" data-qualified-name="odeon.model.geometry" data-source-line="14" id="ent0009"><path d="M509.5,633.27 L586.4404,633.27 A3.75,3.75 0 0 1 588.9404,635.77 L595.9404,655.5669 L638.5,655.5669 A2.5,2.5 0 0 1 641,658.0669 L641,729.77 A2.5,2.5 0 0 1 638.5,732.27 L509.5,732.27 A2.5,2.5 0 0 1 507,729.77 L507,635.77 A2.5,2.5 0 0 1 509.5,633.27" fill="none" style="stroke:#000000;stroke-width:1.5;"/><line style="stroke:#000000;stroke-width:1.5;" x1="507" x2="595.9404" y1="655.5669" y2="655.5669"/><text fill="#000000" font-family="sans-serif" font-size="14" font-weight="bold" lengthAdjust="spacing" textLength="75.9404" x="511" y="648.2651">geometry</text></g><!--cluster base--><g class="cluster" data-qualified-name="odeon.model.base" data-source-line="31" id="ent0015"><path d="M521.5,92 L559.7969,92 A3.75,3.75 0 0 1 562.2969,94.5 L569.2969,114.2969 L626.5,114.2969 A2.5,2.5 0 0 1 629,116.7969 L629,188.5 A2.5,2.5 0 0 1 626.5,191 L521.5,191 A2.5,2.5 0 0 1 519,188.5 L519,94.5 A2.5,2.5 0 0 1 521.5,92" fill="none" style="stroke:#000000;stroke-width:1.5;"/><line style="stroke:#000000;stroke-width:1.5;" x1="519" x2="569.2969" y1="114.2969" y2="114.2969"/><text fill="#000000" font-family="sans-serif" font-size="14" font-weight="bold" lengthAdjust="spacing" textLength="37.2969" x="523" y="106.9951">base</text></g><!--class Lake--><g class="entity" data-qualified-name="odeon.model.waters.Lake" data-source-line="3" id="ent0002"><rect fill="#F1F1F1" height="153.7813" rx="2.5" ry="2.5" style="stroke:#181818;stroke-width:0.5;" width="312.5283" x="69.74" y="439.49"/><ellipse cx="205.2044" cy="455.49" fill="#ADD1B2" rx="11" ry="11" style="stroke:#181818;stroke-width:1;"/><path d="M208.1731,461.1306 Q207.595,461.4275 206.9544,461.5681 Q206.3137,461.7244 205.6106,461.7244 Q203.1106,461.7244 201.7825,460.0838 Q200.47,458.4275 200.47,455.3025 Q200.47,452.1775 201.7825,450.5213 Q203.1106,448.865 205.6106,448.865 Q206.3137,448.865 206.9544,449.0213 Q207.6106,449.1775 208.1731,449.4744 L208.1731,452.1931 Q207.5481,451.615 206.9544,451.3494 Q206.3606,451.0681 205.7356,451.0681 Q204.3919,451.0681 203.7044,452.1463 Q203.0169,453.2088 203.0169,455.3025 Q203.0169,457.3963 203.7044,458.4744 Q204.3919,459.5369 205.7356,459.5369 Q206.3606,459.5369 206.9544,459.2713 Q207.5481,458.99 208.1731,458.4119 L208.1731,461.1306 Z " fill="#000000"/><text fill="#000000" font-family="sans-serif" font-size="14" lengthAdjust="spacing" textLength="33.0996" x="225.7044" y="460.3367">Lake</text><line style="stroke:#181818;stroke-width:0.5;" x1="70.74" x2="381.2683" y1="471.49" y2="471.49"/><g data-visibility-modifier="PUBLIC_FIELD"><ellipse cx="80.74" cy="485.1384" fill="none" rx="3" ry="3" style="stroke:#038048;stroke-width:1;"/></g><text fill="#000000" font-family="sans-serif" font-size="14" lengthAdjust="spacing" textLength="146.8223" x="89.74" y="488.4851">geometry: Geometry</text><g data-visibility-modifier="PUBLIC_FIELD"><ellipse cx="80.74" cy="501.4353" fill="none" rx="3" ry="3" style="stroke:#038048;stroke-width:1;"/></g><text fill="#000000" font-family="sans-serif" font-size="14" lengthAdjust="spacing" textLength="92.4834" x="89.74" y="504.782">volume: float</text><g data-visibility-modifier="PUBLIC_FIELD"><ellipse cx="80.74" cy="517.7322" fill="none" rx="3" ry="3" style="stroke:#038048;stroke-width:1;"/></g><text fill="#000000" font-family="sans-serif" font-size="14" lengthAdjust="spacing" textLength="118.8701" x="89.74" y="521.0789">max_depth: float</text><g data-visibility-modifier="PUBLIC_FIELD"><ellipse cx="80.74" cy="534.0291" fill="none" rx="3" ry="3" style="stroke:#038048;stroke-width:1;"/></g><text fill="#000000" font-family="sans-serif" font-size="14" lengthAdjust="spacing" textLength="286.5283" x="89.74" y="537.3757">specific_heat_capacity_kj_per_kg_k: float</text><g data-visibility-modifier="PUBLIC_FIELD"><ellipse cx="80.74" cy="550.3259" fill="none" rx="3" ry="3" style="stroke:#038048;stroke-width:1;"/></g><text fill="#000000" font-family="sans-serif" font-size="14" lengthAdjust="spacing" textLength="91.9502" x="89.74" y="553.6726">density: float</text><line style="stroke:#181818;stroke-width:1;stroke-dasharray:1,2;" x1="70.74" x2="381.2683" y1="560.9744" y2="560.9744"/><g data-visibility-modifier="PUBLIC_METHOD"><ellipse cx="80.74" cy="574.6228" fill="#84BE84" rx="3" ry="3" style="stroke:#038048;stroke-width:1;"/></g><text fill="#000000" font-family="sans-serif" font-size="14" lengthAdjust="spacing" textLength="212.9121" x="89.74" y="577.9695">energy_potential_kj (property)</text><line style="stroke:#181818;stroke-width:0.5;" x1="70.74" x2="381.2683" y1="585.2713" y2="585.2713"/></g><!--class Waters--><g class="entity" data-qualified-name="odeon.model.waters.Waters" data-source-line="13" id="ent0006"><rect fill="#F1F1F1" height="129.4844" rx="2.5" ry="2.5" style="stroke:#181818;stroke-width:0.5;" width="312.5283" x="417.74" y="250"/><ellipse cx="544.9671" cy="266" fill="#ADD1B2" rx="11" ry="11" style="stroke:#181818;stroke-width:1;"/><path d="M547.9358,271.6406 Q547.3577,271.9375 546.7171,272.0781 Q546.0764,272.2344 545.3733,272.2344 Q542.8733,272.2344 541.5452,270.5938 Q540.2327,268.9375 540.2327,265.8125 Q540.2327,262.6875 541.5452,261.0313 Q542.8733,259.375 545.3733,259.375 Q546.0764,259.375 546.7171,259.5313 Q547.3733,259.6875 547.9358,259.9844 L547.9358,262.7031 Q547.3108,262.125 546.7171,261.8594 Q546.1233,261.5781 545.4983,261.5781 Q544.1546,261.5781 543.4671,262.6563 Q542.7796,263.7188 542.7796,265.8125 Q542.7796,267.9063 543.4671,268.9844 Q544.1546,270.0469 545.4983,270.0469 Q546.1233,270.0469 546.7171,269.7813 Q547.3108,269.5 547.9358,268.9219 L547.9358,271.6406 Z " fill="#000000"/><text fill="#000000" font-family="sans-serif" font-size="14" lengthAdjust="spacing" textLength="49.5742" x="565.4671" y="270.8467">Waters</text><line style="stroke:#181818;stroke-width:0.5;" x1="418.74" x2="729.2683" y1="282" y2="282"/><g data-visibility-modifier="PUBLIC_FIELD"><ellipse cx="428.74" cy="295.6484" fill="none" rx="3" ry="3" style="stroke:#038048;stroke-width:1;"/></g><text fill="#000000" font-family="sans-serif" font-size="14" lengthAdjust="spacing" textLength="146.8223" x="437.74" y="298.9951">geometry: Geometry</text><g data-visibility-modifier="PUBLIC_FIELD"><ellipse cx="428.74" cy="311.9453" fill="none" rx="3" ry="3" style="stroke:#038048;stroke-width:1;"/></g><text fill="#000000" font-family="sans-serif" font-size="14" lengthAdjust="spacing" textLength="92.4834" x="437.74" y="315.292">volume: float</text><g data-visibility-modifier="PUBLIC_FIELD"><ellipse cx="428.74" cy="328.2422" fill="none" rx="3" ry="3" style="stroke:#038048;stroke-width:1;"/></g><text fill="#000000" font-family="sans-serif" font-size="14" lengthAdjust="spacing" textLength="118.8701" x="437.74" y="331.5889">max_depth: float</text><g data-visibility-modifier="PUBLIC_FIELD"><ellipse cx="428.74" cy="344.5391" fill="none" rx="3" ry="3" style="stroke:#038048;stroke-width:1;"/></g><text fill="#000000" font-family="sans-serif" font-size="14" lengthAdjust="spacing" textLength="286.5283" x="437.74" y="347.8857">specific_heat_capacity_kj_per_kg_k: float</text><g data-visibility-modifier="PUBLIC_FIELD"><ellipse cx="428.74" cy="360.8359" fill="none" rx="3" ry="3" style="stroke:#038048;stroke-width:1;"/></g><text fill="#000000" font-family="sans-serif" font-size="14" lengthAdjust="spacing" textLength="91.9502" x="437.74" y="364.1826">density: float</text><line style="stroke:#181818;stroke-width:0.5;" x1="418.74" x2="729.2683" y1="371.4844" y2="371.4844"/></g><!--class River--><g class="entity" data-qualified-name="odeon.model.waters.River" data-source-line="15" id="ent0011"><rect fill="#F1F1F1" height="129.4844" rx="2.5" ry="2.5" style="stroke:#181818;stroke-width:0.5;" width="312.5283" x="417.74" y="451.64"/><ellipse cx="551.6184" cy="467.64" fill="#ADD1B2" rx="11" ry="11" style="stroke:#181818;stroke-width:1;"/><path d="M554.5872,473.2806 Q554.009,473.5775 553.3684,473.7181 Q552.7278,473.8744 552.0247,473.8744 Q549.5247,473.8744 548.1965,472.2338 Q546.884,470.5775 546.884,467.4525 Q546.884,464.3275 548.1965,462.6713 Q549.5247,461.015 552.0247,461.015 Q552.7278,461.015 553.3684,461.1713 Q554.0247,461.3275 554.5872,461.6244 L554.5872,464.3431 Q553.9622,463.765 553.3684,463.4994 Q552.7747,463.2181 552.1497,463.2181 Q550.8059,463.2181 550.1184,464.2963 Q549.4309,465.3588 549.4309,467.4525 Q549.4309,469.5463 550.1184,470.6244 Q550.8059,471.6869 552.1497,471.6869 Q552.7747,471.6869 553.3684,471.4213 Q553.9622,471.14 554.5872,470.5619 L554.5872,473.2806 Z " fill="#000000"/><text fill="#000000" font-family="sans-serif" font-size="14" lengthAdjust="spacing" textLength="36.2715" x="572.1184" y="472.4867">River</text><line style="stroke:#181818;stroke-width:0.5;" x1="418.74" x2="729.2683" y1="483.64" y2="483.64"/><g data-visibility-modifier="PUBLIC_FIELD"><ellipse cx="428.74" cy="497.2884" fill="none" rx="3" ry="3" style="stroke:#038048;stroke-width:1;"/></g><text fill="#000000" font-family="sans-serif" font-size="14" lengthAdjust="spacing" textLength="146.8223" x="437.74" y="500.6351">geometry: Geometry</text><g data-visibility-modifier="PUBLIC_FIELD"><ellipse cx="428.74" cy="513.5853" fill="none" rx="3" ry="3" style="stroke:#038048;stroke-width:1;"/></g><text fill="#000000" font-family="sans-serif" font-size="14" lengthAdjust="spacing" textLength="92.4834" x="437.74" y="516.932">volume: float</text><g data-visibility-modifier="PUBLIC_FIELD"><ellipse cx="428.74" cy="529.8822" fill="none" rx="3" ry="3" style="stroke:#038048;stroke-width:1;"/></g><text fill="#000000" font-family="sans-serif" font-size="14" lengthAdjust="spacing" textLength="118.8701" x="437.74" y="533.2289">max_depth: float</text><g data-visibility-modifier="PUBLIC_FIELD"><ellipse cx="428.74" cy="546.1791" fill="none" rx="3" ry="3" style="stroke:#038048;stroke-width:1;"/></g><text fill="#000000" font-family="sans-serif" font-size="14" lengthAdjust="spacing" textLength="286.5283" x="437.74" y="549.5257">specific_heat_capacity_kj_per_kg_k: float</text><g data-visibility-modifier="PUBLIC_FIELD"><ellipse cx="428.74" cy="562.4759" fill="none" rx="3" ry="3" style="stroke:#038048;stroke-width:1;"/></g><text fill="#000000" font-family="sans-serif" font-size="14" lengthAdjust="spacing" textLength="91.9502" x="437.74" y="565.8226">density: float</text><line style="stroke:#181818;stroke-width:0.5;" x1="418.74" x2="729.2683" y1="573.1244" y2="573.1244"/></g><!--class Geometry--><g class="entity" data-qualified-name="odeon.model.geometry.Geometry" data-source-line="14" id="ent0008"><rect fill="#F1F1F1" height="48" rx="2.5" ry="2.5" style="stroke:#181818;stroke-width:0.5;" width="101.8086" x="523.1" y="668.27"/><ellipse cx="538.1" cy="684.27" fill="#ADD1B2" rx="11" ry="11" style="stroke:#181818;stroke-width:1;"/><path d="M541.0688,689.9106 Q540.4906,690.2075 539.85,690.3481 Q539.2094,690.5044 538.5063,690.5044 Q536.0063,690.5044 534.6781,688.8638 Q533.3656,687.2075 533.3656,684.0825 Q533.3656,680.9575 534.6781,679.3013 Q536.0063,677.645 538.5063,677.645 Q539.2094,677.645 539.85,677.8013 Q540.5063,677.9575 541.0688,678.2544 L541.0688,680.9731 Q540.4438,680.395 539.85,680.1294 Q539.2563,679.8481 538.6313,679.8481 Q537.2875,679.8481 536.6,680.9263 Q535.9125,681.9888 535.9125,684.0825 Q535.9125,686.1763 536.6,687.2544 Q537.2875,688.3169 538.6313,688.3169 Q539.2563,688.3169 539.85,688.0513 Q540.4438,687.77 541.0688,687.1919 L541.0688,689.9106 Z " fill="#000000"/><text fill="#000000" font-family="sans-serif" font-size="14" lengthAdjust="spacing" textLength="69.8086" x="552.1" y="689.1167">Geometry</text><line style="stroke:#181818;stroke-width:0.5;" x1="524.1" x2="623.9086" y1="700.27" y2="700.27"/><line style="stroke:#181818;stroke-width:0.5;" x1="524.1" x2="623.9086" y1="708.27" y2="708.27"/></g><!--class Object--><g class="entity" data-qualified-name="odeon.model.base.Object" data-source-line="31" id="ent0014"><rect fill="#F1F1F1" height="48" rx="2.5" ry="2.5" style="stroke:#181818;stroke-width:0.5;" width="77.5957" x="535.2" y="127"/><ellipse cx="550.2" cy="143" fill="#ADD1B2" rx="11" ry="11" style="stroke:#181818;stroke-width:1;"/><path d="M553.1688,148.6406 Q552.5906,148.9375 551.95,149.0781 Q551.3094,149.2344 550.6063,149.2344 Q548.1063,149.2344 546.7781,147.5938 Q545.4656,145.9375 545.4656,142.8125 Q545.4656,139.6875 546.7781,138.0313 Q548.1063,136.375 550.6063,136.375 Q551.3094,136.375 551.95,136.5313 Q552.6063,136.6875 553.1688,136.9844 L553.1688,139.7031 Q552.5438,139.125 551.95,138.8594 Q551.3563,138.5781 550.7313,138.5781 Q549.3875,138.5781 548.7,139.6563 Q548.0125,140.7188 548.0125,142.8125 Q548.0125,144.9063 548.7,145.9844 Q549.3875,147.0469 550.7313,147.0469 Q551.3563,147.0469 551.95,146.7813 Q552.5438,146.5 553.1688,145.9219 L553.1688,148.6406 Z " fill="#000000"/><text fill="#000000" font-family="sans-serif" font-size="14" lengthAdjust="spacing" textLength="45.5957" x="564.2" y="147.8467">Object</text><line style="stroke:#181818;stroke-width:0.5;" x1="536.2" x2="611.7957" y1="159" y2="159"/><line style="stroke:#181818;stroke-width:0.5;" x1="536.2" x2="611.7957" y1="167" y2="167"/></g><!--reverse link Waters to Lake--><g class="link" data-entity-1="ent0006" data-entity-2="ent0002" data-link-type="extension" data-source-line="13" id="lnk7"><path codeLine="13" d="M446.836,388.6955 C413.936,407.5655 393.21,419.46 359.1,439.03" fill="none" id="Waters-backto-Lake" style="stroke:#181818;stroke-width:1;"/><polygon fill="none" points="462.45,379.74,443.8508,383.4909,449.8211,393.9002,462.45,379.74" style="stroke:#181818;stroke-width:1;"/></g><!--reverse link Lake to Geometry--><g class="link" data-entity-1="ent0002" data-entity-2="ent0008" data-link-type="composition" data-source-line="14" id="lnk10"><path codeLine="14" d="M365.2965,599.3214 C380.4065,607.5914 385.19,609.9 400,617.27 C440.41,637.37 487.61,657.23 522.64,671.3" fill="none" id="Lake-backto-Geometry" style="stroke:#181818;stroke-width:1;"/><polygon fill="#181818" points="354.77,593.56,358.1128,599.9495,365.2965,599.3214,361.9537,592.9318,354.77,593.56" style="stroke:#181818;stroke-width:1;"/></g><!--reverse link Waters to River--><g class="link" data-entity-1="ent0006" data-entity-2="ent0011" data-link-type="extension" data-source-line="22" id="lnk12"><path codeLine="22" d="M574,397.74 C574,420.66 574,428.49 574,451.41" fill="none" id="Waters-backto-River" style="stroke:#181818;stroke-width:1;"/><polygon fill="none" points="574,379.74,568,397.74,580,397.74,574,379.74" style="stroke:#181818;stroke-width:1;"/></g><!--reverse link River to Geometry--><g class="link" data-entity-1="ent0011" data-entity-2="ent0008" data-link-type="composition" data-source-line="23" id="lnk13"><path codeLine="23" d="M574,593.14 C574,623.38 574,645.66 574,667.83" fill="none" id="River-backto-Geometry" style="stroke:#181818;stroke-width:1;"/><polygon fill="#181818" points="574,581.14,570,587.14,574,593.14,578,587.14,574,581.14" style="stroke:#181818;stroke-width:1;"/></g><!--reverse link Object to Waters--><g class="link" data-entity-1="ent0014" data-entity-2="ent0006" data-link-type="extension" data-source-line="31" id="lnk16"><path codeLine="31" d="M574,193.18 C574,212.66 574,223.45 574,249.76" fill="none" id="Object-backto-Waters" style="stroke:#181818;stroke-width:1;"/><polygon fill="none" points="574,175.18,568,193.18,580,193.18,574,175.18" style="stroke:#181818;stroke-width:1;"/></g><!--reverse link Waters to Geometry--><g class="link" data-entity-1="ent0006" data-entity-2="ent0008" data-link-type="composition" data-source-line="32" id="lnk17"><path codeLine="32" d="M706.1747,387.4235 C726.8047,403.9535 736.02,416.26 748,439.49 C784.23,509.71 791.59,551.37 748,617.27 C720.93,658.2 666.13,676.56 625.23,684.76" fill="none" id="Waters-backto-Geometry" style="stroke:#181818;stroke-width:1;"/><polygon fill="#181818" points="696.81,379.92,698.9912,386.7933,706.1747,387.4235,703.9935,380.5502,696.81,379.92" style="stroke:#181818;stroke-width:1;"/></g><?plantuml-src nP2_RW8n3CPtFqKsQ4_a0L1tbagLM1WjapD7kDmbIbpA2NXtJlov0H4gjGEJuzYV_7s_aV8b-rOtVN7wXuHZ0Z2EKdemqPzKizf3KR5lM68tLRFh2ugjTzyDJzNAUH8e6jfXoK7MmqyAREpA6bmp2HeAPAnqM6ymSCIwmdfOBRbD_UpMQmq5jnoh3eCNRiMIwtLg7ABljTAz0I8SuO7ZnRceZyDaaWi4kQ3lTvfRQZs4peAQsot75v3w2uEpLyY6-0U5w-5NOrXIOlsrtB2HB8IBrIVqViLm0W00?></g></svg>